<svg id="SvgjsSvg1006" width="621" height="409.5703125" xmlns="http://www.w3.org/2000/svg" version="1.1" xmlns:xlink="http://www.w3.org/1999/xlink" xmlns:svgjs="http://svgjs.com/svgjs"><defs id="SvgjsDefs1007"><marker id="SvgjsMarker1062" markerWidth="12" markerHeight="8" refX="9" refY="4" viewBox="0 0 12 8" orient="auto" markerUnits="userSpaceOnUse" stroke-dasharray="0,0"><path id="SvgjsPath1063" d="M0,0 L12,4 L0,8 L0,0" fill="#323232" stroke="#323232" stroke-width="1"></path></marker><marker id="SvgjsMarker1066" markerWidth="12" markerHeight="8" refX="9" refY="4" viewBox="0 0 12 8" orient="auto" markerUnits="userSpaceOnUse" stroke-dasharray="0,0"><path id="SvgjsPath1067" d="M0,0 L12,4 L0,8 L0,0" fill="#323232" stroke="#323232" stroke-width="1"></path></marker><marker id="SvgjsMarker1070" markerWidth="12" markerHeight="8" refX="9" refY="4" viewBox="0 0 12 8" orient="auto" markerUnits="userSpaceOnUse" stroke-dasharray="0,0"><path id="SvgjsPath1071" d="M0,0 L12,4 L0,8 L0,0" fill="#323232" stroke="#323232" stroke-width="1"></path></marker><marker id="SvgjsMarker1074" markerWidth="12" markerHeight="8" refX="9" refY="4" viewBox="0 0 12 8" orient="auto" markerUnits="userSpaceOnUse" stroke-dasharray="0,0"><path id="SvgjsPath1075" d="M0,0 L12,4 L0,8 L0,0" fill="#323232" stroke="#323232" stroke-width="1"></path></marker><marker id="SvgjsMarker1078" markerWidth="12" markerHeight="8" refX="9" refY="4" viewBox="0 0 12 8" orient="auto" markerUnits="userSpaceOnUse" stroke-dasharray="0,0"><path id="SvgjsPath1079" d="M0,0 L12,4 L0,8 L0,0" fill="#323232" stroke="#323232" stroke-width="1"></path></marker></defs><g id="SvgjsG1008" transform="translate(26,25.00617000034879)"><path id="SvgjsPath1009" d="M 0 0L 570 0L 570 110L 0 110Z" stroke="rgba(50,50,50,1)" stroke-width="1" fill-opacity="1" fill="#ffffff"></path><g id="SvgjsG1010"><text id="SvgjsText1011" font-family="&quot;Times New Roman&quot;" text-anchor="middle" font-size="13px" width="550px" fill="#323232" font-weight="400" align="middle" lineHeight="125%" anchor="middle" family="&quot;Times New Roman&quot;" size="13px" weight="400" font-style="" opacity="1" y="44.375" transform="rotate(0)"></text></g></g><g id="SvgjsG1012" transform="translate(101,70.00617000034879)"><path id="SvgjsPath1013" d="M 0 4Q 0 0 4 0L 116 0Q 120 0 120 4L 120 31Q 120 35 116 35L 4 35Q 0 35 0 31Z" stroke="rgba(50,50,50,1)" stroke-width="1" fill-opacity="1" fill="#cce5ff"></path><g id="SvgjsG1014"><text id="SvgjsText1015" font-family="&quot;Times New Roman&quot;" text-anchor="middle" font-size="13px" width="100px" fill="#323232" font-weight="400" align="middle" lineHeight="125%" anchor="middle" family="&quot;Times New Roman&quot;" size="13px" weight="400" font-style="" opacity="1" y="6.875" transform="rotate(0)"><tspan id="SvgjsTspan1016" dy="16" x="60"><tspan id="SvgjsTspan1017" style="text-decoration:;">GC Roots</tspan></tspan></text></g></g><g id="SvgjsG1018" transform="translate(26,25.00617000034879)"><path id="SvgjsPath1019" d="M 0 0L 570 0L 570 45L 0 45Z" stroke="none" fill="none"></path><g id="SvgjsG1020"><text id="SvgjsText1021" font-family="&quot;Times New Roman&quot;" text-anchor="middle" font-size="13px" width="570px" fill="#000000" font-weight="400" align="middle" lineHeight="125%" anchor="middle" family="&quot;Times New Roman&quot;" size="13px" weight="400" font-style="" opacity="1" y="11.875" transform="rotate(0)"><tspan id="SvgjsTspan1022" dy="16" x="285"><tspan id="SvgjsTspan1023" style="text-decoration:;">根节点集合</tspan></tspan></text></g></g><g id="SvgjsG1024" transform="translate(101,180.4405850001744)"><path id="SvgjsPath1025" d="M 0 4Q 0 0 4 0L 116 0Q 120 0 120 4L 120 31Q 120 35 116 35L 4 35Q 0 35 0 31Z" stroke="rgba(50,50,50,1)" stroke-width="1" fill-opacity="1" fill="#ffffff"></path><g id="SvgjsG1026"><text id="SvgjsText1027" font-family="&quot;Times New Roman&quot;" text-anchor="middle" font-size="13px" width="100px" fill="#323232" font-weight="400" align="middle" lineHeight="125%" anchor="middle" family="&quot;Times New Roman&quot;" size="13px" weight="400" font-style="" opacity="1" y="6.875" transform="rotate(0)"><tspan id="SvgjsTspan1028" dy="16" x="60"><tspan id="SvgjsTspan1029" style="text-decoration:;">Object 1</tspan></tspan></text></g></g><g id="SvgjsG1030" transform="translate(26,258.0061700003488)"><path id="SvgjsPath1031" d="M 0 4Q 0 0 4 0L 116 0Q 120 0 120 4L 120 31Q 120 35 116 35L 4 35Q 0 35 0 31Z" stroke="rgba(50,50,50,1)" stroke-width="1" fill-opacity="1" fill="#ffffff"></path><g id="SvgjsG1032"><text id="SvgjsText1033" font-family="&quot;Times New Roman&quot;" text-anchor="middle" font-size="13px" width="100px" fill="#323232" font-weight="400" align="middle" lineHeight="125%" anchor="middle" family="&quot;Times New Roman&quot;" size="13px" weight="400" font-style="" opacity="1" y="6.875" transform="rotate(0)"><tspan id="SvgjsTspan1034" dy="16" x="60"><tspan id="SvgjsTspan1035" style="text-decoration:;">Object 2</tspan></tspan></text></g></g><g id="SvgjsG1036" transform="translate(176,258.0061700003488)"><path id="SvgjsPath1037" d="M 0 4Q 0 0 4 0L 116 0Q 120 0 120 4L 120 31Q 120 35 116 35L 4 35Q 0 35 0 31Z" stroke="rgba(50,50,50,1)" stroke-width="1" fill-opacity="1" fill="#ffffff"></path><g id="SvgjsG1038"><text id="SvgjsText1039" font-family="&quot;Times New Roman&quot;" text-anchor="middle" font-size="13px" width="100px" fill="#323232" font-weight="400" align="middle" lineHeight="125%" anchor="middle" family="&quot;Times New Roman&quot;" size="13px" weight="400" font-style="" opacity="1" y="6.875" transform="rotate(0)"><tspan id="SvgjsTspan1040" dy="16" x="60"><tspan id="SvgjsTspan1041" style="text-decoration:;">Object 3</tspan></tspan></text></g></g><g id="SvgjsG1042" transform="translate(401,180.4405850001744)"><path id="SvgjsPath1043" d="M 0 4Q 0 0 4 0L 116 0Q 120 0 120 4L 120 31Q 120 35 116 35L 4 35Q 0 35 0 31Z" stroke="rgba(50,50,50,1)" stroke-width="1" fill-opacity="1" fill="#f5f5f5"></path><g id="SvgjsG1044"><text id="SvgjsText1045" font-family="&quot;Times New Roman&quot;" text-anchor="middle" font-size="13px" width="100px" fill="#323232" font-weight="400" align="middle" lineHeight="125%" anchor="middle" family="&quot;Times New Roman&quot;" size="13px" weight="400" font-style="" opacity="1" y="6.875" transform="rotate(0)"><tspan id="SvgjsTspan1046" dy="16" x="60"><tspan id="SvgjsTspan1047" style="text-decoration:;">Object 3</tspan></tspan></text></g></g><g id="SvgjsG1048" transform="translate(326,258.0061700003488)"><path id="SvgjsPath1049" d="M 0 4Q 0 0 4 0L 116 0Q 120 0 120 4L 120 31Q 120 35 116 35L 4 35Q 0 35 0 31Z" stroke="rgba(50,50,50,1)" stroke-width="1" fill-opacity="1" fill="#f5f5f5"></path><g id="SvgjsG1050"><text id="SvgjsText1051" font-family="&quot;Times New Roman&quot;" text-anchor="middle" font-size="13px" width="100px" fill="#323232" font-weight="400" align="middle" lineHeight="125%" anchor="middle" family="&quot;Times New Roman&quot;" size="13px" weight="400" font-style="" opacity="1" y="6.875" transform="rotate(0)"><tspan id="SvgjsTspan1052" dy="16" x="60"><tspan id="SvgjsTspan1053" style="text-decoration:;">Object 4</tspan></tspan></text></g></g><g id="SvgjsG1054" transform="translate(476,258.0061700003488)"><path id="SvgjsPath1055" d="M 0 4Q 0 0 4 0L 116 0Q 120 0 120 4L 120 31Q 120 35 116 35L 4 35Q 0 35 0 31Z" stroke="rgba(50,50,50,1)" stroke-width="1" fill-opacity="1" fill="#f5f5f5"></path><g id="SvgjsG1056"><text id="SvgjsText1057" font-family="&quot;Times New Roman&quot;" text-anchor="middle" font-size="13px" width="100px" fill="#323232" font-weight="400" align="middle" lineHeight="125%" anchor="middle" family="&quot;Times New Roman&quot;" size="13px" weight="400" font-style="" opacity="1" y="6.875" transform="rotate(0)"><tspan id="SvgjsTspan1058" dy="16" x="60"><tspan id="SvgjsTspan1059" style="text-decoration:;">Object 5</tspan></tspan></text></g></g><g id="SvgjsG1060"><path id="SvgjsPath1061" d="M161 105.50617000034879L161 142.72337750026156L161 142.72337750026156L161 178.64058500017438" stroke="#323232" stroke-width="1" fill="none" marker-end="url(#SvgjsMarker1062)"></path></g><g id="SvgjsG1064"><path id="SvgjsPath1065" d="M161 215.9405850001744L161 236.72337750026156L86 236.72337750026156L86 256.2061700003488" stroke="#323232" stroke-width="1" fill="none" marker-end="url(#SvgjsMarker1066)"></path></g><g id="SvgjsG1068"><path id="SvgjsPath1069" d="M161 215.9405850001744L161 236.72337750026156L236 236.72337750026156L236 256.2061700003488" stroke="#323232" stroke-width="1" fill="none" marker-end="url(#SvgjsMarker1070)"></path></g><g id="SvgjsG1072"><path id="SvgjsPath1073" d="M461 215.9405850001744L461 236.72337750026156L386 236.72337750026156L386 256.2061700003488" stroke="#323232" stroke-width="1" fill="none" marker-end="url(#SvgjsMarker1074)"></path></g><g id="SvgjsG1076"><path id="SvgjsPath1077" d="M461 215.9405850001744L461 236.72337750026156L536 236.72337750026156L536 256.2061700003488" stroke="#323232" stroke-width="1" fill="none" marker-end="url(#SvgjsMarker1078)"></path></g><g id="SvgjsG1080" transform="translate(111,349.5717550005231)"><path id="SvgjsPath1081" d="M 0 4Q 0 0 4 0L 31 0Q 35 0 35 4L 35 31Q 35 35 31 35L 4 35Q 0 35 0 31Z" stroke="rgba(50,50,50,1)" stroke-width="1" fill-opacity="1" fill="#ffffff"></path><g id="SvgjsG1082"><text id="SvgjsText1083" font-family="&quot;Times New Roman&quot;" text-anchor="middle" font-size="13px" width="15px" fill="#323232" font-weight="400" align="middle" lineHeight="125%" anchor="middle" family="&quot;Times New Roman&quot;" size="13px" weight="400" font-style="" opacity="1" y="6.875" transform="rotate(0)"></text></g></g><g id="SvgjsG1084" transform="translate(161,349.5717550005231)"><path id="SvgjsPath1085" d="M 0 0L 120 0L 120 35L 0 35Z" stroke="none" fill="none"></path><g id="SvgjsG1086"><text id="SvgjsText1087" font-family="&quot;Times New Roman&quot;" text-anchor="start" font-size="13px" width="120px" fill="#323232" font-weight="400" align="middle" lineHeight="125%" anchor="start" family="&quot;Times New Roman&quot;" size="13px" weight="400" font-style="" opacity="1" y="6.875" transform="rotate(0)"><tspan id="SvgjsTspan1088" dy="16" x="0"><tspan id="SvgjsTspan1089" style="text-decoration:;">仍然存活的对象</tspan></tspan></text></g></g><g id="SvgjsG1090" transform="translate(326,349.5717550005231)"><path id="SvgjsPath1091" d="M 0 4Q 0 0 4 0L 31 0Q 35 0 35 4L 35 31Q 35 35 31 35L 4 35Q 0 35 0 31Z" stroke="rgba(50,50,50,1)" stroke-width="1" fill-opacity="1" fill="#f5f5f5"></path><g id="SvgjsG1092"><text id="SvgjsText1093" font-family="&quot;Times New Roman&quot;" text-anchor="middle" font-size="13px" width="15px" fill="#323232" font-weight="400" align="middle" lineHeight="125%" anchor="middle" family="&quot;Times New Roman&quot;" size="13px" weight="400" font-style="" opacity="1" y="6.875" transform="rotate(0)"></text></g></g><g id="SvgjsG1094" transform="translate(376,349.5717550005231)"><path id="SvgjsPath1095" d="M 0 0L 120 0L 120 35L 0 35Z" stroke="none" fill="none"></path><g id="SvgjsG1096"><text id="SvgjsText1097" font-family="&quot;Times New Roman&quot;" text-anchor="middle" font-size="13px" width="120px" fill="#323232" font-weight="400" align="middle" lineHeight="125%" anchor="middle" family="&quot;Times New Roman&quot;" size="13px" weight="400" font-style="" opacity="1" y="6.875" transform="rotate(0)"><tspan id="SvgjsTspan1098" dy="16" x="60"><tspan id="SvgjsTspan1099" style="text-decoration:;">判断可以回收的对象</tspan></tspan></text></g></g><g id="SvgjsG1100"><path id="SvgjsPath1101" d="M25 156.875L310.5 156.875L310.5 156.875L596 156.875" stroke-dasharray="8,5" stroke="#323232" stroke-width="1" fill="none"></path></g></svg>