<svg id="SvgjsSvg1006" width="738" height="402" xmlns="http://www.w3.org/2000/svg" version="1.1" xmlns:xlink="http://www.w3.org/1999/xlink" xmlns:svgjs="http://svgjs.com/svgjs"><defs id="SvgjsDefs1007"></defs><g id="SvgjsG1008" transform="translate(25,25.00617000034879)"><path id="SvgjsPath1009" d="M 0 0L 688 0L 688 148.8688299996512L 0 148.8688299996512Z" stroke="rgba(50,50,50,1)" stroke-width="1" fill-opacity="1" fill="#ffffff"></path><g id="SvgjsG1010"><text id="SvgjsText1011" font-family="&quot;Times New Roman&quot;" text-anchor="middle" font-size="13px" width="668px" fill="#323232" font-weight="400" align="middle" lineHeight="125%" anchor="middle" family="&quot;Times New Roman&quot;" size="13px" weight="400" font-style="" opacity="1" y="63.809414999825606" transform="rotate(0)"></text></g></g><g id="SvgjsG1012" transform="translate(25,25.00617000034879)"><path id="SvgjsPath1013" d="M 0 0L 660 0L 660 60L 0 60Z" stroke="none" fill="none"></path><g id="SvgjsG1014"><text id="SvgjsText1015" font-family="&quot;Times New Roman&quot;" text-anchor="end" font-size="13px" width="660px" fill="#000000" font-weight="400" align="middle" lineHeight="125%" anchor="end" family="&quot;Times New Roman&quot;" size="13px" weight="400" font-style="" opacity="1" y="10.875" transform="rotate(0)"><tspan id="SvgjsTspan1016" dy="16" x="660"><tspan id="SvgjsTspan1017" style="text-decoration:;">新生代</tspan></tspan><tspan id="SvgjsTspan1018" dy="16" x="660"><tspan id="SvgjsTspan1019" style="text-decoration:;">Young Generation</tspan></tspan></text></g></g><g id="SvgjsG1020" transform="translate(55,101.00617000034879)"><path id="SvgjsPath1021" d="M 0 4Q 0 0 4 0L 116 0Q 120 0 120 4L 120 36Q 120 40 116 40L 4 40Q 0 40 0 36Z" stroke="rgba(50,50,50,1)" stroke-width="1" fill-opacity="1" fill="#cce5ff"></path><g id="SvgjsG1022"><text id="SvgjsText1023" font-family="&quot;Times New Roman&quot;" text-anchor="middle" font-size="12px" width="100px" fill="#323232" font-weight="400" align="middle" lineHeight="125%" anchor="middle" family="&quot;Times New Roman&quot;" size="12px" weight="400" font-style="" opacity="1" y="10" transform="rotate(0)"><tspan id="SvgjsTspan1024" dy="15" x="60"><tspan id="SvgjsTspan1025" style="text-decoration:;">Serial</tspan></tspan></text></g></g><g id="SvgjsG1026" transform="translate(205,101.00617000034879)"><path id="SvgjsPath1027" d="M 0 4Q 0 0 4 0L 116 0Q 120 0 120 4L 120 36Q 120 40 116 40L 4 40Q 0 40 0 36Z" stroke="rgba(50,50,50,1)" stroke-width="1" fill-opacity="1" fill="#cce5ff"></path><g id="SvgjsG1028"><text id="SvgjsText1029" font-family="&quot;Times New Roman&quot;" text-anchor="middle" font-size="12px" width="100px" fill="#323232" font-weight="400" align="middle" lineHeight="125%" anchor="middle" family="&quot;Times New Roman&quot;" size="12px" weight="400" font-style="" opacity="1" y="10" transform="rotate(0)"><tspan id="SvgjsTspan1030" dy="15" x="60"><tspan id="SvgjsTspan1031" style="text-decoration:;">ParNew</tspan></tspan></text></g></g><g id="SvgjsG1032" transform="translate(355,101.00617000034879)"><path id="SvgjsPath1033" d="M 0 4Q 0 0 4 0L 116 0Q 120 0 120 4L 120 36Q 120 40 116 40L 4 40Q 0 40 0 36Z" stroke="rgba(50,50,50,1)" stroke-width="1" fill-opacity="1" fill="#cce5ff"></path><g id="SvgjsG1034"><text id="SvgjsText1035" font-family="&quot;Times New Roman&quot;" text-anchor="middle" font-size="12px" width="100px" fill="#323232" font-weight="400" align="middle" lineHeight="125%" anchor="middle" family="&quot;Times New Roman&quot;" size="12px" weight="400" font-style="" opacity="1" y="10" transform="rotate(0)"><tspan id="SvgjsTspan1036" dy="15" x="60"><tspan id="SvgjsTspan1037" style="text-decoration:;">Parallel Scavenge</tspan></tspan></text></g></g><g id="SvgjsG1038" transform="translate(25,172.0061700003488)"><path id="SvgjsPath1039" d="M 0 0L 688 0L 688 148.8688299996512L 0 148.8688299996512Z" stroke="rgba(50,50,50,1)" stroke-width="1" fill-opacity="1" fill="#ffffff"></path><g id="SvgjsG1040"><text id="SvgjsText1041" font-family="&quot;Times New Roman&quot;" text-anchor="middle" font-size="13px" width="668px" fill="#323232" font-weight="400" align="middle" lineHeight="125%" anchor="middle" family="&quot;Times New Roman&quot;" size="13px" weight="400" font-style="" opacity="1" y="63.809414999825606" transform="rotate(0)"></text></g></g><g id="SvgjsG1042" transform="translate(55,205.0061700003488)"><path id="SvgjsPath1043" d="M 0 4Q 0 0 4 0L 116 0Q 120 0 120 4L 120 36Q 120 40 116 40L 4 40Q 0 40 0 36Z" stroke="rgba(50,50,50,1)" stroke-width="1" fill-opacity="1" fill="#cce5ff"></path><g id="SvgjsG1044"><text id="SvgjsText1045" font-family="&quot;Times New Roman&quot;" text-anchor="middle" font-size="12px" width="100px" fill="#323232" font-weight="400" align="middle" lineHeight="125%" anchor="middle" family="&quot;Times New Roman&quot;" size="12px" weight="400" font-style="" opacity="1" y="10" transform="rotate(0)"><tspan id="SvgjsTspan1046" dy="15" x="60"><tspan id="SvgjsTspan1047" style="text-decoration:;">CMS</tspan></tspan></text></g></g><g id="SvgjsG1048" transform="translate(205,205.0061700003488)"><path id="SvgjsPath1049" d="M 0 4Q 0 0 4 0L 116 0Q 120 0 120 4L 120 36Q 120 40 116 40L 4 40Q 0 40 0 36Z" stroke="rgba(50,50,50,1)" stroke-width="1" fill-opacity="1" fill="#cce5ff"></path><g id="SvgjsG1050"><text id="SvgjsText1051" font-family="&quot;Times New Roman&quot;" text-anchor="middle" font-size="12px" width="100px" fill="#323232" font-weight="400" align="middle" lineHeight="125%" anchor="middle" family="&quot;Times New Roman&quot;" size="12px" weight="400" font-style="" opacity="1" y="2.5" transform="rotate(0)"><tspan id="SvgjsTspan1052" dy="15" x="60"><tspan id="SvgjsTspan1053" style="text-decoration:;">Serial Old</tspan></tspan><tspan id="SvgjsTspan1054" dy="15" x="60"><tspan id="SvgjsTspan1055" style="text-decoration:;">(MSC)</tspan></tspan></text></g></g><g id="SvgjsG1056" transform="translate(355,205.0061700003488)"><path id="SvgjsPath1057" d="M 0 4Q 0 0 4 0L 116 0Q 120 0 120 4L 120 36Q 120 40 116 40L 4 40Q 0 40 0 36Z" stroke="rgba(50,50,50,1)" stroke-width="1" fill-opacity="1" fill="#cce5ff"></path><g id="SvgjsG1058"><text id="SvgjsText1059" font-family="&quot;Times New Roman&quot;" text-anchor="middle" font-size="12px" width="100px" fill="#323232" font-weight="400" align="middle" lineHeight="125%" anchor="middle" family="&quot;Times New Roman&quot;" size="12px" weight="400" font-style="" opacity="1" y="10" transform="rotate(0)"><tspan id="SvgjsTspan1060" dy="15" x="60"><tspan id="SvgjsTspan1061" style="text-decoration:;">Parallel Old</tspan></tspan></text></g></g><g id="SvgjsG1062" transform="translate(25,261.0061700003488)"><path id="SvgjsPath1063" d="M 0 0L 660 0L 660 60L 0 60Z" stroke="none" fill="none"></path><g id="SvgjsG1064"><text id="SvgjsText1065" font-family="&quot;Times New Roman&quot;" text-anchor="end" font-size="13px" width="660px" fill="#000000" font-weight="400" align="middle" lineHeight="125%" anchor="end" family="&quot;Times New Roman&quot;" size="13px" weight="400" font-style="" opacity="1" y="10.875" transform="rotate(0)"><tspan id="SvgjsTspan1066" dy="16" x="660"><tspan id="SvgjsTspan1067" style="text-decoration:;">老年代</tspan></tspan><tspan id="SvgjsTspan1068" dy="16" x="660"><tspan id="SvgjsTspan1069" style="text-decoration:;">Old Generation</tspan></tspan></text></g></g><g id="SvgjsG1070" transform="translate(505,153.0061700003488)"><path id="SvgjsPath1071" d="M 0 4Q 0 0 4 0L 116 0Q 120 0 120 4L 120 36Q 120 40 116 40L 4 40Q 0 40 0 36Z" stroke="rgba(50,50,50,1)" stroke-width="1" fill-opacity="1" fill="#cce5ff"></path><g id="SvgjsG1072"><text id="SvgjsText1073" font-family="&quot;Times New Roman&quot;" text-anchor="middle" font-size="12px" width="100px" fill="#323232" font-weight="400" align="middle" lineHeight="125%" anchor="middle" family="&quot;Times New Roman&quot;" size="12px" weight="400" font-style="" opacity="1" y="10" transform="rotate(0)"><tspan id="SvgjsTspan1074" dy="15" x="60"><tspan id="SvgjsTspan1075" style="text-decoration:;">G1</tspan></tspan></text></g></g><g id="SvgjsG1076"><path id="SvgjsPath1077" d="M115 141.5061700003488L115 204.5061700003488" stroke="#323232" stroke-width="1" fill="none"></path></g><g id="SvgjsG1078"><path id="SvgjsPath1079" d="M115.45988908404036 141.20238934287266L264.54011091595964 204.8099506578249" stroke="#323232" stroke-width="1" fill="none"></path></g><g id="SvgjsG1080"><path id="SvgjsPath1081" d="M265 141.5061700003488L265 204.5061700003488" stroke="#323232" stroke-width="1" fill="none"></path></g><g id="SvgjsG1082"><path id="SvgjsPath1083" d="M264.54011091595964 141.20238934287266L115.45988908404036 204.8099506578249" stroke="#323232" stroke-width="1" fill="none"></path></g><g id="SvgjsG1084"><path id="SvgjsPath1085" d="M414.54011091595964 141.20238934287266L265.45988908404036 204.8099506578249" stroke="#323232" stroke-width="1" fill="none"></path></g><g id="SvgjsG1086"><path id="SvgjsPath1087" d="M415 141.5061700003488L415 204.5061700003488" stroke="#323232" stroke-width="1" fill="none"></path></g><g id="SvgjsG1088"><path id="SvgjsPath1089" d="M265 245.5061700003488L265 275.0061700003488L115 275.0061700003488L115 245.5061700003488" stroke="#323232" stroke-width="1" fill="none"></path></g><g id="SvgjsG1090" transform="translate(269,337.0061700003488)"><path id="SvgjsPath1091" d="M 0 0L 260 0L 260 40L 0 40Z" stroke="none" fill="none"></path><g id="SvgjsG1092"><text id="SvgjsText1093" font-family="微软雅黑" text-anchor="middle" font-size="13px" width="260px" fill="#323232" font-weight="400" align="middle" lineHeight="125%" anchor="middle" family="微软雅黑" size="13px" weight="400" font-style="" opacity="1" y="9.375" transform="rotate(0)"><tspan id="SvgjsTspan1094" dy="16" x="130"><tspan id="SvgjsTspan1095" style="text-decoration:;">两收集器的连线，表示它们可以搭配使用</tspan></tspan></text></g></g><g id="SvgjsG1096"><path id="SvgjsPath1097" d="M268 357.875L245.5 357.875L245.5 357.875L222 357.875" stroke="#323232" stroke-width="1" fill="none"></path></g></svg>