<svg id="SvgjsSvg1006" width="840" height="320.5" xmlns="http://www.w3.org/2000/svg" version="1.1" xmlns:xlink="http://www.w3.org/1999/xlink" xmlns:svgjs="http://svgjs.com/svgjs"><defs id="SvgjsDefs1007"><marker id="SvgjsMarker1038" markerWidth="12" markerHeight="8" refX="9" refY="4" viewBox="0 0 12 8" orient="auto" markerUnits="userSpaceOnUse" stroke-dasharray="0,0"><path id="SvgjsPath1039" d="M0,0 L12,4 L0,8 L0,0" fill="#64b5f6" stroke="#64b5f6" stroke-width="1"></path></marker><marker id="SvgjsMarker1042" markerWidth="12" markerHeight="8" refX="9" refY="4" viewBox="0 0 12 8" orient="auto" markerUnits="userSpaceOnUse" stroke-dasharray="0,0"><path id="SvgjsPath1043" d="M0,0 L12,4 L0,8 L0,0" fill="#64b5f6" stroke="#64b5f6" stroke-width="1"></path></marker><marker id="SvgjsMarker1046" markerWidth="12" markerHeight="8" refX="9" refY="4" viewBox="0 0 12 8" orient="auto" markerUnits="userSpaceOnUse" stroke-dasharray="0,0"><path id="SvgjsPath1047" d="M0,0 L12,4 L0,8 L0,0" fill="#64b5f6" stroke="#64b5f6" stroke-width="1"></path></marker><marker id="SvgjsMarker1050" markerWidth="12" markerHeight="8" refX="9" refY="4" viewBox="0 0 12 8" orient="auto" markerUnits="userSpaceOnUse" stroke-dasharray="0,0"><path id="SvgjsPath1051" d="M0,0 L12,4 L0,8 L0,0" fill="#64b5f6" stroke="#64b5f6" stroke-width="1"></path></marker><marker id="SvgjsMarker1082" markerWidth="12" markerHeight="8" refX="9" refY="4" viewBox="0 0 12 8" orient="auto" markerUnits="userSpaceOnUse" stroke-dasharray="0,0"><path id="SvgjsPath1083" d="M0,0 L12,4 L0,8 L0,0" fill="#323232" stroke="#323232" stroke-width="1"></path></marker><marker id="SvgjsMarker1098" markerWidth="12" markerHeight="8" refX="9" refY="4" viewBox="0 0 12 8" orient="auto" markerUnits="userSpaceOnUse" stroke-dasharray="0,0"><path id="SvgjsPath1099" d="M0,0 L12,4 L0,8 L0,0" fill="#64b5f6" stroke="#64b5f6" stroke-width="1"></path></marker><marker id="SvgjsMarker1102" markerWidth="12" markerHeight="8" refX="9" refY="4" viewBox="0 0 12 8" orient="auto" markerUnits="userSpaceOnUse" stroke-dasharray="0,0"><path id="SvgjsPath1103" d="M0,0 L12,4 L0,8 L0,0" fill="#64b5f6" stroke="#64b5f6" stroke-width="1"></path></marker><marker id="SvgjsMarker1106" markerWidth="12" markerHeight="8" refX="9" refY="4" viewBox="0 0 12 8" orient="auto" markerUnits="userSpaceOnUse" stroke-dasharray="0,0"><path id="SvgjsPath1107" d="M0,0 L12,4 L0,8 L0,0" fill="#64b5f6" stroke="#64b5f6" stroke-width="1"></path></marker><marker id="SvgjsMarker1148" markerWidth="12" markerHeight="8" refX="9" refY="4" viewBox="0 0 12 8" orient="auto" markerUnits="userSpaceOnUse" stroke-dasharray="0,0"><path id="SvgjsPath1149" d="M0,0 L12,4 L0,8 L0,0" fill="#323232" stroke="#323232" stroke-width="1"></path></marker><marker id="SvgjsMarker1152" markerWidth="12" markerHeight="8" refX="9" refY="4" viewBox="0 0 12 8" orient="auto" markerUnits="userSpaceOnUse" stroke-dasharray="0,0"><path id="SvgjsPath1153" d="M0,0 L12,4 L0,8 L0,0" fill="#64b5f6" stroke="#64b5f6" stroke-width="1"></path></marker><marker id="SvgjsMarker1156" markerWidth="12" markerHeight="8" refX="9" refY="4" viewBox="0 0 12 8" orient="auto" markerUnits="userSpaceOnUse" stroke-dasharray="0,0"><path id="SvgjsPath1157" d="M0,0 L12,4 L0,8 L0,0" fill="#64b5f6" stroke="#64b5f6" stroke-width="1"></path></marker><marker id="SvgjsMarker1160" markerWidth="12" markerHeight="8" refX="9" refY="4" viewBox="0 0 12 8" orient="auto" markerUnits="userSpaceOnUse" stroke-dasharray="0,0"><path id="SvgjsPath1161" d="M0,0 L12,4 L0,8 L0,0" fill="#64b5f6" stroke="#64b5f6" stroke-width="1"></path></marker><marker id="SvgjsMarker1164" markerWidth="12" markerHeight="8" refX="9" refY="4" viewBox="0 0 12 8" orient="auto" markerUnits="userSpaceOnUse" stroke-dasharray="0,0"><path id="SvgjsPath1165" d="M0,0 L12,4 L0,8 L0,0" fill="#f44336" stroke="#f44336" stroke-width="1"></path></marker><marker id="SvgjsMarker1204" markerWidth="12" markerHeight="8" refX="9" refY="4" viewBox="0 0 12 8" orient="auto" markerUnits="userSpaceOnUse" stroke-dasharray="0,0"><path id="SvgjsPath1205" d="M0,0 L12,4 L0,8 L0,0" fill="#323232" stroke="#323232" stroke-width="1"></path></marker><marker id="SvgjsMarker1208" markerWidth="12" markerHeight="8" refX="9" refY="4" viewBox="0 0 12 8" orient="auto" markerUnits="userSpaceOnUse" stroke-dasharray="0,0"><path id="SvgjsPath1209" d="M0,0 L12,4 L0,8 L0,0" fill="#323232" stroke="#323232" stroke-width="1"></path></marker><marker id="SvgjsMarker1212" markerWidth="12" markerHeight="8" refX="9" refY="4" viewBox="0 0 12 8" orient="auto" markerUnits="userSpaceOnUse" stroke-dasharray="0,0"><path id="SvgjsPath1213" d="M0,0 L12,4 L0,8 L0,0" fill="#323232" stroke="#323232" stroke-width="1"></path></marker><marker id="SvgjsMarker1250" markerWidth="12" markerHeight="8" refX="9" refY="4" viewBox="0 0 12 8" orient="auto" markerUnits="userSpaceOnUse" stroke-dasharray="0,0"><path id="SvgjsPath1251" d="M0,0 L12,4 L0,8 L0,0" fill="#323232" stroke="#323232" stroke-width="1"></path></marker><marker id="SvgjsMarker1254" markerWidth="12" markerHeight="8" refX="9" refY="4" viewBox="0 0 12 8" orient="auto" markerUnits="userSpaceOnUse" stroke-dasharray="0,0"><path id="SvgjsPath1255" d="M0,0 L12,4 L0,8 L0,0" fill="#64b5f6" stroke="#64b5f6" stroke-width="1"></path></marker><marker id="SvgjsMarker1258" markerWidth="12" markerHeight="8" refX="9" refY="4" viewBox="0 0 12 8" orient="auto" markerUnits="userSpaceOnUse" stroke-dasharray="0,0"><path id="SvgjsPath1259" d="M0,0 L12,4 L0,8 L0,0" fill="#64b5f6" stroke="#64b5f6" stroke-width="1"></path></marker><marker id="SvgjsMarker1262" markerWidth="12" markerHeight="8" refX="9" refY="4" viewBox="0 0 12 8" orient="auto" markerUnits="userSpaceOnUse" stroke-dasharray="0,0"><path id="SvgjsPath1263" d="M0,0 L12,4 L0,8 L0,0" fill="#64b5f6" stroke="#64b5f6" stroke-width="1"></path></marker><marker id="SvgjsMarker1290" markerWidth="12" markerHeight="8" refX="9" refY="4" viewBox="0 0 12 8" orient="auto" markerUnits="userSpaceOnUse" stroke-dasharray="0,0"><path id="SvgjsPath1291" d="M0,0 L12,4 L0,8 L0,0" fill="#323232" stroke="#323232" stroke-width="1"></path></marker><marker id="SvgjsMarker1298" markerWidth="12" markerHeight="8" refX="9" refY="4" viewBox="0 0 12 8" orient="auto" markerUnits="userSpaceOnUse" stroke-dasharray="0,0"><path id="SvgjsPath1299" d="M0,0 L12,4 L0,8 L0,0" fill="#64b5f6" stroke="#64b5f6" stroke-width="1"></path></marker></defs><g id="SvgjsG1008" transform="translate(175,55.5061700003489)"><path id="SvgjsPath1009" d="M 0 4Q 0 0 4 0L 16 0Q 20 0 20 4L 20 191Q 20 195 16 195L 4 195Q 0 195 0 191Z" stroke="rgba(50,50,50,1)" stroke-width="1" fill-opacity="1" fill="#f5f5f5"></path><g id="SvgjsG1010"><text id="SvgjsText1011" font-family="&quot;Times New Roman&quot;" text-anchor="middle" font-size="13px" width="0px" fill="#323232" font-weight="400" align="middle" lineHeight="125%" anchor="middle" family="&quot;Times New Roman&quot;" size="13px" weight="400" font-style="" opacity="1" y="86.875" transform="rotate(0)"></text></g></g><g id="SvgjsG1012" transform="translate(25,55.5061700003489)"><path id="SvgjsPath1013" d="M 0 4Q 0 0 4 0L 56 0Q 60 0 60 4L 60 26Q 60 30 56 30L 4 30Q 0 30 0 26Z" stroke="rgba(50,50,50,1)" stroke-width="1" fill-opacity="1" fill="#ffffff"></path><g id="SvgjsG1014"><text id="SvgjsText1015" font-family="&quot;Times New Roman&quot;" text-anchor="middle" font-size="12px" width="40px" fill="#323232" font-weight="400" align="middle" lineHeight="125%" anchor="middle" family="&quot;Times New Roman&quot;" size="12px" weight="400" font-style="" opacity="1" y="5" transform="rotate(0)"><tspan id="SvgjsTspan1016" dy="15" x="30"><tspan id="SvgjsTspan1017" style="text-decoration:;">CPU 0</tspan></tspan></text></g></g><g id="SvgjsG1018" transform="translate(25,110.5061700003489)"><path id="SvgjsPath1019" d="M 0 4Q 0 0 4 0L 56 0Q 60 0 60 4L 60 26Q 60 30 56 30L 4 30Q 0 30 0 26Z" stroke="rgba(50,50,50,1)" stroke-width="1" fill-opacity="1" fill="#ffffff"></path><g id="SvgjsG1020"><text id="SvgjsText1021" font-family="&quot;Times New Roman&quot;" text-anchor="middle" font-size="12px" width="40px" fill="#323232" font-weight="400" align="middle" lineHeight="125%" anchor="middle" family="&quot;Times New Roman&quot;" size="12px" weight="400" font-style="" opacity="1" y="5" transform="rotate(0)"><tspan id="SvgjsTspan1022" dy="15" x="30"><tspan id="SvgjsTspan1023" style="text-decoration:;">CPU 1</tspan></tspan></text></g></g><g id="SvgjsG1024" transform="translate(25,165.5061700003489)"><path id="SvgjsPath1025" d="M 0 4Q 0 0 4 0L 56 0Q 60 0 60 4L 60 26Q 60 30 56 30L 4 30Q 0 30 0 26Z" stroke="rgba(50,50,50,1)" stroke-width="1" fill-opacity="1" fill="#ffffff"></path><g id="SvgjsG1026"><text id="SvgjsText1027" font-family="&quot;Times New Roman&quot;" text-anchor="middle" font-size="12px" width="40px" fill="#323232" font-weight="400" align="middle" lineHeight="125%" anchor="middle" family="&quot;Times New Roman&quot;" size="12px" weight="400" font-style="" opacity="1" y="5" transform="rotate(0)"><tspan id="SvgjsTspan1028" dy="15" x="30"><tspan id="SvgjsTspan1029" style="text-decoration:;">CPU 2</tspan></tspan></text></g></g><g id="SvgjsG1030" transform="translate(25,220.5061700003489)"><path id="SvgjsPath1031" d="M 0 4Q 0 0 4 0L 56 0Q 60 0 60 4L 60 26Q 60 30 56 30L 4 30Q 0 30 0 26Z" stroke="rgba(50,50,50,1)" stroke-width="1" fill-opacity="1" fill="#ffffff"></path><g id="SvgjsG1032"><text id="SvgjsText1033" font-family="&quot;Times New Roman&quot;" text-anchor="middle" font-size="12px" width="40px" fill="#323232" font-weight="400" align="middle" lineHeight="125%" anchor="middle" family="&quot;Times New Roman&quot;" size="12px" weight="400" font-style="" opacity="1" y="5" transform="rotate(0)"><tspan id="SvgjsTspan1034" dy="15" x="30"><tspan id="SvgjsTspan1035" style="text-decoration:;">CPU 2</tspan></tspan></text></g></g><g id="SvgjsG1036"><path id="SvgjsPath1037" d="M85.5 70.5061700003489L130 70.5061700003489L130 70.5061700003489L173.2 70.5061700003489" stroke="#64b5f6" stroke-width="1" fill="none" marker-end="url(#SvgjsMarker1038)"></path></g><g id="SvgjsG1040"><path id="SvgjsPath1041" d="M85.5 125.5061700003489L130 125.5061700003489L130 125.5061700003489L173.2 125.5061700003489" stroke="#64b5f6" stroke-width="1" fill="none" marker-end="url(#SvgjsMarker1042)"></path></g><g id="SvgjsG1044"><path id="SvgjsPath1045" d="M85.5 180.5061700003489L130 180.5061700003489L130 180.5061700003489L173.2 180.5061700003489" stroke="#64b5f6" stroke-width="1" fill="none" marker-end="url(#SvgjsMarker1046)"></path></g><g id="SvgjsG1048"><path id="SvgjsPath1049" d="M85.5 235.5061700003489L130 235.5061700003489L130 235.5061700003489L173.2 235.5061700003489" stroke="#64b5f6" stroke-width="1" fill="none" marker-end="url(#SvgjsMarker1050)"></path></g><g id="SvgjsG1052" transform="translate(85,25.006170000348902)"><path id="SvgjsPath1053" d="M 0 0L 90 0L 90 45L 0 45Z" stroke="none" fill="none"></path><g id="SvgjsG1054"><text id="SvgjsText1055" font-family="&quot;Times New Roman&quot;" text-anchor="middle" font-size="13px" width="90px" fill="#323232" font-weight="400" align="middle" lineHeight="125%" anchor="middle" family="&quot;Times New Roman&quot;" size="13px" weight="400" font-style="" opacity="1" y="11.875" transform="rotate(0)"><tspan id="SvgjsTspan1056" dy="16" x="45"><tspan id="SvgjsTspan1057" style="text-decoration:;">用户线程 1</tspan></tspan></text></g></g><g id="SvgjsG1058" transform="translate(85,80.0061700003489)"><path id="SvgjsPath1059" d="M 0 0L 90 0L 90 45L 0 45Z" stroke="none" fill="none"></path><g id="SvgjsG1060"><text id="SvgjsText1061" font-family="&quot;Times New Roman&quot;" text-anchor="middle" font-size="13px" width="90px" fill="#323232" font-weight="400" align="middle" lineHeight="125%" anchor="middle" family="&quot;Times New Roman&quot;" size="13px" weight="400" font-style="" opacity="1" y="11.875" transform="rotate(0)"><tspan id="SvgjsTspan1062" dy="16" x="45"><tspan id="SvgjsTspan1063" style="text-decoration:;">用户线程 2</tspan></tspan></text></g></g><g id="SvgjsG1064" transform="translate(85,135.0061700003489)"><path id="SvgjsPath1065" d="M 0 0L 90 0L 90 45L 0 45Z" stroke="none" fill="none"></path><g id="SvgjsG1066"><text id="SvgjsText1067" font-family="&quot;Times New Roman&quot;" text-anchor="middle" font-size="13px" width="90px" fill="#323232" font-weight="400" align="middle" lineHeight="125%" anchor="middle" family="&quot;Times New Roman&quot;" size="13px" weight="400" font-style="" opacity="1" y="11.875" transform="rotate(0)"><tspan id="SvgjsTspan1068" dy="16" x="45"><tspan id="SvgjsTspan1069" style="text-decoration:;">用户线程 3</tspan></tspan></text></g></g><g id="SvgjsG1070" transform="translate(85,190.0061700003489)"><path id="SvgjsPath1071" d="M 0 0L 90 0L 90 45L 0 45Z" stroke="none" fill="none"></path><g id="SvgjsG1072"><text id="SvgjsText1073" font-family="&quot;Times New Roman&quot;" text-anchor="middle" font-size="13px" width="90px" fill="#323232" font-weight="400" align="middle" lineHeight="125%" anchor="middle" family="&quot;Times New Roman&quot;" size="13px" weight="400" font-style="" opacity="1" y="11.875" transform="rotate(0)"><tspan id="SvgjsTspan1074" dy="16" x="45"><tspan id="SvgjsTspan1075" style="text-decoration:;">用户线程 4</tspan></tspan></text></g></g><g id="SvgjsG1076" transform="translate(304,55.5061700003489)"><path id="SvgjsPath1077" d="M 0 4Q 0 0 4 0L 16 0Q 20 0 20 4L 20 191Q 20 195 16 195L 4 195Q 0 195 0 191Z" stroke="rgba(50,50,50,1)" stroke-width="1" fill-opacity="1" fill="#cce5ff"></path><g id="SvgjsG1078"><text id="SvgjsText1079" font-family="&quot;Times New Roman&quot;" text-anchor="middle" font-size="13px" width="0px" fill="#323232" font-weight="400" align="middle" lineHeight="125%" anchor="middle" family="&quot;Times New Roman&quot;" size="13px" weight="400" font-style="" opacity="1" y="86.875" transform="rotate(0)"></text></g></g><g id="SvgjsG1080"><path id="SvgjsPath1081" d="M195.5 153.0061700003489L249.5 153.0061700003489L249.5 153.0061700003489L302.20000000000005 153.0061700003489" stroke="#323232" stroke-width="1" fill="none" marker-end="url(#SvgjsMarker1082)"></path></g><g id="SvgjsG1084" transform="translate(140,250.5061700003489)"><path id="SvgjsPath1085" d="M 0 0L 90 0L 90 45L 0 45Z" stroke="none" fill="none"></path><g id="SvgjsG1086"><text id="SvgjsText1087" font-family="&quot;Times New Roman&quot;" text-anchor="middle" font-size="13px" width="90px" fill="#323232" font-weight="400" align="middle" lineHeight="125%" anchor="middle" family="&quot;Times New Roman&quot;" size="13px" weight="400" font-style="" opacity="1" y="11.875" transform="rotate(0)"><tspan id="SvgjsTspan1088" dy="16" x="45"><tspan id="SvgjsTspan1089" style="text-decoration:;">Safe Point</tspan></tspan></text></g></g><g id="SvgjsG1090" transform="translate(270,250.5061700003489)"><path id="SvgjsPath1091" d="M 0 0L 90 0L 90 45L 0 45Z" stroke="none" fill="none"></path><g id="SvgjsG1092"><text id="SvgjsText1093" font-family="&quot;Times New Roman&quot;" text-anchor="middle" font-size="13px" width="90px" fill="#323232" font-weight="400" align="middle" lineHeight="125%" anchor="middle" family="&quot;Times New Roman&quot;" size="13px" weight="400" font-style="" opacity="1" y="11.875" transform="rotate(0)"><tspan id="SvgjsTspan1094" dy="16" x="45"><tspan id="SvgjsTspan1095" style="text-decoration:;">Safe Point</tspan></tspan></text></g></g><g id="SvgjsG1096"><path id="SvgjsPath1097" d="M324.5 70.375L377 70.375L377 70.375L428.20000000000005 70.375" stroke="#64b5f6" stroke-width="1" fill="none" marker-end="url(#SvgjsMarker1098)"></path></g><g id="SvgjsG1100"><path id="SvgjsPath1101" d="M324.5 124.375L377 124.375L377 124.375L428.20000000000005 124.375" stroke="#64b5f6" stroke-width="1" fill="none" marker-end="url(#SvgjsMarker1102)"></path></g><g id="SvgjsG1104"><path id="SvgjsPath1105" d="M324.5 236.375L377 236.375L377 236.375L428.20000000000005 236.375" stroke="#64b5f6" stroke-width="1" fill="none" marker-end="url(#SvgjsMarker1106)"></path></g><g id="SvgjsG1108" transform="translate(332,25.006170000348902)"><path id="SvgjsPath1109" d="M 0 0L 90 0L 90 45L 0 45Z" stroke="none" fill="none"></path><g id="SvgjsG1110"><text id="SvgjsText1111" font-family="&quot;Times New Roman&quot;" text-anchor="middle" font-size="13px" width="90px" fill="#323232" font-weight="400" align="middle" lineHeight="125%" anchor="middle" family="&quot;Times New Roman&quot;" size="13px" weight="400" font-style="" opacity="1" y="11.875" transform="rotate(0)"><tspan id="SvgjsTspan1112" dy="16" x="45"><tspan id="SvgjsTspan1113" style="text-decoration:;">用户线程 1</tspan></tspan></text></g></g><g id="SvgjsG1114" transform="translate(332,80.0061700003489)"><path id="SvgjsPath1115" d="M 0 0L 90 0L 90 45L 0 45Z" stroke="none" fill="none"></path><g id="SvgjsG1116"><text id="SvgjsText1117" font-family="&quot;Times New Roman&quot;" text-anchor="middle" font-size="13px" width="90px" fill="#323232" font-weight="400" align="middle" lineHeight="125%" anchor="middle" family="&quot;Times New Roman&quot;" size="13px" weight="400" font-style="" opacity="1" y="11.875" transform="rotate(0)"><tspan id="SvgjsTspan1118" dy="16" x="45"><tspan id="SvgjsTspan1119" style="text-decoration:;">用户线程 2</tspan></tspan></text></g></g><g id="SvgjsG1120" transform="translate(332,135.0061700003489)"><path id="SvgjsPath1121" d="M 0 0L 90 0L 90 45L 0 45Z" stroke="none" fill="none"></path><g id="SvgjsG1122"><text id="SvgjsText1123" font-family="&quot;Times New Roman&quot;" text-anchor="middle" font-size="13px" width="90px" fill="#323232" font-weight="400" align="middle" lineHeight="125%" anchor="middle" family="&quot;Times New Roman&quot;" size="13px" weight="400" font-style="" opacity="1" y="11.875" transform="rotate(0)"><tspan id="SvgjsTspan1124" dy="16" x="45"><tspan id="SvgjsTspan1125" style="text-decoration:;">并发标记</tspan></tspan></text></g></g><g id="SvgjsG1126" transform="translate(332,190.0061700003489)"><path id="SvgjsPath1127" d="M 0 0L 90 0L 90 45L 0 45Z" stroke="none" fill="none"></path><g id="SvgjsG1128"><text id="SvgjsText1129" font-family="&quot;Times New Roman&quot;" text-anchor="middle" font-size="13px" width="90px" fill="#323232" font-weight="400" align="middle" lineHeight="125%" anchor="middle" family="&quot;Times New Roman&quot;" size="13px" weight="400" font-style="" opacity="1" y="11.875" transform="rotate(0)"><tspan id="SvgjsTspan1130" dy="16" x="45"><tspan id="SvgjsTspan1131" style="text-decoration:;">用户线程 4</tspan></tspan></text></g></g><g id="SvgjsG1132" transform="translate(430,55.0061700003489)"><path id="SvgjsPath1133" d="M 0 4Q 0 0 4 0L 16 0Q 20 0 20 4L 20 191Q 20 195 16 195L 4 195Q 0 195 0 191Z" stroke="rgba(50,50,50,1)" stroke-width="1" fill-opacity="1" fill="#f5f5f5"></path><g id="SvgjsG1134"><text id="SvgjsText1135" font-family="&quot;Times New Roman&quot;" text-anchor="middle" font-size="13px" width="0px" fill="#323232" font-weight="400" align="middle" lineHeight="125%" anchor="middle" family="&quot;Times New Roman&quot;" size="13px" weight="400" font-style="" opacity="1" y="86.875" transform="rotate(0)"></text></g></g><g id="SvgjsG1136" transform="translate(395.5,250.5061700003489)"><path id="SvgjsPath1137" d="M 0 0L 90 0L 90 45L 0 45Z" stroke="none" fill="none"></path><g id="SvgjsG1138"><text id="SvgjsText1139" font-family="&quot;Times New Roman&quot;" text-anchor="middle" font-size="13px" width="90px" fill="#323232" font-weight="400" align="middle" lineHeight="125%" anchor="middle" family="&quot;Times New Roman&quot;" size="13px" weight="400" font-style="" opacity="1" y="11.875" transform="rotate(0)"><tspan id="SvgjsTspan1140" dy="16" x="45"><tspan id="SvgjsTspan1141" style="text-decoration:;">Safe Point</tspan></tspan></text></g></g><g id="SvgjsG1142" transform="translate(556,55.5061700003489)"><path id="SvgjsPath1143" d="M 0 4Q 0 0 4 0L 16 0Q 20 0 20 4L 20 191Q 20 195 16 195L 4 195Q 0 195 0 191Z" stroke="rgba(50,50,50,1)" stroke-width="1" fill-opacity="1" fill="#cce5ff"></path><g id="SvgjsG1144"><text id="SvgjsText1145" font-family="&quot;Times New Roman&quot;" text-anchor="middle" font-size="13px" width="0px" fill="#323232" font-weight="400" align="middle" lineHeight="125%" anchor="middle" family="&quot;Times New Roman&quot;" size="13px" weight="400" font-style="" opacity="1" y="86.875" transform="rotate(0)"></text></g></g><g id="SvgjsG1146"><path id="SvgjsPath1147" d="M450.5 71.375L503 71.375L503 71.375L554.2 71.375" stroke="#323232" stroke-width="1" fill="none" marker-end="url(#SvgjsMarker1148)"></path></g><g id="SvgjsG1150"><path id="SvgjsPath1151" d="M576.5 70.375L630.5 70.375L630.5 70.375L683.2 70.375" stroke="#64b5f6" stroke-width="1" fill="none" marker-end="url(#SvgjsMarker1152)"></path></g><g id="SvgjsG1154"><path id="SvgjsPath1155" d="M576.5 236.375L630.5 236.375L630.5 236.375L683.2 236.375" stroke="#64b5f6" stroke-width="1" fill="none" marker-end="url(#SvgjsMarker1156)"></path></g><g id="SvgjsG1158"><path id="SvgjsPath1159" d="M576.5 124.375L630.5 124.375L630.5 124.375L683.2 124.375" stroke="#64b5f6" stroke-width="1" fill="none" marker-end="url(#SvgjsMarker1160)"></path></g><g id="SvgjsG1162"><path id="SvgjsPath1163" d="M576.5 180.375L630.5 180.375L630.5 180.375L683.2 180.375" stroke="#f44336" stroke-width="1" fill="none" marker-end="url(#SvgjsMarker1164)"></path></g><g id="SvgjsG1166" transform="translate(585.5,26.375)"><path id="SvgjsPath1167" d="M 0 0L 90 0L 90 45L 0 45Z" stroke="none" fill="none"></path><g id="SvgjsG1168"><text id="SvgjsText1169" font-family="&quot;Times New Roman&quot;" text-anchor="middle" font-size="13px" width="90px" fill="#323232" font-weight="400" align="middle" lineHeight="125%" anchor="middle" family="&quot;Times New Roman&quot;" size="13px" weight="400" font-style="" opacity="1" y="11.875" transform="rotate(0)"><tspan id="SvgjsTspan1170" dy="16" x="45"><tspan id="SvgjsTspan1171" style="text-decoration:;">用户线程 1</tspan></tspan></text></g></g><g id="SvgjsG1172" transform="translate(585.5,80.0061700003489)"><path id="SvgjsPath1173" d="M 0 0L 90 0L 90 45L 0 45Z" stroke="none" fill="none"></path><g id="SvgjsG1174"><text id="SvgjsText1175" font-family="&quot;Times New Roman&quot;" text-anchor="middle" font-size="13px" width="90px" fill="#323232" font-weight="400" align="middle" lineHeight="125%" anchor="middle" family="&quot;Times New Roman&quot;" size="13px" weight="400" font-style="" opacity="1" y="11.875" transform="rotate(0)"><tspan id="SvgjsTspan1176" dy="16" x="45"><tspan id="SvgjsTspan1177" style="text-decoration:;">用户线程 2</tspan></tspan></text></g></g><g id="SvgjsG1178" transform="translate(585.5,135.0061700003489)"><path id="SvgjsPath1179" d="M 0 0L 90 0L 90 45L 0 45Z" stroke="none" fill="none"></path><g id="SvgjsG1180"><text id="SvgjsText1181" font-family="&quot;Times New Roman&quot;" text-anchor="middle" font-size="13px" width="90px" fill="#f44336" font-weight="400" align="middle" lineHeight="125%" anchor="middle" family="&quot;Times New Roman&quot;" size="13px" weight="400" font-style="" opacity="1" y="11.875" transform="rotate(0)"><tspan id="SvgjsTspan1182" dy="16" x="45"><tspan id="SvgjsTspan1183" style="text-decoration:;">并发清理</tspan></tspan></text></g></g><g id="SvgjsG1184" transform="translate(585.5,192.0061700003489)"><path id="SvgjsPath1185" d="M 0 0L 90 0L 90 45L 0 45Z" stroke="none" fill="none"></path><g id="SvgjsG1186"><text id="SvgjsText1187" font-family="&quot;Times New Roman&quot;" text-anchor="middle" font-size="13px" width="90px" fill="#323232" font-weight="400" align="middle" lineHeight="125%" anchor="middle" family="&quot;Times New Roman&quot;" size="13px" weight="400" font-style="" opacity="1" y="11.875" transform="rotate(0)"><tspan id="SvgjsTspan1188" dy="16" x="45"><tspan id="SvgjsTspan1189" style="text-decoration:;">用户线程 4</tspan></tspan></text></g></g><g id="SvgjsG1190" transform="translate(650,250.5061700003489)"><path id="SvgjsPath1191" d="M 0 0L 90 0L 90 45L 0 45Z" stroke="none" fill="none"></path><g id="SvgjsG1192"><text id="SvgjsText1193" font-family="&quot;Times New Roman&quot;" text-anchor="middle" font-size="13px" width="90px" fill="#323232" font-weight="400" align="middle" lineHeight="125%" anchor="middle" family="&quot;Times New Roman&quot;" size="13px" weight="400" font-style="" opacity="1" y="11.875" transform="rotate(0)"><tspan id="SvgjsTspan1194" dy="16" x="45"><tspan id="SvgjsTspan1195" style="text-decoration:;">Safe Point</tspan></tspan></text></g></g><g id="SvgjsG1196" transform="translate(204.5,108.5061700003489)"><path id="SvgjsPath1197" d="M 0 0L 90 0L 90 45L 0 45Z" stroke="none" fill="none"></path><g id="SvgjsG1198"><text id="SvgjsText1199" font-family="&quot;Times New Roman&quot;" text-anchor="middle" font-size="13px" width="90px" fill="#323232" font-weight="400" align="middle" lineHeight="125%" anchor="middle" family="&quot;Times New Roman&quot;" size="13px" weight="400" font-style="" opacity="1" y="11.875" transform="rotate(0)"><tspan id="SvgjsTspan1200" dy="16" x="45"><tspan id="SvgjsTspan1201" style="text-decoration:;">初始标记</tspan></tspan></text></g></g><g id="SvgjsG1202"><path id="SvgjsPath1203" d="M450.5 124.375L503 124.375L503 124.375L554.2 124.375" stroke="#323232" stroke-width="1" fill="none" marker-end="url(#SvgjsMarker1204)"></path></g><g id="SvgjsG1206"><path id="SvgjsPath1207" d="M449.5 180.375L502.5 180.375L502.5 180.375L554.2 180.375" stroke="#323232" stroke-width="1" fill="none" marker-end="url(#SvgjsMarker1208)"></path></g><g id="SvgjsG1210"><path id="SvgjsPath1211" d="M450.5 237.375L503 237.375L503 237.375L554.2 237.375" stroke="#323232" stroke-width="1" fill="none" marker-end="url(#SvgjsMarker1212)"></path></g><g id="SvgjsG1214" transform="translate(458,26.375)"><path id="SvgjsPath1215" d="M 0 0L 90 0L 90 45L 0 45Z" stroke="none" fill="none"></path><g id="SvgjsG1216"><text id="SvgjsText1217" font-family="&quot;Times New Roman&quot;" text-anchor="middle" font-size="13px" width="90px" fill="#323232" font-weight="400" align="middle" lineHeight="125%" anchor="middle" family="&quot;Times New Roman&quot;" size="13px" weight="400" font-style="" opacity="1" y="11.875" transform="rotate(0)"><tspan id="SvgjsTspan1218" dy="16" x="45"><tspan id="SvgjsTspan1219" style="text-decoration:;">重新标记</tspan></tspan></text></g></g><g id="SvgjsG1220" transform="translate(458,80.0061700003489)"><path id="SvgjsPath1221" d="M 0 0L 90 0L 90 45L 0 45Z" stroke="none" fill="none"></path><g id="SvgjsG1222"><text id="SvgjsText1223" font-family="&quot;Times New Roman&quot;" text-anchor="middle" font-size="13px" width="90px" fill="#323232" font-weight="400" align="middle" lineHeight="125%" anchor="middle" family="&quot;Times New Roman&quot;" size="13px" weight="400" font-style="" opacity="1" y="11.875" transform="rotate(0)"><tspan id="SvgjsTspan1224" dy="16" x="45"><tspan id="SvgjsTspan1225" style="text-decoration:;">重新标记 </tspan></tspan></text></g></g><g id="SvgjsG1226" transform="translate(458,135.0061700003489)"><path id="SvgjsPath1227" d="M 0 0L 90 0L 90 45L 0 45Z" stroke="none" fill="none"></path><g id="SvgjsG1228"><text id="SvgjsText1229" font-family="&quot;Times New Roman&quot;" text-anchor="middle" font-size="13px" width="90px" fill="#323232" font-weight="400" align="middle" lineHeight="125%" anchor="middle" family="&quot;Times New Roman&quot;" size="13px" weight="400" font-style="" opacity="1" y="11.875" transform="rotate(0)"><tspan id="SvgjsTspan1230" dy="16" x="45"><tspan id="SvgjsTspan1231" style="text-decoration:;">重新标记</tspan></tspan></text></g></g><g id="SvgjsG1232" transform="translate(458,192.0061700003489)"><path id="SvgjsPath1233" d="M 0 0L 90 0L 90 45L 0 45Z" stroke="none" fill="none"></path><g id="SvgjsG1234"><text id="SvgjsText1235" font-family="&quot;Times New Roman&quot;" text-anchor="middle" font-size="13px" width="90px" fill="#323232" font-weight="400" align="middle" lineHeight="125%" anchor="middle" family="&quot;Times New Roman&quot;" size="13px" weight="400" font-style="" opacity="1" y="11.875" transform="rotate(0)"><tspan id="SvgjsTspan1236" dy="16" x="45"><tspan id="SvgjsTspan1237" style="text-decoration:;">重新标记</tspan></tspan></text></g></g><g id="SvgjsG1238" transform="translate(685,55.5061700003489)"><path id="SvgjsPath1239" d="M 0 4Q 0 0 4 0L 16 0Q 20 0 20 4L 20 191Q 20 195 16 195L 4 195Q 0 195 0 191Z" stroke="rgba(50,50,50,1)" stroke-width="1" fill-opacity="1" fill="#f5f5f5"></path><g id="SvgjsG1240"><text id="SvgjsText1241" font-family="&quot;Times New Roman&quot;" text-anchor="middle" font-size="13px" width="0px" fill="#323232" font-weight="400" align="middle" lineHeight="125%" anchor="middle" family="&quot;Times New Roman&quot;" size="13px" weight="400" font-style="" opacity="1" y="86.875" transform="rotate(0)"></text></g></g><g id="SvgjsG1242" transform="translate(521,250.5061700003489)"><path id="SvgjsPath1243" d="M 0 0L 90 0L 90 45L 0 45Z" stroke="none" fill="none"></path><g id="SvgjsG1244"><text id="SvgjsText1245" font-family="&quot;Times New Roman&quot;" text-anchor="middle" font-size="13px" width="90px" fill="#323232" font-weight="400" align="middle" lineHeight="125%" anchor="middle" family="&quot;Times New Roman&quot;" size="13px" weight="400" font-style="" opacity="1" y="11.875" transform="rotate(0)"><tspan id="SvgjsTspan1246" dy="16" x="45"><tspan id="SvgjsTspan1247" style="text-decoration:;">Safe Point</tspan></tspan></text></g></g><g id="SvgjsG1248"><path id="SvgjsPath1249" d="M324.5 180.375L377 180.375L377 180.375L428.20000000000005 180.375" stroke="#323232" stroke-width="1" fill="none" marker-end="url(#SvgjsMarker1250)"></path></g><g id="SvgjsG1252"><path id="SvgjsPath1253" d="M703.5 70.375L758.5 70.375L758.5 70.375L814 70.375" stroke="#64b5f6" stroke-width="1" fill="none" marker-end="url(#SvgjsMarker1254)"></path></g><g id="SvgjsG1256"><path id="SvgjsPath1257" d="M705 236.375L759.5 236.375L759.5 236.375L814 236.375" stroke="#64b5f6" stroke-width="1" fill="none" marker-end="url(#SvgjsMarker1258)"></path></g><g id="SvgjsG1260"><path id="SvgjsPath1261" d="M705.5 124.375L759.5 124.375L759.5 124.375L814 124.375" stroke="#64b5f6" stroke-width="1" fill="none" marker-end="url(#SvgjsMarker1262)"></path></g><g id="SvgjsG1264" transform="translate(714.5,26.375)"><path id="SvgjsPath1265" d="M 0 0L 90 0L 90 45L 0 45Z" stroke="none" fill="none"></path><g id="SvgjsG1266"><text id="SvgjsText1267" font-family="&quot;Times New Roman&quot;" text-anchor="middle" font-size="13px" width="90px" fill="#323232" font-weight="400" align="middle" lineHeight="125%" anchor="middle" family="&quot;Times New Roman&quot;" size="13px" weight="400" font-style="" opacity="1" y="11.875" transform="rotate(0)"><tspan id="SvgjsTspan1268" dy="16" x="45"><tspan id="SvgjsTspan1269" style="text-decoration:;">用户线程 1</tspan></tspan></text></g></g><g id="SvgjsG1270" transform="translate(714.5,80.0061700003489)"><path id="SvgjsPath1271" d="M 0 0L 90 0L 90 45L 0 45Z" stroke="none" fill="none"></path><g id="SvgjsG1272"><text id="SvgjsText1273" font-family="&quot;Times New Roman&quot;" text-anchor="middle" font-size="13px" width="90px" fill="#323232" font-weight="400" align="middle" lineHeight="125%" anchor="middle" family="&quot;Times New Roman&quot;" size="13px" weight="400" font-style="" opacity="1" y="11.875" transform="rotate(0)"><tspan id="SvgjsTspan1274" dy="16" x="45"><tspan id="SvgjsTspan1275" style="text-decoration:;">用户线程 2</tspan></tspan></text></g></g><g id="SvgjsG1276" transform="translate(710,130.5061700003489)"><path id="SvgjsPath1277" d="M 0 0L 90 0L 90 45L 0 45Z" stroke="none" fill="none"></path><g id="SvgjsG1278"><text id="SvgjsText1279" font-family="&quot;Times New Roman&quot;" text-anchor="middle" font-size="13px" width="90px" fill="#212121" font-weight="400" align="middle" lineHeight="125%" anchor="middle" family="&quot;Times New Roman&quot;" size="13px" weight="400" font-style="" opacity="1" y="11.875" transform="rotate(0)"><tspan id="SvgjsTspan1280" dy="16" x="45"><tspan id="SvgjsTspan1281" style="text-decoration:;">重置线程</tspan></tspan></text></g></g><g id="SvgjsG1282" transform="translate(713,192.0061700003489)"><path id="SvgjsPath1283" d="M 0 0L 90 0L 90 45L 0 45Z" stroke="none" fill="none"></path><g id="SvgjsG1284"><text id="SvgjsText1285" font-family="&quot;Times New Roman&quot;" text-anchor="middle" font-size="13px" width="90px" fill="#323232" font-weight="400" align="middle" lineHeight="125%" anchor="middle" family="&quot;Times New Roman&quot;" size="13px" weight="400" font-style="" opacity="1" y="11.875" transform="rotate(0)"><tspan id="SvgjsTspan1286" dy="16" x="45"><tspan id="SvgjsTspan1287" style="text-decoration:;">用户线程 4</tspan></tspan></text></g></g><g id="SvgjsG1288"><path id="SvgjsPath1289" d="M705.5 180.5061700003489L727.25 180.5061700003489L727.25 180.0061700003489L747.7 180.0061700003489" stroke="#323232" stroke-width="1" fill="none" marker-end="url(#SvgjsMarker1290)"></path></g><g id="SvgjsG1292" transform="translate(749.5,170.0061700003489)"><path id="SvgjsPath1293" d="M 0 4Q 0 0 4 0L 16 0Q 20 0 20 4L 20 16Q 20 20 16 20L 4 20Q 0 20 0 16Z" stroke="rgba(50,50,50,1)" stroke-width="1" fill-opacity="1" fill="#f5f5f5"></path><g id="SvgjsG1294"><text id="SvgjsText1295" font-family="&quot;Times New Roman&quot;" text-anchor="middle" font-size="13px" width="0px" fill="#323232" font-weight="400" align="middle" lineHeight="125%" anchor="middle" family="&quot;Times New Roman&quot;" size="13px" weight="400" font-style="" opacity="1" y="-0.625" transform="rotate(0)"></text></g></g><g id="SvgjsG1296"><path id="SvgjsPath1297" d="M770 180.0061700003489L792.2261904761904 180.0061700003489L792.2261904761904 180.0061700003489L814.952380952381 180.0061700003489" stroke="#64b5f6" stroke-width="1" fill="none" marker-end="url(#SvgjsMarker1298)"></path></g></svg>