<svg id="SvgjsSvg1006" width="678" height="471.625" xmlns="http://www.w3.org/2000/svg" version="1.1" xmlns:xlink="http://www.w3.org/1999/xlink" xmlns:svgjs="http://svgjs.com/svgjs"><defs id="SvgjsDefs1007"><marker id="SvgjsMarker1062" markerWidth="12" markerHeight="8" refX="9" refY="4" viewBox="0 0 12 8" orient="auto" markerUnits="userSpaceOnUse" stroke-dasharray="0,0"><path id="SvgjsPath1063" d="M0,0 L12,4 L0,8 L0,0" fill="#323232" stroke="#323232" stroke-width="1"></path></marker><marker id="SvgjsMarker1066" markerWidth="12" markerHeight="8" refX="9" refY="4" viewBox="0 0 12 8" orient="auto" markerUnits="userSpaceOnUse" stroke-dasharray="0,0"><path id="SvgjsPath1067" d="M0,0 L12,4 L0,8 L0,0" fill="#323232" stroke="#323232" stroke-width="1"></path></marker><marker id="SvgjsMarker1070" markerWidth="12" markerHeight="8" refX="9" refY="4" viewBox="0 0 12 8" orient="auto" markerUnits="userSpaceOnUse" stroke-dasharray="0,0"><path id="SvgjsPath1071" d="M0,0 L12,4 L0,8 L0,0" fill="#323232" stroke="#323232" stroke-width="1"></path></marker><marker id="SvgjsMarker1074" markerWidth="12" markerHeight="8" refX="9" refY="4" viewBox="0 0 12 8" orient="auto" markerUnits="userSpaceOnUse" stroke-dasharray="0,0"><path id="SvgjsPath1075" d="M0,0 L12,4 L0,8 L0,0" fill="#323232" stroke="#323232" stroke-width="1"></path></marker><marker id="SvgjsMarker1078" markerWidth="12" markerHeight="8" refX="9" refY="4" viewBox="0 0 12 8" orient="auto" markerUnits="userSpaceOnUse" stroke-dasharray="0,0"><path id="SvgjsPath1079" d="M0,0 L12,4 L0,8 L0,0" fill="#323232" stroke="#323232" stroke-width="1"></path></marker><marker id="SvgjsMarker1082" markerWidth="12" markerHeight="8" refX="9" refY="4" viewBox="0 0 12 8" orient="auto" markerUnits="userSpaceOnUse" stroke-dasharray="0,0"><path id="SvgjsPath1083" d="M0,0 L12,4 L0,8 L0,0" fill="#323232" stroke="#323232" stroke-width="1"></path></marker></defs><g id="SvgjsG1008" transform="translate(25,100)"><path id="SvgjsPath1009" d="M 0 4Q 0 0 4 0L 624 0Q 628 0 628 4L 628 117.63117000034879Q 628 121.63117000034879 624 121.63117000034879L 4 121.63117000034879Q 0 121.63117000034879 0 117.63117000034879Z" stroke-dasharray="10,6" stroke="rgba(50,50,50,1)" stroke-width="1" fill="none"></path><g id="SvgjsG1010"><text id="SvgjsText1011" font-family="&quot;Times New Roman&quot;" text-anchor="middle" font-size="13px" width="608px" fill="#323232" font-weight="400" align="middle" lineHeight="125%" anchor="middle" family="&quot;Times New Roman&quot;" size="13px" weight="400" font-style="" opacity="1" y="50.190585000174394" transform="rotate(0)"></text></g></g><g id="SvgjsG1012" transform="translate(264,25)"><path id="SvgjsPath1013" d="M 0 4Q 0 0 4 0L 146 0Q 150 0 150 4L 150 41Q 150 45 146 45L 4 45Q 0 45 0 41Z" stroke="rgba(50,50,50,1)" stroke-width="1" fill-opacity="1" fill="#cce5ff"></path><g id="SvgjsG1014"><text id="SvgjsText1015" font-family="&quot;Times New Roman&quot;" text-anchor="middle" font-size="13px" width="130px" fill="#323232" font-weight="400" align="middle" lineHeight="125%" anchor="middle" family="&quot;Times New Roman&quot;" size="13px" weight="400" font-style="" opacity="1" y="11.875" transform="rotate(0)"><tspan id="SvgjsTspan1016" dy="16" x="75"><tspan id="SvgjsTspan1017" style="text-decoration:;">加载</tspan></tspan></text></g></g><g id="SvgjsG1018" transform="translate(56,101.63117000034879)"><path id="SvgjsPath1019" d="M 0 0L 566 0L 566 45L 0 45Z" stroke="none" fill="none"></path><g id="SvgjsG1020"><text id="SvgjsText1021" font-family="微软雅黑" text-anchor="start" font-size="13px" width="566px" fill="#000000" font-weight="400" align="middle" lineHeight="125%" anchor="start" family="微软雅黑" size="13px" weight="400" font-style="" opacity="1" y="11.875" transform="rotate(0)"><tspan id="SvgjsTspan1022" dy="16" x="0"><tspan id="SvgjsTspan1023" style="text-decoration:;">链接</tspan></tspan></text></g></g><g id="SvgjsG1024" transform="translate(264,146.6311700003488)"><path id="SvgjsPath1025" d="M 0 4Q 0 0 4 0L 146 0Q 150 0 150 4L 150 41Q 150 45 146 45L 4 45Q 0 45 0 41Z" stroke="rgba(50,50,50,1)" stroke-width="1" fill-opacity="1" fill="#cce5ff"></path><g id="SvgjsG1026"><text id="SvgjsText1027" font-family="&quot;Times New Roman&quot;" text-anchor="middle" font-size="13px" width="130px" fill="#323232" font-weight="400" align="middle" lineHeight="125%" anchor="middle" family="&quot;Times New Roman&quot;" size="13px" weight="400" font-style="" opacity="1" y="11.875" transform="rotate(0)"><tspan id="SvgjsTspan1028" dy="16" x="75"><tspan id="SvgjsTspan1029" style="text-decoration:;">准备</tspan></tspan></text></g></g><g id="SvgjsG1030" transform="translate(54,146.6311700003488)"><path id="SvgjsPath1031" d="M 0 4Q 0 0 4 0L 146 0Q 150 0 150 4L 150 41Q 150 45 146 45L 4 45Q 0 45 0 41Z" stroke="rgba(50,50,50,1)" stroke-width="1" fill-opacity="1" fill="#cce5ff"></path><g id="SvgjsG1032"><text id="SvgjsText1033" font-family="&quot;Times New Roman&quot;" text-anchor="middle" font-size="13px" width="130px" fill="#323232" font-weight="400" align="middle" lineHeight="125%" anchor="middle" family="&quot;Times New Roman&quot;" size="13px" weight="400" font-style="" opacity="1" y="11.875" transform="rotate(0)"><tspan id="SvgjsTspan1034" dy="16" x="75"><tspan id="SvgjsTspan1035" style="text-decoration:;">验证</tspan></tspan></text></g></g><g id="SvgjsG1036" transform="translate(474,146.6311700003488)"><path id="SvgjsPath1037" d="M 0 4Q 0 0 4 0L 146 0Q 150 0 150 4L 150 41Q 150 45 146 45L 4 45Q 0 45 0 41Z" stroke="rgba(50,50,50,1)" stroke-width="1" fill-opacity="1" fill="#cce5ff"></path><g id="SvgjsG1038"><text id="SvgjsText1039" font-family="&quot;Times New Roman&quot;" text-anchor="middle" font-size="13px" width="130px" fill="#323232" font-weight="400" align="middle" lineHeight="125%" anchor="middle" family="&quot;Times New Roman&quot;" size="13px" weight="400" font-style="" opacity="1" y="11.875" transform="rotate(0)"><tspan id="SvgjsTspan1040" dy="16" x="75"><tspan id="SvgjsTspan1041" style="text-decoration:;">解析</tspan></tspan></text></g></g><g id="SvgjsG1042" transform="translate(264,251.6311700003488)"><path id="SvgjsPath1043" d="M 0 4Q 0 0 4 0L 146 0Q 150 0 150 4L 150 41Q 150 45 146 45L 4 45Q 0 45 0 41Z" stroke="rgba(50,50,50,1)" stroke-width="1" fill-opacity="1" fill="#cce5ff"></path><g id="SvgjsG1044"><text id="SvgjsText1045" font-family="&quot;Times New Roman&quot;" text-anchor="middle" font-size="13px" width="130px" fill="#323232" font-weight="400" align="middle" lineHeight="125%" anchor="middle" family="&quot;Times New Roman&quot;" size="13px" weight="400" font-style="" opacity="1" y="11.875" transform="rotate(0)"><tspan id="SvgjsTspan1046" dy="16" x="75"><tspan id="SvgjsTspan1047" style="text-decoration:;">初始化</tspan></tspan></text></g></g><g id="SvgjsG1048" transform="translate(264,326.6311700003488)"><path id="SvgjsPath1049" d="M 0 4Q 0 0 4 0L 146 0Q 150 0 150 4L 150 41Q 150 45 146 45L 4 45Q 0 45 0 41Z" stroke="rgba(50,50,50,1)" stroke-width="1" fill-opacity="1" fill="#ffffff"></path><g id="SvgjsG1050"><text id="SvgjsText1051" font-family="&quot;Times New Roman&quot;" text-anchor="middle" font-size="13px" width="130px" fill="#323232" font-weight="400" align="middle" lineHeight="125%" anchor="middle" family="&quot;Times New Roman&quot;" size="13px" weight="400" font-style="" opacity="1" y="11.875" transform="rotate(0)"><tspan id="SvgjsTspan1052" dy="16" x="75"><tspan id="SvgjsTspan1053" style="text-decoration:;">使用</tspan></tspan></text></g></g><g id="SvgjsG1054" transform="translate(264,401.6311700003488)"><path id="SvgjsPath1055" d="M 0 4Q 0 0 4 0L 146 0Q 150 0 150 4L 150 41Q 150 45 146 45L 4 45Q 0 45 0 41Z" stroke="rgba(50,50,50,1)" stroke-width="1" fill-opacity="1" fill="#ffffff"></path><g id="SvgjsG1056"><text id="SvgjsText1057" font-family="&quot;Times New Roman&quot;" text-anchor="middle" font-size="13px" width="130px" fill="#323232" font-weight="400" align="middle" lineHeight="125%" anchor="middle" family="&quot;Times New Roman&quot;" size="13px" weight="400" font-style="" opacity="1" y="11.875" transform="rotate(0)"><tspan id="SvgjsTspan1058" dy="16" x="75"><tspan id="SvgjsTspan1059" style="text-decoration:;">卸载</tspan></tspan></text></g></g><g id="SvgjsG1060"><path id="SvgjsPath1061" d="M338.53029576878146 70.17139992758283L130.69093523238678 146.01413026105064" stroke="#323232" stroke-width="1" fill="none" marker-end="url(#SvgjsMarker1062)"></path></g><g id="SvgjsG1064"><path id="SvgjsPath1065" d="M204.5 169.1311700003488L262.2 169.1311700003488" stroke="#323232" stroke-width="1" fill="none" marker-end="url(#SvgjsMarker1066)"></path></g><g id="SvgjsG1068"><path id="SvgjsPath1069" d="M414.5 169.1311700003488L472.20000000000005 169.1311700003488" stroke="#323232" stroke-width="1" fill="none" marker-end="url(#SvgjsMarker1070)"></path></g><g id="SvgjsG1072"><path id="SvgjsPath1073" d="M548.5192380261796 191.76853056429746L340.7307431057535 251.13667197013353" stroke="#323232" stroke-width="1" fill="none" marker-end="url(#SvgjsMarker1074)"></path></g><g id="SvgjsG1076"><path id="SvgjsPath1077" d="M339 297.1311700003488L339 324.8311700003488" stroke="#323232" stroke-width="1" fill="none" marker-end="url(#SvgjsMarker1078)"></path></g><g id="SvgjsG1080"><path id="SvgjsPath1081" d="M339 372.1311700003488L339 399.83117000034883" stroke="#323232" stroke-width="1" fill="none" marker-end="url(#SvgjsMarker1082)"></path></g></svg>