<svg id="SvgjsSvg1006" width="942.5" height="320.5" xmlns="http://www.w3.org/2000/svg" version="1.1" xmlns:xlink="http://www.w3.org/1999/xlink" xmlns:svgjs="http://svgjs.com/svgjs"><defs id="SvgjsDefs1007"><marker id="SvgjsMarker1038" markerWidth="12" markerHeight="8" refX="9" refY="4" viewBox="0 0 12 8" orient="auto" markerUnits="userSpaceOnUse" stroke-dasharray="0,0"><path id="SvgjsPath1039" d="M0,0 L12,4 L0,8 L0,0" fill="#64b5f6" stroke="#64b5f6" stroke-width="1"></path></marker><marker id="SvgjsMarker1042" markerWidth="12" markerHeight="8" refX="9" refY="4" viewBox="0 0 12 8" orient="auto" markerUnits="userSpaceOnUse" stroke-dasharray="0,0"><path id="SvgjsPath1043" d="M0,0 L12,4 L0,8 L0,0" fill="#64b5f6" stroke="#64b5f6" stroke-width="1"></path></marker><marker id="SvgjsMarker1046" markerWidth="12" markerHeight="8" refX="9" refY="4" viewBox="0 0 12 8" orient="auto" markerUnits="userSpaceOnUse" stroke-dasharray="0,0"><path id="SvgjsPath1047" d="M0,0 L12,4 L0,8 L0,0" fill="#64b5f6" stroke="#64b5f6" stroke-width="1"></path></marker><marker id="SvgjsMarker1050" markerWidth="12" markerHeight="8" refX="9" refY="4" viewBox="0 0 12 8" orient="auto" markerUnits="userSpaceOnUse" stroke-dasharray="0,0"><path id="SvgjsPath1051" d="M0,0 L12,4 L0,8 L0,0" fill="#64b5f6" stroke="#64b5f6" stroke-width="1"></path></marker><marker id="SvgjsMarker1082" markerWidth="12" markerHeight="8" refX="9" refY="4" viewBox="0 0 12 8" orient="auto" markerUnits="userSpaceOnUse" stroke-dasharray="0,0"><path id="SvgjsPath1083" d="M0,0 L12,4 L0,8 L0,0" fill="#323232" stroke="#323232" stroke-width="1"></path></marker><marker id="SvgjsMarker1112" markerWidth="12" markerHeight="8" refX="9" refY="4" viewBox="0 0 12 8" orient="auto" markerUnits="userSpaceOnUse" stroke-dasharray="0,0"><path id="SvgjsPath1113" d="M0,0 L12,4 L0,8 L0,0" fill="#64b5f6" stroke="#64b5f6" stroke-width="1"></path></marker><marker id="SvgjsMarker1116" markerWidth="12" markerHeight="8" refX="9" refY="4" viewBox="0 0 12 8" orient="auto" markerUnits="userSpaceOnUse" stroke-dasharray="0,0"><path id="SvgjsPath1117" d="M0,0 L12,4 L0,8 L0,0" fill="#64b5f6" stroke="#64b5f6" stroke-width="1"></path></marker><marker id="SvgjsMarker1120" markerWidth="12" markerHeight="8" refX="9" refY="4" viewBox="0 0 12 8" orient="auto" markerUnits="userSpaceOnUse" stroke-dasharray="0,0"><path id="SvgjsPath1121" d="M0,0 L12,4 L0,8 L0,0" fill="#64b5f6" stroke="#64b5f6" stroke-width="1"></path></marker><marker id="SvgjsMarker1124" markerWidth="12" markerHeight="8" refX="9" refY="4" viewBox="0 0 12 8" orient="auto" markerUnits="userSpaceOnUse" stroke-dasharray="0,0"><path id="SvgjsPath1125" d="M0,0 L12,4 L0,8 L0,0" fill="#64b5f6" stroke="#64b5f6" stroke-width="1"></path></marker><marker id="SvgjsMarker1174" markerWidth="12" markerHeight="8" refX="9" refY="4" viewBox="0 0 12 8" orient="auto" markerUnits="userSpaceOnUse" stroke-dasharray="0,0"><path id="SvgjsPath1175" d="M0,0 L12,4 L0,8 L0,0" fill="#323232" stroke="#323232" stroke-width="1"></path></marker><marker id="SvgjsMarker1184" markerWidth="12" markerHeight="8" refX="9" refY="4" viewBox="0 0 12 8" orient="auto" markerUnits="userSpaceOnUse" stroke-dasharray="0,0"><path id="SvgjsPath1185" d="M0,0 L12,4 L0,8 L0,0" fill="#64b5f6" stroke="#64b5f6" stroke-width="1"></path></marker><marker id="SvgjsMarker1188" markerWidth="12" markerHeight="8" refX="9" refY="4" viewBox="0 0 12 8" orient="auto" markerUnits="userSpaceOnUse" stroke-dasharray="0,0"><path id="SvgjsPath1189" d="M0,0 L12,4 L0,8 L0,0" fill="#64b5f6" stroke="#64b5f6" stroke-width="1"></path></marker><marker id="SvgjsMarker1192" markerWidth="12" markerHeight="8" refX="9" refY="4" viewBox="0 0 12 8" orient="auto" markerUnits="userSpaceOnUse" stroke-dasharray="0,0"><path id="SvgjsPath1193" d="M0,0 L12,4 L0,8 L0,0" fill="#64b5f6" stroke="#64b5f6" stroke-width="1"></path></marker><marker id="SvgjsMarker1196" markerWidth="12" markerHeight="8" refX="9" refY="4" viewBox="0 0 12 8" orient="auto" markerUnits="userSpaceOnUse" stroke-dasharray="0,0"><path id="SvgjsPath1197" d="M0,0 L12,4 L0,8 L0,0" fill="#64b5f6" stroke="#64b5f6" stroke-width="1"></path></marker></defs><g id="SvgjsG1008" transform="translate(175,55.5061700003489)"><path id="SvgjsPath1009" d="M 0 4Q 0 0 4 0L 16 0Q 20 0 20 4L 20 191Q 20 195 16 195L 4 195Q 0 195 0 191Z" stroke="rgba(50,50,50,1)" stroke-width="1" fill-opacity="1" fill="#f5f5f5"></path><g id="SvgjsG1010"><text id="SvgjsText1011" font-family="&quot;Times New Roman&quot;" text-anchor="middle" font-size="13px" width="0px" fill="#323232" font-weight="400" align="middle" lineHeight="125%" anchor="middle" family="&quot;Times New Roman&quot;" size="13px" weight="400" font-style="" opacity="1" y="86.875" transform="rotate(0)"></text></g></g><g id="SvgjsG1012" transform="translate(25,55.5061700003489)"><path id="SvgjsPath1013" d="M 0 4Q 0 0 4 0L 56 0Q 60 0 60 4L 60 26Q 60 30 56 30L 4 30Q 0 30 0 26Z" stroke="rgba(50,50,50,1)" stroke-width="1" fill-opacity="1" fill="#ffffff"></path><g id="SvgjsG1014"><text id="SvgjsText1015" font-family="&quot;Times New Roman&quot;" text-anchor="middle" font-size="12px" width="40px" fill="#323232" font-weight="400" align="middle" lineHeight="125%" anchor="middle" family="&quot;Times New Roman&quot;" size="12px" weight="400" font-style="" opacity="1" y="5" transform="rotate(0)"><tspan id="SvgjsTspan1016" dy="15" x="30"><tspan id="SvgjsTspan1017" style="text-decoration:;">CPU 0</tspan></tspan></text></g></g><g id="SvgjsG1018" transform="translate(25,110.5061700003489)"><path id="SvgjsPath1019" d="M 0 4Q 0 0 4 0L 56 0Q 60 0 60 4L 60 26Q 60 30 56 30L 4 30Q 0 30 0 26Z" stroke="rgba(50,50,50,1)" stroke-width="1" fill-opacity="1" fill="#ffffff"></path><g id="SvgjsG1020"><text id="SvgjsText1021" font-family="&quot;Times New Roman&quot;" text-anchor="middle" font-size="12px" width="40px" fill="#323232" font-weight="400" align="middle" lineHeight="125%" anchor="middle" family="&quot;Times New Roman&quot;" size="12px" weight="400" font-style="" opacity="1" y="5" transform="rotate(0)"><tspan id="SvgjsTspan1022" dy="15" x="30"><tspan id="SvgjsTspan1023" style="text-decoration:;">CPU 1</tspan></tspan></text></g></g><g id="SvgjsG1024" transform="translate(25,165.5061700003489)"><path id="SvgjsPath1025" d="M 0 4Q 0 0 4 0L 56 0Q 60 0 60 4L 60 26Q 60 30 56 30L 4 30Q 0 30 0 26Z" stroke="rgba(50,50,50,1)" stroke-width="1" fill-opacity="1" fill="#ffffff"></path><g id="SvgjsG1026"><text id="SvgjsText1027" font-family="&quot;Times New Roman&quot;" text-anchor="middle" font-size="12px" width="40px" fill="#323232" font-weight="400" align="middle" lineHeight="125%" anchor="middle" family="&quot;Times New Roman&quot;" size="12px" weight="400" font-style="" opacity="1" y="5" transform="rotate(0)"><tspan id="SvgjsTspan1028" dy="15" x="30"><tspan id="SvgjsTspan1029" style="text-decoration:;">CPU 2</tspan></tspan></text></g></g><g id="SvgjsG1030" transform="translate(25,220.5061700003489)"><path id="SvgjsPath1031" d="M 0 4Q 0 0 4 0L 56 0Q 60 0 60 4L 60 26Q 60 30 56 30L 4 30Q 0 30 0 26Z" stroke="rgba(50,50,50,1)" stroke-width="1" fill-opacity="1" fill="#ffffff"></path><g id="SvgjsG1032"><text id="SvgjsText1033" font-family="&quot;Times New Roman&quot;" text-anchor="middle" font-size="12px" width="40px" fill="#323232" font-weight="400" align="middle" lineHeight="125%" anchor="middle" family="&quot;Times New Roman&quot;" size="12px" weight="400" font-style="" opacity="1" y="5" transform="rotate(0)"><tspan id="SvgjsTspan1034" dy="15" x="30"><tspan id="SvgjsTspan1035" style="text-decoration:;">CPU 2</tspan></tspan></text></g></g><g id="SvgjsG1036"><path id="SvgjsPath1037" d="M85.5 70.5061700003489L130 70.5061700003489L130 70.5061700003489L173.2 70.5061700003489" stroke="#64b5f6" stroke-width="1" fill="none" marker-end="url(#SvgjsMarker1038)"></path></g><g id="SvgjsG1040"><path id="SvgjsPath1041" d="M85.5 125.5061700003489L130 125.5061700003489L130 125.5061700003489L173.2 125.5061700003489" stroke="#64b5f6" stroke-width="1" fill="none" marker-end="url(#SvgjsMarker1042)"></path></g><g id="SvgjsG1044"><path id="SvgjsPath1045" d="M85.5 180.5061700003489L130 180.5061700003489L130 180.5061700003489L173.2 180.5061700003489" stroke="#64b5f6" stroke-width="1" fill="none" marker-end="url(#SvgjsMarker1046)"></path></g><g id="SvgjsG1048"><path id="SvgjsPath1049" d="M85.5 235.5061700003489L130 235.5061700003489L130 235.5061700003489L173.2 235.5061700003489" stroke="#64b5f6" stroke-width="1" fill="none" marker-end="url(#SvgjsMarker1050)"></path></g><g id="SvgjsG1052" transform="translate(85,25.006170000348902)"><path id="SvgjsPath1053" d="M 0 0L 90 0L 90 45L 0 45Z" stroke="none" fill="none"></path><g id="SvgjsG1054"><text id="SvgjsText1055" font-family="&quot;Times New Roman&quot;" text-anchor="middle" font-size="13px" width="90px" fill="#323232" font-weight="400" align="middle" lineHeight="125%" anchor="middle" family="&quot;Times New Roman&quot;" size="13px" weight="400" font-style="" opacity="1" y="11.875" transform="rotate(0)"><tspan id="SvgjsTspan1056" dy="16" x="45"><tspan id="SvgjsTspan1057" style="text-decoration:;">用户线程 1</tspan></tspan></text></g></g><g id="SvgjsG1058" transform="translate(85,80.0061700003489)"><path id="SvgjsPath1059" d="M 0 0L 90 0L 90 45L 0 45Z" stroke="none" fill="none"></path><g id="SvgjsG1060"><text id="SvgjsText1061" font-family="&quot;Times New Roman&quot;" text-anchor="middle" font-size="13px" width="90px" fill="#323232" font-weight="400" align="middle" lineHeight="125%" anchor="middle" family="&quot;Times New Roman&quot;" size="13px" weight="400" font-style="" opacity="1" y="11.875" transform="rotate(0)"><tspan id="SvgjsTspan1062" dy="16" x="45"><tspan id="SvgjsTspan1063" style="text-decoration:;">用户线程 2</tspan></tspan></text></g></g><g id="SvgjsG1064" transform="translate(85,135.0061700003489)"><path id="SvgjsPath1065" d="M 0 0L 90 0L 90 45L 0 45Z" stroke="none" fill="none"></path><g id="SvgjsG1066"><text id="SvgjsText1067" font-family="&quot;Times New Roman&quot;" text-anchor="middle" font-size="13px" width="90px" fill="#323232" font-weight="400" align="middle" lineHeight="125%" anchor="middle" family="&quot;Times New Roman&quot;" size="13px" weight="400" font-style="" opacity="1" y="11.875" transform="rotate(0)"><tspan id="SvgjsTspan1068" dy="16" x="45"><tspan id="SvgjsTspan1069" style="text-decoration:;">用户线程 3</tspan></tspan></text></g></g><g id="SvgjsG1070" transform="translate(85,190.0061700003489)"><path id="SvgjsPath1071" d="M 0 0L 90 0L 90 45L 0 45Z" stroke="none" fill="none"></path><g id="SvgjsG1072"><text id="SvgjsText1073" font-family="&quot;Times New Roman&quot;" text-anchor="middle" font-size="13px" width="90px" fill="#323232" font-weight="400" align="middle" lineHeight="125%" anchor="middle" family="&quot;Times New Roman&quot;" size="13px" weight="400" font-style="" opacity="1" y="11.875" transform="rotate(0)"><tspan id="SvgjsTspan1074" dy="16" x="45"><tspan id="SvgjsTspan1075" style="text-decoration:;">用户线程 4</tspan></tspan></text></g></g><g id="SvgjsG1076" transform="translate(417,55.5061700003489)"><path id="SvgjsPath1077" d="M 0 4Q 0 0 4 0L 16 0Q 20 0 20 4L 20 191Q 20 195 16 195L 4 195Q 0 195 0 191Z" stroke="rgba(50,50,50,1)" stroke-width="1" fill-opacity="1" fill="#cce5ff"></path><g id="SvgjsG1078"><text id="SvgjsText1079" font-family="&quot;Times New Roman&quot;" text-anchor="middle" font-size="13px" width="0px" fill="#323232" font-weight="400" align="middle" lineHeight="125%" anchor="middle" family="&quot;Times New Roman&quot;" size="13px" weight="400" font-style="" opacity="1" y="86.875" transform="rotate(0)"></text></g></g><g id="SvgjsG1080"><path id="SvgjsPath1081" d="M195.5 153.0061700003489L306 153.0061700003489L306 153.0061700003489L415.20000000000005 153.0061700003489" stroke="#323232" stroke-width="1" fill="none" marker-end="url(#SvgjsMarker1082)"></path></g><g id="SvgjsG1084" transform="translate(261,108.5061700003489)"><path id="SvgjsPath1085" d="M 0 0L 90 0L 90 45L 0 45Z" stroke="none" fill="none"></path><g id="SvgjsG1086"><text id="SvgjsText1087" font-family="&quot;Times New Roman&quot;" text-anchor="middle" font-size="13px" width="90px" fill="#323232" font-weight="400" align="middle" lineHeight="125%" anchor="middle" family="&quot;Times New Roman&quot;" size="13px" weight="400" font-style="" opacity="1" y="11.875" transform="rotate(0)"><tspan id="SvgjsTspan1088" dy="16" x="45"><tspan id="SvgjsTspan1089" style="text-decoration:;">GC 线程</tspan></tspan></text></g></g><g id="SvgjsG1090" transform="translate(196,165.5061700003489)"><path id="SvgjsPath1091" d="M 0 0L 220 0L 220 45L 0 45Z" stroke="none" fill="none"></path><g id="SvgjsG1092"><text id="SvgjsText1093" font-family="&quot;Times New Roman&quot;" text-anchor="middle" font-size="13px" width="220px" fill="#323232" font-weight="400" align="middle" lineHeight="150%" anchor="middle" family="&quot;Times New Roman&quot;" size="13px" weight="400" font-style="" opacity="1" y="-1.25" transform="rotate(0)"><tspan id="SvgjsTspan1094" dy="19" x="110"><tspan id="SvgjsTspan1095" style="text-decoration:;">暂停所有用户线程</tspan></tspan><tspan id="SvgjsTspan1096" dy="19" x="110"><tspan id="SvgjsTspan1097" style="text-decoration:;">标记-复制算法回收新生代</tspan></tspan></text></g></g><g id="SvgjsG1098" transform="translate(140,250.5061700003489)"><path id="SvgjsPath1099" d="M 0 0L 90 0L 90 45L 0 45Z" stroke="none" fill="none"></path><g id="SvgjsG1100"><text id="SvgjsText1101" font-family="&quot;Times New Roman&quot;" text-anchor="middle" font-size="13px" width="90px" fill="#323232" font-weight="400" align="middle" lineHeight="125%" anchor="middle" family="&quot;Times New Roman&quot;" size="13px" weight="400" font-style="" opacity="1" y="11.875" transform="rotate(0)"><tspan id="SvgjsTspan1102" dy="16" x="45"><tspan id="SvgjsTspan1103" style="text-decoration:;">Safe Point</tspan></tspan></text></g></g><g id="SvgjsG1104" transform="translate(383,250.5061700003489)"><path id="SvgjsPath1105" d="M 0 0L 90 0L 90 45L 0 45Z" stroke="none" fill="none"></path><g id="SvgjsG1106"><text id="SvgjsText1107" font-family="&quot;Times New Roman&quot;" text-anchor="middle" font-size="13px" width="90px" fill="#323232" font-weight="400" align="middle" lineHeight="125%" anchor="middle" family="&quot;Times New Roman&quot;" size="13px" weight="400" font-style="" opacity="1" y="11.875" transform="rotate(0)"><tspan id="SvgjsTspan1108" dy="16" x="45"><tspan id="SvgjsTspan1109" style="text-decoration:;">Safe Point</tspan></tspan></text></g></g><g id="SvgjsG1110"><path id="SvgjsPath1111" d="M437.5 70.375L490 70.375L490 70.375L541.2 70.375" stroke="#64b5f6" stroke-width="1" fill="none" marker-end="url(#SvgjsMarker1112)"></path></g><g id="SvgjsG1114"><path id="SvgjsPath1115" d="M437.5 124.375L490 124.375L490 124.375L541.2 124.375" stroke="#64b5f6" stroke-width="1" fill="none" marker-end="url(#SvgjsMarker1116)"></path></g><g id="SvgjsG1118"><path id="SvgjsPath1119" d="M437.5 180.0061700003489L490 180.0061700003489L490 180.0061700003489L541.2 180.0061700003489" stroke="#64b5f6" stroke-width="1" fill="none" marker-end="url(#SvgjsMarker1120)"></path></g><g id="SvgjsG1122"><path id="SvgjsPath1123" d="M437.5 236.375L490 236.375L490 236.375L541.2 236.375" stroke="#64b5f6" stroke-width="1" fill="none" marker-end="url(#SvgjsMarker1124)"></path></g><g id="SvgjsG1126" transform="translate(445,25.006170000348902)"><path id="SvgjsPath1127" d="M 0 0L 90 0L 90 45L 0 45Z" stroke="none" fill="none"></path><g id="SvgjsG1128"><text id="SvgjsText1129" font-family="&quot;Times New Roman&quot;" text-anchor="middle" font-size="13px" width="90px" fill="#323232" font-weight="400" align="middle" lineHeight="125%" anchor="middle" family="&quot;Times New Roman&quot;" size="13px" weight="400" font-style="" opacity="1" y="11.875" transform="rotate(0)"><tspan id="SvgjsTspan1130" dy="16" x="45"><tspan id="SvgjsTspan1131" style="text-decoration:;">用户线程 1</tspan></tspan></text></g></g><g id="SvgjsG1132" transform="translate(445,80.0061700003489)"><path id="SvgjsPath1133" d="M 0 0L 90 0L 90 45L 0 45Z" stroke="none" fill="none"></path><g id="SvgjsG1134"><text id="SvgjsText1135" font-family="&quot;Times New Roman&quot;" text-anchor="middle" font-size="13px" width="90px" fill="#323232" font-weight="400" align="middle" lineHeight="125%" anchor="middle" family="&quot;Times New Roman&quot;" size="13px" weight="400" font-style="" opacity="1" y="11.875" transform="rotate(0)"><tspan id="SvgjsTspan1136" dy="16" x="45"><tspan id="SvgjsTspan1137" style="text-decoration:;">用户线程 2</tspan></tspan></text></g></g><g id="SvgjsG1138" transform="translate(445,135.0061700003489)"><path id="SvgjsPath1139" d="M 0 0L 90 0L 90 45L 0 45Z" stroke="none" fill="none"></path><g id="SvgjsG1140"><text id="SvgjsText1141" font-family="&quot;Times New Roman&quot;" text-anchor="middle" font-size="13px" width="90px" fill="#323232" font-weight="400" align="middle" lineHeight="125%" anchor="middle" family="&quot;Times New Roman&quot;" size="13px" weight="400" font-style="" opacity="1" y="11.875" transform="rotate(0)"><tspan id="SvgjsTspan1142" dy="16" x="45"><tspan id="SvgjsTspan1143" style="text-decoration:;">用户线程 3</tspan></tspan></text></g></g><g id="SvgjsG1144" transform="translate(445,190.0061700003489)"><path id="SvgjsPath1145" d="M 0 0L 90 0L 90 45L 0 45Z" stroke="none" fill="none"></path><g id="SvgjsG1146"><text id="SvgjsText1147" font-family="&quot;Times New Roman&quot;" text-anchor="middle" font-size="13px" width="90px" fill="#323232" font-weight="400" align="middle" lineHeight="125%" anchor="middle" family="&quot;Times New Roman&quot;" size="13px" weight="400" font-style="" opacity="1" y="11.875" transform="rotate(0)"><tspan id="SvgjsTspan1148" dy="16" x="45"><tspan id="SvgjsTspan1149" style="text-decoration:;">用户线程 4</tspan></tspan></text></g></g><g id="SvgjsG1150" transform="translate(543,55.0061700003489)"><path id="SvgjsPath1151" d="M 0 4Q 0 0 4 0L 16 0Q 20 0 20 4L 20 191Q 20 195 16 195L 4 195Q 0 195 0 191Z" stroke="rgba(50,50,50,1)" stroke-width="1" fill-opacity="1" fill="#f5f5f5"></path><g id="SvgjsG1152"><text id="SvgjsText1153" font-family="&quot;Times New Roman&quot;" text-anchor="middle" font-size="13px" width="0px" fill="#323232" font-weight="400" align="middle" lineHeight="125%" anchor="middle" family="&quot;Times New Roman&quot;" size="13px" weight="400" font-style="" opacity="1" y="86.875" transform="rotate(0)"></text></g></g><g id="SvgjsG1154" transform="translate(508,250.5061700003489)"><path id="SvgjsPath1155" d="M 0 0L 90 0L 90 45L 0 45Z" stroke="none" fill="none"></path><g id="SvgjsG1156"><text id="SvgjsText1157" font-family="&quot;Times New Roman&quot;" text-anchor="middle" font-size="13px" width="90px" fill="#323232" font-weight="400" align="middle" lineHeight="125%" anchor="middle" family="&quot;Times New Roman&quot;" size="13px" weight="400" font-style="" opacity="1" y="11.875" transform="rotate(0)"><tspan id="SvgjsTspan1158" dy="16" x="45"><tspan id="SvgjsTspan1159" style="text-decoration:;">Safe Point</tspan></tspan></text></g></g><g id="SvgjsG1160" transform="translate(564,165.5061700003489)"><path id="SvgjsPath1161" d="M 0 0L 220 0L 220 45L 0 45Z" stroke="none" fill="none"></path><g id="SvgjsG1162"><text id="SvgjsText1163" font-family="&quot;Times New Roman&quot;" text-anchor="middle" font-size="13px" width="220px" fill="#323232" font-weight="400" align="middle" lineHeight="150%" anchor="middle" family="&quot;Times New Roman&quot;" size="13px" weight="400" font-style="" opacity="1" y="-1.25" transform="rotate(0)"><tspan id="SvgjsTspan1164" dy="19" x="110"><tspan id="SvgjsTspan1165" style="text-decoration:;">暂停所有用户线程</tspan></tspan><tspan id="SvgjsTspan1166" dy="19" x="110"><tspan id="SvgjsTspan1167" style="text-decoration:;">标记-整理算法回收老年代</tspan></tspan></text></g></g><g id="SvgjsG1168" transform="translate(785,55.5061700003489)"><path id="SvgjsPath1169" d="M 0 4Q 0 0 4 0L 16 0Q 20 0 20 4L 20 191Q 20 195 16 195L 4 195Q 0 195 0 191Z" stroke="rgba(50,50,50,1)" stroke-width="1" fill-opacity="1" fill="#cce5ff"></path><g id="SvgjsG1170"><text id="SvgjsText1171" font-family="&quot;Times New Roman&quot;" text-anchor="middle" font-size="13px" width="0px" fill="#323232" font-weight="400" align="middle" lineHeight="125%" anchor="middle" family="&quot;Times New Roman&quot;" size="13px" weight="400" font-style="" opacity="1" y="86.875" transform="rotate(0)"></text></g></g><g id="SvgjsG1172"><path id="SvgjsPath1173" d="M563.5 153.0061700003489L674 153.0061700003489L674 153.0061700003489L783.2 153.0061700003489" stroke="#323232" stroke-width="1" fill="none" marker-end="url(#SvgjsMarker1174)"></path></g><g id="SvgjsG1176" transform="translate(629,108.5061700003489)"><path id="SvgjsPath1177" d="M 0 0L 90 0L 90 45L 0 45Z" stroke="none" fill="none"></path><g id="SvgjsG1178"><text id="SvgjsText1179" font-family="&quot;Times New Roman&quot;" text-anchor="middle" font-size="13px" width="90px" fill="#323232" font-weight="400" align="middle" lineHeight="125%" anchor="middle" family="&quot;Times New Roman&quot;" size="13px" weight="400" font-style="" opacity="1" y="11.875" transform="rotate(0)"><tspan id="SvgjsTspan1180" dy="16" x="45"><tspan id="SvgjsTspan1181" style="text-decoration:;">GC 线程</tspan></tspan></text></g></g><g id="SvgjsG1182"><path id="SvgjsPath1183" d="M805.5 70.375L861 70.375L861 70.375L917 70.375" stroke="#64b5f6" stroke-width="1" fill="none" marker-end="url(#SvgjsMarker1184)"></path></g><g id="SvgjsG1186"><path id="SvgjsPath1187" d="M805.5 236.375L861 236.375L861 236.375L917 236.375" stroke="#64b5f6" stroke-width="1" fill="none" marker-end="url(#SvgjsMarker1188)"></path></g><g id="SvgjsG1190"><path id="SvgjsPath1191" d="M805.5 124.375L861 124.375L861 124.375L917 124.375" stroke="#64b5f6" stroke-width="1" fill="none" marker-end="url(#SvgjsMarker1192)"></path></g><g id="SvgjsG1194"><path id="SvgjsPath1195" d="M805.5 180.375L861 180.375L861 180.375L917 180.375" stroke="#64b5f6" stroke-width="1" fill="none" marker-end="url(#SvgjsMarker1196)"></path></g><g id="SvgjsG1198" transform="translate(821,25.006170000348902)"><path id="SvgjsPath1199" d="M 0 0L 90 0L 90 45L 0 45Z" stroke="none" fill="none"></path><g id="SvgjsG1200"><text id="SvgjsText1201" font-family="&quot;Times New Roman&quot;" text-anchor="middle" font-size="13px" width="90px" fill="#323232" font-weight="400" align="middle" lineHeight="125%" anchor="middle" family="&quot;Times New Roman&quot;" size="13px" weight="400" font-style="" opacity="1" y="11.875" transform="rotate(0)"><tspan id="SvgjsTspan1202" dy="16" x="45"><tspan id="SvgjsTspan1203" style="text-decoration:;">用户线程 1</tspan></tspan></text></g></g><g id="SvgjsG1204" transform="translate(821,80.0061700003489)"><path id="SvgjsPath1205" d="M 0 0L 90 0L 90 45L 0 45Z" stroke="none" fill="none"></path><g id="SvgjsG1206"><text id="SvgjsText1207" font-family="&quot;Times New Roman&quot;" text-anchor="middle" font-size="13px" width="90px" fill="#323232" font-weight="400" align="middle" lineHeight="125%" anchor="middle" family="&quot;Times New Roman&quot;" size="13px" weight="400" font-style="" opacity="1" y="11.875" transform="rotate(0)"><tspan id="SvgjsTspan1208" dy="16" x="45"><tspan id="SvgjsTspan1209" style="text-decoration:;">用户线程 2</tspan></tspan></text></g></g><g id="SvgjsG1210" transform="translate(821,135.0061700003489)"><path id="SvgjsPath1211" d="M 0 0L 90 0L 90 45L 0 45Z" stroke="none" fill="none"></path><g id="SvgjsG1212"><text id="SvgjsText1213" font-family="&quot;Times New Roman&quot;" text-anchor="middle" font-size="13px" width="90px" fill="#323232" font-weight="400" align="middle" lineHeight="125%" anchor="middle" family="&quot;Times New Roman&quot;" size="13px" weight="400" font-style="" opacity="1" y="11.875" transform="rotate(0)"><tspan id="SvgjsTspan1214" dy="16" x="45"><tspan id="SvgjsTspan1215" style="text-decoration:;">用户线程 3</tspan></tspan></text></g></g><g id="SvgjsG1216" transform="translate(821,192.0061700003489)"><path id="SvgjsPath1217" d="M 0 0L 90 0L 90 45L 0 45Z" stroke="none" fill="none"></path><g id="SvgjsG1218"><text id="SvgjsText1219" font-family="&quot;Times New Roman&quot;" text-anchor="middle" font-size="13px" width="90px" fill="#323232" font-weight="400" align="middle" lineHeight="125%" anchor="middle" family="&quot;Times New Roman&quot;" size="13px" weight="400" font-style="" opacity="1" y="11.875" transform="rotate(0)"><tspan id="SvgjsTspan1220" dy="16" x="45"><tspan id="SvgjsTspan1221" style="text-decoration:;">用户线程 4</tspan></tspan></text></g></g><g id="SvgjsG1222" transform="translate(750,250.5061700003489)"><path id="SvgjsPath1223" d="M 0 0L 90 0L 90 45L 0 45Z" stroke="none" fill="none"></path><g id="SvgjsG1224"><text id="SvgjsText1225" font-family="&quot;Times New Roman&quot;" text-anchor="middle" font-size="13px" width="90px" fill="#323232" font-weight="400" align="middle" lineHeight="125%" anchor="middle" family="&quot;Times New Roman&quot;" size="13px" weight="400" font-style="" opacity="1" y="11.875" transform="rotate(0)"><tspan id="SvgjsTspan1226" dy="16" x="45"><tspan id="SvgjsTspan1227" style="text-decoration:;">Safe Point</tspan></tspan></text></g></g></svg>