<svg id="SvgjsSvg1114" width="632" height="529" xmlns="http://www.w3.org/2000/svg" version="1.1" xmlns:xlink="http://www.w3.org/1999/xlink" xmlns:svgjs="http://svgjs.com/svgjs"><defs id="SvgjsDefs1115"><marker id="SvgjsMarker1224" markerWidth="12" markerHeight="8" refX="9" refY="4" viewBox="0 0 12 8" orient="auto" markerUnits="userSpaceOnUse" stroke-dasharray="0,0"><path id="SvgjsPath1225" d="M0,0 L12,4 L0,8 L0,0" fill="#4d9900" stroke="#4d9900" stroke-width="1"></path></marker></defs><g id="SvgjsG1116" transform="translate(25,25.00617000034879)"><path id="SvgjsPath1117" d="M 0 0L 552 0L 552 478.8688299996512L 0 478.8688299996512Z" stroke="rgba(50,50,50,1)" stroke-width="1" fill-opacity="1" fill="#ffffff"></path><g id="SvgjsG1118"><text id="SvgjsText1119" font-family="&quot;Times New Roman&quot;" text-anchor="middle" font-size="13px" width="532px" fill="#323232" font-weight="400" align="middle" lineHeight="125%" anchor="middle" family="&quot;Times New Roman&quot;" size="13px" weight="400" font-style="" opacity="1" y="228.8094149998256" transform="rotate(0)"></text></g></g><g id="SvgjsG1120" transform="translate(58,383.0061700003488)"><path id="SvgjsPath1121" d="M 0 4Q 0 0 4 0L 484 0Q 488 0 488 4L 488 86Q 488 90 484 90L 4 90Q 0 90 0 86Z" stroke="rgba(50,50,50,1)" stroke-width="1" fill-opacity="1" fill="#ffffff"></path><g id="SvgjsG1122"><text id="SvgjsText1123" font-family="&quot;Times New Roman&quot;" text-anchor="middle" font-size="13px" width="468px" fill="#323232" font-weight="400" align="middle" lineHeight="125%" anchor="middle" family="&quot;Times New Roman&quot;" size="13px" weight="400" font-style="" opacity="1" y="25.875" transform="rotate(0)"><tspan id="SvgjsTspan1124" dy="16" x="244"><tspan id="SvgjsTspan1125" style="text-decoration:;">运行时常量池</tspan></tspan><tspan id="SvgjsTspan1126" dy="16" x="244"><tspan id="SvgjsTspan1127" style="text-decoration:;">Runtime Constant Pool</tspan></tspan></text></g></g><g id="SvgjsG1128" transform="translate(58,83.15779250008723)"><path id="SvgjsPath1129" d="M 0 4Q 0 0 4 0L 484 0Q 488 0 488 4L 488 266.28279250008717Q 488 270.28279250008717 484 270.28279250008717L 4 270.28279250008717Q 0 270.28279250008717 0 266.28279250008717Z" stroke="rgba(50,50,50,1)" stroke-width="1" fill-opacity="1" fill="#ffffff"></path><g id="SvgjsG1130"><text id="SvgjsText1131" font-family="&quot;Times New Roman&quot;" text-anchor="middle" font-size="13px" width="468px" fill="#323232" font-weight="400" align="middle" lineHeight="125%" anchor="middle" family="&quot;Times New Roman&quot;" size="13px" weight="400" font-style="" opacity="1" y="124.51639625004358" transform="rotate(0)"></text></g></g><g id="SvgjsG1132" transform="translate(91,144.0061700003488)"><path id="SvgjsPath1133" d="M 0 4Q 0 0 4 0L 116 0Q 120 0 120 4L 120 176Q 120 180 116 180L 4 180Q 0 180 0 176Z" stroke="rgba(50,50,50,1)" stroke-width="1" fill-opacity="1" fill="#cce5ff"></path><g id="SvgjsG1134"><text id="SvgjsText1135" font-family="&quot;Times New Roman&quot;" text-anchor="middle" font-size="13px" width="100px" fill="#323232" font-weight="400" align="middle" lineHeight="125%" anchor="middle" family="&quot;Times New Roman&quot;" size="13px" weight="400" font-style="" opacity="1" y="79.375" transform="rotate(0)"></text></g></g><g id="SvgjsG1136" transform="translate(91,145.0061700003488)"><path id="SvgjsPath1137" d="M 0 0L 120 0L 120 45L 0 45Z" stroke="none" fill="none"></path><g id="SvgjsG1138"><text id="SvgjsText1139" font-family="&quot;Times New Roman&quot;" text-anchor="middle" font-size="13px" width="120px" fill="#212121" font-weight="700" align="middle" lineHeight="125%" anchor="middle" family="&quot;Times New Roman&quot;" size="13px" weight="700" font-style="" opacity="1" y="11.875" transform="rotate(0)"><tspan id="SvgjsTspan1140" dy="16" x="60"><tspan id="SvgjsTspan1141" style="text-decoration:;">Class</tspan></tspan></text></g></g><g id="SvgjsG1142" transform="translate(92,190.5061700003488)"><path id="SvgjsPath1143" d="M 0 0L 120 0L 120 120L 0 120Z" stroke="none" fill="none"></path><g id="SvgjsG1144"><text id="SvgjsText1145" font-family="&quot;Times New Roman&quot;" text-anchor="middle" font-size="13px" width="120px" fill="#212121" font-weight="400" align="middle" lineHeight="150%" anchor="middle" family="&quot;Times New Roman&quot;" size="13px" weight="400" font-style="" opacity="1" y="-2.75" transform="rotate(0)"><tspan id="SvgjsTspan1146" dy="19" x="60"><tspan id="SvgjsTspan1147" style="text-decoration:;">方法表</tspan></tspan><tspan id="SvgjsTspan1148" dy="19" x="60"><tspan id="SvgjsTspan1149" style="text-decoration:;">字段、方法</tspan></tspan><tspan id="SvgjsTspan1150" dy="19" x="60"><tspan id="SvgjsTspan1151" style="text-decoration:;">类信息</tspan></tspan><tspan id="SvgjsTspan1152" dy="19" x="60"><tspan id="SvgjsTspan1153" style="text-decoration:;">类常量池</tspan></tspan><tspan id="SvgjsTspan1154" dy="19" x="60"><tspan id="SvgjsTspan1155" style="text-decoration:;">类加载器</tspan></tspan><tspan id="SvgjsTspan1156" dy="19" x="60"><tspan id="SvgjsTspan1157" style="text-decoration:;">类实例引用</tspan></tspan></text></g></g><g id="SvgjsG1158" transform="translate(241,144.0061700003488)"><path id="SvgjsPath1159" d="M 0 4Q 0 0 4 0L 116 0Q 120 0 120 4L 120 176Q 120 180 116 180L 4 180Q 0 180 0 176Z" stroke="rgba(50,50,50,1)" stroke-width="1" fill-opacity="1" fill="#cce5ff"></path><g id="SvgjsG1160"><text id="SvgjsText1161" font-family="&quot;Times New Roman&quot;" text-anchor="middle" font-size="13px" width="100px" fill="#323232" font-weight="400" align="middle" lineHeight="125%" anchor="middle" family="&quot;Times New Roman&quot;" size="13px" weight="400" font-style="" opacity="1" y="79.375" transform="rotate(0)"></text></g></g><g id="SvgjsG1162" transform="translate(241,145.0061700003488)"><path id="SvgjsPath1163" d="M 0 0L 120 0L 120 45L 0 45Z" stroke="none" fill="none"></path><g id="SvgjsG1164"><text id="SvgjsText1165" font-family="&quot;Times New Roman&quot;" text-anchor="middle" font-size="13px" width="120px" fill="#212121" font-weight="700" align="middle" lineHeight="125%" anchor="middle" family="&quot;Times New Roman&quot;" size="13px" weight="700" font-style="" opacity="1" y="11.875" transform="rotate(0)"><tspan id="SvgjsTspan1166" dy="16" x="60"><tspan id="SvgjsTspan1167" style="text-decoration:;">Class</tspan></tspan></text></g></g><g id="SvgjsG1168" transform="translate(242,190.5061700003488)"><path id="SvgjsPath1169" d="M 0 0L 120 0L 120 120L 0 120Z" stroke="none" fill="none"></path><g id="SvgjsG1170"><text id="SvgjsText1171" font-family="&quot;Times New Roman&quot;" text-anchor="middle" font-size="13px" width="120px" fill="#212121" font-weight="400" align="middle" lineHeight="150%" anchor="middle" family="&quot;Times New Roman&quot;" size="13px" weight="400" font-style="" opacity="1" y="-2.75" transform="rotate(0)"><tspan id="SvgjsTspan1172" dy="19" x="60"><tspan id="SvgjsTspan1173" style="text-decoration:;">方法表</tspan></tspan><tspan id="SvgjsTspan1174" dy="19" x="60"><tspan id="SvgjsTspan1175" style="text-decoration:;">字段、方法</tspan></tspan><tspan id="SvgjsTspan1176" dy="19" x="60"><tspan id="SvgjsTspan1177" style="text-decoration:;">类信息</tspan></tspan><tspan id="SvgjsTspan1178" dy="19" x="60"><tspan id="SvgjsTspan1179" style="text-decoration:;">类常量池</tspan></tspan><tspan id="SvgjsTspan1180" dy="19" x="60"><tspan id="SvgjsTspan1181" style="text-decoration:;">类加载器</tspan></tspan><tspan id="SvgjsTspan1182" dy="19" x="60"><tspan id="SvgjsTspan1183" style="text-decoration:;">类实例引用</tspan></tspan></text></g></g><g id="SvgjsG1184" transform="translate(391,144.0061700003488)"><path id="SvgjsPath1185" d="M 0 4Q 0 0 4 0L 116 0Q 120 0 120 4L 120 176Q 120 180 116 180L 4 180Q 0 180 0 176Z" stroke="rgba(50,50,50,1)" stroke-width="1" fill-opacity="1" fill="#cce5ff"></path><g id="SvgjsG1186"><text id="SvgjsText1187" font-family="&quot;Times New Roman&quot;" text-anchor="middle" font-size="13px" width="100px" fill="#323232" font-weight="400" align="middle" lineHeight="125%" anchor="middle" family="&quot;Times New Roman&quot;" size="13px" weight="400" font-style="" opacity="1" y="79.375" transform="rotate(0)"></text></g></g><g id="SvgjsG1188" transform="translate(391,145.0061700003488)"><path id="SvgjsPath1189" d="M 0 0L 120 0L 120 45L 0 45Z" stroke="none" fill="none"></path><g id="SvgjsG1190"><text id="SvgjsText1191" font-family="&quot;Times New Roman&quot;" text-anchor="middle" font-size="13px" width="120px" fill="#212121" font-weight="700" align="middle" lineHeight="125%" anchor="middle" family="&quot;Times New Roman&quot;" size="13px" weight="700" font-style="" opacity="1" y="11.875" transform="rotate(0)"><tspan id="SvgjsTspan1192" dy="16" x="60"><tspan id="SvgjsTspan1193" style="text-decoration:;">Class</tspan></tspan></text></g></g><g id="SvgjsG1194" transform="translate(392,190.5061700003488)"><path id="SvgjsPath1195" d="M 0 0L 120 0L 120 120L 0 120Z" stroke="none" fill="none"></path><g id="SvgjsG1196"><text id="SvgjsText1197" font-family="&quot;Times New Roman&quot;" text-anchor="middle" font-size="13px" width="120px" fill="#212121" font-weight="400" align="middle" lineHeight="150%" anchor="middle" family="&quot;Times New Roman&quot;" size="13px" weight="400" font-style="" opacity="1" y="-2.75" transform="rotate(0)"><tspan id="SvgjsTspan1198" dy="19" x="60"><tspan id="SvgjsTspan1199" style="text-decoration:;">方法表</tspan></tspan><tspan id="SvgjsTspan1200" dy="19" x="60"><tspan id="SvgjsTspan1201" style="text-decoration:;">字段、方法</tspan></tspan><tspan id="SvgjsTspan1202" dy="19" x="60"><tspan id="SvgjsTspan1203" style="text-decoration:;">类信息</tspan></tspan><tspan id="SvgjsTspan1204" dy="19" x="60"><tspan id="SvgjsTspan1205" style="text-decoration:;">类常量池</tspan></tspan><tspan id="SvgjsTspan1206" dy="19" x="60"><tspan id="SvgjsTspan1207" style="text-decoration:;">类加载器</tspan></tspan><tspan id="SvgjsTspan1208" dy="19" x="60"><tspan id="SvgjsTspan1209" style="text-decoration:;">类实例引用</tspan></tspan></text></g></g><g id="SvgjsG1210" transform="translate(58,83.15779250008723)"><path id="SvgjsPath1211" d="M 0 0L 488 0L 488 60L 0 60Z" stroke="none" fill="none"></path><g id="SvgjsG1212"><text id="SvgjsText1213" font-family="&quot;Times New Roman&quot;" text-anchor="middle" font-size="13px" width="488px" fill="#000000" font-weight="400" align="middle" lineHeight="125%" anchor="middle" family="&quot;Times New Roman&quot;" size="13px" weight="400" font-style="" opacity="1" y="19.375" transform="rotate(0)"><tspan id="SvgjsTspan1214" dy="16" x="244"><tspan id="SvgjsTspan1215" style="text-decoration:;">类信息表</tspan></tspan></text></g></g><g id="SvgjsG1216" transform="translate(25,25.00617000034879)"><path id="SvgjsPath1217" d="M 0 0L 552 0L 552 60L 0 60Z" stroke="none" fill="none"></path><g id="SvgjsG1218"><text id="SvgjsText1219" font-family="&quot;Times New Roman&quot;" text-anchor="middle" font-size="15px" width="552px" fill="#000000" font-weight="400" align="middle" lineHeight="125%" anchor="middle" family="&quot;Times New Roman&quot;" size="15px" weight="400" font-style="" opacity="1" y="17.625" transform="rotate(0)"><tspan id="SvgjsTspan1220" dy="18" x="276"><tspan id="SvgjsTspan1221" style="text-decoration:;">方法区</tspan></tspan></text></g></g><g id="SvgjsG1222"><path id="SvgjsPath1223" d="M488 260.875L488 260.875L607 260.875L607 428.0061700003488L547.8 428.0061700003488" stroke="#4d9900" stroke-width="1" fill="none" marker-end="url(#SvgjsMarker1224)"></path></g></svg>