<svg id="SvgjsSvg1068" width="738" height="295" xmlns="http://www.w3.org/2000/svg" version="1.1" xmlns:xlink="http://www.w3.org/1999/xlink" xmlns:svgjs="http://svgjs.com/svgjs"><defs id="SvgjsDefs1069"></defs><g id="SvgjsG1070" transform="translate(25,25.00617000034879)"><path id="SvgjsPath1071" d="M 0 0L 688 0L 688 244.8688299996512L 0 244.8688299996512Z" stroke="rgba(50,50,50,1)" stroke-width="1" fill-opacity="1" fill="#ffffff"></path><g id="SvgjsG1072"><text id="SvgjsText1073" font-family="&quot;Times New Roman&quot;" text-anchor="middle" font-size="13px" width="668px" fill="#323232" font-weight="400" align="middle" lineHeight="125%" anchor="middle" family="&quot;Times New Roman&quot;" size="13px" weight="400" font-style="" opacity="1" y="111.8094149998256" transform="rotate(0)"></text></g></g><g id="SvgjsG1074" transform="translate(25,25.00617000034879)"><path id="SvgjsPath1075" d="M 0 0L 688 0L 688 45L 0 45Z" stroke="none" fill="none"></path><g id="SvgjsG1076"><text id="SvgjsText1077" font-family="&quot;Times New Roman&quot;" text-anchor="middle" font-size="13px" width="688px" fill="#000000" font-weight="400" align="middle" lineHeight="125%" anchor="middle" family="&quot;Times New Roman&quot;" size="13px" weight="400" font-style="" opacity="1" y="11.875" transform="rotate(0)"><tspan id="SvgjsTspan1078" dy="16" x="344"><tspan id="SvgjsTspan1079" style="text-decoration:;">JVM 堆内存</tspan></tspan></text></g></g><g id="SvgjsG1080" transform="translate(53,70.50617000034879)"><path id="SvgjsPath1081" d="M 0 0L 314 0L 314 170.3688299996512L 0 170.3688299996512Z" stroke="rgba(50,50,50,1)" stroke-width="1" fill-opacity="1" fill="#ffffff"></path><g id="SvgjsG1082"><text id="SvgjsText1083" font-family="&quot;Times New Roman&quot;" text-anchor="middle" font-size="13px" width="294px" fill="#323232" font-weight="400" align="middle" lineHeight="125%" anchor="middle" family="&quot;Times New Roman&quot;" size="13px" weight="400" font-style="" opacity="1" y="74.5594149998256" transform="rotate(0)"></text></g></g><g id="SvgjsG1084" transform="translate(84,115.00617000034879)"><path id="SvgjsPath1085" d="M 0 4Q 0 0 4 0L 146 0Q 150 0 150 4L 150 96Q 150 100 146 100L 4 100Q 0 100 0 96Z" stroke="rgba(50,50,50,1)" stroke-width="1" fill-opacity="1" fill="#cce5ff"></path><g id="SvgjsG1086"><text id="SvgjsText1087" font-family="&quot;Times New Roman&quot;" text-anchor="middle" font-size="12px" width="130px" fill="#323232" font-weight="400" align="middle" lineHeight="125%" anchor="middle" family="&quot;Times New Roman&quot;" size="12px" weight="400" font-style="" opacity="1" y="40" transform="rotate(0)"><tspan id="SvgjsTspan1088" dy="15" x="75"><tspan id="SvgjsTspan1089" style="text-decoration:;">Eden</tspan></tspan></text></g></g><g id="SvgjsG1090" transform="translate(254,115.00617000034879)"><path id="SvgjsPath1091" d="M 0 0L 80 0L 80 100L 0 100Z" stroke="rgba(50,50,50,1)" stroke-width="1" fill-opacity="1" fill="#ffffff"></path><g id="SvgjsG1092"><text id="SvgjsText1093" font-family="&quot;Times New Roman&quot;" text-anchor="middle" font-size="13px" width="60px" fill="#323232" font-weight="400" align="middle" lineHeight="125%" anchor="middle" family="&quot;Times New Roman&quot;" size="13px" weight="400" font-style="" opacity="1" y="39.375" transform="rotate(0)"></text></g></g><g id="SvgjsG1094" transform="translate(268,146.0061700003488)"><path id="SvgjsPath1095" d="M 0 4Q 0 0 4 0L 46 0Q 50 0 50 4L 50 16Q 50 20 46 20L 4 20Q 0 20 0 16Z" stroke="rgba(50,50,50,1)" stroke-width="1" fill-opacity="1" fill="#cce5ff"></path><g id="SvgjsG1096"><text id="SvgjsText1097" font-family="&quot;Times New Roman&quot;" text-anchor="middle" font-size="12px" width="30px" fill="#323232" font-weight="400" align="middle" lineHeight="125%" anchor="middle" family="&quot;Times New Roman&quot;" size="12px" weight="400" font-style="" opacity="1" y="0" transform="rotate(0)"><tspan id="SvgjsTspan1098" dy="15" x="25"><tspan id="SvgjsTspan1099" style="text-decoration:;">From</tspan></tspan></text></g></g><g id="SvgjsG1100" transform="translate(268,181.0061700003488)"><path id="SvgjsPath1101" d="M 0 4Q 0 0 4 0L 46 0Q 50 0 50 4L 50 16Q 50 20 46 20L 4 20Q 0 20 0 16Z" stroke="rgba(50,50,50,1)" stroke-width="1" fill-opacity="1" fill="#cce5ff"></path><g id="SvgjsG1102"><text id="SvgjsText1103" font-family="&quot;Times New Roman&quot;" text-anchor="middle" font-size="12px" width="30px" fill="#323232" font-weight="400" align="middle" lineHeight="125%" anchor="middle" family="&quot;Times New Roman&quot;" size="12px" weight="400" font-style="" opacity="1" y="0" transform="rotate(0)"><tspan id="SvgjsTspan1104" dy="15" x="25"><tspan id="SvgjsTspan1105" style="text-decoration:;">To</tspan></tspan></text></g></g><g id="SvgjsG1106" transform="translate(255,115.00617000034879)"><path id="SvgjsPath1107" d="M 0 0L 80 0L 80 30L 0 30Z" stroke="none" fill="none"></path><g id="SvgjsG1108"><text id="SvgjsText1109" font-family="&quot;Times New Roman&quot;" text-anchor="middle" font-size="12px" width="80px" fill="#000000" font-weight="400" align="middle" lineHeight="125%" anchor="middle" family="&quot;Times New Roman&quot;" size="12px" weight="400" font-style="" opacity="1" y="5" transform="rotate(0)"><tspan id="SvgjsTspan1110" dy="15" x="40"><tspan id="SvgjsTspan1111" style="text-decoration:;">Survivor</tspan></tspan></text></g></g><g id="SvgjsG1112" transform="translate(53,70.50617000034879)"><path id="SvgjsPath1113" d="M 0 0L 314 0L 314 45L 0 45Z" stroke="none" fill="none"></path><g id="SvgjsG1114"><text id="SvgjsText1115" font-family="&quot;Times New Roman&quot;" text-anchor="middle" font-size="13px" width="314px" fill="#000000" font-weight="400" align="middle" lineHeight="125%" anchor="middle" family="&quot;Times New Roman&quot;" size="13px" weight="400" font-style="" opacity="1" y="11.875" transform="rotate(0)"><tspan id="SvgjsTspan1116" dy="16" x="157"><tspan id="SvgjsTspan1117" style="text-decoration:;">新生代</tspan></tspan></text></g></g><g id="SvgjsG1118" transform="translate(396.5,70.875)"><path id="SvgjsPath1119" d="M 0 4Q 0 0 4 0L 166 0Q 170 0 170 4L 170 166Q 170 170 166 170L 4 170Q 0 170 0 166Z" stroke="rgba(50,50,50,1)" stroke-width="1" fill-opacity="1" fill="#ffe6cc"></path><g id="SvgjsG1120"><text id="SvgjsText1121" font-family="&quot;Times New Roman&quot;" text-anchor="middle" font-size="13px" width="150px" fill="#323232" font-weight="400" align="middle" lineHeight="125%" anchor="middle" family="&quot;Times New Roman&quot;" size="13px" weight="400" font-style="" opacity="1" y="74.375" transform="rotate(0)"><tspan id="SvgjsTspan1122" dy="16" x="85"><tspan id="SvgjsTspan1123" style="text-decoration:;">老年代</tspan></tspan></text></g></g><g id="SvgjsG1124" transform="translate(596,70.875)"><path id="SvgjsPath1125" d="M 0 4Q 0 0 4 0L 81 0Q 85 0 85 4L 85 166Q 85 170 81 170L 4 170Q 0 170 0 166Z" stroke="rgba(50,50,50,1)" stroke-width="1" fill-opacity="1" fill="#f5f5f5"></path><g id="SvgjsG1126"><text id="SvgjsText1127" font-family="&quot;Times New Roman&quot;" text-anchor="middle" font-size="13px" width="65px" fill="#323232" font-weight="400" align="middle" lineHeight="125%" anchor="middle" family="&quot;Times New Roman&quot;" size="13px" weight="400" font-style="" opacity="1" y="74.375" transform="rotate(0)"><tspan id="SvgjsTspan1128" dy="16" x="42.5"><tspan id="SvgjsTspan1129" style="text-decoration:;">永久代</tspan></tspan></text></g></g></svg>