<svg id="SvgjsSvg1006" width="896.5" height="770.5" xmlns="http://www.w3.org/2000/svg" version="1.1" xmlns:xlink="http://www.w3.org/1999/xlink" xmlns:svgjs="http://svgjs.com/svgjs"><defs id="SvgjsDefs1007"></defs><g id="SvgjsG1008" transform="translate(246.5,25.00617000034879)"><path id="SvgjsPath1009" d="M 0 0L 183 0L 183 300L 0 300Z" stroke="rgba(50,50,50,1)" stroke-width="1" fill-opacity="1" fill="#ffffff"></path><g id="SvgjsG1010"><text id="SvgjsText1011" font-family="&quot;Times New Roman&quot;" text-anchor="middle" font-size="13px" width="163px" fill="#323232" font-weight="400" align="middle" lineHeight="125%" anchor="middle" family="&quot;Times New Roman&quot;" size="13px" weight="400" font-style="" opacity="1" y="139.375" transform="rotate(0)"></text></g></g><g id="SvgjsG1012" transform="translate(270.5,250.0061700003488)"><path id="SvgjsPath1013" d="M 0 4Q 0 0 4 0L 131 0Q 135 0 135 4L 135 41Q 135 45 131 45L 4 45Q 0 45 0 41Z" stroke="rgba(50,50,50,1)" stroke-width="1" fill-opacity="1" fill="#cce5ff"></path><g id="SvgjsG1014"><text id="SvgjsText1015" font-family="&quot;Times New Roman&quot;" text-anchor="middle" font-size="12px" width="115px" fill="#323232" font-weight="400" align="middle" lineHeight="125%" anchor="middle" family="&quot;Times New Roman&quot;" size="12px" weight="400" font-style="" opacity="1" y="5" transform="rotate(0)"><tspan id="SvgjsTspan1016" dy="15" x="67.5"><tspan id="SvgjsTspan1017" style="text-decoration:;">栈帧 1</tspan></tspan><tspan id="SvgjsTspan1018" dy="15" x="67.5"><tspan id="SvgjsTspan1019" style="text-decoration:;">main(String[] args)</tspan></tspan></text></g></g><g id="SvgjsG1020" transform="translate(25,227.5061700003488)"><path id="SvgjsPath1021" d="M 0 4Q 0 0 4 0L 131 0Q 135 0 135 4L 135 86Q 135 90 131 90L 4 90Q 0 90 0 86Z" stroke="rgba(50,50,50,1)" stroke-width="1" fill="none"></path><g id="SvgjsG1022"><text id="SvgjsText1023" font-family="&quot;Times New Roman&quot;" text-anchor="start" font-size="12px" width="115px" fill="#323232" font-weight="400" align="middle" lineHeight="125%" anchor="start" family="&quot;Times New Roman&quot;" size="12px" weight="400" font-style="" opacity="1" y="5" transform="rotate(0)"><tspan id="SvgjsTspan1024" dy="15" x="10"><tspan id="SvgjsTspan1025" style="text-decoration:;">局部变量表：</tspan></tspan><tspan id="SvgjsTspan1026" dy="15" x="10"><tspan id="SvgjsTspan1027" style="text-decoration:;">1. String[] args</tspan></tspan><tspan id="SvgjsTspan1028" dy="15" x="10"><tspan id="SvgjsTspan1029" style="text-decoration:;">2. int res</tspan></tspan><tspan id="SvgjsTspan1030" dy="15" x="10"><tspan id="SvgjsTspan1031" style="text-decoration:;">操作数栈：深度为 1</tspan></tspan><tspan id="SvgjsTspan1032" dy="15" x="10"><tspan id="SvgjsTspan1033" style="text-decoration:;">动态链接：a()</tspan></tspan></text></g></g><g id="SvgjsG1034"><path id="SvgjsPath1035" d="M270 272.5061700003488L215.25 272.5061700003488L215.25 272.5061700003488L160.5 272.5061700003488" stroke-dasharray="8,5" stroke="#323232" stroke-width="1" fill="none"></path></g><g id="SvgjsG1036" transform="translate(621.5,25.00617000034879)"><path id="SvgjsPath1037" d="M 0 0L 183 0L 183 300L 0 300Z" stroke="rgba(50,50,50,1)" stroke-width="1" fill-opacity="1" fill="#ffffff"></path><g id="SvgjsG1038"><text id="SvgjsText1039" font-family="&quot;Times New Roman&quot;" text-anchor="middle" font-size="13px" width="163px" fill="#323232" font-weight="400" align="middle" lineHeight="125%" anchor="middle" family="&quot;Times New Roman&quot;" size="13px" weight="400" font-style="" opacity="1" y="139.375" transform="rotate(0)"></text></g></g><g id="SvgjsG1040" transform="translate(645.5,249.0061700003488)"><path id="SvgjsPath1041" d="M 0 4Q 0 0 4 0L 131 0Q 135 0 135 4L 135 41Q 135 45 131 45L 4 45Q 0 45 0 41Z" stroke="rgba(50,50,50,1)" stroke-width="1" fill-opacity="1" fill="#cce5ff"></path><g id="SvgjsG1042"><text id="SvgjsText1043" font-family="&quot;Times New Roman&quot;" text-anchor="middle" font-size="12px" width="115px" fill="#323232" font-weight="400" align="middle" lineHeight="125%" anchor="middle" family="&quot;Times New Roman&quot;" size="12px" weight="400" font-style="" opacity="1" y="5" transform="rotate(0)"><tspan id="SvgjsTspan1044" dy="15" x="67.5"><tspan id="SvgjsTspan1045" style="text-decoration:;">栈帧 1</tspan></tspan><tspan id="SvgjsTspan1046" dy="15" x="67.5"><tspan id="SvgjsTspan1047" style="text-decoration:;">main(String[] args)</tspan></tspan></text></g></g><g id="SvgjsG1048" transform="translate(458,160.0061700003488)"><path id="SvgjsPath1049" d="M 0 4Q 0 0 4 0L 131 0Q 135 0 135 4L 135 86Q 135 90 131 90L 4 90Q 0 90 0 86Z" stroke="rgba(50,50,50,1)" stroke-width="1" fill="none"></path><g id="SvgjsG1050"><text id="SvgjsText1051" font-family="&quot;Times New Roman&quot;" text-anchor="start" font-size="12px" width="115px" fill="#323232" font-weight="400" align="middle" lineHeight="125%" anchor="start" family="&quot;Times New Roman&quot;" size="12px" weight="400" font-style="" opacity="1" y="20" transform="rotate(0)"><tspan id="SvgjsTspan1052" dy="15" x="10"><tspan id="SvgjsTspan1053" style="text-decoration:;">局部变量表：空</tspan></tspan><tspan id="SvgjsTspan1054" dy="15" x="10"><tspan id="SvgjsTspan1055" style="text-decoration:;">操作数栈：深度为 1</tspan></tspan><tspan id="SvgjsTspan1056" dy="15" x="10"><tspan id="SvgjsTspan1057" style="text-decoration:;">动态链接：b()</tspan></tspan></text></g></g><g id="SvgjsG1058"><path id="SvgjsPath1059" d="M645 205.0061700003488L619.25 205.0061700003488L619.25 205.0061700003488L593.5 205.0061700003488" stroke-dasharray="8,5" stroke="#323232" stroke-width="1" fill="none"></path></g><g id="SvgjsG1060" transform="translate(645.5,182.5061700003488)"><path id="SvgjsPath1061" d="M 0 4Q 0 0 4 0L 131 0Q 135 0 135 4L 135 41Q 135 45 131 45L 4 45Q 0 45 0 41Z" stroke="rgba(50,50,50,1)" stroke-width="1" fill-opacity="1" fill="#cce5ff"></path><g id="SvgjsG1062"><text id="SvgjsText1063" font-family="&quot;Times New Roman&quot;" text-anchor="middle" font-size="12px" width="115px" fill="#323232" font-weight="400" align="middle" lineHeight="125%" anchor="middle" family="&quot;Times New Roman&quot;" size="12px" weight="400" font-style="" opacity="1" y="5" transform="rotate(0)"><tspan id="SvgjsTspan1064" dy="15" x="67.5"><tspan id="SvgjsTspan1065" style="text-decoration:;">栈帧 2</tspan></tspan><tspan id="SvgjsTspan1066" dy="15" x="67.5"><tspan id="SvgjsTspan1067" style="text-decoration:;">a()</tspan></tspan></text></g></g><g id="SvgjsG1068"><path id="SvgjsPath1069" d="M645 271.5061700003488L619.25 271.5061700003488L619.25 271.5061700003488L593.5 271.5061700003488" stroke-dasharray="8,5" stroke="#4caf50" stroke-width="1" fill="none"></path></g><g id="SvgjsG1070" transform="translate(458,249.0061700003488)"><path id="SvgjsPath1071" d="M 0 0L 135 0L 135 45L 0 45Z" stroke="none" fill="none"></path><g id="SvgjsG1072"><text id="SvgjsText1073" font-family="&quot;Times New Roman&quot;" text-anchor="middle" font-size="13px" width="135px" fill="#4caf50" font-weight="400" align="middle" lineHeight="125%" anchor="middle" family="&quot;Times New Roman&quot;" size="13px" weight="400" font-style="" opacity="1" y="11.875" transform="rotate(0)"><tspan id="SvgjsTspan1074" dy="16" x="67.5"><tspan id="SvgjsTspan1075" style="text-decoration:;">等待上面方法返回</tspan></tspan></text></g></g><g id="SvgjsG1076" transform="translate(246.5,400.5061700003488)"><path id="SvgjsPath1077" d="M 0 0L 183 0L 183 300L 0 300Z" stroke="rgba(50,50,50,1)" stroke-width="1" fill-opacity="1" fill="#ffffff"></path><g id="SvgjsG1078"><text id="SvgjsText1079" font-family="&quot;Times New Roman&quot;" text-anchor="middle" font-size="13px" width="163px" fill="#323232" font-weight="400" align="middle" lineHeight="125%" anchor="middle" family="&quot;Times New Roman&quot;" size="13px" weight="400" font-style="" opacity="1" y="139.375" transform="rotate(0)"></text></g></g><g id="SvgjsG1080" transform="translate(268.50000000000006,624.5061700003488)"><path id="SvgjsPath1081" d="M 0 4Q 0 0 4 0L 131 0Q 135 0 135 4L 135 41Q 135 45 131 45L 4 45Q 0 45 0 41Z" stroke="rgba(50,50,50,1)" stroke-width="1" fill-opacity="1" fill="#cce5ff"></path><g id="SvgjsG1082"><text id="SvgjsText1083" font-family="&quot;Times New Roman&quot;" text-anchor="middle" font-size="12px" width="115px" fill="#323232" font-weight="400" align="middle" lineHeight="125%" anchor="middle" family="&quot;Times New Roman&quot;" size="12px" weight="400" font-style="" opacity="1" y="5" transform="rotate(0)"><tspan id="SvgjsTspan1084" dy="15" x="67.5"><tspan id="SvgjsTspan1085" style="text-decoration:;">栈帧 1</tspan></tspan><tspan id="SvgjsTspan1086" dy="15" x="67.5"><tspan id="SvgjsTspan1087" style="text-decoration:;">main(String[] args)</tspan></tspan></text></g></g><g id="SvgjsG1088" transform="translate(238.83333333333337,558.0061700003488)"><path id="SvgjsPath1089" d="M 0 4Q 0 0 4 0L 131 0Q 135 0 135 4L 135 41Q 135 45 131 45L 4 45Q 0 45 0 41Z" stroke="rgba(50,50,50,1)" stroke-width="1" fill-opacity="1" fill="#cce5ff"></path><g id="SvgjsG1090"><text id="SvgjsText1091" font-family="&quot;Times New Roman&quot;" text-anchor="middle" font-size="12px" width="115px" fill="#323232" font-weight="400" align="middle" lineHeight="125%" anchor="middle" family="&quot;Times New Roman&quot;" size="12px" weight="400" font-style="" opacity="1" y="5" transform="rotate(0)"><tspan id="SvgjsTspan1092" dy="15" x="67.5"><tspan id="SvgjsTspan1093" style="text-decoration:;">栈帧 2</tspan></tspan><tspan id="SvgjsTspan1094" dy="15" x="67.5"><tspan id="SvgjsTspan1095" style="text-decoration:;">a()</tspan></tspan></text></g></g><g id="SvgjsG1096" transform="translate(209.16666666666669,492.5061700003488)"><path id="SvgjsPath1097" d="M 0 4Q 0 0 4 0L 131 0Q 135 0 135 4L 135 41Q 135 45 131 45L 4 45Q 0 45 0 41Z" stroke="rgba(50,50,50,1)" stroke-width="1" fill-opacity="1" fill="#cce5ff"></path><g id="SvgjsG1098"><text id="SvgjsText1099" font-family="&quot;Times New Roman&quot;" text-anchor="middle" font-size="12px" width="115px" fill="#323232" font-weight="400" align="middle" lineHeight="125%" anchor="middle" family="&quot;Times New Roman&quot;" size="12px" weight="400" font-style="" opacity="1" y="5" transform="rotate(0)"><tspan id="SvgjsTspan1100" dy="15" x="67.5"><tspan id="SvgjsTspan1101" style="text-decoration:;">栈帧 3</tspan></tspan><tspan id="SvgjsTspan1102" dy="15" x="67.5"><tspan id="SvgjsTspan1103" style="text-decoration:;">b()</tspan></tspan></text></g></g><g id="SvgjsG1104" transform="translate(179.5,425.0061700003488)"><path id="SvgjsPath1105" d="M 0 4Q 0 0 4 0L 131 0Q 135 0 135 4L 135 41Q 135 45 131 45L 4 45Q 0 45 0 41Z" stroke="rgba(50,50,50,1)" stroke-width="1" fill-opacity="1" fill="#cce5ff"></path><g id="SvgjsG1106"><text id="SvgjsText1107" font-family="&quot;Times New Roman&quot;" text-anchor="middle" font-size="12px" width="115px" fill="#323232" font-weight="400" align="middle" lineHeight="125%" anchor="middle" family="&quot;Times New Roman&quot;" size="12px" weight="400" font-style="" opacity="1" y="5" transform="rotate(0)"><tspan id="SvgjsTspan1108" dy="15" x="67.5"><tspan id="SvgjsTspan1109" style="text-decoration:;">栈帧 4</tspan></tspan><tspan id="SvgjsTspan1110" dy="15" x="67.5"><tspan id="SvgjsTspan1111" style="text-decoration:;">c()</tspan></tspan></text></g></g><g id="SvgjsG1112" transform="translate(25,402.5061700003488)"><path id="SvgjsPath1113" d="M 0 4Q 0 0 4 0L 131 0Q 135 0 135 4L 135 86Q 135 90 131 90L 4 90Q 0 90 0 86Z" stroke="rgba(50,50,50,1)" stroke-width="1" fill="none"></path><g id="SvgjsG1114"><text id="SvgjsText1115" font-family="&quot;Times New Roman&quot;" text-anchor="start" font-size="12px" width="115px" fill="#323232" font-weight="400" align="middle" lineHeight="125%" anchor="start" family="&quot;Times New Roman&quot;" size="12px" weight="400" font-style="" opacity="1" y="12.5" transform="rotate(0)"><tspan id="SvgjsTspan1116" dy="15" x="10"><tspan id="SvgjsTspan1117" style="text-decoration:;">局部变量表：</tspan></tspan><tspan id="SvgjsTspan1118" dy="15" x="10"><tspan id="SvgjsTspan1119" style="text-decoration:;">1. int a</tspan></tspan><tspan id="SvgjsTspan1120" dy="15" x="10"><tspan id="SvgjsTspan1121" style="text-decoration:;">2. int b</tspan></tspan><tspan id="SvgjsTspan1122" dy="15" x="10"><tspan id="SvgjsTspan1123" style="text-decoration:;">操作数栈：深度为 2</tspan></tspan></text></g></g><g id="SvgjsG1124"><path id="SvgjsPath1125" d="M179 447.5061700003488L169.75 447.5061700003488L169.75 447.5061700003488L160.5 447.5061700003488" stroke-dasharray="8,5" stroke="#323232" stroke-width="1" fill="none"></path></g><g id="SvgjsG1126" transform="translate(25,624.5061700003488)"><path id="SvgjsPath1127" d="M 0 0L 135 0L 135 45L 0 45Z" stroke="none" fill="none"></path><g id="SvgjsG1128"><text id="SvgjsText1129" font-family="&quot;Times New Roman&quot;" text-anchor="middle" font-size="13px" width="135px" fill="#4caf50" font-weight="400" align="middle" lineHeight="125%" anchor="middle" family="&quot;Times New Roman&quot;" size="13px" weight="400" font-style="" opacity="1" y="11.875" transform="rotate(0)"><tspan id="SvgjsTspan1130" dy="16" x="67.5"><tspan id="SvgjsTspan1131" style="text-decoration:;">等待上面方法返回</tspan></tspan></text></g></g><g id="SvgjsG1132" transform="translate(25,558.0061700003488)"><path id="SvgjsPath1133" d="M 0 0L 135 0L 135 45L 0 45Z" stroke="none" fill="none"></path><g id="SvgjsG1134"><text id="SvgjsText1135" font-family="&quot;Times New Roman&quot;" text-anchor="middle" font-size="13px" width="135px" fill="#4caf50" font-weight="400" align="middle" lineHeight="125%" anchor="middle" family="&quot;Times New Roman&quot;" size="13px" weight="400" font-style="" opacity="1" y="11.875" transform="rotate(0)"><tspan id="SvgjsTspan1136" dy="16" x="67.5"><tspan id="SvgjsTspan1137" style="text-decoration:;">等待上面方法返回</tspan></tspan></text></g></g><g id="SvgjsG1138" transform="translate(25,492.5061700003488)"><path id="SvgjsPath1139" d="M 0 0L 135 0L 135 45L 0 45Z" stroke="none" fill="none"></path><g id="SvgjsG1140"><text id="SvgjsText1141" font-family="&quot;Times New Roman&quot;" text-anchor="middle" font-size="13px" width="135px" fill="#4caf50" font-weight="400" align="middle" lineHeight="125%" anchor="middle" family="&quot;Times New Roman&quot;" size="13px" weight="400" font-style="" opacity="1" y="11.875" transform="rotate(0)"><tspan id="SvgjsTspan1142" dy="16" x="67.5"><tspan id="SvgjsTspan1143" style="text-decoration:;">等待上面方法返回</tspan></tspan></text></g></g><g id="SvgjsG1144"><path id="SvgjsPath1145" d="M208.66666666666669 515.0061700003488L184.58333333333334 515.0061700003488L184.58333333333334 515.0061700003488L160.5 515.0061700003488" stroke-dasharray="8,5" stroke="#4caf50" stroke-width="1" fill="none"></path></g><g id="SvgjsG1146"><path id="SvgjsPath1147" d="M238.33333333333337 580.5061700003488L199.41666666666669 580.5061700003488L199.41666666666669 580.5061700003488L160.5 580.5061700003488" stroke-dasharray="8,5" stroke="#4caf50" stroke-width="1" fill="none"></path></g><g id="SvgjsG1148"><path id="SvgjsPath1149" d="M268.00000000000006 647.0061700003488L214.25 647.0061700003488L214.25 647.0061700003488L160.5 647.0061700003488" stroke-dasharray="8,5" stroke="#4caf50" stroke-width="1" fill="none"></path></g><g id="SvgjsG1150" transform="translate(621.5,400.5061700003488)"><path id="SvgjsPath1151" d="M 0 0L 183 0L 183 300L 0 300Z" stroke="rgba(50,50,50,1)" stroke-width="1" fill-opacity="1" fill="#ffffff"></path><g id="SvgjsG1152"><text id="SvgjsText1153" font-family="&quot;Times New Roman&quot;" text-anchor="middle" font-size="13px" width="163px" fill="#323232" font-weight="400" align="middle" lineHeight="125%" anchor="middle" family="&quot;Times New Roman&quot;" size="13px" weight="400" font-style="" opacity="1" y="139.375" transform="rotate(0)"></text></g></g><g id="SvgjsG1154" transform="translate(647.5,624.5061700003488)"><path id="SvgjsPath1155" d="M 0 4Q 0 0 4 0L 131 0Q 135 0 135 4L 135 41Q 135 45 131 45L 4 45Q 0 45 0 41Z" stroke="rgba(50,50,50,1)" stroke-width="1" fill-opacity="1" fill="#cce5ff"></path><g id="SvgjsG1156"><text id="SvgjsText1157" font-family="&quot;Times New Roman&quot;" text-anchor="middle" font-size="12px" width="115px" fill="#323232" font-weight="400" align="middle" lineHeight="125%" anchor="middle" family="&quot;Times New Roman&quot;" size="12px" weight="400" font-style="" opacity="1" y="5" transform="rotate(0)"><tspan id="SvgjsTspan1158" dy="15" x="67.5"><tspan id="SvgjsTspan1159" style="text-decoration:;">栈帧 1</tspan></tspan><tspan id="SvgjsTspan1160" dy="15" x="67.5"><tspan id="SvgjsTspan1161" style="text-decoration:;">main(String[] args)</tspan></tspan></text></g></g><g id="SvgjsG1162" transform="translate(677.1666666666666,558.0061700003488)"><path id="SvgjsPath1163" d="M 0 4Q 0 0 4 0L 131 0Q 135 0 135 4L 135 41Q 135 45 131 45L 4 45Q 0 45 0 41Z" stroke="rgba(50,50,50,1)" stroke-width="1" fill-opacity="1" fill="#cce5ff"></path><g id="SvgjsG1164"><text id="SvgjsText1165" font-family="&quot;Times New Roman&quot;" text-anchor="middle" font-size="12px" width="115px" fill="#323232" font-weight="400" align="middle" lineHeight="125%" anchor="middle" family="&quot;Times New Roman&quot;" size="12px" weight="400" font-style="" opacity="1" y="5" transform="rotate(0)"><tspan id="SvgjsTspan1166" dy="15" x="67.5"><tspan id="SvgjsTspan1167" style="text-decoration:;">栈帧 2</tspan></tspan><tspan id="SvgjsTspan1168" dy="15" x="67.5"><tspan id="SvgjsTspan1169" style="text-decoration:;">a()</tspan></tspan></text></g></g><g id="SvgjsG1170" transform="translate(706.8333333333333,491.5061700003488)"><path id="SvgjsPath1171" d="M 0 4Q 0 0 4 0L 131 0Q 135 0 135 4L 135 41Q 135 45 131 45L 4 45Q 0 45 0 41Z" stroke="rgba(50,50,50,1)" stroke-width="1" fill-opacity="1" fill="#cce5ff"></path><g id="SvgjsG1172"><text id="SvgjsText1173" font-family="&quot;Times New Roman&quot;" text-anchor="middle" font-size="12px" width="115px" fill="#323232" font-weight="400" align="middle" lineHeight="125%" anchor="middle" family="&quot;Times New Roman&quot;" size="12px" weight="400" font-style="" opacity="1" y="5" transform="rotate(0)"><tspan id="SvgjsTspan1174" dy="15" x="67.5"><tspan id="SvgjsTspan1175" style="text-decoration:;">栈帧 3</tspan></tspan><tspan id="SvgjsTspan1176" dy="15" x="67.5"><tspan id="SvgjsTspan1177" style="text-decoration:;">b()</tspan></tspan></text></g></g><g id="SvgjsG1178" transform="translate(736.4999999999999,425.0061700003488)"><path id="SvgjsPath1179" d="M 0 4Q 0 0 4 0L 131 0Q 135 0 135 4L 135 41Q 135 45 131 45L 4 45Q 0 45 0 41Z" stroke="rgba(50,50,50,1)" stroke-width="1" fill-opacity="1" fill="#cce5ff"></path><g id="SvgjsG1180"><text id="SvgjsText1181" font-family="&quot;Times New Roman&quot;" text-anchor="middle" font-size="12px" width="115px" fill="#323232" font-weight="400" align="middle" lineHeight="125%" anchor="middle" family="&quot;Times New Roman&quot;" size="12px" weight="400" font-style="" opacity="1" y="5" transform="rotate(0)"><tspan id="SvgjsTspan1182" dy="15" x="67.5"><tspan id="SvgjsTspan1183" style="text-decoration:;">栈帧 4</tspan></tspan><tspan id="SvgjsTspan1184" dy="15" x="67.5"><tspan id="SvgjsTspan1185" style="text-decoration:;">c()</tspan></tspan></text></g></g><g id="SvgjsG1186" transform="translate(458,425.0061700003488)"><path id="SvgjsPath1187" d="M 0 0L 135 0L 135 45L 0 45Z" stroke="none" fill="none"></path><g id="SvgjsG1188"><text id="SvgjsText1189" font-family="&quot;Times New Roman&quot;" text-anchor="middle" font-size="13px" width="135px" fill="#4caf50" font-weight="400" align="middle" lineHeight="125%" anchor="middle" family="&quot;Times New Roman&quot;" size="13px" weight="400" font-style="" opacity="1" y="11.875" transform="rotate(0)"><tspan id="SvgjsTspan1190" dy="16" x="67.5"><tspan id="SvgjsTspan1191" style="text-decoration:;">出栈并返回结果</tspan></tspan></text></g></g><g id="SvgjsG1192"><path id="SvgjsPath1193" d="M593.5 447.5061700003488L664.75 447.5061700003488L664.75 447.5061700003488L735.9999999999999 447.5061700003488" stroke-dasharray="8,5" stroke="#4caf50" stroke-width="1" fill="none"></path></g><g id="SvgjsG1194" transform="translate(458,491.5061700003488)"><path id="SvgjsPath1195" d="M 0 0L 135 0L 135 45L 0 45Z" stroke="none" fill="none"></path><g id="SvgjsG1196"><text id="SvgjsText1197" font-family="&quot;Times New Roman&quot;" text-anchor="middle" font-size="13px" width="135px" fill="#4caf50" font-weight="400" align="middle" lineHeight="125%" anchor="middle" family="&quot;Times New Roman&quot;" size="13px" weight="400" font-style="" opacity="1" y="11.875" transform="rotate(0)"><tspan id="SvgjsTspan1198" dy="16" x="67.5"><tspan id="SvgjsTspan1199" style="text-decoration:;">出栈并返回结果</tspan></tspan></text></g></g><g id="SvgjsG1200"><path id="SvgjsPath1201" d="M593.5 514.0061700003488L649.9166666666666 514.0061700003488L649.9166666666666 514.0061700003488L706.3333333333333 514.0061700003488" stroke-dasharray="8,5" stroke="#4caf50" stroke-width="1" fill="none"></path></g><g id="SvgjsG1202" transform="translate(458,558.0061700003488)"><path id="SvgjsPath1203" d="M 0 0L 135 0L 135 45L 0 45Z" stroke="none" fill="none"></path><g id="SvgjsG1204"><text id="SvgjsText1205" font-family="&quot;Times New Roman&quot;" text-anchor="middle" font-size="13px" width="135px" fill="#4caf50" font-weight="400" align="middle" lineHeight="125%" anchor="middle" family="&quot;Times New Roman&quot;" size="13px" weight="400" font-style="" opacity="1" y="11.875" transform="rotate(0)"><tspan id="SvgjsTspan1206" dy="16" x="67.5"><tspan id="SvgjsTspan1207" style="text-decoration:;">出栈并返回结果</tspan></tspan></text></g></g><g id="SvgjsG1208"><path id="SvgjsPath1209" d="M593.5 580.5061700003488L635.0833333333333 580.5061700003488L635.0833333333333 580.5061700003488L676.6666666666666 580.5061700003488" stroke-dasharray="8,5" stroke="#4caf50" stroke-width="1" fill="none"></path></g><g id="SvgjsG1210" transform="translate(458,624.5061700003488)"><path id="SvgjsPath1211" d="M 0 0L 135 0L 135 45L 0 45Z" stroke="none" fill="none"></path><g id="SvgjsG1212"><text id="SvgjsText1213" font-family="&quot;Times New Roman&quot;" text-anchor="middle" font-size="13px" width="135px" fill="#4caf50" font-weight="400" align="middle" lineHeight="125%" anchor="middle" family="&quot;Times New Roman&quot;" size="13px" weight="400" font-style="" opacity="1" y="3.375" transform="rotate(0)"><tspan id="SvgjsTspan1214" dy="16" x="67.5"><tspan id="SvgjsTspan1215" style="text-decoration:;">等待以上方法执行</tspan></tspan><tspan id="SvgjsTspan1216" dy="16" x="67.5"><tspan id="SvgjsTspan1217" style="text-decoration:;">完成方可得到结果</tspan></tspan></text></g></g><g id="SvgjsG1218"><path id="SvgjsPath1219" d="M593.5 647.0061700003488L620.25 647.0061700003488L620.25 647.0061700003488L647 647.0061700003488" stroke-dasharray="8,5" stroke="#4caf50" stroke-width="1" fill="none"></path></g><g id="SvgjsG1220" transform="translate(246.5,700.5061700003488)"><path id="SvgjsPath1221" d="M 0 0L 183 0L 183 45L 0 45Z" stroke="none" fill="none"></path><g id="SvgjsG1222"><text id="SvgjsText1223" font-family="&quot;Times New Roman&quot;" text-anchor="middle" font-size="13px" width="183px" fill="#000000" font-weight="400" align="middle" lineHeight="125%" anchor="middle" family="&quot;Times New Roman&quot;" size="13px" weight="400" font-style="" opacity="1" y="11.875" transform="rotate(0)"><tspan id="SvgjsTspan1224" dy="16" x="91.5"><tspan id="SvgjsTspan1225" style="text-decoration:;">虚拟机栈</tspan></tspan></text></g></g><g id="SvgjsG1226" transform="translate(635.5,700.5061700003488)"><path id="SvgjsPath1227" d="M 0 0L 183 0L 183 45L 0 45Z" stroke="none" fill="none"></path><g id="SvgjsG1228"><text id="SvgjsText1229" font-family="&quot;Times New Roman&quot;" text-anchor="middle" font-size="13px" width="183px" fill="#000000" font-weight="400" align="middle" lineHeight="125%" anchor="middle" family="&quot;Times New Roman&quot;" size="13px" weight="400" font-style="" opacity="1" y="11.875" transform="rotate(0)"><tspan id="SvgjsTspan1230" dy="16" x="91.5"><tspan id="SvgjsTspan1231" style="text-decoration:;">虚拟机栈</tspan></tspan></text></g></g><g id="SvgjsG1232" transform="translate(246.5,329.0061700003488)"><path id="SvgjsPath1233" d="M 0 0L 183 0L 183 45L 0 45Z" stroke="none" fill="none"></path><g id="SvgjsG1234"><text id="SvgjsText1235" font-family="&quot;Times New Roman&quot;" text-anchor="middle" font-size="13px" width="183px" fill="#000000" font-weight="400" align="middle" lineHeight="125%" anchor="middle" family="&quot;Times New Roman&quot;" size="13px" weight="400" font-style="" opacity="1" y="11.875" transform="rotate(0)"><tspan id="SvgjsTspan1236" dy="16" x="91.5"><tspan id="SvgjsTspan1237" style="text-decoration:;">虚拟机栈</tspan></tspan></text></g></g><g id="SvgjsG1238" transform="translate(621.5,325.0061700003488)"><path id="SvgjsPath1239" d="M 0 0L 183 0L 183 45L 0 45Z" stroke="none" fill="none"></path><g id="SvgjsG1240"><text id="SvgjsText1241" font-family="&quot;Times New Roman&quot;" text-anchor="middle" font-size="13px" width="183px" fill="#000000" font-weight="400" align="middle" lineHeight="125%" anchor="middle" family="&quot;Times New Roman&quot;" size="13px" weight="400" font-style="" opacity="1" y="11.875" transform="rotate(0)"><tspan id="SvgjsTspan1242" dy="16" x="91.5"><tspan id="SvgjsTspan1243" style="text-decoration:;">虚拟机栈</tspan></tspan></text></g></g></svg>