<svg id="SvgjsSvg1006" width="554" height="785.125" xmlns="http://www.w3.org/2000/svg" version="1.1" xmlns:xlink="http://www.w3.org/1999/xlink" xmlns:svgjs="http://svgjs.com/svgjs"><defs id="SvgjsDefs1007"><marker id="SvgjsMarker1158" markerWidth="12" markerHeight="8" refX="9" refY="4" viewBox="0 0 12 8" orient="auto" markerUnits="userSpaceOnUse" stroke-dasharray="0,0"><path id="SvgjsPath1159" d="M0,0 L12,4 L0,8 L0,0" fill="#4caf50" stroke="#4caf50" stroke-width="1"></path></marker><marker id="SvgjsMarker1174" markerWidth="12" markerHeight="8" refX="9" refY="4" viewBox="0 0 12 8" orient="auto" markerUnits="userSpaceOnUse" stroke-dasharray="0,0"><path id="SvgjsPath1175" d="M0,0 L12,4 L0,8 L0,0" fill="#4caf50" stroke="#4caf50" stroke-width="1"></path></marker></defs><g id="SvgjsG1008" transform="translate(25,25.00423649379185)"><path id="SvgjsPath1009" d="M 0 0L 504 0L 504 675L 0 675Z" stroke="rgba(50,50,50,1)" stroke-width="1" fill-opacity="1" fill="#ffffff"></path><g id="SvgjsG1010"><text id="SvgjsText1011" font-family="&quot;Times New Roman&quot;" text-anchor="middle" font-size="13px" width="484px" fill="#323232" font-weight="400" align="middle" lineHeight="125%" anchor="middle" family="&quot;Times New Roman&quot;" size="13px" weight="400" font-style="" opacity="1" y="326.875" transform="rotate(0)"></text></g></g><g id="SvgjsG1012" transform="translate(60,86.13020324707031)"><path id="SvgjsPath1013" d="M 0 0L 210 0L 210 235L 0 235Z" stroke="rgba(50,50,50,1)" stroke-width="1" fill-opacity="1" fill="#ffffff"></path><g id="SvgjsG1014"><text id="SvgjsText1015" font-family="&quot;Times New Roman&quot;" text-anchor="middle" font-size="12px" width="190px" fill="#323232" font-weight="400" align="middle" lineHeight="125%" anchor="middle" family="&quot;Times New Roman&quot;" size="12px" weight="400" font-style="" opacity="1" y="107.5" transform="rotate(0)"></text></g></g><g id="SvgjsG1016" transform="translate(75,140.3802032470703)"><path id="SvgjsPath1017" d="M 0 4Q 0 0 4 0L 176 0Q 180 0 180 4L 180 41Q 180 45 176 45L 4 45Q 0 45 0 41Z" stroke="rgba(50,50,50,1)" stroke-width="1" fill-opacity="1" fill="#ffe6cc"></path><g id="SvgjsG1018"><text id="SvgjsText1019" font-family="&quot;Times New Roman&quot;" text-anchor="middle" font-size="12px" width="160px" fill="#323232" font-weight="400" align="middle" lineHeight="125%" anchor="middle" family="&quot;Times New Roman&quot;" size="12px" weight="400" font-style="" opacity="1" y="5" transform="rotate(0)"><tspan id="SvgjsTspan1020" dy="15" x="90"><tspan id="SvgjsTspan1021" style="text-decoration:;">程序计数器</tspan></tspan><tspan id="SvgjsTspan1022" dy="15" x="90"><tspan id="SvgjsTspan1023" style="text-decoration:;">Program Counter Register</tspan></tspan></text></g></g><g id="SvgjsG1024" transform="translate(25,39.827598571777344)"><path id="SvgjsPath1025" d="M 0 0L 504 0L 504 35L 0 35Z" stroke="none" fill="none"></path><g id="SvgjsG1026"><text id="SvgjsText1027" font-family="&quot;Times New Roman&quot;" text-anchor="middle" font-size="14px" width="504px" fill="#000000" font-weight="400" align="middle" lineHeight="125%" anchor="middle" family="&quot;Times New Roman&quot;" size="14px" weight="400" font-style="" opacity="1" y="5.75" transform="rotate(0)"><tspan id="SvgjsTspan1028" dy="17" x="252"><tspan id="SvgjsTspan1029" style="text-decoration:;">运行时数据区域</tspan></tspan></text></g></g><g id="SvgjsG1030" transform="translate(60,95.72890090942383)"><path id="SvgjsPath1031" d="M 0 0L 210 0L 210 35L 0 35Z" stroke="none" fill="none"></path><g id="SvgjsG1032"><text id="SvgjsText1033" font-family="&quot;Times New Roman&quot;" text-anchor="middle" font-size="12px" width="210px" fill="#000000" font-weight="400" align="middle" lineHeight="125%" anchor="middle" family="&quot;Times New Roman&quot;" size="12px" weight="400" font-style="" opacity="1" y="7.5" transform="rotate(0)"><tspan id="SvgjsTspan1034" dy="15" x="105"><tspan id="SvgjsTspan1035" style="text-decoration:;">线程隔离内存区域</tspan></tspan></text></g></g><g id="SvgjsG1036" transform="translate(75,199.97152370876728)"><path id="SvgjsPath1037" d="M 0 4Q 0 0 4 0L 176 0Q 180 0 180 4L 180 41Q 180 45 176 45L 4 45Q 0 45 0 41Z" stroke="rgba(50,50,50,1)" stroke-width="1" fill-opacity="1" fill="#ffe6cc"></path><g id="SvgjsG1038"><text id="SvgjsText1039" font-family="&quot;Times New Roman&quot;" text-anchor="middle" font-size="12px" width="160px" fill="#323232" font-weight="400" align="middle" lineHeight="125%" anchor="middle" family="&quot;Times New Roman&quot;" size="12px" weight="400" font-style="" opacity="1" y="5" transform="rotate(0)"><tspan id="SvgjsTspan1040" dy="15" x="90"><tspan id="SvgjsTspan1041" style="text-decoration:;">虚拟机栈</tspan></tspan><tspan id="SvgjsTspan1042" dy="15" x="90"><tspan id="SvgjsTspan1043" style="text-decoration:;">VM Stack</tspan></tspan></text></g></g><g id="SvgjsG1044" transform="translate(75,259.56284417046425)"><path id="SvgjsPath1045" d="M 0 4Q 0 0 4 0L 176 0Q 180 0 180 4L 180 41Q 180 45 176 45L 4 45Q 0 45 0 41Z" stroke="rgba(50,50,50,1)" stroke-width="1" fill-opacity="1" fill="#ffe6cc"></path><g id="SvgjsG1046"><text id="SvgjsText1047" font-family="&quot;Times New Roman&quot;" text-anchor="middle" font-size="12px" width="160px" fill="#323232" font-weight="400" align="middle" lineHeight="125%" anchor="middle" family="&quot;Times New Roman&quot;" size="12px" weight="400" font-style="" opacity="1" y="5" transform="rotate(0)"><tspan id="SvgjsTspan1048" dy="15" x="90"><tspan id="SvgjsTspan1049" style="text-decoration:;">本地方法栈</tspan></tspan><tspan id="SvgjsTspan1050" dy="15" x="90"><tspan id="SvgjsTspan1051" style="text-decoration:;">Native Method Stack</tspan></tspan></text></g></g><g id="SvgjsG1052" transform="translate(285,86.13020324707031)"><path id="SvgjsPath1053" d="M 0 0L 210 0L 210 235L 0 235Z" stroke="rgba(50,50,50,1)" stroke-width="1" fill-opacity="1" fill="#ffffff"></path><g id="SvgjsG1054"><text id="SvgjsText1055" font-family="&quot;Times New Roman&quot;" text-anchor="middle" font-size="12px" width="190px" fill="#323232" font-weight="400" align="middle" lineHeight="125%" anchor="middle" family="&quot;Times New Roman&quot;" size="12px" weight="400" font-style="" opacity="1" y="107.5" transform="rotate(0)"></text></g></g><g id="SvgjsG1056" transform="translate(300,140.3802032470703)"><path id="SvgjsPath1057" d="M 0 4Q 0 0 4 0L 176 0Q 180 0 180 4L 180 41Q 180 45 176 45L 4 45Q 0 45 0 41Z" stroke="rgba(50,50,50,1)" stroke-width="1" fill-opacity="1" fill="#ffe6cc"></path><g id="SvgjsG1058"><text id="SvgjsText1059" font-family="&quot;Times New Roman&quot;" text-anchor="middle" font-size="12px" width="160px" fill="#323232" font-weight="400" align="middle" lineHeight="125%" anchor="middle" family="&quot;Times New Roman&quot;" size="12px" weight="400" font-style="" opacity="1" y="5" transform="rotate(0)"><tspan id="SvgjsTspan1060" dy="15" x="90"><tspan id="SvgjsTspan1061" style="text-decoration:;">程序计数器</tspan></tspan><tspan id="SvgjsTspan1062" dy="15" x="90"><tspan id="SvgjsTspan1063" style="text-decoration:;">Program Counter Register</tspan></tspan></text></g></g><g id="SvgjsG1064" transform="translate(285,95.72890090942383)"><path id="SvgjsPath1065" d="M 0 0L 210 0L 210 35L 0 35Z" stroke="none" fill="none"></path><g id="SvgjsG1066"><text id="SvgjsText1067" font-family="&quot;Times New Roman&quot;" text-anchor="middle" font-size="12px" width="210px" fill="#000000" font-weight="400" align="middle" lineHeight="125%" anchor="middle" family="&quot;Times New Roman&quot;" size="12px" weight="400" font-style="" opacity="1" y="7.5" transform="rotate(0)"><tspan id="SvgjsTspan1068" dy="15" x="105"><tspan id="SvgjsTspan1069" style="text-decoration:;">线程隔离内存区域</tspan></tspan></text></g></g><g id="SvgjsG1070" transform="translate(300,199.97152370876728)"><path id="SvgjsPath1071" d="M 0 4Q 0 0 4 0L 176 0Q 180 0 180 4L 180 41Q 180 45 176 45L 4 45Q 0 45 0 41Z" stroke="rgba(50,50,50,1)" stroke-width="1" fill-opacity="1" fill="#ffe6cc"></path><g id="SvgjsG1072"><text id="SvgjsText1073" font-family="&quot;Times New Roman&quot;" text-anchor="middle" font-size="12px" width="160px" fill="#323232" font-weight="400" align="middle" lineHeight="125%" anchor="middle" family="&quot;Times New Roman&quot;" size="12px" weight="400" font-style="" opacity="1" y="5" transform="rotate(0)"><tspan id="SvgjsTspan1074" dy="15" x="90"><tspan id="SvgjsTspan1075" style="text-decoration:;">虚拟机栈</tspan></tspan><tspan id="SvgjsTspan1076" dy="15" x="90"><tspan id="SvgjsTspan1077" style="text-decoration:;">VM Stack</tspan></tspan></text></g></g><g id="SvgjsG1078" transform="translate(300,259.56284417046425)"><path id="SvgjsPath1079" d="M 0 4Q 0 0 4 0L 176 0Q 180 0 180 4L 180 41Q 180 45 176 45L 4 45Q 0 45 0 41Z" stroke="rgba(50,50,50,1)" stroke-width="1" fill-opacity="1" fill="#ffe6cc"></path><g id="SvgjsG1080"><text id="SvgjsText1081" font-family="&quot;Times New Roman&quot;" text-anchor="middle" font-size="12px" width="160px" fill="#323232" font-weight="400" align="middle" lineHeight="125%" anchor="middle" family="&quot;Times New Roman&quot;" size="12px" weight="400" font-style="" opacity="1" y="5" transform="rotate(0)"><tspan id="SvgjsTspan1082" dy="15" x="90"><tspan id="SvgjsTspan1083" style="text-decoration:;">本地方法栈</tspan></tspan><tspan id="SvgjsTspan1084" dy="15" x="90"><tspan id="SvgjsTspan1085" style="text-decoration:;">Native Method Stack</tspan></tspan></text></g></g><g id="SvgjsG1086" transform="translate(60,338.4328079223633)"><path id="SvgjsPath1087" d="M 0 0L 434 0L 434 325L 0 325Z" stroke-dasharray="10,6" stroke="rgba(50,50,50,1)" stroke-width="1" fill-opacity="1" fill="#ffffff"></path><g id="SvgjsG1088"><text id="SvgjsText1089" font-family="&quot;Times New Roman&quot;" text-anchor="middle" font-size="13px" width="414px" fill="#323232" font-weight="400" align="middle" lineHeight="125%" anchor="middle" family="&quot;Times New Roman&quot;" size="13px" weight="400" font-style="" opacity="1" y="151.875" transform="rotate(0)"></text></g></g><g id="SvgjsG1090" transform="translate(60,348.07759857177734)"><path id="SvgjsPath1091" d="M 0 0L 434 0L 434 35L 0 35Z" stroke="none" fill="none"></path><g id="SvgjsG1092"><text id="SvgjsText1093" font-family="&quot;Times New Roman&quot;" text-anchor="middle" font-size="14px" width="434px" fill="#000000" font-weight="400" align="middle" lineHeight="125%" anchor="middle" family="&quot;Times New Roman&quot;" size="14px" weight="400" font-style="" opacity="1" y="5.75" transform="rotate(0)"><tspan id="SvgjsTspan1094" dy="17" x="217"><tspan id="SvgjsTspan1095" style="text-decoration:;">线程共享内存区域</tspan></tspan></text></g></g><g id="SvgjsG1096" transform="translate(90,391.3802032470703)"><path id="SvgjsPath1097" d="M 0 4Q 0 0 4 0L 176 0Q 180 0 180 4L 180 236Q 180 240 176 240L 4 240Q 0 240 0 236Z" stroke="rgba(50,50,50,1)" stroke-width="1" fill-opacity="1" fill="#cce5ff"></path><g id="SvgjsG1098"><text id="SvgjsText1099" font-family="&quot;Times New Roman&quot;" text-anchor="middle" font-size="12px" width="160px" fill="#323232" font-weight="400" align="middle" lineHeight="125%" anchor="middle" family="&quot;Times New Roman&quot;" size="12px" weight="400" font-style="" opacity="1" y="102.5" transform="rotate(0)"><tspan id="SvgjsTspan1100" dy="15" x="90"><tspan id="SvgjsTspan1101" style="text-decoration:;">堆</tspan></tspan><tspan id="SvgjsTspan1102" dy="15" x="90"><tspan id="SvgjsTspan1103" style="text-decoration:;">Heap</tspan></tspan></text></g></g><g id="SvgjsG1104" transform="translate(285,391.3802032470703)"><path id="SvgjsPath1105" d="M 0 4Q 0 0 4 0L 176 0Q 180 0 180 4L 180 236Q 180 240 176 240L 4 240Q 0 240 0 236Z" stroke="rgba(50,50,50,1)" stroke-width="1" fill-opacity="1" fill="#cce5ff"></path><g id="SvgjsG1106"><text id="SvgjsText1107" font-family="&quot;Times New Roman&quot;" text-anchor="middle" font-size="12px" width="160px" fill="#323232" font-weight="400" align="middle" lineHeight="125%" anchor="middle" family="&quot;Times New Roman&quot;" size="12px" weight="400" font-style="" opacity="1" y="12.5" transform="rotate(0)"><tspan id="SvgjsTspan1108" dy="15" x="90"><tspan id="SvgjsTspan1109" style="text-decoration:;">元数据区</tspan></tspan><tspan id="SvgjsTspan1110" dy="15" x="90"><tspan id="SvgjsTspan1111" style="text-decoration:;">Metaspace</tspan></tspan><tspan id="SvgjsTspan1112" dy="15" x="90"><tspan id="SvgjsTspan1113" style="text-decoration:;"> </tspan></tspan><tspan id="SvgjsTspan1114" dy="15" x="90"><tspan id="SvgjsTspan1115" style="text-decoration:;"> </tspan></tspan><tspan id="SvgjsTspan1116" dy="15" x="90"><tspan id="SvgjsTspan1117" style="text-decoration:;"> </tspan></tspan><tspan id="SvgjsTspan1118" dy="15" x="90"><tspan id="SvgjsTspan1119" style="text-decoration:;"> </tspan></tspan><tspan id="SvgjsTspan1120" dy="15" x="90"><tspan id="SvgjsTspan1121" style="text-decoration:;"> </tspan></tspan><tspan id="SvgjsTspan1122" dy="15" x="90"><tspan id="SvgjsTspan1123" style="text-decoration:;"> </tspan></tspan><tspan id="SvgjsTspan1124" dy="15" x="90"><tspan id="SvgjsTspan1125" style="text-decoration:;"> </tspan></tspan><tspan id="SvgjsTspan1126" dy="15" x="90"><tspan id="SvgjsTspan1127" style="text-decoration:;"> </tspan></tspan><tspan id="SvgjsTspan1128" dy="15" x="90"><tspan id="SvgjsTspan1129" style="text-decoration:;"> </tspan></tspan><tspan id="SvgjsTspan1130" dy="15" x="90"><tspan id="SvgjsTspan1131" style="text-decoration:;"> </tspan></tspan><tspan id="SvgjsTspan1132" dy="15" x="90"><tspan id="SvgjsTspan1133" style="text-decoration:;"> </tspan></tspan><tspan id="SvgjsTspan1134" dy="15" x="90"><tspan id="SvgjsTspan1135" style="text-decoration:;"> </tspan></tspan></text></g></g><g id="SvgjsG1136" transform="translate(300,454.3802032470703)"><path id="SvgjsPath1137" d="M 0 4Q 0 0 4 0L 146 0Q 150 0 150 4L 150 56Q 150 60 146 60L 4 60Q 0 60 0 56Z" stroke="rgba(50,50,50,1)" stroke-width="1" fill-opacity="1" fill="#ffffff"></path><g id="SvgjsG1138"><text id="SvgjsText1139" font-family="&quot;Times New Roman&quot;" text-anchor="middle" font-size="12px" width="130px" fill="#323232" font-weight="400" align="middle" lineHeight="125%" anchor="middle" family="&quot;Times New Roman&quot;" size="12px" weight="400" font-style="" opacity="1" y="12.5" transform="rotate(0)"><tspan id="SvgjsTspan1140" dy="15" x="75"><tspan id="SvgjsTspan1141" style="text-decoration:;">运行常量池</tspan></tspan><tspan id="SvgjsTspan1142" dy="15" x="75"><tspan id="SvgjsTspan1143" style="text-decoration:;">Runtime Constant Pool</tspan></tspan></text></g></g><g id="SvgjsG1144" transform="translate(300,529.3802032470703)"><path id="SvgjsPath1145" d="M 0 4Q 0 0 4 0L 146 0Q 150 0 150 4L 150 31Q 150 35 146 35L 4 35Q 0 35 0 31Z" stroke="rgba(50,50,50,1)" stroke-width="1" fill-opacity="1" fill="#ffffff"></path><g id="SvgjsG1146"><text id="SvgjsText1147" font-family="&quot;Times New Roman&quot;" text-anchor="middle" font-size="12px" width="130px" fill="#323232" font-weight="400" align="middle" lineHeight="125%" anchor="middle" family="&quot;Times New Roman&quot;" size="12px" weight="400" font-style="" opacity="1" y="7.5" transform="rotate(0)"><tspan id="SvgjsTspan1148" dy="15" x="75"><tspan id="SvgjsTspan1149" style="text-decoration:;">类元信息</tspan></tspan></text></g></g><g id="SvgjsG1150" transform="translate(300,579.3802032470703)"><path id="SvgjsPath1151" d="M 0 4Q 0 0 4 0L 146 0Q 150 0 150 4L 150 31Q 150 35 146 35L 4 35Q 0 35 0 31Z" stroke="rgba(50,50,50,1)" stroke-width="1" fill-opacity="1" fill="#ffffff"></path><g id="SvgjsG1152"><text id="SvgjsText1153" font-family="&quot;Times New Roman&quot;" text-anchor="middle" font-size="12px" width="130px" fill="#323232" font-weight="400" align="middle" lineHeight="125%" anchor="middle" family="&quot;Times New Roman&quot;" size="12px" weight="400" font-style="" opacity="1" y="7.5" transform="rotate(0)"><tspan id="SvgjsTspan1154" dy="15" x="75"><tspan id="SvgjsTspan1155" style="text-decoration:;">方法元信息</tspan></tspan></text></g></g><g id="SvgjsG1156"><path id="SvgjsPath1157" d="M180 631.8802032470703L180 678.2526016235352L180 678.2526016235352L180 722.825" stroke-dasharray="8,5" stroke="#4caf50" stroke-width="1" fill="none" marker-end="url(#SvgjsMarker1158)"></path></g><g id="SvgjsG1160" transform="translate(120,725.125)"><path id="SvgjsPath1161" d="M 0 0L 120 0L 120 35L 0 35Z" stroke="none" fill="none"></path><g id="SvgjsG1162"><text id="SvgjsText1163" font-family="微软雅黑" text-anchor="middle" font-size="13px" width="120px" fill="#323232" font-weight="400" align="middle" lineHeight="125%" anchor="middle" family="微软雅黑" size="13px" weight="400" font-style="" opacity="1" y="6.875" transform="rotate(0)"><tspan id="SvgjsTspan1164" dy="16" x="60"><tspan id="SvgjsTspan1165" style="text-decoration:;">JVM 堆内存</tspan></tspan></text></g></g><g id="SvgjsG1166" transform="translate(315,725.125)"><path id="SvgjsPath1167" d="M 0 0L 120 0L 120 35L 0 35Z" stroke="none" fill="none"></path><g id="SvgjsG1168"><text id="SvgjsText1169" font-family="微软雅黑" text-anchor="middle" font-size="13px" width="120px" fill="#323232" font-weight="400" align="middle" lineHeight="125%" anchor="middle" family="微软雅黑" size="13px" weight="400" font-style="" opacity="1" y="6.875" transform="rotate(0)"><tspan id="SvgjsTspan1170" dy="16" x="60"><tspan id="SvgjsTspan1171" style="text-decoration:;">本地内存</tspan></tspan></text></g></g><g id="SvgjsG1172"><path id="SvgjsPath1173" d="M375 631.8802032470703L375 678.2526016235352L375 678.2526016235352L375 722.825" stroke-dasharray="8,5" stroke="#4caf50" stroke-width="1" fill="none" marker-end="url(#SvgjsMarker1174)"></path></g></svg>