<svg id="SvgjsSvg1006" width="825" height="453" xmlns="http://www.w3.org/2000/svg" version="1.1" xmlns:xlink="http://www.w3.org/1999/xlink" xmlns:svgjs="http://svgjs.com/svgjs"><defs id="SvgjsDefs1007"><marker id="SvgjsMarker1024" markerWidth="12" markerHeight="8" refX="9" refY="4" viewBox="0 0 12 8" orient="auto" markerUnits="userSpaceOnUse" stroke-dasharray="0,0"><path id="SvgjsPath1025" d="M0,0 L12,4 L0,8 L0,0" fill="#323232" stroke="#323232" stroke-width="1"></path></marker><marker id="SvgjsMarker1028" markerWidth="12" markerHeight="8" refX="9" refY="4" viewBox="0 0 12 8" orient="auto" markerUnits="userSpaceOnUse" stroke-dasharray="0,0"><path id="SvgjsPath1029" d="M0,0 L12,4 L0,8 L0,0" fill="#323232" stroke="#323232" stroke-width="1"></path></marker><marker id="SvgjsMarker1050" markerWidth="12" markerHeight="8" refX="9" refY="4" viewBox="0 0 12 8" orient="auto" markerUnits="userSpaceOnUse" stroke-dasharray="0,0"><path id="SvgjsPath1051" d="M0,0 L12,4 L0,8 L0,0" fill="#323232" stroke="#323232" stroke-width="1"></path></marker></defs><g id="SvgjsG1008"><path id="SvgjsPath1009" d="M520 226.375L550 226.375L550 226.375L579 226.375" stroke-dasharray="8,5" stroke="#000000" stroke-width="1" fill="none"></path></g><g id="SvgjsG1010" transform="translate(325,25.00617000034879)"><path id="SvgjsPath1011" d="M 0 4Q 0 0 4 0L 146 0Q 150 0 150 4L 150 41Q 150 45 146 45L 4 45Q 0 45 0 41Z" stroke="rgba(50,50,50,1)" stroke-width="1" fill-opacity="1" fill="#ffe6cc"></path><g id="SvgjsG1012"><text id="SvgjsText1013" font-family="&quot;Times New Roman&quot;" text-anchor="middle" font-size="13px" width="130px" fill="#323232" font-weight="400" align="middle" lineHeight="125%" anchor="middle" family="&quot;Times New Roman&quot;" size="13px" weight="400" font-style="" opacity="1" y="11.875" transform="rotate(0)"><tspan id="SvgjsTspan1014" dy="16" x="75"><tspan id="SvgjsTspan1015" style="text-decoration:;">老年代</tspan></tspan></text></g></g><g id="SvgjsG1016" transform="translate(325,383.0061700003488)"><path id="SvgjsPath1017" d="M 0 4Q 0 0 4 0L 146 0Q 150 0 150 4L 150 41Q 150 45 146 45L 4 45Q 0 45 0 41Z" stroke="rgba(50,50,50,1)" stroke-width="1" fill-opacity="1" fill="#cce5ff"></path><g id="SvgjsG1018"><text id="SvgjsText1019" font-family="&quot;Times New Roman&quot;" text-anchor="middle" font-size="13px" width="130px" fill="#323232" font-weight="400" align="middle" lineHeight="125%" anchor="middle" family="&quot;Times New Roman&quot;" size="13px" weight="400" font-style="" opacity="1" y="11.875" transform="rotate(0)"><tspan id="SvgjsTspan1020" dy="16" x="75"><tspan id="SvgjsTspan1021" style="text-decoration:;">新生代</tspan></tspan></text></g></g><g id="SvgjsG1022"><path id="SvgjsPath1023" d="M505 114.00617000034879L505 92.25617000034879L400 92.25617000034879L400 71.8061700003488" stroke="#323232" stroke-width="1" fill="none" marker-end="url(#SvgjsMarker1024)"></path></g><g id="SvgjsG1026"><path id="SvgjsPath1027" d="M400 339.0061700003488L400 360.7561700003488L400 360.7561700003488L400 381.20617000034883" stroke="#323232" stroke-width="1" fill="none" marker-end="url(#SvgjsMarker1028)"></path></g><g id="SvgjsG1030" transform="translate(430,114.50617000034879)"><path id="SvgjsPath1031" d="M 0 4Q 0 0 4 0L 146 0Q 150 0 150 4L 150 41Q 150 45 146 45L 4 45Q 0 45 0 41Z" stroke="rgba(50,50,50,1)" stroke-width="1" fill-opacity="1" fill="#ffffff"></path><g id="SvgjsG1032"><text id="SvgjsText1033" font-family="&quot;Times New Roman&quot;" text-anchor="middle" font-size="13px" width="130px" fill="#323232" font-weight="400" align="middle" lineHeight="125%" anchor="middle" family="&quot;Times New Roman&quot;" size="13px" weight="400" font-style="" opacity="1" y="11.875" transform="rotate(0)"><tspan id="SvgjsTspan1034" dy="16" x="75"><tspan id="SvgjsTspan1035" style="text-decoration:;">标记-整理算法</tspan></tspan></text></g></g><g id="SvgjsG1036" transform="translate(220,114.50617000034879)"><path id="SvgjsPath1037" d="M 0 4Q 0 0 4 0L 146 0Q 150 0 150 4L 150 41Q 150 45 146 45L 4 45Q 0 45 0 41Z" stroke="rgba(50,50,50,1)" stroke-width="1" fill-opacity="1" fill="#ffffff"></path><g id="SvgjsG1038"><text id="SvgjsText1039" font-family="&quot;Times New Roman&quot;" text-anchor="middle" font-size="13px" width="130px" fill="#323232" font-weight="400" align="middle" lineHeight="125%" anchor="middle" family="&quot;Times New Roman&quot;" size="13px" weight="400" font-style="" opacity="1" y="11.875" transform="rotate(0)"><tspan id="SvgjsTspan1040" dy="16" x="75"><tspan id="SvgjsTspan1041" style="text-decoration:;">标记-清除算法</tspan></tspan></text></g></g><g id="SvgjsG1042" transform="translate(325,293.5061700003488)"><path id="SvgjsPath1043" d="M 0 4Q 0 0 4 0L 146 0Q 150 0 150 4L 150 41Q 150 45 146 45L 4 45Q 0 45 0 41Z" stroke="rgba(50,50,50,1)" stroke-width="1" fill-opacity="1" fill="#ffffff"></path><g id="SvgjsG1044"><text id="SvgjsText1045" font-family="&quot;Times New Roman&quot;" text-anchor="middle" font-size="13px" width="130px" fill="#323232" font-weight="400" align="middle" lineHeight="125%" anchor="middle" family="&quot;Times New Roman&quot;" size="13px" weight="400" font-style="" opacity="1" y="11.875" transform="rotate(0)"><tspan id="SvgjsTspan1046" dy="16" x="75"><tspan id="SvgjsTspan1047" style="text-decoration:;">复制算法</tspan></tspan></text></g></g><g id="SvgjsG1048"><path id="SvgjsPath1049" d="M295 114.00617000034879L295 92.25617000034879L400 92.25617000034879L400 71.8061700003488" stroke="#323232" stroke-width="1" fill="none" marker-end="url(#SvgjsMarker1050)"></path></g><g id="SvgjsG1052"><path id="SvgjsPath1053" d="M475.5 226.5061700003488L505 226.5061700003488L505 160.0061700003488" stroke="#323232" stroke-width="1" fill="none"></path></g><g id="SvgjsG1054"><path id="SvgjsPath1055" d="M324.5 226.5061700003488L295 226.5061700003488L295 160.0061700003488" stroke="#323232" stroke-width="1" fill="none"></path></g><g id="SvgjsG1056"><path id="SvgjsPath1057" d="M400 249.5061700003488L400 271.2561700003488L400 271.2561700003488L400 293.0061700003488" stroke="#323232" stroke-width="1" fill="none"></path></g><g id="SvgjsG1058" transform="translate(580,204.0061700003488)"><path id="SvgjsPath1059" d="M 0 0L 220 0L 220 45L 0 45Z" stroke="none" fill="none"></path><g id="SvgjsG1060"><text id="SvgjsText1061" font-family="微软雅黑" text-anchor="middle" font-size="13px" width="220px" fill="#000000" font-weight="400" align="middle" lineHeight="125%" anchor="middle" family="微软雅黑" size="13px" weight="400" font-style="" opacity="1" y="11.875" transform="rotate(0)"><tspan id="SvgjsTspan1062" dy="16" x="110"><tspan id="SvgjsTspan1063" style="text-decoration:;">根据对象存活周期将内存划分几块</tspan></tspan></text></g></g><g id="SvgjsG1064" transform="translate(325,204.0061700003488)"><path id="SvgjsPath1065" d="M 0 4Q 0 0 4 0L 146 0Q 150 0 150 4L 150 41Q 150 45 146 45L 4 45Q 0 45 0 41Z" stroke="rgba(50,50,50,1)" stroke-width="1" fill-opacity="1" fill="#ffffff"></path><g id="SvgjsG1066"><text id="SvgjsText1067" font-family="&quot;Times New Roman&quot;" text-anchor="middle" font-size="13px" width="130px" fill="#323232" font-weight="400" align="middle" lineHeight="125%" anchor="middle" family="&quot;Times New Roman&quot;" size="13px" weight="400" font-style="" opacity="1" y="11.875" transform="rotate(0)"><tspan id="SvgjsTspan1068" dy="16" x="75"><tspan id="SvgjsTspan1069" style="text-decoration:;">分代收集算法</tspan></tspan></text></g></g><g id="SvgjsG1070" transform="translate(611,114.50617000034879)"><path id="SvgjsPath1071" d="M 0 0L 120 0L 120 20L 0 20Z" stroke="none" fill="none"></path><g id="SvgjsG1072"><text id="SvgjsText1073" font-family="微软雅黑" text-anchor="start" font-size="13px" width="120px" fill="#4caf50" font-weight="400" align="middle" lineHeight="125%" anchor="start" family="微软雅黑" size="13px" weight="400" font-style="" opacity="1" y="-0.625" transform="rotate(0)"><tspan id="SvgjsTspan1074" dy="16" x="0"><tspan id="SvgjsTspan1075" style="text-decoration:;">优点：不产生碎片</tspan></tspan></text></g></g><g id="SvgjsG1076" transform="translate(611,139.5061700003488)"><path id="SvgjsPath1077" d="M 0 0L 120 0L 120 20L 0 20Z" stroke="none" fill="none"></path><g id="SvgjsG1078"><text id="SvgjsText1079" font-family="微软雅黑" text-anchor="start" font-size="13px" width="120px" fill="#f44336" font-weight="400" align="middle" lineHeight="125%" anchor="start" family="微软雅黑" size="13px" weight="400" font-style="" opacity="1" y="-0.625" transform="rotate(0)"><tspan id="SvgjsTspan1080" dy="16" x="0"><tspan id="SvgjsTspan1081" style="text-decoration:;">缺点：效率低</tspan></tspan></text></g></g><g id="SvgjsG1082" transform="translate(506,306.0061700003488)"><path id="SvgjsPath1083" d="M 0 0L 150 0L 150 20L 0 20Z" stroke="none" fill="none"></path><g id="SvgjsG1084"><text id="SvgjsText1085" font-family="微软雅黑" text-anchor="start" font-size="13px" width="150px" fill="#f44336" font-weight="400" align="middle" lineHeight="125%" anchor="start" family="微软雅黑" size="13px" weight="400" font-style="" opacity="1" y="-0.625" transform="rotate(0)"><tspan id="SvgjsTspan1086" dy="16" x="0"><tspan id="SvgjsTspan1087" style="text-decoration:;">缺点：需要额外内存空间</tspan></tspan></text></g></g><g id="SvgjsG1088" transform="translate(25,139.5061700003488)"><path id="SvgjsPath1089" d="M 0 0L 180 0L 180 20L 0 20Z" stroke="none" fill="none"></path><g id="SvgjsG1090"><text id="SvgjsText1091" font-family="微软雅黑" text-anchor="start" font-size="13px" width="180px" fill="#f44336" font-weight="400" align="middle" lineHeight="125%" anchor="start" family="微软雅黑" size="13px" weight="400" font-style="" opacity="1" y="-0.625" transform="rotate(0)"><tspan id="SvgjsTspan1092" dy="16" x="0"><tspan id="SvgjsTspan1093" style="text-decoration:;">缺点：效率低、产生大量碎片</tspan></tspan></text></g></g><g id="SvgjsG1094" transform="translate(377.5,94.50617000034879)"><path id="SvgjsPath1095" d="M 0 0L 45 0L 45 45L 0 45Z" stroke="none" fill="none"></path><g id="SvgjsG1096"><text id="SvgjsText1097" font-family="&quot;Times New Roman&quot;" text-anchor="middle" font-size="13px" width="45px" fill="#000000" font-weight="400" align="middle" lineHeight="125%" anchor="middle" family="&quot;Times New Roman&quot;" size="13px" weight="400" font-style="" opacity="1" y="11.875" transform="rotate(0)"><tspan id="SvgjsTspan1098" dy="16" x="22.5"><tspan id="SvgjsTspan1099" style="text-decoration:;">GC</tspan></tspan></text></g></g><g id="SvgjsG1100" transform="translate(400.5,338.5061700003488)"><path id="SvgjsPath1101" d="M 0 0L 45 0L 45 45L 0 45Z" stroke="none" fill="none"></path><g id="SvgjsG1102"><text id="SvgjsText1103" font-family="&quot;Times New Roman&quot;" text-anchor="middle" font-size="13px" width="45px" fill="#000000" font-weight="400" align="middle" lineHeight="125%" anchor="middle" family="&quot;Times New Roman&quot;" size="13px" weight="400" font-style="" opacity="1" y="11.875" transform="rotate(0)"><tspan id="SvgjsTspan1104" dy="16" x="22.5"><tspan id="SvgjsTspan1105" style="text-decoration:;">GC</tspan></tspan></text></g></g></svg>