<svg id="SvgjsSvg1006" width="926" height="186.375" xmlns="http://www.w3.org/2000/svg" version="1.1" xmlns:xlink="http://www.w3.org/1999/xlink" xmlns:svgjs="http://svgjs.com/svgjs"><defs id="SvgjsDefs1007"><marker id="SvgjsMarker1040" markerWidth="12" markerHeight="8" refX="9" refY="4" viewBox="0 0 12 8" orient="auto" markerUnits="userSpaceOnUse" stroke-dasharray="0,0"><path id="SvgjsPath1041" d="M0,0 L12,4 L0,8 L0,0" fill="#323232" stroke="#323232" stroke-width="1"></path></marker><marker id="SvgjsMarker1044" markerWidth="12" markerHeight="8" refX="9" refY="4" viewBox="0 0 12 8" orient="auto" markerUnits="userSpaceOnUse" stroke-dasharray="0,0"><path id="SvgjsPath1045" d="M0,0 L12,4 L0,8 L0,0" fill="#323232" stroke="#323232" stroke-width="1"></path></marker><marker id="SvgjsMarker1056" markerWidth="12" markerHeight="8" refX="9" refY="4" viewBox="0 0 12 8" orient="auto" markerUnits="userSpaceOnUse" stroke-dasharray="0,0"><path id="SvgjsPath1057" d="M0,0 L12,4 L0,8 L0,0" fill="#323232" stroke="#323232" stroke-width="1"></path></marker><marker id="SvgjsMarker1072" markerWidth="12" markerHeight="8" refX="9" refY="4" viewBox="0 0 12 8" orient="auto" markerUnits="userSpaceOnUse" stroke-dasharray="0,0"><path id="SvgjsPath1073" d="M0,0 L12,4 L0,8 L0,0" fill="#323232" stroke="#323232" stroke-width="1"></path></marker><marker id="SvgjsMarker1076" markerWidth="12" markerHeight="8" refX="9" refY="4" viewBox="0 0 12 8" orient="auto" markerUnits="userSpaceOnUse" stroke-dasharray="0,0"><path id="SvgjsPath1077" d="M0,0 L12,4 L0,8 L0,0" fill="#323232" stroke="#323232" stroke-width="1"></path></marker><marker id="SvgjsMarker1092" markerWidth="12" markerHeight="8" refX="9" refY="4" viewBox="0 0 12 8" orient="auto" markerUnits="userSpaceOnUse" stroke-dasharray="0,0"><path id="SvgjsPath1093" d="M0,0 L12,4 L0,8 L0,0" fill="#323232" stroke="#323232" stroke-width="1"></path></marker></defs><g id="SvgjsG1008" transform="translate(177,87.00617000034879)"><path id="SvgjsPath1009" d="M 0 0L 90 0L 90 45L 0 45Z" stroke="none" fill="none"></path><g id="SvgjsG1010"><text id="SvgjsText1011" font-family="&quot;Times New Roman&quot;" text-anchor="middle" font-size="13px" width="90px" fill="#000000" font-weight="400" align="middle" lineHeight="125%" anchor="middle" family="&quot;Times New Roman&quot;" size="13px" weight="400" font-style="" opacity="1" y="11.875" transform="rotate(0)"><tspan id="SvgjsTspan1012" dy="16" x="45"><tspan id="SvgjsTspan1013" style="text-decoration:;">委托</tspan></tspan></text></g></g><g id="SvgjsG1014" transform="translate(25,101.375)"><path id="SvgjsPath1015" d="M 0 4Q 0 0 4 0L 146 0Q 150 0 150 4L 150 56Q 150 60 146 60L 4 60Q 0 60 0 56Z" stroke="rgba(50,50,50,1)" stroke-width="1" fill-opacity="1" fill="#cce5ff"></path><g id="SvgjsG1016"><text id="SvgjsText1017" font-family="&quot;Times New Roman&quot;" text-anchor="middle" font-size="13px" width="130px" fill="#323232" font-weight="400" align="middle" lineHeight="150%" anchor="middle" family="&quot;Times New Roman&quot;" size="13px" weight="400" font-style="" opacity="1" y="6.25" transform="rotate(0)"><tspan id="SvgjsTspan1018" dy="19" x="75"><tspan id="SvgjsTspan1019" style="text-decoration:;">启动类加载器</tspan></tspan><tspan id="SvgjsTspan1020" dy="19" x="75"><tspan id="SvgjsTspan1021" style="text-decoration:;">Bootstrap Classloader</tspan></tspan></text></g></g><g id="SvgjsG1022" transform="translate(267,101.375)"><path id="SvgjsPath1023" d="M 0 4Q 0 0 4 0L 146 0Q 150 0 150 4L 150 56Q 150 60 146 60L 4 60Q 0 60 0 56Z" stroke="rgba(50,50,50,1)" stroke-width="1" fill-opacity="1" fill="#cce5ff"></path><g id="SvgjsG1024"><text id="SvgjsText1025" font-family="&quot;Times New Roman&quot;" text-anchor="middle" font-size="13px" width="130px" fill="#323232" font-weight="400" align="middle" lineHeight="125%" anchor="middle" family="&quot;Times New Roman&quot;" size="13px" weight="400" font-style="" opacity="1" y="10.875" transform="rotate(0)"><tspan id="SvgjsTspan1026" dy="16" x="75"><tspan id="SvgjsTspan1027" style="text-decoration:;">扩展类加载器</tspan></tspan><tspan id="SvgjsTspan1028" dy="16" x="75"><tspan id="SvgjsTspan1029" style="text-decoration:;">Extension Classloader</tspan></tspan></text></g></g><g id="SvgjsG1030" transform="translate(509,101.375)"><path id="SvgjsPath1031" d="M 0 4Q 0 0 4 0L 146 0Q 150 0 150 4L 150 56Q 150 60 146 60L 4 60Q 0 60 0 56Z" stroke="rgba(50,50,50,1)" stroke-width="1" fill-opacity="1" fill="#cce5ff"></path><g id="SvgjsG1032"><text id="SvgjsText1033" font-family="&quot;Times New Roman&quot;" text-anchor="middle" font-size="13px" width="130px" fill="#323232" font-weight="400" align="middle" lineHeight="125%" anchor="middle" family="&quot;Times New Roman&quot;" size="13px" weight="400" font-style="" opacity="1" y="10.875" transform="rotate(0)"><tspan id="SvgjsTspan1034" dy="16" x="75"><tspan id="SvgjsTspan1035" style="text-decoration:;">应用程序类加载器</tspan></tspan><tspan id="SvgjsTspan1036" dy="16" x="75"><tspan id="SvgjsTspan1037" style="text-decoration:;">Application Classloader</tspan></tspan></text></g></g><g id="SvgjsG1038"><path id="SvgjsPath1039" d="M266.5 131.375L221 131.375L221 131.375L176.8 131.375" stroke="#323232" stroke-width="1" fill="none" marker-end="url(#SvgjsMarker1040)"></path></g><g id="SvgjsG1042"><path id="SvgjsPath1043" d="M508.5 131.375L463 131.375L463 131.375L418.79999999999995 131.375" stroke="#323232" stroke-width="1" fill="none" marker-end="url(#SvgjsMarker1044)"></path></g><g id="SvgjsG1046" transform="translate(751,101.375)"><path id="SvgjsPath1047" d="M 0 4Q 0 0 4 0L 146 0Q 150 0 150 4L 150 56Q 150 60 146 60L 4 60Q 0 60 0 56Z" stroke="rgba(50,50,50,1)" stroke-width="1" fill-opacity="1" fill="#f5f5f5"></path><g id="SvgjsG1048"><text id="SvgjsText1049" font-family="&quot;Times New Roman&quot;" text-anchor="middle" font-size="13px" width="130px" fill="#323232" font-weight="400" align="middle" lineHeight="125%" anchor="middle" family="&quot;Times New Roman&quot;" size="13px" weight="400" font-style="" opacity="1" y="10.875" transform="rotate(0)"><tspan id="SvgjsTspan1050" dy="16" x="75"><tspan id="SvgjsTspan1051" style="text-decoration:;">用户自定义类加载器</tspan></tspan><tspan id="SvgjsTspan1052" dy="16" x="75"><tspan id="SvgjsTspan1053" style="text-decoration:;">UserDefine Classloader</tspan></tspan></text></g></g><g id="SvgjsG1054"><path id="SvgjsPath1055" d="M750.5 131.375L705 131.375L705 131.375L660.8 131.375" stroke="#323232" stroke-width="1" fill="none" marker-end="url(#SvgjsMarker1056)"></path></g><g id="SvgjsG1058" transform="translate(418,87.00617000034879)"><path id="SvgjsPath1059" d="M 0 0L 90 0L 90 45L 0 45Z" stroke="none" fill="none"></path><g id="SvgjsG1060"><text id="SvgjsText1061" font-family="&quot;Times New Roman&quot;" text-anchor="middle" font-size="13px" width="90px" fill="#000000" font-weight="400" align="middle" lineHeight="125%" anchor="middle" family="&quot;Times New Roman&quot;" size="13px" weight="400" font-style="" opacity="1" y="11.875" transform="rotate(0)"><tspan id="SvgjsTspan1062" dy="16" x="45"><tspan id="SvgjsTspan1063" style="text-decoration:;">委托</tspan></tspan></text></g></g><g id="SvgjsG1064" transform="translate(660,87.00617000034879)"><path id="SvgjsPath1065" d="M 0 0L 90 0L 90 45L 0 45Z" stroke="none" fill="none"></path><g id="SvgjsG1066"><text id="SvgjsText1067" font-family="&quot;Times New Roman&quot;" text-anchor="middle" font-size="13px" width="90px" fill="#000000" font-weight="400" align="middle" lineHeight="125%" anchor="middle" family="&quot;Times New Roman&quot;" size="13px" weight="400" font-style="" opacity="1" y="11.875" transform="rotate(0)"><tspan id="SvgjsTspan1068" dy="16" x="45"><tspan id="SvgjsTspan1069" style="text-decoration:;">委托</tspan></tspan></text></g></g><g id="SvgjsG1070"><path id="SvgjsPath1071" d="M100 100.875L100 71.375L297 71.375L297 99.57499999999999" stroke="#323232" stroke-width="1" fill="none" marker-end="url(#SvgjsMarker1072)"></path></g><g id="SvgjsG1074"><path id="SvgjsPath1075" d="M342 100.875L342 71.375L537 71.375L537 99.57499999999999" stroke="#323232" stroke-width="1" fill="none" marker-end="url(#SvgjsMarker1076)"></path></g><g id="SvgjsG1078" transform="translate(177,25.00617000034879)"><path id="SvgjsPath1079" d="M 0 0L 90 0L 90 45L 0 45Z" stroke="none" fill="none"></path><g id="SvgjsG1080"><text id="SvgjsText1081" font-family="&quot;Times New Roman&quot;" text-anchor="middle" font-size="13px" width="90px" fill="#000000" font-weight="400" align="middle" lineHeight="125%" anchor="middle" family="&quot;Times New Roman&quot;" size="13px" weight="400" font-style="" opacity="1" y="11.875" transform="rotate(0)"><tspan id="SvgjsTspan1082" dy="16" x="45"><tspan id="SvgjsTspan1083" style="text-decoration:;">交还</tspan></tspan></text></g></g><g id="SvgjsG1084" transform="translate(418,25.00617000034879)"><path id="SvgjsPath1085" d="M 0 0L 90 0L 90 45L 0 45Z" stroke="none" fill="none"></path><g id="SvgjsG1086"><text id="SvgjsText1087" font-family="&quot;Times New Roman&quot;" text-anchor="middle" font-size="13px" width="90px" fill="#000000" font-weight="400" align="middle" lineHeight="125%" anchor="middle" family="&quot;Times New Roman&quot;" size="13px" weight="400" font-style="" opacity="1" y="11.875" transform="rotate(0)"><tspan id="SvgjsTspan1088" dy="16" x="45"><tspan id="SvgjsTspan1089" style="text-decoration:;">交还</tspan></tspan></text></g></g><g id="SvgjsG1090"><path id="SvgjsPath1091" d="M584 100.875L584 71.375L826 71.375L826 99.57499999999999" stroke="#323232" stroke-width="1" fill="none" marker-end="url(#SvgjsMarker1092)"></path></g><g id="SvgjsG1094" transform="translate(660,25.00617000034879)"><path id="SvgjsPath1095" d="M 0 0L 90 0L 90 45L 0 45Z" stroke="none" fill="none"></path><g id="SvgjsG1096"><text id="SvgjsText1097" font-family="&quot;Times New Roman&quot;" text-anchor="middle" font-size="13px" width="90px" fill="#000000" font-weight="400" align="middle" lineHeight="125%" anchor="middle" family="&quot;Times New Roman&quot;" size="13px" weight="400" font-style="" opacity="1" y="11.875" transform="rotate(0)"><tspan id="SvgjsTspan1098" dy="16" x="45"><tspan id="SvgjsTspan1099" style="text-decoration:;">交还</tspan></tspan></text></g></g></svg>