<svg id="SvgjsSvg1006" width="868" height="620" xmlns="http://www.w3.org/2000/svg" version="1.1" xmlns:xlink="http://www.w3.org/1999/xlink" xmlns:svgjs="http://svgjs.com/svgjs"><defs id="SvgjsDefs1007"></defs><g id="SvgjsG1008" transform="translate(25,25.00423649379185)"><path id="SvgjsPath1009" d="M 0 0L 504 0L 504 570L 0 570Z" stroke="rgba(50,50,50,1)" stroke-width="1" fill-opacity="1" fill="#ffffff"></path><g id="SvgjsG1010"><text id="SvgjsText1011" font-family="&quot;Times New Roman&quot;" text-anchor="middle" font-size="13px" width="484px" fill="#323232" font-weight="400" align="middle" lineHeight="125%" anchor="middle" family="&quot;Times New Roman&quot;" size="13px" weight="400" font-style="" opacity="1" y="274.375" transform="rotate(0)"></text></g></g><g id="SvgjsG1012" transform="translate(60,86.13020324707031)"><path id="SvgjsPath1013" d="M 0 0L 210 0L 210 235L 0 235Z" stroke="rgba(50,50,50,1)" stroke-width="1" fill-opacity="1" fill="#ffffff"></path><g id="SvgjsG1014"><text id="SvgjsText1015" font-family="&quot;Times New Roman&quot;" text-anchor="middle" font-size="12px" width="190px" fill="#323232" font-weight="400" align="middle" lineHeight="125%" anchor="middle" family="&quot;Times New Roman&quot;" size="12px" weight="400" font-style="" opacity="1" y="107.5" transform="rotate(0)"></text></g></g><g id="SvgjsG1016" transform="translate(75,140.3802032470703)"><path id="SvgjsPath1017" d="M 0 4Q 0 0 4 0L 176 0Q 180 0 180 4L 180 41Q 180 45 176 45L 4 45Q 0 45 0 41Z" stroke="rgba(50,50,50,1)" stroke-width="1" fill-opacity="1" fill="#ffe6cc"></path><g id="SvgjsG1018"><text id="SvgjsText1019" font-family="&quot;Times New Roman&quot;" text-anchor="middle" font-size="12px" width="160px" fill="#323232" font-weight="400" align="middle" lineHeight="125%" anchor="middle" family="&quot;Times New Roman&quot;" size="12px" weight="400" font-style="" opacity="1" y="5" transform="rotate(0)"><tspan id="SvgjsTspan1020" dy="15" x="90"><tspan id="SvgjsTspan1021" style="text-decoration:;">程序计数器</tspan></tspan><tspan id="SvgjsTspan1022" dy="15" x="90"><tspan id="SvgjsTspan1023" style="text-decoration:;">Program Counter Register</tspan></tspan></text></g></g><g id="SvgjsG1024" transform="translate(25,39.827598571777344)"><path id="SvgjsPath1025" d="M 0 0L 504 0L 504 35L 0 35Z" stroke="none" fill="none"></path><g id="SvgjsG1026"><text id="SvgjsText1027" font-family="&quot;Times New Roman&quot;" text-anchor="middle" font-size="14px" width="504px" fill="#000000" font-weight="400" align="middle" lineHeight="125%" anchor="middle" family="&quot;Times New Roman&quot;" size="14px" weight="400" font-style="" opacity="1" y="5.75" transform="rotate(0)"><tspan id="SvgjsTspan1028" dy="17" x="252"><tspan id="SvgjsTspan1029" style="text-decoration:;">JVM 运行时数据区域</tspan></tspan></text></g></g><g id="SvgjsG1030" transform="translate(60,95.72890090942383)"><path id="SvgjsPath1031" d="M 0 0L 210 0L 210 35L 0 35Z" stroke="none" fill="none"></path><g id="SvgjsG1032"><text id="SvgjsText1033" font-family="&quot;Times New Roman&quot;" text-anchor="middle" font-size="12px" width="210px" fill="#000000" font-weight="400" align="middle" lineHeight="125%" anchor="middle" family="&quot;Times New Roman&quot;" size="12px" weight="400" font-style="" opacity="1" y="7.5" transform="rotate(0)"><tspan id="SvgjsTspan1034" dy="15" x="105"><tspan id="SvgjsTspan1035" style="text-decoration:;">线程隔离内存区域</tspan></tspan></text></g></g><g id="SvgjsG1036" transform="translate(75,199.97152370876728)"><path id="SvgjsPath1037" d="M 0 4Q 0 0 4 0L 176 0Q 180 0 180 4L 180 41Q 180 45 176 45L 4 45Q 0 45 0 41Z" stroke="rgba(50,50,50,1)" stroke-width="1" fill-opacity="1" fill="#ffe6cc"></path><g id="SvgjsG1038"><text id="SvgjsText1039" font-family="&quot;Times New Roman&quot;" text-anchor="middle" font-size="12px" width="160px" fill="#323232" font-weight="400" align="middle" lineHeight="125%" anchor="middle" family="&quot;Times New Roman&quot;" size="12px" weight="400" font-style="" opacity="1" y="5" transform="rotate(0)"><tspan id="SvgjsTspan1040" dy="15" x="90"><tspan id="SvgjsTspan1041" style="text-decoration:;">虚拟机栈</tspan></tspan><tspan id="SvgjsTspan1042" dy="15" x="90"><tspan id="SvgjsTspan1043" style="text-decoration:;">VM Stack</tspan></tspan></text></g></g><g id="SvgjsG1044" transform="translate(75,259.56284417046425)"><path id="SvgjsPath1045" d="M 0 4Q 0 0 4 0L 176 0Q 180 0 180 4L 180 41Q 180 45 176 45L 4 45Q 0 45 0 41Z" stroke="rgba(50,50,50,1)" stroke-width="1" fill-opacity="1" fill="#ffe6cc"></path><g id="SvgjsG1046"><text id="SvgjsText1047" font-family="&quot;Times New Roman&quot;" text-anchor="middle" font-size="12px" width="160px" fill="#323232" font-weight="400" align="middle" lineHeight="125%" anchor="middle" family="&quot;Times New Roman&quot;" size="12px" weight="400" font-style="" opacity="1" y="5" transform="rotate(0)"><tspan id="SvgjsTspan1048" dy="15" x="90"><tspan id="SvgjsTspan1049" style="text-decoration:;">本地方法栈</tspan></tspan><tspan id="SvgjsTspan1050" dy="15" x="90"><tspan id="SvgjsTspan1051" style="text-decoration:;">Native Method Stack</tspan></tspan></text></g></g><g id="SvgjsG1052" transform="translate(285,86.13020324707031)"><path id="SvgjsPath1053" d="M 0 0L 210 0L 210 235L 0 235Z" stroke="rgba(50,50,50,1)" stroke-width="1" fill-opacity="1" fill="#ffffff"></path><g id="SvgjsG1054"><text id="SvgjsText1055" font-family="&quot;Times New Roman&quot;" text-anchor="middle" font-size="12px" width="190px" fill="#323232" font-weight="400" align="middle" lineHeight="125%" anchor="middle" family="&quot;Times New Roman&quot;" size="12px" weight="400" font-style="" opacity="1" y="107.5" transform="rotate(0)"></text></g></g><g id="SvgjsG1056" transform="translate(300,140.3802032470703)"><path id="SvgjsPath1057" d="M 0 4Q 0 0 4 0L 176 0Q 180 0 180 4L 180 41Q 180 45 176 45L 4 45Q 0 45 0 41Z" stroke="rgba(50,50,50,1)" stroke-width="1" fill-opacity="1" fill="#ffe6cc"></path><g id="SvgjsG1058"><text id="SvgjsText1059" font-family="&quot;Times New Roman&quot;" text-anchor="middle" font-size="12px" width="160px" fill="#323232" font-weight="400" align="middle" lineHeight="125%" anchor="middle" family="&quot;Times New Roman&quot;" size="12px" weight="400" font-style="" opacity="1" y="5" transform="rotate(0)"><tspan id="SvgjsTspan1060" dy="15" x="90"><tspan id="SvgjsTspan1061" style="text-decoration:;">程序计数器</tspan></tspan><tspan id="SvgjsTspan1062" dy="15" x="90"><tspan id="SvgjsTspan1063" style="text-decoration:;">Program Counter Register</tspan></tspan></text></g></g><g id="SvgjsG1064" transform="translate(285,95.72890090942383)"><path id="SvgjsPath1065" d="M 0 0L 210 0L 210 35L 0 35Z" stroke="none" fill="none"></path><g id="SvgjsG1066"><text id="SvgjsText1067" font-family="&quot;Times New Roman&quot;" text-anchor="middle" font-size="12px" width="210px" fill="#000000" font-weight="400" align="middle" lineHeight="125%" anchor="middle" family="&quot;Times New Roman&quot;" size="12px" weight="400" font-style="" opacity="1" y="7.5" transform="rotate(0)"><tspan id="SvgjsTspan1068" dy="15" x="105"><tspan id="SvgjsTspan1069" style="text-decoration:;">线程隔离内存区域</tspan></tspan></text></g></g><g id="SvgjsG1070" transform="translate(300,199.97152370876728)"><path id="SvgjsPath1071" d="M 0 4Q 0 0 4 0L 176 0Q 180 0 180 4L 180 41Q 180 45 176 45L 4 45Q 0 45 0 41Z" stroke="rgba(50,50,50,1)" stroke-width="1" fill-opacity="1" fill="#ffe6cc"></path><g id="SvgjsG1072"><text id="SvgjsText1073" font-family="&quot;Times New Roman&quot;" text-anchor="middle" font-size="12px" width="160px" fill="#323232" font-weight="400" align="middle" lineHeight="125%" anchor="middle" family="&quot;Times New Roman&quot;" size="12px" weight="400" font-style="" opacity="1" y="5" transform="rotate(0)"><tspan id="SvgjsTspan1074" dy="15" x="90"><tspan id="SvgjsTspan1075" style="text-decoration:;">虚拟机栈</tspan></tspan><tspan id="SvgjsTspan1076" dy="15" x="90"><tspan id="SvgjsTspan1077" style="text-decoration:;">VM Stack</tspan></tspan></text></g></g><g id="SvgjsG1078" transform="translate(300,259.56284417046425)"><path id="SvgjsPath1079" d="M 0 4Q 0 0 4 0L 176 0Q 180 0 180 4L 180 41Q 180 45 176 45L 4 45Q 0 45 0 41Z" stroke="rgba(50,50,50,1)" stroke-width="1" fill-opacity="1" fill="#ffe6cc"></path><g id="SvgjsG1080"><text id="SvgjsText1081" font-family="&quot;Times New Roman&quot;" text-anchor="middle" font-size="12px" width="160px" fill="#323232" font-weight="400" align="middle" lineHeight="125%" anchor="middle" family="&quot;Times New Roman&quot;" size="12px" weight="400" font-style="" opacity="1" y="5" transform="rotate(0)"><tspan id="SvgjsTspan1082" dy="15" x="90"><tspan id="SvgjsTspan1083" style="text-decoration:;">本地方法栈</tspan></tspan><tspan id="SvgjsTspan1084" dy="15" x="90"><tspan id="SvgjsTspan1085" style="text-decoration:;">Native Method Stack</tspan></tspan></text></g></g><g id="SvgjsG1086" transform="translate(60,338.4328079223633)"><path id="SvgjsPath1087" d="M 0 0L 434 0L 434 220L 0 220Z" stroke-dasharray="10,6" stroke="rgba(50,50,50,1)" stroke-width="1" fill-opacity="1" fill="#ffffff"></path><g id="SvgjsG1088"><text id="SvgjsText1089" font-family="&quot;Times New Roman&quot;" text-anchor="middle" font-size="13px" width="414px" fill="#323232" font-weight="400" align="middle" lineHeight="125%" anchor="middle" family="&quot;Times New Roman&quot;" size="13px" weight="400" font-style="" opacity="1" y="99.375" transform="rotate(0)"></text></g></g><g id="SvgjsG1090" transform="translate(60,348.07759857177734)"><path id="SvgjsPath1091" d="M 0 0L 434 0L 434 35L 0 35Z" stroke="none" fill="none"></path><g id="SvgjsG1092"><text id="SvgjsText1093" font-family="&quot;Times New Roman&quot;" text-anchor="middle" font-size="14px" width="434px" fill="#000000" font-weight="400" align="middle" lineHeight="125%" anchor="middle" family="&quot;Times New Roman&quot;" size="14px" weight="400" font-style="" opacity="1" y="5.75" transform="rotate(0)"><tspan id="SvgjsTspan1094" dy="17" x="217"><tspan id="SvgjsTspan1095" style="text-decoration:;">线程共享内存区域</tspan></tspan></text></g></g><g id="SvgjsG1096" transform="translate(90,391.3802032470703)"><path id="SvgjsPath1097" d="M 0 4Q 0 0 4 0L 371 0Q 375 0 375 4L 375 131Q 375 135 371 135L 4 135Q 0 135 0 131Z" stroke="rgba(50,50,50,1)" stroke-width="1" fill-opacity="1" fill="#cce5ff"></path><g id="SvgjsG1098"><text id="SvgjsText1099" font-family="&quot;Times New Roman&quot;" text-anchor="middle" font-size="12px" width="355px" fill="#323232" font-weight="400" align="middle" lineHeight="125%" anchor="middle" family="&quot;Times New Roman&quot;" size="12px" weight="400" font-style="" opacity="1" y="5" transform="rotate(0)"><tspan id="SvgjsTspan1100" dy="15" x="187.5"><tspan id="SvgjsTspan1101" style="text-decoration:;"> </tspan></tspan><tspan id="SvgjsTspan1102" dy="15" x="187.5"><tspan id="SvgjsTspan1103" style="text-decoration:;">堆</tspan></tspan><tspan id="SvgjsTspan1104" dy="15" x="187.5"><tspan id="SvgjsTspan1105" style="text-decoration:;">Heap</tspan></tspan><tspan id="SvgjsTspan1106" dy="15" x="187.5"><tspan id="SvgjsTspan1107" style="text-decoration:;"> </tspan></tspan><tspan id="SvgjsTspan1108" dy="15" x="187.5"><tspan id="SvgjsTspan1109" style="text-decoration:;"> </tspan></tspan><tspan id="SvgjsTspan1110" dy="15" x="187.5"><tspan id="SvgjsTspan1111" style="text-decoration:;"> </tspan></tspan><tspan id="SvgjsTspan1112" dy="15" x="187.5"><tspan id="SvgjsTspan1113" style="text-decoration:;"> </tspan></tspan><tspan id="SvgjsTspan1114" dy="15" x="187.5"><tspan id="SvgjsTspan1115" style="text-decoration:;"> </tspan></tspan></text></g></g><g id="SvgjsG1116" transform="translate(104.49999999999994,462.951631818499)"><path id="SvgjsPath1117" d="M 0 4Q 0 0 4 0L 341 0Q 345 0 345 4L 345 41Q 345 45 341 45L 4 45Q 0 45 0 41Z" stroke="rgba(50,50,50,1)" stroke-width="1" fill-opacity="1" fill="#ffffff"></path><g id="SvgjsG1118"><text id="SvgjsText1119" font-family="&quot;Times New Roman&quot;" text-anchor="middle" font-size="12px" width="325px" fill="#323232" font-weight="400" align="middle" lineHeight="125%" anchor="middle" family="&quot;Times New Roman&quot;" size="12px" weight="400" font-style="" opacity="1" y="12.5" transform="rotate(0)"><tspan id="SvgjsTspan1120" dy="15" x="172.5"><tspan id="SvgjsTspan1121" style="text-decoration:;">字符串常量池</tspan></tspan></text></g></g><g id="SvgjsG1122" transform="translate(557,25.00423649379185)"><path id="SvgjsPath1123" d="M 0 0L 286 0L 286 570L 0 570Z" stroke="rgba(50,50,50,1)" stroke-width="1" fill-opacity="1" fill="#ffffff"></path><g id="SvgjsG1124"><text id="SvgjsText1125" font-family="&quot;Times New Roman&quot;" text-anchor="middle" font-size="13px" width="266px" fill="#323232" font-weight="400" align="middle" lineHeight="125%" anchor="middle" family="&quot;Times New Roman&quot;" size="13px" weight="400" font-style="" opacity="1" y="274.375" transform="rotate(0)"></text></g></g><g id="SvgjsG1126" transform="translate(557,39.827598571777344)"><path id="SvgjsPath1127" d="M 0 0L 286 0L 286 35L 0 35Z" stroke="none" fill="none"></path><g id="SvgjsG1128"><text id="SvgjsText1129" font-family="&quot;Times New Roman&quot;" text-anchor="middle" font-size="14px" width="286px" fill="#000000" font-weight="400" align="middle" lineHeight="125%" anchor="middle" family="&quot;Times New Roman&quot;" size="14px" weight="400" font-style="" opacity="1" y="5.75" transform="rotate(0)"><tspan id="SvgjsTspan1130" dy="17" x="143"><tspan id="SvgjsTspan1131" style="text-decoration:;">直接内存（物理内存）</tspan></tspan></text></g></g><g id="SvgjsG1132" transform="translate(595,86.13020324707031)"><path id="SvgjsPath1133" d="M 0 4Q 0 0 4 0L 206 0Q 210 0 210 4L 210 466Q 210 470 206 470L 4 470Q 0 470 0 466Z" stroke="rgba(50,50,50,1)" stroke-width="1" fill-opacity="1" fill="#cce5ff"></path><g id="SvgjsG1134"><text id="SvgjsText1135" font-family="&quot;Times New Roman&quot;" text-anchor="middle" font-size="12px" width="190px" fill="#323232" font-weight="400" align="middle" lineHeight="125%" anchor="middle" family="&quot;Times New Roman&quot;" size="12px" weight="400" font-style="" opacity="1" y="22.5" transform="rotate(0)"><tspan id="SvgjsTspan1136" dy="15" x="105"><tspan id="SvgjsTspan1137" style="text-decoration:;">元数据区 </tspan></tspan><tspan id="SvgjsTspan1138" dy="15" x="105"><tspan id="SvgjsTspan1139" style="text-decoration:;font-size: inherit;">Metaspace</tspan></tspan><tspan id="SvgjsTspan1140" dy="15" x="105"><tspan id="SvgjsTspan1141" style="text-decoration:;"> </tspan></tspan><tspan id="SvgjsTspan1142" dy="15" x="105"><tspan id="SvgjsTspan1143" style="text-decoration:;"> </tspan></tspan><tspan id="SvgjsTspan1144" dy="15" x="105"><tspan id="SvgjsTspan1145" style="text-decoration:;"> </tspan></tspan><tspan id="SvgjsTspan1146" dy="15" x="105"><tspan id="SvgjsTspan1147" style="text-decoration:;"> </tspan></tspan><tspan id="SvgjsTspan1148" dy="15" x="105"><tspan id="SvgjsTspan1149" style="text-decoration:;"> </tspan></tspan><tspan id="SvgjsTspan1150" dy="15" x="105"><tspan id="SvgjsTspan1151" style="text-decoration:;"> </tspan></tspan><tspan id="SvgjsTspan1152" dy="15" x="105"><tspan id="SvgjsTspan1153" style="text-decoration:;"> </tspan></tspan><tspan id="SvgjsTspan1154" dy="15" x="105"><tspan id="SvgjsTspan1155" style="text-decoration:;"> </tspan></tspan><tspan id="SvgjsTspan1156" dy="15" x="105"><tspan id="SvgjsTspan1157" style="text-decoration:;"> </tspan></tspan><tspan id="SvgjsTspan1158" dy="15" x="105"><tspan id="SvgjsTspan1159" style="text-decoration:;"> </tspan></tspan><tspan id="SvgjsTspan1160" dy="15" x="105"><tspan id="SvgjsTspan1161" style="text-decoration:;"> </tspan></tspan><tspan id="SvgjsTspan1162" dy="15" x="105"><tspan id="SvgjsTspan1163" style="text-decoration:;"> </tspan></tspan><tspan id="SvgjsTspan1164" dy="15" x="105"><tspan id="SvgjsTspan1165" style="text-decoration:;"> </tspan></tspan><tspan id="SvgjsTspan1166" dy="15" x="105"><tspan id="SvgjsTspan1167" style="text-decoration:;"> </tspan></tspan><tspan id="SvgjsTspan1168" dy="15" x="105"><tspan id="SvgjsTspan1169" style="text-decoration:;"> </tspan></tspan><tspan id="SvgjsTspan1170" dy="15" x="105"><tspan id="SvgjsTspan1171" style="text-decoration:;"> </tspan></tspan><tspan id="SvgjsTspan1172" dy="15" x="105"><tspan id="SvgjsTspan1173" style="text-decoration:;"> </tspan></tspan><tspan id="SvgjsTspan1174" dy="15" x="105"><tspan id="SvgjsTspan1175" style="text-decoration:;"> </tspan></tspan><tspan id="SvgjsTspan1176" dy="15" x="105"><tspan id="SvgjsTspan1177" style="text-decoration:;"> </tspan></tspan><tspan id="SvgjsTspan1178" dy="15" x="105"><tspan id="SvgjsTspan1179" style="text-decoration:;"> </tspan></tspan><tspan id="SvgjsTspan1180" dy="15" x="105"><tspan id="SvgjsTspan1181" style="text-decoration:;"> </tspan></tspan><tspan id="SvgjsTspan1182" dy="15" x="105"><tspan id="SvgjsTspan1183" style="text-decoration:;"> </tspan></tspan><tspan id="SvgjsTspan1184" dy="15" x="105"><tspan id="SvgjsTspan1185" style="text-decoration:;"> </tspan></tspan><tspan id="SvgjsTspan1186" dy="15" x="105"><tspan id="SvgjsTspan1187" style="text-decoration:;"> </tspan></tspan><tspan id="SvgjsTspan1188" dy="15" x="105"><tspan id="SvgjsTspan1189" style="text-decoration:;"> </tspan></tspan><tspan id="SvgjsTspan1190" dy="15" x="105"><tspan id="SvgjsTspan1191" style="text-decoration:;"> </tspan></tspan></text></g></g><g id="SvgjsG1192" transform="translate(610,199.97152370876728)"><path id="SvgjsPath1193" d="M 0 4Q 0 0 4 0L 176 0Q 180 0 180 4L 180 41Q 180 45 176 45L 4 45Q 0 45 0 41Z" stroke="rgba(50,50,50,1)" stroke-width="1" fill-opacity="1" fill="#ffffff"></path><g id="SvgjsG1194"><text id="SvgjsText1195" font-family="&quot;Times New Roman&quot;" text-anchor="middle" font-size="12px" width="160px" fill="#323232" font-weight="400" align="middle" lineHeight="125%" anchor="middle" family="&quot;Times New Roman&quot;" size="12px" weight="400" font-style="" opacity="1" y="12.5" transform="rotate(0)"><tspan id="SvgjsTspan1196" dy="15" x="90"><tspan id="SvgjsTspan1197" style="text-decoration:;">常量池</tspan></tspan></text></g></g><g id="SvgjsG1198" transform="translate(610,268.7918842860631)"><path id="SvgjsPath1199" d="M 0 4Q 0 0 4 0L 176 0Q 180 0 180 4L 180 41Q 180 45 176 45L 4 45Q 0 45 0 41Z" stroke="rgba(50,50,50,1)" stroke-width="1" fill-opacity="1" fill="#ffffff"></path><g id="SvgjsG1200"><text id="SvgjsText1201" font-family="&quot;Times New Roman&quot;" text-anchor="middle" font-size="12px" width="160px" fill="#323232" font-weight="400" align="middle" lineHeight="125%" anchor="middle" family="&quot;Times New Roman&quot;" size="12px" weight="400" font-style="" opacity="1" y="12.5" transform="rotate(0)"><tspan id="SvgjsTspan1202" dy="15" x="90"><tspan id="SvgjsTspan1203" style="text-decoration:;">类元信息</tspan></tspan></text></g></g><g id="SvgjsG1204" transform="translate(610,338.4328079223633)"><path id="SvgjsPath1205" d="M 0 4Q 0 0 4 0L 176 0Q 180 0 180 4L 180 41Q 180 45 176 45L 4 45Q 0 45 0 41Z" stroke="rgba(50,50,50,1)" stroke-width="1" fill-opacity="1" fill="#ffffff"></path><g id="SvgjsG1206"><text id="SvgjsText1207" font-family="&quot;Times New Roman&quot;" text-anchor="middle" font-size="12px" width="160px" fill="#323232" font-weight="400" align="middle" lineHeight="125%" anchor="middle" family="&quot;Times New Roman&quot;" size="12px" weight="400" font-style="" opacity="1" y="12.5" transform="rotate(0)"><tspan id="SvgjsTspan1208" dy="15" x="90"><tspan id="SvgjsTspan1209" style="text-decoration:;">方法元信息</tspan></tspan></text></g></g></svg>