<svg id="SvgjsSvg1006" width="479" height="275" xmlns="http://www.w3.org/2000/svg" version="1.1" xmlns:xlink="http://www.w3.org/1999/xlink" xmlns:svgjs="http://svgjs.com/svgjs"><defs id="SvgjsDefs1007"><marker id="SvgjsMarker1046" markerWidth="12" markerHeight="8" refX="9" refY="4" viewBox="0 0 12 8" orient="auto" markerUnits="userSpaceOnUse" stroke-dasharray="0,0"><path id="SvgjsPath1047" d="M0,0 L12,4 L0,8 L0,0" fill="#323232" stroke="#323232" stroke-width="1"></path></marker></defs><g id="SvgjsG1008" transform="translate(334,80.00617000034879)"><path id="SvgjsPath1009" d="M 0 0L 120 0L 120 35L 0 35Z" stroke="none" fill="none"></path><g id="SvgjsG1010"><text id="SvgjsText1011" font-family="&quot;Times New Roman&quot;" text-anchor="middle" font-size="13px" width="120px" fill="#000000" font-weight="400" align="middle" lineHeight="125%" anchor="middle" family="&quot;Times New Roman&quot;" size="13px" weight="400" font-style="" opacity="1" y="6.875" transform="rotate(0)"><tspan id="SvgjsTspan1012" dy="16" x="60"><tspan id="SvgjsTspan1013" style="text-decoration:;">局部变量表</tspan></tspan></text></g></g><g id="SvgjsG1014" transform="translate(25,25.00617000034879)"><path id="SvgjsPath1015" d="M 0 4Q 0 0 4 0L 131 0Q 135 0 135 4L 135 41Q 135 45 131 45L 4 45Q 0 45 0 41Z" stroke="rgba(50,50,50,1)" stroke-width="1" fill-opacity="1" fill="#ffffff"></path><g id="SvgjsG1016"><text id="SvgjsText1017" font-family="&quot;Times New Roman&quot;" text-anchor="middle" font-size="13px" width="115px" fill="#323232" font-weight="400" align="middle" lineHeight="125%" anchor="middle" family="&quot;Times New Roman&quot;" size="13px" weight="400" font-style="" opacity="1" y="11.875" transform="rotate(0)"><tspan id="SvgjsTspan1018" dy="16" x="67.5"><tspan id="SvgjsTspan1019" style="text-decoration:;">执行 Java 方法</tspan></tspan></text></g></g><g id="SvgjsG1020" transform="translate(160,115.00617000034879)"><path id="SvgjsPath1021" d="M 0 0L 135 0L 135 45L 0 45Z" stroke="rgba(50,50,50,1)" stroke-width="1" fill-opacity="1" fill="#cce5ff"></path><g id="SvgjsG1022"><text id="SvgjsText1023" font-family="&quot;Times New Roman&quot;" text-anchor="middle" font-size="13px" width="115px" fill="#323232" font-weight="400" align="middle" lineHeight="125%" anchor="middle" family="&quot;Times New Roman&quot;" size="13px" weight="400" font-style="" opacity="1" y="3.375" transform="rotate(0)"><tspan id="SvgjsTspan1024" dy="16" x="67.5"><tspan id="SvgjsTspan1025" style="text-decoration:;">栈帧</tspan></tspan><tspan id="SvgjsTspan1026" dy="16" x="67.5"><tspan id="SvgjsTspan1027" style="text-decoration:;">Stack Frame</tspan></tspan></text></g></g><g id="SvgjsG1028" transform="translate(160,160.0061700003488)"><path id="SvgjsPath1029" d="M 0 0L 135 0L 135 45L 0 45Z" stroke="rgba(50,50,50,1)" stroke-width="1" fill-opacity="1" fill="#ffffff"></path><g id="SvgjsG1030"><text id="SvgjsText1031" font-family="&quot;Times New Roman&quot;" text-anchor="middle" font-size="13px" width="115px" fill="#323232" font-weight="400" align="middle" lineHeight="125%" anchor="middle" family="&quot;Times New Roman&quot;" size="13px" weight="400" font-style="" opacity="1" y="3.375" transform="rotate(0)"><tspan id="SvgjsTspan1032" dy="16" x="67.5"><tspan id="SvgjsTspan1033" style="text-decoration:;">栈帧</tspan></tspan><tspan id="SvgjsTspan1034" dy="16" x="67.5"><tspan id="SvgjsTspan1035" style="text-decoration:;">Stack Frame</tspan></tspan></text></g></g><g id="SvgjsG1036" transform="translate(160,205.0061700003488)"><path id="SvgjsPath1037" d="M 0 0L 135 0L 135 45L 0 45Z" stroke="rgba(50,50,50,1)" stroke-width="1" fill-opacity="1" fill="#ffffff"></path><g id="SvgjsG1038"><text id="SvgjsText1039" font-family="&quot;Times New Roman&quot;" text-anchor="middle" font-size="13px" width="115px" fill="#323232" font-weight="400" align="middle" lineHeight="125%" anchor="middle" family="&quot;Times New Roman&quot;" size="13px" weight="400" font-style="" opacity="1" y="3.375" transform="rotate(0)"><tspan id="SvgjsTspan1040" dy="16" x="67.5"><tspan id="SvgjsTspan1041" style="text-decoration:;">栈帧</tspan></tspan><tspan id="SvgjsTspan1042" dy="16" x="67.5"><tspan id="SvgjsTspan1043" style="text-decoration:;">Stack Frame</tspan></tspan></text></g></g><g id="SvgjsG1044"><path id="SvgjsPath1045" d="M160.4976741485582 47.554340965222536C 198.1837661840736 47.50617000034879 227.5 76.8224038162752 227.32658452645455 113.21454306553926" stroke="#323232" stroke-width="1" fill="none" marker-end="url(#SvgjsMarker1046)"></path></g><g id="SvgjsG1048" transform="translate(315,87.50617000034879)"><path id="SvgjsPath1049" d="M 20 0Q 18 0 18 9L 18 41Q 18 50 -2 50Q 18 50 18 59L 18 91Q 18 100 20 100" stroke="rgba(50,50,50,1)" stroke-width="1" fill="none"></path><path id="SvgjsPath1050" d="M 0 0L 20 0L 20 100L 0 100Z" stroke="none" fill="none"></path><g id="SvgjsG1051"><text id="SvgjsText1052" font-family="微软雅黑" text-anchor="end" font-size="13px" width="0" fill="#323232" font-weight="400" align="middle" lineHeight="125%" anchor="end" family="微软雅黑" size="13px" weight="400" font-style="" opacity="1" y="39.375" transform="rotate(0)"></text></g></g><g id="SvgjsG1053" transform="translate(334,120.00617000034879)"><path id="SvgjsPath1054" d="M 0 0L 120 0L 120 35L 0 35Z" stroke="none" fill="none"></path><g id="SvgjsG1055"><text id="SvgjsText1056" font-family="&quot;Times New Roman&quot;" text-anchor="middle" font-size="13px" width="120px" fill="#000000" font-weight="400" align="middle" lineHeight="125%" anchor="middle" family="&quot;Times New Roman&quot;" size="13px" weight="400" font-style="" opacity="1" y="6.875" transform="rotate(0)"><tspan id="SvgjsTspan1057" dy="16" x="60"><tspan id="SvgjsTspan1058" style="text-decoration:;">常量池引用</tspan></tspan></text></g></g><g id="SvgjsG1059" transform="translate(334,160.0061700003488)"><path id="SvgjsPath1060" d="M 0 0L 120 0L 120 35L 0 35Z" stroke="none" fill="none"></path><g id="SvgjsG1061"><text id="SvgjsText1062" font-family="&quot;Times New Roman&quot;" text-anchor="middle" font-size="13px" width="120px" fill="#000000" font-weight="400" align="middle" lineHeight="125%" anchor="middle" family="&quot;Times New Roman&quot;" size="13px" weight="400" font-style="" opacity="1" y="6.875" transform="rotate(0)"><tspan id="SvgjsTspan1063" dy="16" x="60"><tspan id="SvgjsTspan1064" style="text-decoration:;">操作数栈</tspan></tspan></text></g></g><g id="SvgjsG1065" transform="translate(209,45.00617000034879)"><path id="SvgjsPath1066" d="M 0 0L 120 0L 120 35L 0 35Z" stroke="none" fill="none"></path><g id="SvgjsG1067"><text id="SvgjsText1068" font-family="&quot;Times New Roman&quot;" text-anchor="middle" font-size="13px" width="120px" fill="#4caf50" font-weight="400" align="middle" lineHeight="125%" anchor="middle" family="&quot;Times New Roman&quot;" size="13px" weight="400" font-style="" opacity="1" y="6.875" transform="rotate(0)"><tspan id="SvgjsTspan1069" dy="16" x="60"><tspan id="SvgjsTspan1070" style="text-decoration:;">创建、入栈</tspan></tspan></text></g></g></svg>