<svg id="SvgjsSvg1006" width="466.00347900390625" height="338.10765075683594" xmlns="http://www.w3.org/2000/svg" version="1.1" xmlns:xlink="http://www.w3.org/1999/xlink" xmlns:svgjs="http://svgjs.com/svgjs"><defs id="SvgjsDefs1007"><marker id="SvgjsMarker1042" markerWidth="12" markerHeight="8" refX="9" refY="4" viewBox="0 0 12 8" orient="auto" markerUnits="userSpaceOnUse" stroke-dasharray="0,0"><path id="SvgjsPath1043" d="M0,0 L12,4 L0,8 L0,0" fill="#323232" stroke="#323232" stroke-width="1"></path></marker></defs><g id="SvgjsG1008" transform="translate(25.0086669921875,60.61109924316406)"><path id="SvgjsPath1009" d="M 0 0L 178 0L 178 172L 0 172Z" stroke="rgba(50,50,50,1)" stroke-width="1" fill-opacity="1" fill="#ffffff"></path><g id="SvgjsG1010"><text id="SvgjsText1011" font-family="&quot;Times New Roman&quot;" text-anchor="middle" font-size="13px" width="158px" fill="#323232" font-weight="400" align="middle" lineHeight="125%" anchor="middle" family="&quot;Times New Roman&quot;" size="13px" weight="400" font-style="" opacity="1" y="74.875" transform="rotate(0)"></text></g></g><g id="SvgjsG1012" transform="translate(54.0086669921875,129.11109924316406)"><path id="SvgjsPath1013" d="M 0 4Q 0 0 4 0L 116 0Q 120 0 120 4L 120 31Q 120 35 116 35L 4 35Q 0 35 0 31Z" stroke="rgba(50,50,50,1)" stroke-width="1" fill-opacity="1" fill="#f8f8f8"></path><g id="SvgjsG1014"><text id="SvgjsText1015" font-family="&quot;Times New Roman&quot;" text-anchor="middle" font-size="13px" width="100px" fill="#323232" font-weight="400" align="middle" lineHeight="125%" anchor="middle" family="&quot;Times New Roman&quot;" size="13px" weight="400" font-style="" opacity="1" y="6.375" transform="rotate(0)"><tspan id="SvgjsTspan1016" dy="16" x="60"><tspan id="SvgjsTspan1017" style="text-decoration:;">write x</tspan></tspan></text></g></g><g id="SvgjsG1018" transform="translate(25.0086669921875,25.005889892578125)"><path id="SvgjsPath1019" d="M 0 0L 178 0L 178 35L 0 35Z" stroke="none" fill="none"></path><g id="SvgjsG1020"><text id="SvgjsText1021" font-family="&quot;Times New Roman&quot;" text-anchor="middle" font-size="13px" width="178px" fill="#000000" font-weight="700" align="middle" lineHeight="125%" anchor="middle" family="&quot;Times New Roman&quot;" size="13px" weight="700" font-style="" opacity="1" y="6.375" transform="rotate(0)"><tspan id="SvgjsTspan1022" dy="16" x="89"><tspan id="SvgjsTspan1023" style="text-decoration:;">Thread 1</tspan></tspan></text></g></g><g id="SvgjsG1024" transform="translate(263.0086669921875,60.61109924316406)"><path id="SvgjsPath1025" d="M 0 0L 178 0L 178 172L 0 172Z" stroke="rgba(50,50,50,1)" stroke-width="1" fill-opacity="1" fill="#ffffff"></path><g id="SvgjsG1026"><text id="SvgjsText1027" font-family="&quot;Times New Roman&quot;" text-anchor="middle" font-size="13px" width="158px" fill="#323232" font-weight="400" align="middle" lineHeight="125%" anchor="middle" family="&quot;Times New Roman&quot;" size="13px" weight="400" font-style="" opacity="1" y="74.875" transform="rotate(0)"></text></g></g><g id="SvgjsG1028" transform="translate(292.0086669921875,129.11109924316406)"><path id="SvgjsPath1029" d="M 0 4Q 0 0 4 0L 116 0Q 120 0 120 4L 120 31Q 120 35 116 35L 4 35Q 0 35 0 31Z" stroke="rgba(50,50,50,1)" stroke-width="1" fill-opacity="1" fill="#f8f8f8"></path><g id="SvgjsG1030"><text id="SvgjsText1031" font-family="&quot;Times New Roman&quot;" text-anchor="middle" font-size="13px" width="100px" fill="#323232" font-weight="400" align="middle" lineHeight="125%" anchor="middle" family="&quot;Times New Roman&quot;" size="13px" weight="400" font-style="" opacity="1" y="6.375" transform="rotate(0)"><tspan id="SvgjsTspan1032" dy="16" x="60"><tspan id="SvgjsTspan1033" style="text-decoration:;">read x</tspan></tspan></text></g></g><g id="SvgjsG1034" transform="translate(263.0086669921875,25.005889892578125)"><path id="SvgjsPath1035" d="M 0 0L 178 0L 178 35L 0 35Z" stroke="none" fill="none"></path><g id="SvgjsG1036"><text id="SvgjsText1037" font-family="&quot;Times New Roman&quot;" text-anchor="middle" font-size="13px" width="178px" fill="#000000" font-weight="700" align="middle" lineHeight="125%" anchor="middle" family="&quot;Times New Roman&quot;" size="13px" weight="700" font-style="" opacity="1" y="6.375" transform="rotate(0)"><tspan id="SvgjsTspan1038" dy="16" x="89"><tspan id="SvgjsTspan1039" style="text-decoration:;">Thread 2</tspan></tspan></text></g></g><g id="SvgjsG1040"><path id="SvgjsPath1041" d="M174.5086669921875 146.61109924316406L233.0086669921875 146.61109924316406L233.0086669921875 146.61109924316406L290.20866699218755 146.61109924316406" stroke-dasharray="8,5" stroke="#323232" stroke-width="1" fill="none" marker-end="url(#SvgjsMarker1042)"></path></g><g id="SvgjsG1044" transform="translate(172.0086669921875,278.11109924316406)"><path id="SvgjsPath1045" d="M 0 4Q 0 0 4 0L 116 0Q 120 0 120 4L 120 31Q 120 35 116 35L 4 35Q 0 35 0 31Z" stroke="rgba(50,50,50,1)" stroke-width="1" fill-opacity="1" fill="#cce5ff"></path><g id="SvgjsG1046"><text id="SvgjsText1047" font-family="&quot;Times New Roman&quot;" text-anchor="middle" font-size="13px" width="100px" fill="#323232" font-weight="400" align="middle" lineHeight="125%" anchor="middle" family="&quot;Times New Roman&quot;" size="13px" weight="400" font-style="" opacity="1" y="6.375" transform="rotate(0)"><tspan id="SvgjsTspan1048" dy="16" x="60"><tspan id="SvgjsTspan1049" style="text-decoration:;">volatile x</tspan></tspan></text></g></g></svg>