<svg id="SvgjsSvg1006" width="466.00347900390625" height="257.6076354980469" xmlns="http://www.w3.org/2000/svg" version="1.1" xmlns:xlink="http://www.w3.org/1999/xlink" xmlns:svgjs="http://svgjs.com/svgjs"><defs id="SvgjsDefs1007"><marker id="SvgjsMarker1048" markerWidth="12" markerHeight="8" refX="9" refY="4" viewBox="0 0 12 8" orient="auto" markerUnits="userSpaceOnUse" stroke-dasharray="0,0"><path id="SvgjsPath1049" d="M0,0 L12,4 L0,8 L0,0" fill="#323232" stroke="#323232" stroke-width="1"></path></marker><marker id="SvgjsMarker1052" markerWidth="12" markerHeight="8" refX="9" refY="4" viewBox="0 0 12 8" orient="auto" markerUnits="userSpaceOnUse" stroke-dasharray="0,0"><path id="SvgjsPath1053" d="M0,0 L12,4 L0,8 L0,0" fill="#323232" stroke="#323232" stroke-width="1"></path></marker></defs><g id="SvgjsG1008" transform="translate(25.003463745117188,60.60589599609375)"><path id="SvgjsPath1009" d="M 0 0L 178 0L 178 172L 0 172Z" stroke="rgba(50,50,50,1)" stroke-width="1" fill-opacity="1" fill="#ffffff"></path><g id="SvgjsG1010"><text id="SvgjsText1011" font-family="&quot;Times New Roman&quot;" text-anchor="middle" font-size="13px" width="158px" fill="#323232" font-weight="400" align="middle" lineHeight="125%" anchor="middle" family="&quot;Times New Roman&quot;" size="13px" weight="400" font-style="" opacity="1" y="74.875" transform="rotate(0)"></text></g></g><g id="SvgjsG1012" transform="translate(54.0086669921875,129.11109924316406)"><path id="SvgjsPath1013" d="M 0 4Q 0 0 4 0L 116 0Q 120 0 120 4L 120 31Q 120 35 116 35L 4 35Q 0 35 0 31Z" stroke="rgba(50,50,50,1)" stroke-width="1" fill-opacity="1" fill="#f8f8f8"></path><g id="SvgjsG1014"><text id="SvgjsText1015" font-family="&quot;Times New Roman&quot;" text-anchor="middle" font-size="13px" width="100px" fill="#323232" font-weight="400" align="middle" lineHeight="125%" anchor="middle" family="&quot;Times New Roman&quot;" size="13px" weight="400" font-style="" opacity="1" y="6.375" transform="rotate(0)"><tspan id="SvgjsTspan1016" dy="16" x="60"><tspan id="SvgjsTspan1017" style="text-decoration:;">Thread2.start()</tspan></tspan></text></g></g><g id="SvgjsG1018" transform="translate(25.0086669921875,25.005889892578125)"><path id="SvgjsPath1019" d="M 0 0L 178 0L 178 35L 0 35Z" stroke="none" fill="none"></path><g id="SvgjsG1020"><text id="SvgjsText1021" font-family="&quot;Times New Roman&quot;" text-anchor="middle" font-size="13px" width="178px" fill="#000000" font-weight="700" align="middle" lineHeight="125%" anchor="middle" family="&quot;Times New Roman&quot;" size="13px" weight="700" font-style="" opacity="1" y="6.375" transform="rotate(0)"><tspan id="SvgjsTspan1022" dy="16" x="89"><tspan id="SvgjsTspan1023" style="text-decoration:;">Thread 1</tspan></tspan></text></g></g><g id="SvgjsG1024" transform="translate(263.0086669921875,60.61109924316406)"><path id="SvgjsPath1025" d="M 0 0L 178 0L 178 172L 0 172Z" stroke="rgba(50,50,50,1)" stroke-width="1" fill-opacity="1" fill="#ffffff"></path><g id="SvgjsG1026"><text id="SvgjsText1027" font-family="&quot;Times New Roman&quot;" text-anchor="middle" font-size="13px" width="158px" fill="#323232" font-weight="400" align="middle" lineHeight="125%" anchor="middle" family="&quot;Times New Roman&quot;" size="13px" weight="400" font-style="" opacity="1" y="74.875" transform="rotate(0)"></text></g></g><g id="SvgjsG1028" transform="translate(292.0086669921875,88.00588989257812)"><path id="SvgjsPath1029" d="M 0 4Q 0 0 4 0L 116 0Q 120 0 120 4L 120 31Q 120 35 116 35L 4 35Q 0 35 0 31Z" stroke="rgba(50,50,50,1)" stroke-width="1" fill-opacity="1" fill="#f8f8f8"></path><g id="SvgjsG1030"><text id="SvgjsText1031" font-family="&quot;Times New Roman&quot;" text-anchor="middle" font-size="13px" width="100px" fill="#323232" font-weight="400" align="middle" lineHeight="125%" anchor="middle" family="&quot;Times New Roman&quot;" size="13px" weight="400" font-style="" opacity="1" y="6.375" transform="rotate(0)"><tspan id="SvgjsTspan1032" dy="16" x="60"><tspan id="SvgjsTspan1033" style="text-decoration:;">Statement 1</tspan></tspan></text></g></g><g id="SvgjsG1034" transform="translate(292.0086669921875,168.11109924316406)"><path id="SvgjsPath1035" d="M 0 4Q 0 0 4 0L 116 0Q 120 0 120 4L 120 31Q 120 35 116 35L 4 35Q 0 35 0 31Z" stroke="rgba(50,50,50,1)" stroke-width="1" fill-opacity="1" fill="#f8f8f8"></path><g id="SvgjsG1036"><text id="SvgjsText1037" font-family="&quot;Times New Roman&quot;" text-anchor="middle" font-size="13px" width="100px" fill="#323232" font-weight="400" align="middle" lineHeight="125%" anchor="middle" family="&quot;Times New Roman&quot;" size="13px" weight="400" font-style="" opacity="1" y="6.375" transform="rotate(0)"><tspan id="SvgjsTspan1038" dy="16" x="60"><tspan id="SvgjsTspan1039" style="text-decoration:;">Statement 2</tspan></tspan></text></g></g><g id="SvgjsG1040" transform="translate(263.0086669921875,25.005889892578125)"><path id="SvgjsPath1041" d="M 0 0L 178 0L 178 35L 0 35Z" stroke="none" fill="none"></path><g id="SvgjsG1042"><text id="SvgjsText1043" font-family="&quot;Times New Roman&quot;" text-anchor="middle" font-size="13px" width="178px" fill="#000000" font-weight="700" align="middle" lineHeight="125%" anchor="middle" family="&quot;Times New Roman&quot;" size="13px" weight="700" font-style="" opacity="1" y="6.375" transform="rotate(0)"><tspan id="SvgjsTspan1044" dy="16" x="89"><tspan id="SvgjsTspan1045" style="text-decoration:;">Thread 2</tspan></tspan></text></g></g><g id="SvgjsG1046"><path id="SvgjsPath1047" d="M352.0086669921875 123.50588989257812L352.0086669921875 145.5584945678711L352.0086669921875 145.5584945678711L352.0086669921875 166.31109924316405" stroke="#323232" stroke-width="1" fill="none" marker-end="url(#SvgjsMarker1048)"></path></g><g id="SvgjsG1050"><path id="SvgjsPath1051" d="M174.4750201942245 146.93965967242974L290.3110637754013 106.10434065776852" stroke-dasharray="8,5" stroke="#323232" stroke-width="1" fill="none" marker-end="url(#SvgjsMarker1052)"></path></g></svg>