<svg id="SvgjsSvg1006" width="454.50518798828125" height="294.9392395019531" xmlns="http://www.w3.org/2000/svg" version="1.1" xmlns:xlink="http://www.w3.org/1999/xlink" xmlns:svgjs="http://svgjs.com/svgjs"><defs id="SvgjsDefs1007"><marker id="SvgjsMarker1022" markerWidth="12" markerHeight="8" refX="9" refY="4" viewBox="0 0 12 8" orient="auto" markerUnits="userSpaceOnUse" stroke-dasharray="0,0"><path id="SvgjsPath1023" d="M0,0 L12,4 L0,8 L0,0" fill="#323232" stroke="#323232" stroke-width="1"></path></marker></defs><g id="SvgjsG1008" transform="translate(25.005172729492188,85.0020523071289)"><path id="SvgjsPath1009" d="M 0 4Q 0 0 4 0L 116 0Q 120 0 120 4L 120 31Q 120 35 116 35L 4 35Q 0 35 0 31Z" stroke="rgba(50,50,50,1)" stroke-width="1" fill-opacity="1" fill="#f8f8f8"></path><g id="SvgjsG1010"><text id="SvgjsText1011" font-family="&quot;Times New Roman&quot;" text-anchor="middle" font-size="13px" width="100px" fill="#323232" font-weight="400" align="middle" lineHeight="125%" anchor="middle" family="&quot;Times New Roman&quot;" size="13px" weight="400" font-style="" opacity="1" y="6.375" transform="rotate(0)"><tspan id="SvgjsTspan1012" dy="16" x="60"><tspan id="SvgjsTspan1013" style="text-decoration:;">Array</tspan></tspan></text></g></g><g id="SvgjsG1014" transform="translate(25.005172729492188,174.94060134887695)"><path id="SvgjsPath1015" d="M 0 4Q 0 0 4 0L 116 0Q 120 0 120 4L 120 31Q 120 35 116 35L 4 35Q 0 35 0 31Z" stroke="rgba(50,50,50,1)" stroke-width="1" fill-opacity="1" fill="#cce5ff"></path><g id="SvgjsG1016"><text id="SvgjsText1017" font-family="&quot;Times New Roman&quot;" text-anchor="middle" font-size="13px" width="100px" fill="#323232" font-weight="400" align="middle" lineHeight="125%" anchor="middle" family="&quot;Times New Roman&quot;" size="13px" weight="400" font-style="" opacity="1" y="6.375" transform="rotate(0)"><tspan id="SvgjsTspan1018" dy="16" x="60"><tspan id="SvgjsTspan1019" style="text-decoration:;">ArrayList</tspan></tspan></text></g></g><g id="SvgjsG1020"><path id="SvgjsPath1021" d="M85.00517272949219 174.44060134887695L85.00517272949219 147.47132682800293L85.00517272949219 147.47132682800293L85.00517272949219 121.80205230712892" stroke="#323232" stroke-width="1" fill="none" marker-end="url(#SvgjsMarker1022)"></path></g><g id="SvgjsG1024" transform="translate(87.50517272949219,129.97132682800293)"><path id="SvgjsPath1025" d="M 0 0L 90 0L 90 35L 0 35Z" stroke="none" fill="none"></path><g id="SvgjsG1026"><text id="SvgjsText1027" font-family="&quot;Times New Roman&quot;" text-anchor="middle" font-size="13px" width="90px" fill="#688f4e" font-weight="400" align="middle" lineHeight="125%" anchor="middle" family="&quot;Times New Roman&quot;" size="13px" weight="400" font-style="" opacity="1" y="6.375" transform="rotate(0)"><tspan id="SvgjsTspan1028" dy="16" x="45"><tspan id="SvgjsTspan1029" style="text-decoration:;">底层原理</tspan></tspan></text></g></g><g id="SvgjsG1030" transform="translate(189.5051727294922,162.44060134887695)"><path id="SvgjsPath1031" d="M 0 4Q 0 0 4 0L 236 0Q 240 0 240 4L 240 56Q 240 60 236 60L 4 60Q 0 60 0 56Z" stroke="rgba(50,50,50,1)" stroke-width="1" fill-opacity="1" fill="#ffffff"></path><g id="SvgjsG1032"><text id="SvgjsText1033" font-family="&quot;Times New Roman&quot;" text-anchor="start" font-size="13px" width="220px" fill="#000000" font-weight="400" align="middle" lineHeight="125%" anchor="start" family="&quot;Times New Roman&quot;" size="13px" weight="400" font-style="" opacity="1" y="10.875" transform="rotate(0)"><tspan id="SvgjsTspan1034" dy="16" x="10"><tspan id="SvgjsTspan1035" style="text-decoration:;">1) 查找修改快，插入删除慢</tspan></tspan><tspan id="SvgjsTspan1036" dy="16" x="10"><tspan id="SvgjsTspan1037" style="text-decoration:;">2) 包含顺序存储结构的优缺点</tspan></tspan></text></g></g><g id="SvgjsG1038" transform="translate(189.5051727294922,72.5020523071289)"><path id="SvgjsPath1039" d="M 0 4Q 0 0 4 0L 236 0Q 240 0 240 4L 240 56Q 240 60 236 60L 4 60Q 0 60 0 56Z" stroke="rgba(50,50,50,1)" stroke-width="1" fill-opacity="1" fill="#ffffff"></path><g id="SvgjsG1040"><text id="SvgjsText1041" font-family="&quot;Times New Roman&quot;" text-anchor="start" font-size="13px" width="220px" fill="#000000" font-weight="400" align="middle" lineHeight="125%" anchor="start" family="&quot;Times New Roman&quot;" size="13px" weight="400" font-style="" opacity="1" y="10.875" transform="rotate(0)"><tspan id="SvgjsTspan1042" dy="16" x="10"><tspan id="SvgjsTspan1043" style="text-decoration:;">1) 初始化需指定存储大小</tspan></tspan><tspan id="SvgjsTspan1044" dy="16" x="10"><tspan id="SvgjsTspan1045" style="text-decoration:;">2) 后续使用不能更改大小</tspan></tspan></text></g></g><g id="SvgjsG1046"><path id="SvgjsPath1047" d="M145.5051727294922 102.5020523071289L167.2551727294922 102.5020523071289L167.2551727294922 102.5020523071289L189.0051727294922 102.5020523071289" stroke="#323232" stroke-width="1" fill="none"></path></g><g id="SvgjsG1048"><path id="SvgjsPath1049" d="M145.5051727294922 192.44060134887695L167.2551727294922 192.44060134887695L167.2551727294922 192.44060134887695L189.0051727294922 192.44060134887695" stroke="#323232" stroke-width="1" fill="none"></path></g><g id="SvgjsG1050" transform="translate(25.005172729492188,25.002052307128906)"><path id="SvgjsPath1051" d="M 0 0L 120 0L 120 60L 0 60Z" stroke="none" fill="none"></path><g id="SvgjsG1052"><text id="SvgjsText1053" font-family="&quot;Times New Roman&quot;" text-anchor="middle" font-size="13px" width="120px" fill="#688f4e" font-weight="700" align="middle" lineHeight="125%" anchor="middle" family="&quot;Times New Roman&quot;" size="13px" weight="700" font-style="" opacity="1" y="18.875" transform="rotate(0)"><tspan id="SvgjsTspan1054" dy="16" x="60"><tspan id="SvgjsTspan1055" style="text-decoration:;">"直接操作内存"</tspan></tspan></text></g></g><g id="SvgjsG1056" transform="translate(25.005172729492188,209.94060134887695)"><path id="SvgjsPath1057" d="M 0 0L 120 0L 120 60L 0 60Z" stroke="none" fill="none"></path><g id="SvgjsG1058"><text id="SvgjsText1059" font-family="&quot;Times New Roman&quot;" text-anchor="middle" font-size="13px" width="120px" fill="#688f4e" font-weight="700" align="middle" lineHeight="125%" anchor="middle" family="&quot;Times New Roman&quot;" size="13px" weight="700" font-style="" opacity="1" y="18.875" transform="rotate(0)"><tspan id="SvgjsTspan1060" dy="16" x="60"><tspan id="SvgjsTspan1061" style="text-decoration:;">"自动扩容"</tspan></tspan></text></g></g></svg>