<svg id="SvgjsSvg1195" width="892.0052185058594" height="391.5017395019531" xmlns="http://www.w3.org/2000/svg" version="1.1" xmlns:xlink="http://www.w3.org/1999/xlink" xmlns:svgjs="http://svgjs.com/svgjs"><defs id="SvgjsDefs1196"><marker id="SvgjsMarker1269" markerWidth="12" markerHeight="8" refX="9" refY="4" viewBox="0 0 12 8" orient="auto" markerUnits="userSpaceOnUse" stroke-dasharray="0,0"><path id="SvgjsPath1270" d="M0,0 L12,4 L0,8 L0,0" fill="#323232" stroke="#323232" stroke-width="1"></path></marker><marker id="SvgjsMarker1273" markerWidth="12" markerHeight="8" refX="3" refY="4" viewBox="0 0 12 8" orient="auto" markerUnits="userSpaceOnUse" stroke-dasharray="0,0"><path id="SvgjsPath1274" d="M12,0 L0,4 L12,8 L12,0" fill="#323232" stroke="#323232" stroke-width="1"></path></marker><marker id="SvgjsMarker1275" markerWidth="12" markerHeight="8" refX="9" refY="4" viewBox="0 0 12 8" orient="auto" markerUnits="userSpaceOnUse" stroke-dasharray="0,0"><path id="SvgjsPath1276" d="M0,0 L12,4 L0,8 L0,0" fill="#323232" stroke="#323232" stroke-width="1"></path></marker><marker id="SvgjsMarker1306" markerWidth="12" markerHeight="8" refX="9" refY="4" viewBox="0 0 12 8" orient="auto" markerUnits="userSpaceOnUse" stroke-dasharray="0,0"><path id="SvgjsPath1307" d="M0,0 L12,4 L0,8 L0,0" fill="#323232" stroke="#323232" stroke-width="1"></path></marker><marker id="SvgjsMarker1310" markerWidth="12" markerHeight="8" refX="9" refY="4" viewBox="0 0 12 8" orient="auto" markerUnits="userSpaceOnUse" stroke-dasharray="0,0"><path id="SvgjsPath1311" d="M0,0 L12,4 L0,8 L0,0" fill="#323232" stroke="#323232" stroke-width="1"></path></marker><marker id="SvgjsMarker1314" markerWidth="12" markerHeight="8" refX="9" refY="4" viewBox="0 0 12 8" orient="auto" markerUnits="userSpaceOnUse" stroke-dasharray="0,0"><path id="SvgjsPath1315" d="M0,0 L12,4 L0,8 L0,0" fill="#323232" stroke="#323232" stroke-width="1"></path></marker><marker id="SvgjsMarker1318" markerWidth="12" markerHeight="8" refX="3" refY="4" viewBox="0 0 12 8" orient="auto" markerUnits="userSpaceOnUse" stroke-dasharray="0,0"><path id="SvgjsPath1319" d="M12,0 L0,4 L12,8 L12,0" fill="#323232" stroke="#323232" stroke-width="1"></path></marker><marker id="SvgjsMarker1320" markerWidth="12" markerHeight="8" refX="9" refY="4" viewBox="0 0 12 8" orient="auto" markerUnits="userSpaceOnUse" stroke-dasharray="0,0"><path id="SvgjsPath1321" d="M0,0 L12,4 L0,8 L0,0" fill="#323232" stroke="#323232" stroke-width="1"></path></marker><marker id="SvgjsMarker1324" markerWidth="12" markerHeight="8" refX="9" refY="4" viewBox="0 0 12 8" orient="auto" markerUnits="userSpaceOnUse" stroke-dasharray="0,0"><path id="SvgjsPath1325" d="M0,0 L12,4 L0,8 L0,0" fill="#323232" stroke="#323232" stroke-width="1"></path></marker><marker id="SvgjsMarker1346" markerWidth="12" markerHeight="8" refX="9" refY="4" viewBox="0 0 12 8" orient="auto" markerUnits="userSpaceOnUse" stroke-dasharray="0,0"><path id="SvgjsPath1347" d="M0,0 L12,4 L0,8 L0,0" fill="#323232" stroke="#323232" stroke-width="1"></path></marker><marker id="SvgjsMarker1382" markerWidth="12" markerHeight="8" refX="9" refY="4" viewBox="0 0 12 8" orient="auto" markerUnits="userSpaceOnUse" stroke-dasharray="0,0"><path id="SvgjsPath1383" d="M0,0 L12,4 L0,8 L0,0" fill="#323232" stroke="#323232" stroke-width="1"></path></marker></defs><g id="SvgjsG1197" transform="translate(25.007965087890625,183.50796794891357)"><path id="SvgjsPath1198" d="M 0 18Q 0 0 18 0L 102 0Q 120 0 120 18L 120 27Q 120 45 102 45L 18 45Q 0 45 0 27L 0 18Z" stroke="rgba(50,50,50,1)" stroke-width="1" fill-opacity="1" fill="#ffffff"></path><g id="SvgjsG1199"><text id="SvgjsText1200" font-family="&quot;Times New Roman&quot;" text-anchor="middle" font-size="13px" width="100px" fill="#323232" font-weight="400" align="middle" lineHeight="125%" anchor="middle" family="&quot;Times New Roman&quot;" size="13px" weight="400" font-style="" opacity="1" y="3.375" transform="rotate(0)"><tspan id="SvgjsTspan1201" dy="16" x="60"><tspan id="SvgjsTspan1202" style="text-decoration:;">New</tspan></tspan><tspan id="SvgjsTspan1203" dy="16" x="60"><tspan id="SvgjsTspan1204" style="text-decoration:;"> </tspan></tspan></text></g></g><g id="SvgjsG1205" transform="translate(25.007965087890625,203.50796794891357)"><path id="SvgjsPath1206" d="M 0 0L 120 0L 120 25L 0 25Z" stroke="none" fill="none"></path><g id="SvgjsG1207"><text id="SvgjsText1208" font-family="&quot;Times New Roman&quot;" text-anchor="middle" font-size="13px" width="120px" fill="#323232" font-weight="400" align="middle" lineHeight="125%" anchor="middle" family="&quot;Times New Roman&quot;" size="13px" weight="400" font-style="" opacity="1" y="1.375" transform="rotate(0)"><tspan id="SvgjsTspan1209" dy="16" x="60"><tspan id="SvgjsTspan1210" style="text-decoration:;">新建</tspan></tspan></text></g></g><g id="SvgjsG1211" transform="translate(507.0079650878906,76.5079698562622)"><path id="SvgjsPath1212" d="M 0 18Q 0 0 18 0L 102 0Q 120 0 120 18L 120 27Q 120 45 102 45L 18 45Q 0 45 0 27L 0 18Z" stroke="rgba(50,50,50,1)" stroke-width="1" fill-opacity="1" fill="#ffffff"></path><g id="SvgjsG1213"><text id="SvgjsText1214" font-family="&quot;Times New Roman&quot;" text-anchor="middle" font-size="13px" width="100px" fill="#323232" font-weight="400" align="middle" lineHeight="125%" anchor="middle" family="&quot;Times New Roman&quot;" size="13px" weight="400" font-style="" opacity="1" y="3.375" transform="rotate(0)"><tspan id="SvgjsTspan1215" dy="16" x="60"><tspan id="SvgjsTspan1216" style="text-decoration:;">Timed Waiting</tspan></tspan><tspan id="SvgjsTspan1217" dy="16" x="60"><tspan id="SvgjsTspan1218" style="text-decoration:;"> </tspan></tspan></text></g></g><g id="SvgjsG1219" transform="translate(507.0079650878906,96.5079698562622)"><path id="SvgjsPath1220" d="M 0 0L 120 0L 120 25L 0 25Z" stroke="none" fill="none"></path><g id="SvgjsG1221"><text id="SvgjsText1222" font-family="&quot;Times New Roman&quot;" text-anchor="middle" font-size="13px" width="120px" fill="#323232" font-weight="400" align="middle" lineHeight="125%" anchor="middle" family="&quot;Times New Roman&quot;" size="13px" weight="400" font-style="" opacity="1" y="1.375" transform="rotate(0)"><tspan id="SvgjsTspan1223" dy="16" x="60"><tspan id="SvgjsTspan1224" style="text-decoration:;">休眠</tspan></tspan></text></g></g><g id="SvgjsG1225" transform="translate(265.0079650878906,183.50796794891357)"><path id="SvgjsPath1226" d="M 0 18Q 0 0 18 0L 102 0Q 120 0 120 18L 120 27Q 120 45 102 45L 18 45Q 0 45 0 27L 0 18Z" stroke="rgba(50,50,50,1)" stroke-width="1" fill-opacity="1" fill="#cce5ff"></path><g id="SvgjsG1227"><text id="SvgjsText1228" font-family="&quot;Times New Roman&quot;" text-anchor="middle" font-size="13px" width="100px" fill="#323232" font-weight="400" align="middle" lineHeight="125%" anchor="middle" family="&quot;Times New Roman&quot;" size="13px" weight="400" font-style="" opacity="1" y="3.375" transform="rotate(0)"><tspan id="SvgjsTspan1229" dy="16" x="60"><tspan id="SvgjsTspan1230" style="text-decoration:;">Runnable</tspan></tspan><tspan id="SvgjsTspan1231" dy="16" x="60"><tspan id="SvgjsTspan1232" style="text-decoration:;"> </tspan></tspan></text></g></g><g id="SvgjsG1233" transform="translate(265.0079650878906,203.50796794891357)"><path id="SvgjsPath1234" d="M 0 0L 120 0L 120 25L 0 25Z" stroke="none" fill="none"></path><g id="SvgjsG1235"><text id="SvgjsText1236" font-family="&quot;Times New Roman&quot;" text-anchor="middle" font-size="13px" width="120px" fill="#323232" font-weight="400" align="middle" lineHeight="125%" anchor="middle" family="&quot;Times New Roman&quot;" size="13px" weight="400" font-style="" opacity="1" y="1.375" transform="rotate(0)"><tspan id="SvgjsTspan1237" dy="16" x="60"><tspan id="SvgjsTspan1238" style="text-decoration:;">运行</tspan></tspan></text></g></g><g id="SvgjsG1239" transform="translate(507.0079650878906,287.5079679489136)"><path id="SvgjsPath1240" d="M 0 18Q 0 0 18 0L 102 0Q 120 0 120 18L 120 27Q 120 45 102 45L 18 45Q 0 45 0 27L 0 18Z" stroke="rgba(50,50,50,1)" stroke-width="1" fill-opacity="1" fill="#ffffff"></path><g id="SvgjsG1241"><text id="SvgjsText1242" font-family="&quot;Times New Roman&quot;" text-anchor="middle" font-size="13px" width="100px" fill="#323232" font-weight="400" align="middle" lineHeight="125%" anchor="middle" family="&quot;Times New Roman&quot;" size="13px" weight="400" font-style="" opacity="1" y="3.375" transform="rotate(0)"><tspan id="SvgjsTspan1243" dy="16" x="60"><tspan id="SvgjsTspan1244" style="text-decoration:;">Waiting</tspan></tspan><tspan id="SvgjsTspan1245" dy="16" x="60"><tspan id="SvgjsTspan1246" style="text-decoration:;"> </tspan></tspan></text></g></g><g id="SvgjsG1247" transform="translate(507.0079650878906,307.5079679489136)"><path id="SvgjsPath1248" d="M 0 0L 120 0L 120 25L 0 25Z" stroke="none" fill="none"></path><g id="SvgjsG1249"><text id="SvgjsText1250" font-family="&quot;Times New Roman&quot;" text-anchor="middle" font-size="13px" width="120px" fill="#323232" font-weight="400" align="middle" lineHeight="125%" anchor="middle" family="&quot;Times New Roman&quot;" size="13px" weight="400" font-style="" opacity="1" y="1.375" transform="rotate(0)"><tspan id="SvgjsTspan1251" dy="16" x="60"><tspan id="SvgjsTspan1252" style="text-decoration:;">等待</tspan></tspan></text></g></g><g id="SvgjsG1253" transform="translate(507.0079650878906,183.50796794891357)"><path id="SvgjsPath1254" d="M 0 18Q 0 0 18 0L 102 0Q 120 0 120 18L 120 27Q 120 45 102 45L 18 45Q 0 45 0 27L 0 18Z" stroke="rgba(50,50,50,1)" stroke-width="1" fill-opacity="1" fill="#ffffff"></path><g id="SvgjsG1255"><text id="SvgjsText1256" font-family="&quot;Times New Roman&quot;" text-anchor="middle" font-size="13px" width="100px" fill="#323232" font-weight="400" align="middle" lineHeight="125%" anchor="middle" family="&quot;Times New Roman&quot;" size="13px" weight="400" font-style="" opacity="1" y="3.375" transform="rotate(0)"><tspan id="SvgjsTspan1257" dy="16" x="60"><tspan id="SvgjsTspan1258" style="text-decoration:;">Blocked</tspan></tspan><tspan id="SvgjsTspan1259" dy="16" x="60"><tspan id="SvgjsTspan1260" style="text-decoration:;"> </tspan></tspan></text></g></g><g id="SvgjsG1261" transform="translate(507.0079650878906,203.50796794891357)"><path id="SvgjsPath1262" d="M 0 0L 120 0L 120 25L 0 25Z" stroke="none" fill="none"></path><g id="SvgjsG1263"><text id="SvgjsText1264" font-family="&quot;Times New Roman&quot;" text-anchor="middle" font-size="13px" width="120px" fill="#323232" font-weight="400" align="middle" lineHeight="125%" anchor="middle" family="&quot;Times New Roman&quot;" size="13px" weight="400" font-style="" opacity="1" y="1.375" transform="rotate(0)"><tspan id="SvgjsTspan1265" dy="16" x="60"><tspan id="SvgjsTspan1266" style="text-decoration:;">阻塞</tspan></tspan></text></g></g><g id="SvgjsG1267"><path id="SvgjsPath1268" d="M144.86965888170982 206.25657449273308L263.80604892261397 206.60272771384786" stroke="#323232" stroke-width="1" fill="none" marker-end="url(#SvgjsMarker1269)"></path></g><g id="SvgjsG1271"><path id="SvgjsPath1272" d="M386.2098527851277 206.5965678366241L505.6654573121673 205.84009431849836" stroke="#323232" stroke-width="1" fill="none" marker-start="url(#SvgjsMarker1273)" marker-end="url(#SvgjsMarker1275)"></path></g><g id="SvgjsG1277" transform="translate(145.00796508789062,172.0079689025879)"><path id="SvgjsPath1278" d="M 0 0L 120 0L 120 35L 0 35Z" stroke="none" fill="none"></path><g id="SvgjsG1279"><text id="SvgjsText1280" font-family="&quot;Times New Roman&quot;" text-anchor="middle" font-size="13px" width="120px" fill="#323232" font-weight="400" align="middle" lineHeight="125%" anchor="middle" family="&quot;Times New Roman&quot;" size="13px" weight="400" font-style="" opacity="1" y="6.375" transform="rotate(0)"><tspan id="SvgjsTspan1281" dy="16" x="60"><tspan id="SvgjsTspan1282" style="text-decoration:;">Thread.start()</tspan></tspan></text></g></g><g id="SvgjsG1283" transform="translate(387.0079650878906,172.0079689025879)"><path id="SvgjsPath1284" d="M 0 0L 120 0L 120 35L 0 35Z" stroke="none" fill="none"></path><g id="SvgjsG1285"><text id="SvgjsText1286" font-family="&quot;Times New Roman&quot;" text-anchor="middle" font-size="13px" width="120px" fill="#323232" font-weight="400" align="middle" lineHeight="125%" anchor="middle" family="&quot;Times New Roman&quot;" size="13px" weight="400" font-style="" opacity="1" y="6.375" transform="rotate(0)"><tspan id="SvgjsTspan1287" dy="16" x="60"><tspan id="SvgjsTspan1288" style="text-decoration:;">Sychronized / </tspan><tspan id="SvgjsTspan1289" style="text-decoration:;font-size: inherit;">Lock</tspan></tspan></text></g></g><g id="SvgjsG1290" transform="translate(747.0079650878906,183.50796794891357)"><path id="SvgjsPath1291" d="M 0 18Q 0 0 18 0L 102 0Q 120 0 120 18L 120 27Q 120 45 102 45L 18 45Q 0 45 0 27L 0 18Z" stroke="rgba(50,50,50,1)" stroke-width="1" fill-opacity="1" fill="#f5f5f5"></path><g id="SvgjsG1292"><text id="SvgjsText1293" font-family="&quot;Times New Roman&quot;" text-anchor="middle" font-size="13px" width="100px" fill="#323232" font-weight="400" align="middle" lineHeight="125%" anchor="middle" family="&quot;Times New Roman&quot;" size="13px" weight="400" font-style="" opacity="1" y="3.375" transform="rotate(0)"><tspan id="SvgjsTspan1294" dy="16" x="60"><tspan id="SvgjsTspan1295" style="text-decoration:;">Terminated</tspan></tspan><tspan id="SvgjsTspan1296" dy="16" x="60"><tspan id="SvgjsTspan1297" style="text-decoration:;"> </tspan></tspan></text></g></g><g id="SvgjsG1298" transform="translate(747.0079650878906,203.50796794891357)"><path id="SvgjsPath1299" d="M 0 0L 120 0L 120 25L 0 25Z" stroke="none" fill="none"></path><g id="SvgjsG1300"><text id="SvgjsText1301" font-family="&quot;Times New Roman&quot;" text-anchor="middle" font-size="13px" width="120px" fill="#323232" font-weight="400" align="middle" lineHeight="125%" anchor="middle" family="&quot;Times New Roman&quot;" size="13px" weight="400" font-style="" opacity="1" y="1.375" transform="rotate(0)"><tspan id="SvgjsTspan1302" dy="16" x="60"><tspan id="SvgjsTspan1303" style="text-decoration:;">死亡</tspan></tspan></text></g></g><g id="SvgjsG1304"><path id="SvgjsPath1305" d="M626.9764259343043 206.7205913493217L745.6720674892795 206.60964978663566" stroke="#323232" stroke-width="1" fill="none" marker-end="url(#SvgjsMarker1306)"></path></g><g id="SvgjsG1308"><path id="SvgjsPath1309" d="M626.9758762016527 97.89354259608206L798.0079650878906 97.89354259608206L798.0079650878906 182.40796585083007" stroke="#323232" stroke-width="1" fill="none" marker-end="url(#SvgjsMarker1310)"></path></g><g id="SvgjsG1312"><path id="SvgjsPath1313" d="M626.7759142803218 311.607967376709L807.0079650878906 311.607967376709L807.0079650878906 230.30796794891359" stroke="#323232" stroke-width="1" fill="none" marker-end="url(#SvgjsMarker1314)"></path></g><g id="SvgjsG1316"><path id="SvgjsPath1317" d="M505.80604129924404 100.10796737670898L333.0079650878906 100.10796737670898L333.0079650878906 182.40796585083007" stroke="#323232" stroke-width="1" fill="none" marker-start="url(#SvgjsMarker1318)" marker-end="url(#SvgjsMarker1320)"></path></g><g id="SvgjsG1322"><path id="SvgjsPath1323" d="M506.5079650878906 320.0079679489136L316.0079650878906 320.0079679489136L316.0079650878906 230.0079658508301" stroke="#323232" stroke-width="1" fill="none" marker-end="url(#SvgjsMarker1324)"></path></g><g id="SvgjsG1326" transform="translate(627.0079650878906,172.0079689025879)"><path id="SvgjsPath1327" d="M 0 0L 120 0L 120 35L 0 35Z" stroke="none" fill="none"></path><g id="SvgjsG1328"><text id="SvgjsText1329" font-family="&quot;Times New Roman&quot;" text-anchor="middle" font-size="13px" width="120px" fill="#cc0000" font-weight="400" align="middle" lineHeight="125%" anchor="middle" family="&quot;Times New Roman&quot;" size="13px" weight="400" font-style="" opacity="1" y="6.375" transform="rotate(0)"><tspan id="SvgjsTspan1330" dy="16" x="60"><tspan id="SvgjsTspan1331" style="text-decoration:;">Exception</tspan></tspan></text></g></g><g id="SvgjsG1332" transform="translate(655.0079650878906,96.5079698562622)"><path id="SvgjsPath1333" d="M 0 0L 120 0L 120 35L 0 35Z" stroke="none" fill="none"></path><g id="SvgjsG1334"><text id="SvgjsText1335" font-family="&quot;Times New Roman&quot;" text-anchor="middle" font-size="13px" width="120px" fill="#cc0000" font-weight="400" align="middle" lineHeight="125%" anchor="middle" family="&quot;Times New Roman&quot;" size="13px" weight="400" font-style="" opacity="1" y="6.375" transform="rotate(0)"><tspan id="SvgjsTspan1336" dy="16" x="60"><tspan id="SvgjsTspan1337" style="text-decoration:;">Exception</tspan></tspan></text></g></g><g id="SvgjsG1338" transform="translate(655.0079650878906,275.5079679489136)"><path id="SvgjsPath1339" d="M 0 0L 120 0L 120 35L 0 35Z" stroke="none" fill="none"></path><g id="SvgjsG1340"><text id="SvgjsText1341" font-family="&quot;Times New Roman&quot;" text-anchor="middle" font-size="13px" width="120px" fill="#cc0000" font-weight="400" align="middle" lineHeight="125%" anchor="middle" family="&quot;Times New Roman&quot;" size="13px" weight="400" font-style="" opacity="1" y="6.375" transform="rotate(0)"><tspan id="SvgjsTspan1342" dy="16" x="60"><tspan id="SvgjsTspan1343" style="text-decoration:;">Exception</tspan></tspan></text></g></g><g id="SvgjsG1344"><path id="SvgjsPath1345" d="M317.0079650878906 183.70796585083008L317.0079650878906 60.20796585083008L815.0079650878906 60.20796585083008L815.0079650878906 182.40796585083007" stroke="#323232" stroke-width="1" fill="none" marker-end="url(#SvgjsMarker1346)"></path></g><g id="SvgjsG1348" transform="translate(459.5079650878906,25.00796890258789)"><path id="SvgjsPath1349" d="M 0 0L 150 0L 150 35L 0 35Z" stroke="none" fill="none"></path><g id="SvgjsG1350"><text id="SvgjsText1351" font-family="&quot;Times New Roman&quot;" text-anchor="middle" font-size="13px" width="150px" fill="#323232" font-weight="400" align="middle" lineHeight="125%" anchor="middle" family="&quot;Times New Roman&quot;" size="13px" weight="400" font-style="" opacity="1" y="6.375" transform="rotate(0)"><tspan id="SvgjsTspan1352" dy="16" x="75"><tspan id="SvgjsTspan1353" style="text-decoration:;">Thread finish Execution /</tspan></tspan></text></g></g><g id="SvgjsG1354" transform="translate(604.5079650878906,25.00796890258789)"><path id="SvgjsPath1355" d="M 0 0L 70 0L 70 35L 0 35Z" stroke="none" fill="none"></path><g id="SvgjsG1356"><text id="SvgjsText1357" font-family="&quot;Times New Roman&quot;" text-anchor="middle" font-size="13px" width="70px" fill="#cc0000" font-weight="400" align="middle" lineHeight="125%" anchor="middle" family="&quot;Times New Roman&quot;" size="13px" weight="400" font-style="" opacity="1" y="6.375" transform="rotate(0)"><tspan id="SvgjsTspan1358" dy="16" x="35"><tspan id="SvgjsTspan1359" style="text-decoration:;">Exception</tspan></tspan></text></g></g><g id="SvgjsG1360" transform="translate(356.0079650878906,99.5079698562622)"><path id="SvgjsPath1361" d="M 0 0L 120 0L 120 35L 0 35Z" stroke="none" fill="none"></path><g id="SvgjsG1362"><text id="SvgjsText1363" font-family="&quot;Times New Roman&quot;" text-anchor="middle" font-size="13px" width="120px" fill="#323232" font-weight="400" align="middle" lineHeight="125%" anchor="middle" family="&quot;Times New Roman&quot;" size="13px" weight="400" font-style="" opacity="1" y="6.375" transform="rotate(0)"><tspan id="SvgjsTspan1364" dy="16" x="60"><tspan id="SvgjsTspan1365" style="text-decoration:;">Thread.sleep()</tspan></tspan></text></g></g><g id="SvgjsG1366" transform="translate(356.0079650878906,267.5079679489136)"><path id="SvgjsPath1367" d="M 0 0L 120 0L 120 35L 0 35Z" stroke="none" fill="none"></path><g id="SvgjsG1368"><text id="SvgjsText1369" font-family="&quot;Times New Roman&quot;" text-anchor="middle" font-size="13px" width="120px" fill="#323232" font-weight="400" align="middle" lineHeight="125%" anchor="middle" family="&quot;Times New Roman&quot;" size="13px" weight="400" font-style="" opacity="1" y="6.375" transform="rotate(0)"><tspan id="SvgjsTspan1370" dy="16" x="60"><tspan id="SvgjsTspan1371" style="text-decoration:;">Thread.wait()</tspan></tspan></text></g></g><g id="SvgjsG1372" transform="translate(356.0079650878906,321.5079679489136)"><path id="SvgjsPath1373" d="M 0 0L 120 0L 120 45L 0 45Z" stroke="none" fill="none"></path><g id="SvgjsG1374"><text id="SvgjsText1375" font-family="&quot;Times New Roman&quot;" text-anchor="middle" font-size="13px" width="120px" fill="#323232" font-weight="400" align="middle" lineHeight="125%" anchor="middle" family="&quot;Times New Roman&quot;" size="13px" weight="400" font-style="" opacity="1" y="3.375" transform="rotate(0)"><tspan id="SvgjsTspan1376" dy="16" x="60"><tspan id="SvgjsTspan1377" style="text-decoration:;">Object.notify()</tspan></tspan><tspan id="SvgjsTspan1378" dy="16" x="60"><tspan id="SvgjsTspan1379" style="text-decoration:;">Object.notifyAll()</tspan></tspan></text></g></g><g id="SvgjsG1380"><path id="SvgjsPath1381" d="M333.0079650878906 228.70796585083008L333.0079650878906 301.9025585614978L506.1471960999395 301.9025585614978" stroke="#323232" stroke-width="1" fill="none" marker-end="url(#SvgjsMarker1382)"></path></g></svg>