<svg id="SvgjsSvg1006" width="420" height="530.09375" xmlns="http://www.w3.org/2000/svg" version="1.1" xmlns:xlink="http://www.w3.org/1999/xlink" xmlns:svgjs="http://svgjs.com/svgjs"><defs id="SvgjsDefs1007"><marker id="SvgjsMarker1028" markerWidth="12" markerHeight="8" refX="9" refY="4" viewBox="0 0 12 8" orient="auto" markerUnits="userSpaceOnUse" stroke-dasharray="0,0"><path id="SvgjsPath1029" d="M0,0 L12,4 L0,8 L0,0" fill="#323232" stroke="#323232" stroke-width="1"></path></marker><marker id="SvgjsMarker1066" markerWidth="12" markerHeight="8" refX="9" refY="4" viewBox="0 0 12 8" orient="auto" markerUnits="userSpaceOnUse" stroke-dasharray="0,0"><path id="SvgjsPath1067" d="M0,0 L12,4 L0,8 L0,0" fill="#323232" stroke="#323232" stroke-width="1"></path></marker><marker id="SvgjsMarker1076" markerWidth="12" markerHeight="8" refX="9" refY="4" viewBox="0 0 12 8" orient="auto" markerUnits="userSpaceOnUse" stroke-dasharray="0,0"><path id="SvgjsPath1077" d="M0,0 L12,4 L0,8 L0,0" fill="#323232" stroke="#323232" stroke-width="1"></path></marker><marker id="SvgjsMarker1094" markerWidth="12" markerHeight="8" refX="9" refY="4" viewBox="0 0 12 8" orient="auto" markerUnits="userSpaceOnUse" stroke-dasharray="0,0"><path id="SvgjsPath1095" d="M0,0 L12,4 L0,8 L0,0" fill="#323232" stroke="#323232" stroke-width="1"></path></marker><marker id="SvgjsMarker1098" markerWidth="12" markerHeight="8" refX="9" refY="4" viewBox="0 0 12 8" orient="auto" markerUnits="userSpaceOnUse" stroke-dasharray="0,0"><path id="SvgjsPath1099" d="M0,0 L12,4 L0,8 L0,0" fill="#323232" stroke="#323232" stroke-width="1"></path></marker><marker id="SvgjsMarker1102" markerWidth="12" markerHeight="8" refX="9" refY="4" viewBox="0 0 12 8" orient="auto" markerUnits="userSpaceOnUse" stroke-dasharray="0,0"><path id="SvgjsPath1103" d="M0,0 L12,4 L0,8 L0,0" fill="#323232" stroke="#323232" stroke-width="1"></path></marker><marker id="SvgjsMarker1106" markerWidth="12" markerHeight="8" refX="9" refY="4" viewBox="0 0 12 8" orient="auto" markerUnits="userSpaceOnUse" stroke-dasharray="0,0"><path id="SvgjsPath1107" d="M0,0 L12,4 L0,8 L0,0" fill="#323232" stroke="#323232" stroke-width="1"></path></marker><marker id="SvgjsMarker1110" markerWidth="12" markerHeight="8" refX="9" refY="4" viewBox="0 0 12 8" orient="auto" markerUnits="userSpaceOnUse" stroke-dasharray="0,0"><path id="SvgjsPath1111" d="M0,0 L12,4 L0,8 L0,0" fill="#323232" stroke="#323232" stroke-width="1"></path></marker><marker id="SvgjsMarker1114" markerWidth="12" markerHeight="8" refX="9" refY="4" viewBox="0 0 12 8" orient="auto" markerUnits="userSpaceOnUse" stroke-dasharray="0,0"><path id="SvgjsPath1115" d="M0,0 L12,4 L0,8 L0,0" fill="#323232" stroke="#323232" stroke-width="1"></path></marker><marker id="SvgjsMarker1118" markerWidth="12" markerHeight="8" refX="9" refY="4" viewBox="0 0 12 8" orient="auto" markerUnits="userSpaceOnUse" stroke-dasharray="0,0"><path id="SvgjsPath1119" d="M0,0 L12,4 L0,8 L0,0" fill="#323232" stroke="#323232" stroke-width="1"></path></marker></defs><g id="SvgjsG1008" transform="translate(25.006240844726562,96.09999752044678)"><path id="SvgjsPath1009" d="M 0 18Q 0 0 18 0L 142 0Q 160 0 160 18L 160 27Q 160 45 142 45L 18 45Q 0 45 0 27L 0 18Z" stroke="rgba(50,50,50,1)" stroke-width="1" fill-opacity="1" fill="#cce5ff"></path><g id="SvgjsG1010"><text id="SvgjsText1011" font-family="&quot;Times New Roman&quot;" text-anchor="middle" font-size="13px" width="140px" fill="#323232" font-weight="400" align="middle" lineHeight="125%" anchor="middle" family="&quot;Times New Roman&quot;" size="13px" weight="400" font-style="" opacity="1" y="4.375" transform="rotate(0)"><tspan id="SvgjsTspan1012" dy="16" x="80"><tspan id="SvgjsTspan1013" style="text-decoration:;">手动调用启动服务</tspan></tspan><tspan id="SvgjsTspan1014" dy="16" x="80"><tspan id="SvgjsTspan1015" style="text-decoration:;">startService()</tspan></tspan></text></g></g><g id="SvgjsG1016" transform="translate(25.006240844726562,278.0999975204468)"><path id="SvgjsPath1017" d="M 0 18Q 0 0 18 0L 142 0Q 160 0 160 18L 160 27Q 160 45 142 45L 18 45Q 0 45 0 27L 0 18Z" stroke="rgba(50,50,50,1)" stroke-width="1" fill-opacity="1" fill="#ffffff"></path><g id="SvgjsG1018"><text id="SvgjsText1019" font-family="&quot;Times New Roman&quot;" text-anchor="middle" font-size="13px" width="140px" fill="#323232" font-weight="400" align="middle" lineHeight="125%" anchor="middle" family="&quot;Times New Roman&quot;" size="13px" weight="400" font-style="" opacity="1" y="12.375" transform="rotate(0)"><tspan id="SvgjsTspan1020" dy="16" x="80"><tspan id="SvgjsTspan1021" style="text-decoration:;">onStartCommand()</tspan></tspan></text></g></g><g id="SvgjsG1022" transform="translate(92.50624084472656,25)"><path id="SvgjsPath1023" d="M 0 12.5C 0 -4.166666666666667 25 -4.166666666666667 25 12.5C 25 29.166666666666668 0 29.166666666666668 0 12.5Z" stroke="none" fill-opacity="1" fill="#323232"></path><g id="SvgjsG1024"><text id="SvgjsText1025" font-family="&quot;Times New Roman&quot;" text-anchor="middle" font-size="13px" width="65px" fill="#323232" font-weight="400" align="middle" lineHeight="125%" anchor="middle" family="&quot;Times New Roman&quot;" size="13px" weight="400" font-style="" opacity="1" y="29.875" transform="rotate(0)"></text></g></g><g id="SvgjsG1026"><path id="SvgjsPath1027" d="M105.00624084472656 50.5L105.00624084472656 73.04999876022339L105.00624084472656 73.04999876022339L105.00624084472656 94.29999752044677" stroke="#323232" stroke-width="1" fill="none" marker-end="url(#SvgjsMarker1028)"></path></g><g id="SvgjsG1030" transform="translate(302.50624084472656,106.09999752044678)"><path id="SvgjsPath1031" d="M 0 12.5C 0 -4.166666666666667 25 -4.166666666666667 25 12.5C 25 29.166666666666668 0 29.166666666666668 0 12.5Z" stroke="rgba(50,50,50,1)" stroke-width="3" fill-opacity="1" fill="#ffffff"></path><path id="SvgjsPath1032" d="M 6.25 12.5C 6.25 4.166666666666666 18.75 4.166666666666666 18.75 12.5C 18.75 20.833333333333336 6.25 20.833333333333336 6.25 12.5Z" stroke="none" fill-opacity="1" fill="#323232"></path><path id="SvgjsPath1033" d="M 0 12.5C 0 -4.166666666666667 25 -4.166666666666667 25 12.5C 25 29.166666666666668 0 29.166666666666668 0 12.5Z" stroke="none" fill="none"></path><g id="SvgjsG1034"><text id="SvgjsText1035" font-family="&quot;Times New Roman&quot;" text-anchor="middle" font-size="13px" width="65px" fill="#323232" font-weight="400" align="middle" lineHeight="125%" anchor="middle" family="&quot;Times New Roman&quot;" size="13px" weight="400" font-style="" opacity="1" y="29.875" transform="rotate(0)"></text></g></g><g id="SvgjsG1036" transform="translate(25.006240844726562,187.09999752044678)"><path id="SvgjsPath1037" d="M 0 18Q 0 0 18 0L 142 0Q 160 0 160 18L 160 27Q 160 45 142 45L 18 45Q 0 45 0 27L 0 18Z" stroke="rgba(50,50,50,1)" stroke-width="1" fill-opacity="1" fill="#ffffff"></path><g id="SvgjsG1038"><text id="SvgjsText1039" font-family="&quot;Times New Roman&quot;" text-anchor="middle" font-size="13px" width="140px" fill="#323232" font-weight="400" align="middle" lineHeight="125%" anchor="middle" family="&quot;Times New Roman&quot;" size="13px" weight="400" font-style="" opacity="1" y="12.375" transform="rotate(0)"><tspan id="SvgjsTspan1040" dy="16" x="80"><tspan id="SvgjsTspan1041" style="text-decoration:;">onCreate()</tspan></tspan></text></g></g><g id="SvgjsG1042" transform="translate(25.006240844726562,367.0999975204468)"><path id="SvgjsPath1043" d="M 0 18Q 0 0 18 0L 142 0Q 160 0 160 18L 160 27Q 160 45 142 45L 18 45Q 0 45 0 27L 0 18Z" stroke="rgba(50,50,50,1)" stroke-width="1" fill-opacity="1" fill="#cce5ff"></path><g id="SvgjsG1044"><text id="SvgjsText1045" font-family="&quot;Times New Roman&quot;" text-anchor="middle" font-size="13px" width="140px" fill="#323232" font-weight="400" align="middle" lineHeight="125%" anchor="middle" family="&quot;Times New Roman&quot;" size="13px" weight="400" font-style="" opacity="1" y="4.375" transform="rotate(0)"><tspan id="SvgjsTspan1046" dy="16" x="80"><tspan id="SvgjsTspan1047" style="text-decoration:;">手动调用绑定服务</tspan></tspan><tspan id="SvgjsTspan1048" dy="16" x="80"><tspan id="SvgjsTspan1049" style="text-decoration:;">bindService()</tspan></tspan></text></g></g><g id="SvgjsG1050" transform="translate(25.006240844726562,460.0999975204468)"><path id="SvgjsPath1051" d="M 0 18Q 0 0 18 0L 142 0Q 160 0 160 18L 160 27Q 160 45 142 45L 18 45Q 0 45 0 27L 0 18Z" stroke="rgba(50,50,50,1)" stroke-width="1" fill-opacity="1" fill="#ffffff"></path><g id="SvgjsG1052"><text id="SvgjsText1053" font-family="&quot;Times New Roman&quot;" text-anchor="middle" font-size="13px" width="140px" fill="#323232" font-weight="400" align="middle" lineHeight="125%" anchor="middle" family="&quot;Times New Roman&quot;" size="13px" weight="400" font-style="" opacity="1" y="12.375" transform="rotate(0)"><tspan id="SvgjsTspan1054" dy="16" x="80"><tspan id="SvgjsTspan1055" style="text-decoration:;">onBind()</tspan></tspan></text></g></g><g id="SvgjsG1056" transform="translate(235.00624084472656,460.0999975204468)"><path id="SvgjsPath1057" d="M 0 18Q 0 0 18 0L 142 0Q 160 0 160 18L 160 27Q 160 45 142 45L 18 45Q 0 45 0 27L 0 18Z" stroke="rgba(50,50,50,1)" stroke-width="1" fill-opacity="1" fill="#cce5ff"></path><g id="SvgjsG1058"><text id="SvgjsText1059" font-family="&quot;Times New Roman&quot;" text-anchor="middle" font-size="13px" width="140px" fill="#323232" font-weight="400" align="middle" lineHeight="125%" anchor="middle" family="&quot;Times New Roman&quot;" size="13px" weight="400" font-style="" opacity="1" y="4.375" transform="rotate(0)"><tspan id="SvgjsTspan1060" dy="16" x="80"><tspan id="SvgjsTspan1061" style="text-decoration:;">手动调用解绑服务</tspan></tspan><tspan id="SvgjsTspan1062" dy="16" x="80"><tspan id="SvgjsTspan1063" style="text-decoration:;">unbindService()</tspan></tspan></text></g></g><g id="SvgjsG1064"><path id="SvgjsPath1065" d="M185.50624084472656 482.5999975204468L210.00624084472656 482.5999975204468L210.00624084472656 482.5999975204468L233.2062408447266 482.5999975204468" stroke="#323232" stroke-width="1" fill="none" marker-end="url(#SvgjsMarker1066)"></path></g><g id="SvgjsG1068" transform="translate(235.00624084472656,367.0999975204468)"><path id="SvgjsPath1069" d="M 0 18Q 0 0 18 0L 142 0Q 160 0 160 18L 160 27Q 160 45 142 45L 18 45Q 0 45 0 27L 0 18Z" stroke="rgba(50,50,50,1)" stroke-width="1" fill-opacity="1" fill="#ffffff"></path><g id="SvgjsG1070"><text id="SvgjsText1071" font-family="&quot;Times New Roman&quot;" text-anchor="middle" font-size="13px" width="140px" fill="#323232" font-weight="400" align="middle" lineHeight="125%" anchor="middle" family="&quot;Times New Roman&quot;" size="13px" weight="400" font-style="" opacity="1" y="12.375" transform="rotate(0)"><tspan id="SvgjsTspan1072" dy="16" x="80"><tspan id="SvgjsTspan1073" style="text-decoration:;">onUnbind()</tspan></tspan></text></g></g><g id="SvgjsG1074"><path id="SvgjsPath1075" d="M315.00624084472656 459.5999975204468L315.00624084472656 436.0999975204468L315.00624084472656 436.0999975204468L315.00624084472656 413.89999752044673" stroke="#323232" stroke-width="1" fill="none" marker-end="url(#SvgjsMarker1076)"></path></g><g id="SvgjsG1078" transform="translate(235.00624084472656,278.0999975204468)"><path id="SvgjsPath1079" d="M 0 18Q 0 0 18 0L 142 0Q 160 0 160 18L 160 27Q 160 45 142 45L 18 45Q 0 45 0 27L 0 18Z" stroke="rgba(50,50,50,1)" stroke-width="1" fill-opacity="1" fill="#cce5ff"></path><g id="SvgjsG1080"><text id="SvgjsText1081" font-family="&quot;Times New Roman&quot;" text-anchor="middle" font-size="13px" width="140px" fill="#323232" font-weight="400" align="middle" lineHeight="125%" anchor="middle" family="&quot;Times New Roman&quot;" size="13px" weight="400" font-style="" opacity="1" y="4.375" transform="rotate(0)"><tspan id="SvgjsTspan1082" dy="16" x="80"><tspan id="SvgjsTspan1083" style="text-decoration:;">手动调用停止服务</tspan></tspan><tspan id="SvgjsTspan1084" dy="16" x="80"><tspan id="SvgjsTspan1085" style="text-decoration:;">stopService()</tspan></tspan></text></g></g><g id="SvgjsG1086" transform="translate(235.00624084472656,187.09999752044678)"><path id="SvgjsPath1087" d="M 0 18Q 0 0 18 0L 142 0Q 160 0 160 18L 160 27Q 160 45 142 45L 18 45Q 0 45 0 27L 0 18Z" stroke="rgba(50,50,50,1)" stroke-width="1" fill-opacity="1" fill="#ffffff"></path><g id="SvgjsG1088"><text id="SvgjsText1089" font-family="&quot;Times New Roman&quot;" text-anchor="middle" font-size="13px" width="140px" fill="#323232" font-weight="400" align="middle" lineHeight="125%" anchor="middle" family="&quot;Times New Roman&quot;" size="13px" weight="400" font-style="" opacity="1" y="12.375" transform="rotate(0)"><tspan id="SvgjsTspan1090" dy="16" x="80"><tspan id="SvgjsTspan1091" style="text-decoration:;">onDestory()</tspan></tspan></text></g></g><g id="SvgjsG1092"><path id="SvgjsPath1093" d="M315.00624084472656 186.59999752044678L315.00624084472656 159.09999752044678L315.00624084472656 159.09999752044678L315.00624084472656 132.8999975204468" stroke="#323232" stroke-width="1" fill="none" marker-end="url(#SvgjsMarker1094)"></path></g><g id="SvgjsG1096"><path id="SvgjsPath1097" d="M315.00624084472656 277.5999975204468L315.00624084472656 255.09999752044678L315.00624084472656 255.09999752044678L315.00624084472656 233.8999975204468" stroke="#323232" stroke-width="1" fill="none" marker-end="url(#SvgjsMarker1098)"></path></g><g id="SvgjsG1100"><path id="SvgjsPath1101" d="M315.00624084472656 366.5999975204468L315.00624084472656 345.0999975204468L315.00624084472656 345.0999975204468L315.00624084472656 324.8999975204468" stroke="#323232" stroke-width="1" fill="none" marker-end="url(#SvgjsMarker1102)"></path></g><g id="SvgjsG1104"><path id="SvgjsPath1105" d="M105.00624084472656 141.59999752044678L105.00624084472656 164.09999752044678L105.00624084472656 164.09999752044678L105.00624084472656 185.29999752044677" stroke="#323232" stroke-width="1" fill="none" marker-end="url(#SvgjsMarker1106)"></path></g><g id="SvgjsG1108"><path id="SvgjsPath1109" d="M105.00624084472656 232.59999752044678L105.00624084472656 255.09999752044678L105.00624084472656 255.09999752044678L105.00624084472656 276.29999752044677" stroke="#323232" stroke-width="1" fill="none" marker-end="url(#SvgjsMarker1110)"></path></g><g id="SvgjsG1112"><path id="SvgjsPath1113" d="M105.00624084472656 323.5999975204468L105.00624084472656 345.0999975204468L105.00624084472656 345.0999975204468L105.00624084472656 365.29999752044677" stroke="#323232" stroke-width="1" fill="none" marker-end="url(#SvgjsMarker1114)"></path></g><g id="SvgjsG1116"><path id="SvgjsPath1117" d="M105.00624084472656 412.5999975204468L105.00624084472656 436.0999975204468L105.00624084472656 436.0999975204468L105.00624084472656 458.2999975204468" stroke="#323232" stroke-width="1" fill="none" marker-end="url(#SvgjsMarker1118)"></path></g></svg>