<svg id="SvgjsSvg1006" width="240" height="522.59375" xmlns="http://www.w3.org/2000/svg" version="1.1" xmlns:xlink="http://www.w3.org/1999/xlink" xmlns:svgjs="http://svgjs.com/svgjs"><defs id="SvgjsDefs1007"><marker id="SvgjsMarker1026" markerWidth="12" markerHeight="8" refX="9" refY="4" viewBox="0 0 12 8" orient="auto" markerUnits="userSpaceOnUse" stroke-dasharray="0,0"><path id="SvgjsPath1027" d="M0,0 L12,4 L0,8 L0,0" fill="#323232" stroke="#323232" stroke-width="1"></path></marker><marker id="SvgjsMarker1040" markerWidth="12" markerHeight="8" refX="9" refY="4" viewBox="0 0 12 8" orient="auto" markerUnits="userSpaceOnUse" stroke-dasharray="0,0"><path id="SvgjsPath1041" d="M0,0 L12,4 L0,8 L0,0" fill="#323232" stroke="#323232" stroke-width="1"></path></marker><marker id="SvgjsMarker1044" markerWidth="12" markerHeight="8" refX="9" refY="4" viewBox="0 0 12 8" orient="auto" markerUnits="userSpaceOnUse" stroke-dasharray="0,0"><path id="SvgjsPath1045" d="M0,0 L12,4 L0,8 L0,0" fill="#323232" stroke="#323232" stroke-width="1"></path></marker><marker id="SvgjsMarker1054" markerWidth="12" markerHeight="8" refX="9" refY="4" viewBox="0 0 12 8" orient="auto" markerUnits="userSpaceOnUse" stroke-dasharray="0,0"><path id="SvgjsPath1055" d="M0,0 L12,4 L0,8 L0,0" fill="#323232" stroke="#323232" stroke-width="1"></path></marker><marker id="SvgjsMarker1064" markerWidth="12" markerHeight="8" refX="9" refY="4" viewBox="0 0 12 8" orient="auto" markerUnits="userSpaceOnUse" stroke-dasharray="0,0"><path id="SvgjsPath1065" d="M0,0 L12,4 L0,8 L0,0" fill="#323232" stroke="#323232" stroke-width="1"></path></marker><marker id="SvgjsMarker1068" markerWidth="12" markerHeight="8" refX="9" refY="4" viewBox="0 0 12 8" orient="auto" markerUnits="userSpaceOnUse" stroke-dasharray="0,0"><path id="SvgjsPath1069" d="M0,0 L12,4 L0,8 L0,0" fill="#323232" stroke="#323232" stroke-width="1"></path></marker></defs><g id="SvgjsG1008" transform="translate(55.00624084472656,97.09999752044678)"><path id="SvgjsPath1009" d="M 0 18Q 0 0 18 0L 142 0Q 160 0 160 18L 160 27Q 160 45 142 45L 18 45Q 0 45 0 27L 0 18Z" stroke="rgba(50,50,50,1)" stroke-width="1" fill-opacity="1" fill="#cce5ff"></path><g id="SvgjsG1010"><text id="SvgjsText1011" font-family="&quot;Times New Roman&quot;" text-anchor="middle" font-size="13px" width="140px" fill="#323232" font-weight="400" align="middle" lineHeight="125%" anchor="middle" family="&quot;Times New Roman&quot;" size="13px" weight="400" font-style="" opacity="1" y="4.375" transform="rotate(0)"><tspan id="SvgjsTspan1012" dy="16" x="80"><tspan id="SvgjsTspan1013" style="text-decoration:;">手动调用启动服务</tspan></tspan><tspan id="SvgjsTspan1014" dy="16" x="80"><tspan id="SvgjsTspan1015" style="text-decoration:;">startService()</tspan></tspan></text></g></g><g id="SvgjsG1016" transform="translate(60.00624084472656,186)"><path id="SvgjsPath1017" d="M 0 30L 75 0L 150 30L 75 60Z" stroke="rgba(50,50,50,1)" stroke-width="1" fill-opacity="1" fill="#ffe6cc"></path><g id="SvgjsG1018"><text id="SvgjsText1019" font-family="&quot;Times New Roman&quot;" text-anchor="middle" font-size="13px" width="130px" fill="#323232" font-weight="400" align="middle" lineHeight="125%" anchor="middle" family="&quot;Times New Roman&quot;" size="13px" weight="400" font-style="" opacity="1" y="12.175" transform="rotate(0)"><tspan id="SvgjsTspan1020" dy="16" x="75"><tspan id="SvgjsTspan1021" style="text-decoration:;">第一次调用</tspan></tspan><tspan id="SvgjsTspan1022" dy="16" x="75"><tspan id="SvgjsTspan1023" style="text-decoration:;">startService()</tspan></tspan></text></g></g><g id="SvgjsG1024"><path id="SvgjsPath1025" d="M135.00624084472656 142.59999752044678L135.00624084472656 164.0499987602234L135.00624084472656 164.0499987602234L135.00624084472656 184.2" stroke="#323232" stroke-width="1" fill="none" marker-end="url(#SvgjsMarker1026)"></path></g><g id="SvgjsG1028" transform="translate(55.00624084472656,294.0999975204468)"><path id="SvgjsPath1029" d="M 0 18Q 0 0 18 0L 142 0Q 160 0 160 18L 160 27Q 160 45 142 45L 18 45Q 0 45 0 27L 0 18Z" stroke="rgba(50,50,50,1)" stroke-width="1" fill-opacity="1" fill="#ffffff"></path><g id="SvgjsG1030"><text id="SvgjsText1031" font-family="&quot;Times New Roman&quot;" text-anchor="middle" font-size="13px" width="140px" fill="#323232" font-weight="400" align="middle" lineHeight="125%" anchor="middle" family="&quot;Times New Roman&quot;" size="13px" weight="400" font-style="" opacity="1" y="12.375" transform="rotate(0)"><tspan id="SvgjsTspan1032" dy="16" x="80"><tspan id="SvgjsTspan1033" style="text-decoration:;">onCreate()</tspan></tspan></text></g></g><g id="SvgjsG1034" transform="translate(122.50624084472656,25)"><path id="SvgjsPath1035" d="M 0 12.5C 0 -4.166666666666667 25 -4.166666666666667 25 12.5C 25 29.166666666666668 0 29.166666666666668 0 12.5Z" stroke="none" fill-opacity="1" fill="#323232"></path><g id="SvgjsG1036"><text id="SvgjsText1037" font-family="&quot;Times New Roman&quot;" text-anchor="middle" font-size="13px" width="65px" fill="#323232" font-weight="400" align="middle" lineHeight="125%" anchor="middle" family="&quot;Times New Roman&quot;" size="13px" weight="400" font-style="" opacity="1" y="29.875" transform="rotate(0)"></text></g></g><g id="SvgjsG1038"><path id="SvgjsPath1039" d="M135.00624084472656 50.5L135.00624084472656 73.54999876022339L135.00624084472656 73.54999876022339L135.00624084472656 95.29999752044677" stroke="#323232" stroke-width="1" fill="none" marker-end="url(#SvgjsMarker1040)"></path></g><g id="SvgjsG1042"><path id="SvgjsPath1043" d="M135.00624084472656 246.5L135.00624084472656 270.0499987602234L135.00624084472656 270.0499987602234L135.00624084472656 292.29999752044677" stroke="#323232" stroke-width="1" fill="none" marker-end="url(#SvgjsMarker1044)"></path></g><g id="SvgjsG1046" transform="translate(55.00624084472656,383.0999975204468)"><path id="SvgjsPath1047" d="M 0 18Q 0 0 18 0L 142 0Q 160 0 160 18L 160 27Q 160 45 142 45L 18 45Q 0 45 0 27L 0 18Z" stroke="rgba(50,50,50,1)" stroke-width="1" fill-opacity="1" fill="#ffffff"></path><g id="SvgjsG1048"><text id="SvgjsText1049" font-family="&quot;Times New Roman&quot;" text-anchor="middle" font-size="13px" width="140px" fill="#323232" font-weight="400" align="middle" lineHeight="125%" anchor="middle" family="&quot;Times New Roman&quot;" size="13px" weight="400" font-style="" opacity="1" y="12.375" transform="rotate(0)"><tspan id="SvgjsTspan1050" dy="16" x="80"><tspan id="SvgjsTspan1051" style="text-decoration:;">onStartCommand()</tspan></tspan></text></g></g><g id="SvgjsG1052"><path id="SvgjsPath1053" d="M135.00624084472656 339.5999975204468L135.00624084472656 361.0999975204468L135.00624084472656 361.0999975204468L135.00624084472656 381.29999752044677" stroke="#323232" stroke-width="1" fill="none" marker-end="url(#SvgjsMarker1054)"></path></g><g id="SvgjsG1056" transform="translate(122.50624084472656,472.5999984741211)"><path id="SvgjsPath1057" d="M 0 12.5C 0 -4.166666666666667 25 -4.166666666666667 25 12.5C 25 29.166666666666668 0 29.166666666666668 0 12.5Z" stroke="rgba(50,50,50,1)" stroke-width="3" fill-opacity="1" fill="#ffffff"></path><path id="SvgjsPath1058" d="M 6.25 12.5C 6.25 4.166666666666666 18.75 4.166666666666666 18.75 12.5C 18.75 20.833333333333336 6.25 20.833333333333336 6.25 12.5Z" stroke="none" fill-opacity="1" fill="#323232"></path><path id="SvgjsPath1059" d="M 0 12.5C 0 -4.166666666666667 25 -4.166666666666667 25 12.5C 25 29.166666666666668 0 29.166666666666668 0 12.5Z" stroke="none" fill="none"></path><g id="SvgjsG1060"><text id="SvgjsText1061" font-family="&quot;Times New Roman&quot;" text-anchor="middle" font-size="13px" width="65px" fill="#323232" font-weight="400" align="middle" lineHeight="125%" anchor="middle" family="&quot;Times New Roman&quot;" size="13px" weight="400" font-style="" opacity="1" y="29.875" transform="rotate(0)"></text></g></g><g id="SvgjsG1062"><path id="SvgjsPath1063" d="M135.00624084472656 428.5999975204468L135.00624084472656 450.34999799728394L135.00624084472656 450.34999799728394L135.00624084472656 470.79999847412114" stroke="#323232" stroke-width="1" fill="none" marker-end="url(#SvgjsMarker1064)"></path></g><g id="SvgjsG1066"><path id="SvgjsPath1067" d="M59.50624084472656 216L25.006240844726562 216L25.006240844726562 405.5999975204468L53.20624084472655 405.5999975204468" stroke="#323232" stroke-width="1" fill="none" marker-end="url(#SvgjsMarker1068)"></path></g><g id="SvgjsG1070" transform="translate(25.006240844726562,180.5999984741211)"><path id="SvgjsPath1071" d="M 0 0L 35 0L 35 35L 0 35Z" stroke="none" fill="none"></path><g id="SvgjsG1072"><text id="SvgjsText1073" font-family="&quot;Times New Roman&quot;" text-anchor="middle" font-size="13px" width="35px" fill="#323232" font-weight="700" align="middle" lineHeight="125%" anchor="middle" family="&quot;Times New Roman&quot;" size="13px" weight="700" font-style="" opacity="1" y="7.375" transform="rotate(0)"><tspan id="SvgjsTspan1074" dy="16" x="17.5"><tspan id="SvgjsTspan1075" style="text-decoration:;">N</tspan></tspan></text></g></g><g id="SvgjsG1076" transform="translate(137.50624084472656,251.5999984741211)"><path id="SvgjsPath1077" d="M 0 0L 35 0L 35 35L 0 35Z" stroke="none" fill="none"></path><g id="SvgjsG1078"><text id="SvgjsText1079" font-family="&quot;Times New Roman&quot;" text-anchor="middle" font-size="13px" width="35px" fill="#323232" font-weight="700" align="middle" lineHeight="125%" anchor="middle" family="&quot;Times New Roman&quot;" size="13px" weight="700" font-style="" opacity="1" y="7.375" transform="rotate(0)"><tspan id="SvgjsTspan1080" dy="16" x="17.5"><tspan id="SvgjsTspan1081" style="text-decoration:;">Y</tspan></tspan></text></g></g></svg>