<svg id="SvgjsSvg1245" width="1159.5859375" height="1017.8359375" xmlns="http://www.w3.org/2000/svg" version="1.1" xmlns:xlink="http://www.w3.org/1999/xlink" xmlns:svgjs="http://svgjs.com/svgjs"><defs id="SvgjsDefs1246"><marker id="SvgjsMarker1432" markerWidth="12" markerHeight="8" refX="9" refY="4" viewBox="0 0 12 8" orient="auto" markerUnits="userSpaceOnUse" stroke-dasharray="0,0"><path id="SvgjsPath1433" d="M0,0 L12,4 L0,8 L0,0" fill="#323232" stroke="#323232" stroke-width="1"></path></marker><marker id="SvgjsMarker1436" markerWidth="12" markerHeight="8" refX="9" refY="4" viewBox="0 0 12 8" orient="auto" markerUnits="userSpaceOnUse" stroke-dasharray="0,0"><path id="SvgjsPath1437" d="M0,0 L12,4 L0,8 L0,0" fill="#323232" stroke="#323232" stroke-width="1"></path></marker><marker id="SvgjsMarker1440" markerWidth="12" markerHeight="8" refX="9" refY="4" viewBox="0 0 12 8" orient="auto" markerUnits="userSpaceOnUse" stroke-dasharray="0,0"><path id="SvgjsPath1441" d="M0,0 L12,4 L0,8 L0,0" fill="#323232" stroke="#323232" stroke-width="1"></path></marker><marker id="SvgjsMarker1444" markerWidth="12" markerHeight="8" refX="9" refY="4" viewBox="0 0 12 8" orient="auto" markerUnits="userSpaceOnUse" stroke-dasharray="0,0"><path id="SvgjsPath1445" d="M0,0 L12,4 L0,8 L0,0" fill="#323232" stroke="#323232" stroke-width="1"></path></marker><marker id="SvgjsMarker1448" markerWidth="12" markerHeight="8" refX="9" refY="4" viewBox="0 0 12 8" orient="auto" markerUnits="userSpaceOnUse" stroke-dasharray="0,0"><path id="SvgjsPath1449" d="M0,0 L12,4 L0,8 L0,0" fill="#323232" stroke="#323232" stroke-width="1"></path></marker><marker id="SvgjsMarker1452" markerWidth="12" markerHeight="8" refX="9" refY="4" viewBox="0 0 12 8" orient="auto" markerUnits="userSpaceOnUse" stroke-dasharray="0,0"><path id="SvgjsPath1453" d="M0,0 L12,4 L0,8 L0,0" fill="#323232" stroke="#323232" stroke-width="1"></path></marker><marker id="SvgjsMarker1456" markerWidth="12" markerHeight="8" refX="9" refY="4" viewBox="0 0 12 8" orient="auto" markerUnits="userSpaceOnUse" stroke-dasharray="0,0"><path id="SvgjsPath1457" d="M0,0 L12,4 L0,8 L0,0" fill="#323232" stroke="#323232" stroke-width="1"></path></marker><marker id="SvgjsMarker1460" markerWidth="12" markerHeight="8" refX="9" refY="4" viewBox="0 0 12 8" orient="auto" markerUnits="userSpaceOnUse" stroke-dasharray="0,0"><path id="SvgjsPath1461" d="M0,0 L12,4 L0,8 L0,0" fill="#323232" stroke="#323232" stroke-width="1"></path></marker></defs><g id="SvgjsG1247" transform="translate(222.58593750000028,475.5026041666656)"><path id="SvgjsPath1248" d="M 0 4Q 0 0 4 0L 907.5 0Q 911.5 0 911.5 4L 911.5 86Q 911.5 90 907.5 90L 4 90Q 0 90 0 86Z" stroke="rgba(50,50,50,1)" stroke-width="1" fill="none"></path><g id="SvgjsG1249"><text id="SvgjsText1250" font-family="微软雅黑" text-anchor="middle" font-size="13px" width="892px" fill="#323232" font-weight="400" align="middle" lineHeight="125%" anchor="middle" family="微软雅黑" size="13px" weight="400" font-style="" opacity="1" y="34.875" transform="rotate(0)"></text></g></g><g id="SvgjsG1251" transform="translate(303.3359374999992,947.8359374999968)"><path id="SvgjsPath1252" d="M 0 0L 150 0L 150 45L 0 45Z" stroke="rgba(50,50,50,1)" stroke-width="1" fill-opacity="1" fill="#cce5ff"></path><g id="SvgjsG1253"><text id="SvgjsText1254" font-family="&quot;Times New Roman&quot;" text-anchor="middle" font-size="13px" width="130px" fill="#323232" font-weight="400" align="middle" lineHeight="125%" anchor="middle" family="&quot;Times New Roman&quot;" size="13px" weight="400" font-style="" opacity="1" y="12.375" transform="rotate(0)"><tspan id="SvgjsTspan1255" dy="16" x="75"><tspan id="SvgjsTspan1256" style="text-decoration:;">Boot Rom</tspan></tspan></text></g></g><g id="SvgjsG1257" transform="translate(603.3359375000003,947.8359374999968)"><path id="SvgjsPath1258" d="M 0 0L 150 0L 150 45L 0 45Z" stroke="rgba(50,50,50,1)" stroke-width="1" fill-opacity="1" fill="#cce5ff"></path><g id="SvgjsG1259"><text id="SvgjsText1260" font-family="&quot;Times New Roman&quot;" text-anchor="middle" font-size="13px" width="130px" fill="#323232" font-weight="400" align="middle" lineHeight="125%" anchor="middle" family="&quot;Times New Roman&quot;" size="13px" weight="400" font-style="" opacity="1" y="4.375" transform="rotate(0)"><tspan id="SvgjsTspan1261" dy="16" x="75"><tspan id="SvgjsTspan1262" style="text-decoration:;">BootLoader</tspan></tspan><tspan id="SvgjsTspan1263" dy="16" x="75"><tspan id="SvgjsTspan1264" style="text-decoration:;">引导程序</tspan></tspan></text></g></g><g id="SvgjsG1265" transform="translate(603.3359375000003,841.0026041666639)"><path id="SvgjsPath1266" d="M 0 0L 150 0L 150 45L 0 45Z" stroke="rgba(50,50,50,1)" stroke-width="1" fill-opacity="1" fill="#cce5ff"></path><g id="SvgjsG1267"><text id="SvgjsText1268" font-family="&quot;Times New Roman&quot;" text-anchor="middle" font-size="13px" width="130px" fill="#323232" font-weight="400" align="middle" lineHeight="125%" anchor="middle" family="&quot;Times New Roman&quot;" size="13px" weight="400" font-style="" opacity="1" y="12.375" transform="rotate(0)"><tspan id="SvgjsTspan1269" dy="16" x="75"><tspan id="SvgjsTspan1270" style="text-decoration:;">Linux Kernel</tspan></tspan></text></g></g><g id="SvgjsG1271" transform="translate(603.3359375000003,627.3359374999984)"><path id="SvgjsPath1272" d="M 0 0L 150 0L 150 45L 0 45Z" stroke="rgba(50,50,50,1)" stroke-width="1" fill-opacity="1" fill="#cce5ff"></path><g id="SvgjsG1273"><text id="SvgjsText1274" font-family="&quot;Times New Roman&quot;" text-anchor="middle" font-size="13px" width="130px" fill="#323232" font-weight="400" align="middle" lineHeight="125%" anchor="middle" family="&quot;Times New Roman&quot;" size="13px" weight="400" font-style="" opacity="1" y="4.375" transform="rotate(0)"><tspan id="SvgjsTspan1275" dy="16" x="75"><tspan id="SvgjsTspan1276" style="text-decoration:;">Init 进程</tspan></tspan><tspan id="SvgjsTspan1277" dy="16" x="75"><tspan id="SvgjsTspan1278" style="text-decoration:;">PID = 1</tspan></tspan></text></g></g><g id="SvgjsG1279" transform="translate(603.3359375000003,498.5026041666656)"><path id="SvgjsPath1280" d="M 0 0L 150 0L 150 45L 0 45Z" stroke="rgba(50,50,50,1)" stroke-width="1" fill-opacity="1" fill="#cce5ff"></path><g id="SvgjsG1281"><text id="SvgjsText1282" font-family="&quot;Times New Roman&quot;" text-anchor="middle" font-size="13px" width="130px" fill="#323232" font-weight="400" align="middle" lineHeight="125%" anchor="middle" family="&quot;Times New Roman&quot;" size="13px" weight="400" font-style="" opacity="1" y="12.375" transform="rotate(0)"><tspan id="SvgjsTspan1283" dy="16" x="75"><tspan id="SvgjsTspan1284" style="text-decoration:;">Zygote 进程</tspan></tspan></text></g></g><g id="SvgjsG1285" transform="translate(603.3359375000002,368.6692708333328)"><path id="SvgjsPath1286" d="M 0 0L 150 0L 150 45L 0 45Z" stroke="rgba(50,50,50,1)" stroke-width="1" fill-opacity="1" fill="#ffe6cc"></path><g id="SvgjsG1287"><text id="SvgjsText1288" font-family="&quot;Times New Roman&quot;" text-anchor="middle" font-size="13px" width="130px" fill="#323232" font-weight="400" align="middle" lineHeight="125%" anchor="middle" family="&quot;Times New Roman&quot;" size="13px" weight="400" font-style="" opacity="1" y="12.375" transform="rotate(0)"><tspan id="SvgjsTspan1289" dy="16" x="75"><tspan id="SvgjsTspan1290" style="text-decoration:;">ZygoteInit.java</tspan></tspan></text></g></g><g id="SvgjsG1291" transform="translate(903.3359375000006,368.6692708333328)"><path id="SvgjsPath1292" d="M 0 0L 150 0L 150 45L 0 45Z" stroke="rgba(50,50,50,1)" stroke-width="1" fill-opacity="1" fill="#ffe6cc"></path><g id="SvgjsG1293"><text id="SvgjsText1294" font-family="&quot;Times New Roman&quot;" text-anchor="middle" font-size="13px" width="130px" fill="#323232" font-weight="400" align="middle" lineHeight="125%" anchor="middle" family="&quot;Times New Roman&quot;" size="13px" weight="400" font-style="" opacity="1" y="4.375" transform="rotate(0)"><tspan id="SvgjsTspan1295" dy="16" x="75"><tspan id="SvgjsTspan1296" style="text-decoration:;">ActivityThread.java</tspan></tspan><tspan id="SvgjsTspan1297" dy="16" x="75"><tspan id="SvgjsTspan1298" style="text-decoration:;">APP 进程</tspan></tspan></text></g></g><g id="SvgjsG1299" transform="translate(222.58593749999977,503.5026041666656)"><path id="SvgjsPath1300" d="M 0 0L 120 0L 120 35L 0 35Z" stroke="none" fill="none"></path><g id="SvgjsG1301"><text id="SvgjsText1302" font-family="&quot;Times New Roman&quot;" text-anchor="middle" font-size="13px" width="120px" fill="#323232" font-weight="700" align="middle" lineHeight="125%" anchor="middle" family="&quot;Times New Roman&quot;" size="13px" weight="700" font-style="" opacity="1" y="7.375" transform="rotate(0)"><tspan id="SvgjsTspan1303" dy="16" x="60"><tspan id="SvgjsTspan1304" style="text-decoration:;">JNI</tspan></tspan></text></g></g><g id="SvgjsG1305" transform="translate(303.3359374999994,368.6692708333328)"><path id="SvgjsPath1306" d="M 0 0L 150 0L 150 45L 0 45Z" stroke="rgba(50,50,50,1)" stroke-width="1" fill-opacity="1" fill="#ffe6cc"></path><g id="SvgjsG1307"><text id="SvgjsText1308" font-family="&quot;Times New Roman&quot;" text-anchor="middle" font-size="13px" width="130px" fill="#323232" font-weight="400" align="middle" lineHeight="125%" anchor="middle" family="&quot;Times New Roman&quot;" size="13px" weight="400" font-style="" opacity="1" y="12.375" transform="rotate(0)"><tspan id="SvgjsTspan1309" dy="16" x="75"><tspan id="SvgjsTspan1310" style="text-decoration:;">SystemServer.java</tspan></tspan></text></g></g><g id="SvgjsG1311" transform="translate(222.58593749999983,186.8359374999999)"><path id="SvgjsPath1312" d="M 0 4Q 0 0 4 0L 907.5 0Q 911.5 0 911.5 4L 911.5 116Q 911.5 120 907.5 120L 4 120Q 0 120 0 116Z" stroke="rgba(50,50,50,1)" stroke-width="1" fill-opacity="1" fill="#ffffff"></path><g id="SvgjsG1313"><text id="SvgjsText1314" font-family="微软雅黑" text-anchor="middle" font-size="13px" width="892px" fill="#323232" font-weight="400" align="middle" lineHeight="125%" anchor="middle" family="微软雅黑" size="13px" weight="400" font-style="" opacity="1" y="49.875" transform="rotate(0)"></text></g></g><g id="SvgjsG1315" transform="translate(222.33593749999994,186.8359375)"><path id="SvgjsPath1316" d="M 0 0L 912 0L 912 45L 0 45Z" stroke="none" fill="none"></path><g id="SvgjsG1317"><text id="SvgjsText1318" font-family="&quot;Times New Roman&quot;" text-anchor="middle" font-size="13px" width="912px" fill="#323232" font-weight="700" align="middle" lineHeight="125%" anchor="middle" family="&quot;Times New Roman&quot;" size="13px" weight="700" font-style="" opacity="1" y="12.375" transform="rotate(0)"><tspan id="SvgjsTspan1319" dy="16" x="456"><tspan id="SvgjsTspan1320" style="text-decoration:;">Systerm Server</tspan></tspan></text></g></g><g id="SvgjsG1321" transform="translate(488.6137152777777,241.8359375000001)"><path id="SvgjsPath1322" d="M 0 0L 150 0L 150 45L 0 45Z" stroke="rgba(50,50,50,1)" stroke-width="1" fill-opacity="1" fill="#f5f5f5"></path><g id="SvgjsG1323"><text id="SvgjsText1324" font-family="&quot;Times New Roman&quot;" text-anchor="middle" font-size="13px" width="130px" fill="#323232" font-weight="400" align="middle" lineHeight="125%" anchor="middle" family="&quot;Times New Roman&quot;" size="13px" weight="400" font-style="" opacity="1" y="12.375" transform="rotate(0)"><tspan id="SvgjsTspan1325" dy="16" x="75"><tspan id="SvgjsTspan1326" style="text-decoration:;">WindowManagerService</tspan></tspan></text></g></g><g id="SvgjsG1327" transform="translate(718.0581597222221,241.8359375000001)"><path id="SvgjsPath1328" d="M 0 0L 150 0L 150 45L 0 45Z" stroke="rgba(50,50,50,1)" stroke-width="1" fill-opacity="1" fill="#f5f5f5"></path><g id="SvgjsG1329"><text id="SvgjsText1330" font-family="&quot;Times New Roman&quot;" text-anchor="middle" font-size="13px" width="130px" fill="#323232" font-weight="400" align="middle" lineHeight="125%" anchor="middle" family="&quot;Times New Roman&quot;" size="13px" weight="400" font-style="" opacity="1" y="12.375" transform="rotate(0)"><tspan id="SvgjsTspan1331" dy="16" x="75"><tspan id="SvgjsTspan1332" style="text-decoration:;">PowerManagerService</tspan></tspan></text></g></g><g id="SvgjsG1333" transform="translate(259.1692708333332,241.8359375000001)"><path id="SvgjsPath1334" d="M 0 0L 150 0L 150 45L 0 45Z" stroke="rgba(50,50,50,1)" stroke-width="1" fill-opacity="1" fill="#f5f5f5"></path><g id="SvgjsG1335"><text id="SvgjsText1336" font-family="&quot;Times New Roman&quot;" text-anchor="middle" font-size="13px" width="130px" fill="#323232" font-weight="400" align="middle" lineHeight="125%" anchor="middle" family="&quot;Times New Roman&quot;" size="13px" weight="400" font-style="" opacity="1" y="12.375" transform="rotate(0)"><tspan id="SvgjsTspan1337" dy="16" x="75"><tspan id="SvgjsTspan1338" style="text-decoration:;">ActivityManagerService</tspan></tspan></text></g></g><g id="SvgjsG1339" transform="translate(947.5026041666656,241.8359375000001)"><path id="SvgjsPath1340" d="M 0 0L 150 0L 150 45L 0 45Z" stroke="rgba(50,50,50,1)" stroke-width="1" fill-opacity="1" fill="#f5f5f5"></path><g id="SvgjsG1341"><text id="SvgjsText1342" font-family="&quot;Times New Roman&quot;" text-anchor="middle" font-size="13px" width="130px" fill="#323232" font-weight="400" align="middle" lineHeight="125%" anchor="middle" family="&quot;Times New Roman&quot;" size="13px" weight="400" font-style="" opacity="1" y="12.375" transform="rotate(0)"><tspan id="SvgjsTspan1343" dy="16" x="75"><tspan id="SvgjsTspan1344" style="text-decoration:;">InputManagerService</tspan></tspan></text></g></g><g id="SvgjsG1345" transform="translate(222.5859374999999,25.002604166666643)"><path id="SvgjsPath1346" d="M 0 4Q 0 0 4 0L 907.5 0Q 911.5 0 911.5 4L 911.5 116Q 911.5 120 907.5 120L 4 120Q 0 120 0 116Z" stroke="rgba(50,50,50,1)" stroke-width="1" fill-opacity="1" fill="#ffffff"></path><g id="SvgjsG1347"><text id="SvgjsText1348" font-family="微软雅黑" text-anchor="middle" font-size="13px" width="892px" fill="#323232" font-weight="400" align="middle" lineHeight="125%" anchor="middle" family="微软雅黑" size="13px" weight="400" font-style="" opacity="1" y="49.875" transform="rotate(0)"></text></g></g><g id="SvgjsG1349" transform="translate(222.3359374999999,26.669270833333428)"><path id="SvgjsPath1350" d="M 0 0L 912 0L 912 45L 0 45Z" stroke="none" fill="none"></path><g id="SvgjsG1351"><text id="SvgjsText1352" font-family="&quot;Times New Roman&quot;" text-anchor="middle" font-size="13px" width="912px" fill="#323232" font-weight="700" align="middle" lineHeight="125%" anchor="middle" family="&quot;Times New Roman&quot;" size="13px" weight="700" font-style="" opacity="1" y="12.375" transform="rotate(0)"><tspan id="SvgjsTspan1353" dy="16" x="456"><tspan id="SvgjsTspan1354" style="text-decoration:;">Android APPs</tspan></tspan></text></g></g><g id="SvgjsG1355" transform="translate(408.8359374999997,80.00260416666694)"><path id="SvgjsPath1356" d="M 0 0L 90 0L 90 45L 0 45Z" stroke="rgba(50,50,50,1)" stroke-width="1" fill-opacity="1" fill="#f5f5f5"></path><g id="SvgjsG1357"><text id="SvgjsText1358" font-family="&quot;Times New Roman&quot;" text-anchor="middle" font-size="13px" width="70px" fill="#323232" font-weight="400" align="middle" lineHeight="125%" anchor="middle" family="&quot;Times New Roman&quot;" size="13px" weight="400" font-style="" opacity="1" y="12.375" transform="rotate(0)"><tspan id="SvgjsTspan1359" dy="16" x="45"><tspan id="SvgjsTspan1360" style="text-decoration:;">Browser</tspan></tspan></text></g></g><g id="SvgjsG1361" transform="translate(558.5026041666662,80.00260416666694)"><path id="SvgjsPath1362" d="M 0 0L 90 0L 90 45L 0 45Z" stroke="rgba(50,50,50,1)" stroke-width="1" fill-opacity="1" fill="#f5f5f5"></path><g id="SvgjsG1363"><text id="SvgjsText1364" font-family="&quot;Times New Roman&quot;" text-anchor="middle" font-size="13px" width="70px" fill="#323232" font-weight="400" align="middle" lineHeight="125%" anchor="middle" family="&quot;Times New Roman&quot;" size="13px" weight="400" font-style="" opacity="1" y="12.375" transform="rotate(0)"><tspan id="SvgjsTspan1365" dy="16" x="45"><tspan id="SvgjsTspan1366" style="text-decoration:;">Phone</tspan></tspan></text></g></g><g id="SvgjsG1367" transform="translate(259.16927083333326,80.00260416666694)"><path id="SvgjsPath1368" d="M 0 0L 90 0L 90 45L 0 45Z" stroke="rgba(50,50,50,1)" stroke-width="1" fill-opacity="1" fill="#f5f5f5"></path><g id="SvgjsG1369"><text id="SvgjsText1370" font-family="&quot;Times New Roman&quot;" text-anchor="middle" font-size="13px" width="70px" fill="#323232" font-weight="400" align="middle" lineHeight="125%" anchor="middle" family="&quot;Times New Roman&quot;" size="13px" weight="400" font-style="" opacity="1" y="12.375" transform="rotate(0)"><tspan id="SvgjsTspan1371" dy="16" x="45"><tspan id="SvgjsTspan1372" style="text-decoration:;">Launcher</tspan></tspan></text></g></g><g id="SvgjsG1373" transform="translate(708.1692708333326,80.00260416666694)"><path id="SvgjsPath1374" d="M 0 0L 90 0L 90 45L 0 45Z" stroke="rgba(50,50,50,1)" stroke-width="1" fill-opacity="1" fill="#f5f5f5"></path><g id="SvgjsG1375"><text id="SvgjsText1376" font-family="&quot;Times New Roman&quot;" text-anchor="middle" font-size="13px" width="70px" fill="#323232" font-weight="400" align="middle" lineHeight="125%" anchor="middle" family="&quot;Times New Roman&quot;" size="13px" weight="400" font-style="" opacity="1" y="12.375" transform="rotate(0)"><tspan id="SvgjsTspan1377" dy="16" x="45"><tspan id="SvgjsTspan1378" style="text-decoration:;">Sms</tspan></tspan></text></g></g><g id="SvgjsG1379" transform="translate(857.8359374999991,80.00260416666694)"><path id="SvgjsPath1380" d="M 0 0L 90 0L 90 45L 0 45Z" stroke="rgba(50,50,50,1)" stroke-width="1" fill-opacity="1" fill="#f5f5f5"></path><g id="SvgjsG1381"><text id="SvgjsText1382" font-family="&quot;Times New Roman&quot;" text-anchor="middle" font-size="13px" width="70px" fill="#323232" font-weight="400" align="middle" lineHeight="125%" anchor="middle" family="&quot;Times New Roman&quot;" size="13px" weight="400" font-style="" opacity="1" y="12.375" transform="rotate(0)"><tspan id="SvgjsTspan1383" dy="16" x="45"><tspan id="SvgjsTspan1384" style="text-decoration:;">Contact</tspan></tspan></text></g></g><g id="SvgjsG1385" transform="translate(1007.5026041666656,79.25260416666652)"><path id="SvgjsPath1386" d="M 0 0L 90 0L 90 45L 0 45Z" stroke="rgba(50,50,50,1)" stroke-width="1" fill-opacity="1" fill="#f5f5f5"></path><g id="SvgjsG1387"><text id="SvgjsText1388" font-family="&quot;Times New Roman&quot;" text-anchor="middle" font-size="13px" width="70px" fill="#323232" font-weight="400" align="middle" lineHeight="125%" anchor="middle" family="&quot;Times New Roman&quot;" size="13px" weight="400" font-style="" opacity="1" y="12.375" transform="rotate(0)"><tspan id="SvgjsTspan1389" dy="16" x="45"><tspan id="SvgjsTspan1390" style="text-decoration:;">Gallery</tspan></tspan></text></g></g><g id="SvgjsG1391" transform="translate(159.7248263888887,186.8359375)"><path id="SvgjsPath1392" d="M 20 0Q 18 0 18 9L 18 181Q 18 190 -2 190Q 18 190 18 199L 18 371Q 18 380 20 380" stroke="rgba(50,50,50,1)" stroke-width="1" fill="none"></path><path id="SvgjsPath1393" d="M 0 0L 20 0L 20 380L 0 380Z" stroke="none" fill="none"></path><g id="SvgjsG1394"><text id="SvgjsText1395" font-family="微软雅黑" text-anchor="end" font-size="13px" width="0" fill="#323232" font-weight="400" align="middle" lineHeight="125%" anchor="end" family="微软雅黑" size="13px" weight="400" font-style="" opacity="1" y="179.875" transform="rotate(0)"></text></g></g><g id="SvgjsG1396" transform="translate(25.002604166665208,356.8359375000001)"><path id="SvgjsPath1397" d="M 0 0L 120 0L 120 40L 0 40Z" stroke="none" fill="none"></path><g id="SvgjsG1398"><text id="SvgjsText1399" font-family="&quot;Times New Roman&quot;" text-anchor="middle" font-size="13px" width="120px" fill="#323232" font-weight="700" align="middle" lineHeight="125%" anchor="middle" family="&quot;Times New Roman&quot;" size="13px" weight="700" font-style="" opacity="1" y="9.875" transform="rotate(0)"><tspan id="SvgjsTspan1400" dy="16" x="60"><tspan id="SvgjsTspan1401" style="text-decoration:;">Android  Framework</tspan></tspan></text></g></g><g id="SvgjsG1402" transform="translate(25.002604166665193,630.4192708333322)"><path id="SvgjsPath1403" d="M 0 0L 120 0L 120 40L 0 40Z" stroke="none" fill="none"></path><g id="SvgjsG1404"><text id="SvgjsText1405" font-family="&quot;Times New Roman&quot;" text-anchor="middle" font-size="13px" width="120px" fill="#323232" font-weight="700" align="middle" lineHeight="125%" anchor="middle" family="&quot;Times New Roman&quot;" size="13px" weight="700" font-style="" opacity="1" y="9.875" transform="rotate(0)"><tspan id="SvgjsTspan1406" dy="16" x="60"><tspan id="SvgjsTspan1407" style="text-decoration:;">C++ Framework</tspan></tspan></text></g></g><g id="SvgjsG1408" transform="translate(159.72482638888872,582.9192708333322)"><path id="SvgjsPath1409" d="M 20 0Q 18 0 18 9L 18 58.5Q 18 67.5 -2 67.5Q 18 67.5 18 76.5L 18 126Q 18 135 20 135" stroke="rgba(50,50,50,1)" stroke-width="1" fill="none"></path><path id="SvgjsPath1410" d="M 0 0L 20 0L 20 135L 0 135Z" stroke="none" fill="none"></path><g id="SvgjsG1411"><text id="SvgjsText1412" font-family="微软雅黑" text-anchor="end" font-size="13px" width="0" fill="#323232" font-weight="400" align="middle" lineHeight="125%" anchor="end" family="微软雅黑" size="13px" weight="400" font-style="" opacity="1" y="57.375" transform="rotate(0)"></text></g></g><g id="SvgjsG1413" transform="translate(222.58593750000028,734.1692708333311)"><path id="SvgjsPath1414" d="M 0 4Q 0 0 4 0L 907.5 0Q 911.5 0 911.5 4L 911.5 41Q 911.5 45 907.5 45L 4 45Q 0 45 0 41Z" stroke="rgba(50,50,50,1)" stroke-width="1" fill="none"></path><g id="SvgjsG1415"><text id="SvgjsText1416" font-family="&quot;Times New Roman&quot;" text-anchor="middle" font-size="13px" width="892px" fill="#323232" font-weight="700" align="middle" lineHeight="125%" anchor="middle" family="&quot;Times New Roman&quot;" size="13px" weight="700" font-style="" opacity="1" y="12.375" transform="rotate(0)"><tspan id="SvgjsTspan1417" dy="16" x="456"><tspan id="SvgjsTspan1418" style="text-decoration:;">Hardware Abstract Layer</tspan></tspan></text></g></g><g id="SvgjsG1419" transform="translate(159.7248263888887,26.669270833333456)"><path id="SvgjsPath1420" d="M 20.000000000000057 0Q 18.00000000000005 0 18.00000000000005 9L 18.00000000000005 50Q 18.00000000000005 59 -1.9999999999999432 59Q 18.00000000000005 59 18.00000000000005 68L 18.00000000000005 109Q 18.00000000000005 118 20.000000000000057 118" stroke="rgba(50,50,50,1)" stroke-width="1" fill="none"></path><path id="SvgjsPath1421" d="M 0 0L 20.000000000000057 0L 20.000000000000057 118L 0 118Z" stroke="none" fill="none"></path><g id="SvgjsG1422"><text id="SvgjsText1423" font-family="微软雅黑" text-anchor="end" font-size="13px" width="0" fill="#323232" font-weight="400" align="middle" lineHeight="125%" anchor="end" family="微软雅黑" size="13px" weight="400" font-style="" opacity="1" y="48.875" transform="rotate(0)"></text></g></g><g id="SvgjsG1424" transform="translate(25.002604166665193,65.66927083333331)"><path id="SvgjsPath1425" d="M 0 0L 120 0L 120 40L 0 40Z" stroke="none" fill="none"></path><g id="SvgjsG1426"><text id="SvgjsText1427" font-family="&quot;Times New Roman&quot;" text-anchor="middle" font-size="13px" width="120px" fill="#323232" font-weight="700" align="middle" lineHeight="125%" anchor="middle" family="&quot;Times New Roman&quot;" size="13px" weight="700" font-style="" opacity="1" y="9.875" transform="rotate(0)"><tspan id="SvgjsTspan1428" dy="16" x="60"><tspan id="SvgjsTspan1429" style="text-decoration:;">APPs</tspan></tspan></text></g></g><g id="SvgjsG1430"><path id="SvgjsPath1431" d="M453.8359374999992 970.3359374999968L528.3359374999998 970.3359374999968L528.3359374999998 970.3359374999968L601.5359375000004 970.3359374999968" stroke="#323232" stroke-width="1" fill="none" marker-end="url(#SvgjsMarker1432)"></path></g><g id="SvgjsG1434"><path id="SvgjsPath1435" d="M678.3359375000003 947.3359374999968L678.3359375000003 916.9192708333303L678.3359375000003 916.9192708333303L678.3359375000003 887.8026041666639" stroke="#323232" stroke-width="1" fill="none" marker-end="url(#SvgjsMarker1436)"></path></g><g id="SvgjsG1438"><path id="SvgjsPath1439" d="M678.3359375000003 840.5026041666639L678.3359375000003 810.0859374999975L678.3359375000001 810.0859374999975L678.3359375000001 780.9692708333309" stroke="#323232" stroke-width="1" fill="none" marker-end="url(#SvgjsMarker1440)"></path></g><g id="SvgjsG1442"><path id="SvgjsPath1443" d="M678.3359375000002 733.669270833331L678.3359375000002 703.2526041666647L678.3359375000005 703.2526041666647L678.3359375000005 674.1359374999984" stroke="#323232" stroke-width="1" fill="none" marker-end="url(#SvgjsMarker1444)"></path></g><g id="SvgjsG1446"><path id="SvgjsPath1447" d="M678.3359375000003 626.8359374999984L678.3359375000003 585.419270833332L678.3359375000003 585.419270833332L678.3359375000003 545.3026041666656" stroke="#323232" stroke-width="1" fill="none" marker-end="url(#SvgjsMarker1448)"></path></g><g id="SvgjsG1450"><path id="SvgjsPath1451" d="M678.3359375000003 498.0026041666656L678.3359375000003 456.0859374999992L678.3359375000003 456.0859374999992L678.3359375000003 415.4692708333328" stroke="#323232" stroke-width="1" fill="none" marker-end="url(#SvgjsMarker1452)"></path></g><g id="SvgjsG1454"><path id="SvgjsPath1455" d="M678.8170709055324 498.3665503314346L976.6038572400848 414.1590646401645" stroke="#323232" stroke-width="1" fill="none" marker-end="url(#SvgjsMarker1456)"></path></g><g id="SvgjsG1458"><path id="SvgjsPath1459" d="M602.8359375000002 391.1692708333328L455.1359374999993 391.1692708333328" stroke="#323232" stroke-width="1" fill="none" marker-end="url(#SvgjsMarker1460)"></path></g><g id="SvgjsG1462" transform="translate(159.7248263888887,796.0026041666638)"><path id="SvgjsPath1463" d="M 20 0Q 18 0 18 9L 18 58.5Q 18 67.5 -2 67.5Q 18 67.5 18 76.5L 18 126Q 18 135 20 135" stroke="rgba(50,50,50,1)" stroke-width="1" fill="none"></path><path id="SvgjsPath1464" d="M 0 0L 20 0L 20 135L 0 135Z" stroke="none" fill="none"></path><g id="SvgjsG1465"><text id="SvgjsText1466" font-family="微软雅黑" text-anchor="end" font-size="13px" width="0" fill="#323232" font-weight="400" align="middle" lineHeight="125%" anchor="end" family="微软雅黑" size="13px" weight="400" font-style="" opacity="1" y="57.375" transform="rotate(0)"></text></g></g><g id="SvgjsG1467" transform="translate(39.724826388888616,843.5026041666637)"><path id="SvgjsPath1468" d="M 0 0L 120 0L 120 40L 0 40Z" stroke="none" fill="none"></path><g id="SvgjsG1469"><text id="SvgjsText1470" font-family="&quot;Times New Roman&quot;" text-anchor="middle" font-size="13px" width="120px" fill="#323232" font-weight="700" align="middle" lineHeight="125%" anchor="middle" family="&quot;Times New Roman&quot;" size="13px" weight="700" font-style="" opacity="1" y="9.875" transform="rotate(0)"><tspan id="SvgjsTspan1471" dy="16" x="60"><tspan id="SvgjsTspan1472" style="text-decoration:;">Kernel</tspan></tspan></text></g></g><g id="SvgjsG1473" transform="translate(159.72482638888866,947.835937499997)"><path id="SvgjsPath1474" d="M 20.000000000000057 0Q 18.00000000000005 0 18.00000000000005 4.499999999999955L 18.00000000000005 17.99999999999982Q 18.00000000000005 22.499999999999773 -1.9999999999999432 22.499999999999773Q 18.00000000000005 22.499999999999773 18.00000000000005 26.999999999999726L 18.00000000000005 40.49999999999959Q 18.00000000000005 44.999999999999545 20.000000000000057 44.999999999999545" stroke="rgba(50,50,50,1)" stroke-width="1" fill="none"></path><path id="SvgjsPath1475" d="M 0 0L 20.000000000000057 0L 20.000000000000057 44.999999999999545L 0 44.999999999999545Z" stroke="none" fill="none"></path><g id="SvgjsG1476"><text id="SvgjsText1477" font-family="微软雅黑" text-anchor="end" font-size="13px" width="0" fill="#323232" font-weight="400" align="middle" lineHeight="125%" anchor="end" family="微软雅黑" size="13px" weight="400" font-style="" opacity="1" y="12.374999999999773" transform="rotate(0)"></text></g></g><g id="SvgjsG1478" transform="translate(39.7248263888887,950.335937499997)"><path id="SvgjsPath1479" d="M 0 0L 120 0L 120 40L 0 40Z" stroke="none" fill="none"></path><g id="SvgjsG1480"><text id="SvgjsText1481" font-family="&quot;Times New Roman&quot;" text-anchor="middle" font-size="13px" width="120px" fill="#323232" font-weight="700" align="middle" lineHeight="125%" anchor="middle" family="&quot;Times New Roman&quot;" size="13px" weight="700" font-style="" opacity="1" y="9.875" transform="rotate(0)"><tspan id="SvgjsTspan1482" dy="16" x="60"><tspan id="SvgjsTspan1483" style="text-decoration:;">Loader</tspan></tspan></text></g></g></svg>