<svg id="SvgjsSvg1006" width="562" height="655.5" xmlns="http://www.w3.org/2000/svg" version="1.1" xmlns:xlink="http://www.w3.org/1999/xlink" xmlns:svgjs="http://svgjs.com/svgjs"><defs id="SvgjsDefs1007"><marker id="SvgjsMarker1042" markerWidth="12" markerHeight="8" refX="9" refY="4" viewBox="0 0 12 8" orient="auto" markerUnits="userSpaceOnUse" stroke-dasharray="0,0"><path id="SvgjsPath1043" d="M0,0 L12,4 L0,8 L0,0" fill="#323232" stroke="#323232" stroke-width="1"></path></marker><marker id="SvgjsMarker1046" markerWidth="12" markerHeight="8" refX="9" refY="4" viewBox="0 0 12 8" orient="auto" markerUnits="userSpaceOnUse" stroke-dasharray="0,0"><path id="SvgjsPath1047" d="M0,0 L12,4 L0,8 L0,0" fill="#323232" stroke="#323232" stroke-width="1"></path></marker><marker id="SvgjsMarker1064" markerWidth="12" markerHeight="8" refX="9" refY="4" viewBox="0 0 12 8" orient="auto" markerUnits="userSpaceOnUse" stroke-dasharray="0,0"><path id="SvgjsPath1065" d="M0,0 L12,4 L0,8 L0,0" fill="#323232" stroke="#323232" stroke-width="1"></path></marker><marker id="SvgjsMarker1074" markerWidth="12" markerHeight="8" refX="9" refY="4" viewBox="0 0 12 8" orient="auto" markerUnits="userSpaceOnUse" stroke-dasharray="0,0"><path id="SvgjsPath1075" d="M0,0 L12,4 L0,8 L0,0" fill="#323232" stroke="#323232" stroke-width="1"></path></marker><marker id="SvgjsMarker1090" markerWidth="12" markerHeight="8" refX="9" refY="4" viewBox="0 0 12 8" orient="auto" markerUnits="userSpaceOnUse" stroke-dasharray="0,0"><path id="SvgjsPath1091" d="M0,0 L12,4 L0,8 L0,0" fill="#323232" stroke="#323232" stroke-width="1"></path></marker><marker id="SvgjsMarker1094" markerWidth="12" markerHeight="8" refX="9" refY="4" viewBox="0 0 12 8" orient="auto" markerUnits="userSpaceOnUse" stroke-dasharray="0,0"><path id="SvgjsPath1095" d="M0,0 L12,4 L0,8 L0,0" fill="#323232" stroke="#323232" stroke-width="1"></path></marker><marker id="SvgjsMarker1152" markerWidth="12" markerHeight="8" refX="9" refY="4" viewBox="0 0 12 8" orient="auto" markerUnits="userSpaceOnUse" stroke-dasharray="0,0"><path id="SvgjsPath1153" d="M0,0 L12,4 L0,8 L0,0" fill="#323232" stroke="#323232" stroke-width="1"></path></marker><marker id="SvgjsMarker1156" markerWidth="12" markerHeight="8" refX="9" refY="4" viewBox="0 0 12 8" orient="auto" markerUnits="userSpaceOnUse" stroke-dasharray="0,0"><path id="SvgjsPath1157" d="M0,0 L12,4 L0,8 L0,0" fill="#323232" stroke="#323232" stroke-width="1"></path></marker><marker id="SvgjsMarker1160" markerWidth="12" markerHeight="8" refX="9" refY="4" viewBox="0 0 12 8" orient="auto" markerUnits="userSpaceOnUse" stroke-dasharray="0,0"><path id="SvgjsPath1161" d="M0,0 L12,4 L0,8 L0,0" fill="#323232" stroke="#323232" stroke-width="1"></path></marker><marker id="SvgjsMarker1164" markerWidth="12" markerHeight="8" refX="9" refY="4" viewBox="0 0 12 8" orient="auto" markerUnits="userSpaceOnUse" stroke-dasharray="0,0"><path id="SvgjsPath1165" d="M0,0 L12,4 L0,8 L0,0" fill="#323232" stroke="#323232" stroke-width="1"></path></marker><marker id="SvgjsMarker1168" markerWidth="12" markerHeight="8" refX="9" refY="4" viewBox="0 0 12 8" orient="auto" markerUnits="userSpaceOnUse" stroke-dasharray="0,0"><path id="SvgjsPath1169" d="M0,0 L12,4 L0,8 L0,0" fill="#323232" stroke="#323232" stroke-width="1"></path></marker><marker id="SvgjsMarker1172" markerWidth="12" markerHeight="8" refX="9" refY="4" viewBox="0 0 12 8" orient="auto" markerUnits="userSpaceOnUse" stroke-dasharray="0,0"><path id="SvgjsPath1173" d="M0,0 L12,4 L0,8 L0,0" fill="#323232" stroke="#323232" stroke-width="1"></path></marker><marker id="SvgjsMarker1190" markerWidth="12" markerHeight="8" refX="9" refY="4" viewBox="0 0 12 8" orient="auto" markerUnits="userSpaceOnUse" stroke-dasharray="0,0"><path id="SvgjsPath1191" d="M0,0 L12,4 L0,8 L0,0" fill="#323232" stroke="#323232" stroke-width="1"></path></marker><marker id="SvgjsMarker1194" markerWidth="12" markerHeight="8" refX="9" refY="4" viewBox="0 0 12 8" orient="auto" markerUnits="userSpaceOnUse" stroke-dasharray="0,0"><path id="SvgjsPath1195" d="M0,0 L12,4 L0,8 L0,0" fill="#323232" stroke="#323232" stroke-width="1"></path></marker><marker id="SvgjsMarker1198" markerWidth="12" markerHeight="8" refX="9" refY="4" viewBox="0 0 12 8" orient="auto" markerUnits="userSpaceOnUse" stroke-dasharray="0,0"><path id="SvgjsPath1199" d="M0,0 L12,4 L0,8 L0,0" fill="#323232" stroke="#323232" stroke-width="1"></path></marker></defs><g id="SvgjsG1008" transform="translate(387,525)"><path id="SvgjsPath1009" d="M 0 4Q 0 0 4 0L 146 0Q 150 0 150 4L 150 71Q 150 75 146 75L 4 75Q 0 75 0 71Z" stroke="rgba(50,50,50,1)" stroke-width="1" fill-opacity="1" fill="#f5f5f5"></path><g id="SvgjsG1010"><text id="SvgjsText1011" font-family="&quot;Times New Roman&quot;" text-anchor="middle" font-size="13px" width="130px" fill="#323232" font-weight="400" align="middle" lineHeight="125%" anchor="middle" family="&quot;Times New Roman&quot;" size="13px" weight="400" font-style="" opacity="1" y="3.375" transform="rotate(0)"><tspan id="SvgjsTspan1012" dy="16" x="75"><tspan id="SvgjsTspan1013" style="text-decoration:;">User navigates</tspan></tspan><tspan id="SvgjsTspan1014" dy="16" x="75"><tspan id="SvgjsTspan1015" style="text-decoration:;">backward or</tspan></tspan><tspan id="SvgjsTspan1016" dy="16" x="75"><tspan id="SvgjsTspan1017" style="text-decoration:;">fragment is </tspan></tspan><tspan id="SvgjsTspan1018" dy="16" x="75"><tspan id="SvgjsTspan1019" style="text-decoration:;">removed/repalced</tspan></tspan></text></g></g><g id="SvgjsG1020" transform="translate(25,25)"><path id="SvgjsPath1021" d="M 15 0L 135 0C 155 0 155 45 135 45L 15 45C -5 45 -5 0 15 0Z" stroke="rgba(50,50,50,1)" stroke-width="1" fill-opacity="1" fill="#cce5ff"></path><g id="SvgjsG1022"><text id="SvgjsText1023" font-family="&quot;Times New Roman&quot;" text-anchor="middle" font-size="13px" width="130px" fill="#323232" font-weight="400" align="middle" lineHeight="125%" anchor="middle" family="&quot;Times New Roman&quot;" size="13px" weight="400" font-style="" opacity="1" y="4.375" transform="rotate(0)"><tspan id="SvgjsTspan1024" dy="16" x="75"><tspan id="SvgjsTspan1025" style="text-decoration:;">Fragment is</tspan></tspan><tspan id="SvgjsTspan1026" dy="16" x="75"><tspan id="SvgjsTspan1027" style="text-decoration:;">added</tspan></tspan></text></g></g><g id="SvgjsG1028" transform="translate(25,102)"><path id="SvgjsPath1029" d="M 0 0L 150 0L 150 45L 0 45Z" stroke="rgba(50,50,50,1)" stroke-width="1" fill-opacity="1" fill="#ffffff"></path><g id="SvgjsG1030"><text id="SvgjsText1031" font-family="&quot;Times New Roman&quot;" text-anchor="middle" font-size="13px" width="130px" fill="#323232" font-weight="400" align="middle" lineHeight="125%" anchor="middle" family="&quot;Times New Roman&quot;" size="13px" weight="400" font-style="" opacity="1" y="12.375" transform="rotate(0)"><tspan id="SvgjsTspan1032" dy="16" x="75"><tspan id="SvgjsTspan1033" style="text-decoration:;">onAttach()</tspan></tspan></text></g></g><g id="SvgjsG1034" transform="translate(25,175)"><path id="SvgjsPath1035" d="M 0 0L 150 0L 150 45L 0 45Z" stroke="rgba(50,50,50,1)" stroke-width="1" fill-opacity="1" fill="#ffffff"></path><g id="SvgjsG1036"><text id="SvgjsText1037" font-family="&quot;Times New Roman&quot;" text-anchor="middle" font-size="13px" width="130px" fill="#323232" font-weight="400" align="middle" lineHeight="125%" anchor="middle" family="&quot;Times New Roman&quot;" size="13px" weight="400" font-style="" opacity="1" y="12.375" transform="rotate(0)"><tspan id="SvgjsTspan1038" dy="16" x="75"><tspan id="SvgjsTspan1039" style="text-decoration:;">onCreate()</tspan></tspan></text></g></g><g id="SvgjsG1040"><path id="SvgjsPath1041" d="M100 70.5L100 86L100 86L100 100.19999999999999" stroke="#323232" stroke-width="1" fill="none" marker-end="url(#SvgjsMarker1042)"></path></g><g id="SvgjsG1044"><path id="SvgjsPath1045" d="M100 147.5L100 161L100 161L100 173.2" stroke="#323232" stroke-width="1" fill="none" marker-end="url(#SvgjsMarker1046)"></path></g><g id="SvgjsG1048" transform="translate(25,556)"><path id="SvgjsPath1049" d="M 15 0L 135 0C 155 0 155 45 135 45L 15 45C -5 45 -5 0 15 0Z" stroke="rgba(50,50,50,1)" stroke-width="1" fill-opacity="1" fill="#ccffe6"></path><g id="SvgjsG1050"><text id="SvgjsText1051" font-family="&quot;Times New Roman&quot;" text-anchor="middle" font-size="13px" width="130px" fill="#323232" font-weight="400" align="middle" lineHeight="125%" anchor="middle" family="&quot;Times New Roman&quot;" size="13px" weight="400" font-style="" opacity="1" y="4.375" transform="rotate(0)"><tspan id="SvgjsTspan1052" dy="16" x="75"><tspan id="SvgjsTspan1053" style="text-decoration:;">Fragment is</tspan></tspan><tspan id="SvgjsTspan1054" dy="16" x="75"><tspan id="SvgjsTspan1055" style="text-decoration:;">active</tspan></tspan></text></g></g><g id="SvgjsG1056" transform="translate(25,251)"><path id="SvgjsPath1057" d="M 0 0L 150 0L 150 45L 0 45Z" stroke="rgba(50,50,50,1)" stroke-width="1" fill-opacity="1" fill="#ffffff"></path><g id="SvgjsG1058"><text id="SvgjsText1059" font-family="&quot;Times New Roman&quot;" text-anchor="middle" font-size="13px" width="130px" fill="#323232" font-weight="400" align="middle" lineHeight="125%" anchor="middle" family="&quot;Times New Roman&quot;" size="13px" weight="400" font-style="" opacity="1" y="12.375" transform="rotate(0)"><tspan id="SvgjsTspan1060" dy="16" x="75"><tspan id="SvgjsTspan1061" style="text-decoration:;">onCreateView()</tspan></tspan></text></g></g><g id="SvgjsG1062"><path id="SvgjsPath1063" d="M100 220.5L100 235.5L100 235.5L100 249.2" stroke="#323232" stroke-width="1" fill="none" marker-end="url(#SvgjsMarker1064)"></path></g><g id="SvgjsG1066" transform="translate(25,328)"><path id="SvgjsPath1067" d="M 0 0L 150 0L 150 45L 0 45Z" stroke="rgba(50,50,50,1)" stroke-width="1" fill-opacity="1" fill="#ffffff"></path><g id="SvgjsG1068"><text id="SvgjsText1069" font-family="&quot;Times New Roman&quot;" text-anchor="middle" font-size="13px" width="130px" fill="#323232" font-weight="400" align="middle" lineHeight="125%" anchor="middle" family="&quot;Times New Roman&quot;" size="13px" weight="400" font-style="" opacity="1" y="12.375" transform="rotate(0)"><tspan id="SvgjsTspan1070" dy="16" x="75"><tspan id="SvgjsTspan1071" style="text-decoration:;">onActivityCreated()</tspan></tspan></text></g></g><g id="SvgjsG1072"><path id="SvgjsPath1073" d="M100 296.5L100 312L100 312L100 326.2" stroke="#323232" stroke-width="1" fill="none" marker-end="url(#SvgjsMarker1074)"></path></g><g id="SvgjsG1076" transform="translate(25,404)"><path id="SvgjsPath1077" d="M 0 0L 150 0L 150 45L 0 45Z" stroke="rgba(50,50,50,1)" stroke-width="1" fill-opacity="1" fill="#ffffff"></path><g id="SvgjsG1078"><text id="SvgjsText1079" font-family="&quot;Times New Roman&quot;" text-anchor="middle" font-size="13px" width="130px" fill="#323232" font-weight="400" align="middle" lineHeight="125%" anchor="middle" family="&quot;Times New Roman&quot;" size="13px" weight="400" font-style="" opacity="1" y="12.375" transform="rotate(0)"><tspan id="SvgjsTspan1080" dy="16" x="75"><tspan id="SvgjsTspan1081" style="text-decoration:;">onStart()</tspan></tspan></text></g></g><g id="SvgjsG1082" transform="translate(25,480)"><path id="SvgjsPath1083" d="M 0 0L 150 0L 150 45L 0 45Z" stroke="rgba(50,50,50,1)" stroke-width="1" fill-opacity="1" fill="#ffffff"></path><g id="SvgjsG1084"><text id="SvgjsText1085" font-family="&quot;Times New Roman&quot;" text-anchor="middle" font-size="13px" width="130px" fill="#323232" font-weight="400" align="middle" lineHeight="125%" anchor="middle" family="&quot;Times New Roman&quot;" size="13px" weight="400" font-style="" opacity="1" y="12.375" transform="rotate(0)"><tspan id="SvgjsTspan1086" dy="16" x="75"><tspan id="SvgjsTspan1087" style="text-decoration:;">onResume()</tspan></tspan></text></g></g><g id="SvgjsG1088"><path id="SvgjsPath1089" d="M100 373.5L100 388.5L100 388.5L100 402.2" stroke="#323232" stroke-width="1" fill="none" marker-end="url(#SvgjsMarker1090)"></path></g><g id="SvgjsG1092"><path id="SvgjsPath1093" d="M100 449.5L100 464.5L100 464.5L100 478.20000000000005" stroke="#323232" stroke-width="1" fill="none" marker-end="url(#SvgjsMarker1094)"></path></g><g id="SvgjsG1096" transform="translate(387,404)"><path id="SvgjsPath1097" d="M 0 0L 150 0L 150 45L 0 45Z" stroke="rgba(50,50,50,1)" stroke-width="1" fill-opacity="1" fill="#ffffff"></path><g id="SvgjsG1098"><text id="SvgjsText1099" font-family="&quot;Times New Roman&quot;" text-anchor="middle" font-size="13px" width="130px" fill="#323232" font-weight="400" align="middle" lineHeight="125%" anchor="middle" family="&quot;Times New Roman&quot;" size="13px" weight="400" font-style="" opacity="1" y="12.375" transform="rotate(0)"><tspan id="SvgjsTspan1100" dy="16" x="75"><tspan id="SvgjsTspan1101" style="text-decoration:;">onPause()</tspan></tspan></text></g></g><g id="SvgjsG1102" transform="translate(387,328)"><path id="SvgjsPath1103" d="M 0 0L 150 0L 150 45L 0 45Z" stroke="rgba(50,50,50,1)" stroke-width="1" fill-opacity="1" fill="#ffffff"></path><g id="SvgjsG1104"><text id="SvgjsText1105" font-family="&quot;Times New Roman&quot;" text-anchor="middle" font-size="13px" width="130px" fill="#323232" font-weight="400" align="middle" lineHeight="125%" anchor="middle" family="&quot;Times New Roman&quot;" size="13px" weight="400" font-style="" opacity="1" y="12.375" transform="rotate(0)"><tspan id="SvgjsTspan1106" dy="16" x="75"><tspan id="SvgjsTspan1107" style="text-decoration:;">onStop()</tspan></tspan></text></g></g><g id="SvgjsG1108" transform="translate(387,251)"><path id="SvgjsPath1109" d="M 0 0L 150 0L 150 45L 0 45Z" stroke="rgba(50,50,50,1)" stroke-width="1" fill-opacity="1" fill="#ffffff"></path><g id="SvgjsG1110"><text id="SvgjsText1111" font-family="&quot;Times New Roman&quot;" text-anchor="middle" font-size="13px" width="130px" fill="#323232" font-weight="400" align="middle" lineHeight="125%" anchor="middle" family="&quot;Times New Roman&quot;" size="13px" weight="400" font-style="" opacity="1" y="12.375" transform="rotate(0)"><tspan id="SvgjsTspan1112" dy="16" x="75"><tspan id="SvgjsTspan1113" style="text-decoration:;">onDestoryView()</tspan></tspan></text></g></g><g id="SvgjsG1114" transform="translate(387,175)"><path id="SvgjsPath1115" d="M 0 0L 150 0L 150 45L 0 45Z" stroke="rgba(50,50,50,1)" stroke-width="1" fill-opacity="1" fill="#ffffff"></path><g id="SvgjsG1116"><text id="SvgjsText1117" font-family="&quot;Times New Roman&quot;" text-anchor="middle" font-size="13px" width="130px" fill="#323232" font-weight="400" align="middle" lineHeight="125%" anchor="middle" family="&quot;Times New Roman&quot;" size="13px" weight="400" font-style="" opacity="1" y="12.375" transform="rotate(0)"><tspan id="SvgjsTspan1118" dy="16" x="75"><tspan id="SvgjsTspan1119" style="text-decoration:;">onDestory()</tspan></tspan></text></g></g><g id="SvgjsG1120" transform="translate(387,102)"><path id="SvgjsPath1121" d="M 0 0L 150 0L 150 45L 0 45Z" stroke="rgba(50,50,50,1)" stroke-width="1" fill-opacity="1" fill="#ffffff"></path><g id="SvgjsG1122"><text id="SvgjsText1123" font-family="&quot;Times New Roman&quot;" text-anchor="middle" font-size="13px" width="130px" fill="#323232" font-weight="400" align="middle" lineHeight="125%" anchor="middle" family="&quot;Times New Roman&quot;" size="13px" weight="400" font-style="" opacity="1" y="12.375" transform="rotate(0)"><tspan id="SvgjsTspan1124" dy="16" x="75"><tspan id="SvgjsTspan1125" style="text-decoration:;">onDetach()</tspan></tspan></text></g></g><g id="SvgjsG1126" transform="translate(387,25)"><path id="SvgjsPath1127" d="M 15 0L 135 0C 155 0 155 45 135 45L 15 45C -5 45 -5 0 15 0Z" stroke="rgba(50,50,50,1)" stroke-width="1" fill-opacity="1" fill="#ffe6cc"></path><g id="SvgjsG1128"><text id="SvgjsText1129" font-family="&quot;Times New Roman&quot;" text-anchor="middle" font-size="13px" width="130px" fill="#323232" font-weight="400" align="middle" lineHeight="125%" anchor="middle" family="&quot;Times New Roman&quot;" size="13px" weight="400" font-style="" opacity="1" y="4.375" transform="rotate(0)"><tspan id="SvgjsTspan1130" dy="16" x="75"><tspan id="SvgjsTspan1131" style="text-decoration:;">Fragment is</tspan></tspan><tspan id="SvgjsTspan1132" dy="16" x="75"><tspan id="SvgjsTspan1133" style="text-decoration:;">destoryed</tspan></tspan></text></g></g><g id="SvgjsG1134" transform="translate(206,525)"><path id="SvgjsPath1135" d="M 0 4Q 0 0 4 0L 146 0Q 150 0 150 4L 150 71Q 150 75 146 75L 4 75Q 0 75 0 71Z" stroke="rgba(50,50,50,1)" stroke-width="1" fill-opacity="1" fill="#f5f5f5"></path><g id="SvgjsG1136"><text id="SvgjsText1137" font-family="&quot;Times New Roman&quot;" text-anchor="middle" font-size="13px" width="130px" fill="#323232" font-weight="400" align="middle" lineHeight="125%" anchor="middle" family="&quot;Times New Roman&quot;" size="13px" weight="400" font-style="" opacity="1" y="3.375" transform="rotate(0)"><tspan id="SvgjsTspan1138" dy="16" x="75"><tspan id="SvgjsTspan1139" style="text-decoration:;">The fragment is</tspan></tspan><tspan id="SvgjsTspan1140" dy="16" x="75"><tspan id="SvgjsTspan1141" style="text-decoration:;">added to the back</tspan></tspan><tspan id="SvgjsTspan1142" dy="16" x="75"><tspan id="SvgjsTspan1143" style="text-decoration:;">stack, then </tspan></tspan><tspan id="SvgjsTspan1144" dy="16" x="75"><tspan id="SvgjsTspan1145" style="text-decoration:;">removed/replaced</tspan></tspan></text></g></g><g id="SvgjsG1146"><path id="SvgjsPath1147" d="M100 611.5L100 630L281 630L281 600.5" stroke="#323232" stroke-width="1" fill="none"></path></g><g id="SvgjsG1148"><path id="SvgjsPath1149" d="M100 600.5L100 630L462 630L462 600.5" stroke="#323232" stroke-width="1" fill="none"></path></g><g id="SvgjsG1150"><path id="SvgjsPath1151" d="M462 524.5L462 487L462 487L462 450.8" stroke="#323232" stroke-width="1" fill="none" marker-end="url(#SvgjsMarker1152)"></path></g><g id="SvgjsG1154"><path id="SvgjsPath1155" d="M462 403.5C 462 391.6 462 385.4 462 374.8" stroke="#323232" stroke-width="1" fill="none" marker-end="url(#SvgjsMarker1156)"></path></g><g id="SvgjsG1158"><path id="SvgjsPath1159" d="M462 327.5C 462 315.2 462 308.8 462 297.8" stroke="#323232" stroke-width="1" fill="none" marker-end="url(#SvgjsMarker1160)"></path></g><g id="SvgjsG1162"><path id="SvgjsPath1163" d="M462 250.5C 462 238.60000000000002 462 232.39999999999998 462 221.8" stroke="#323232" stroke-width="1" fill="none" marker-end="url(#SvgjsMarker1164)"></path></g><g id="SvgjsG1166"><path id="SvgjsPath1167" d="M462 174.5C 462 163.8 462 158.2 462 148.8" stroke="#323232" stroke-width="1" fill="none" marker-end="url(#SvgjsMarker1168)"></path></g><g id="SvgjsG1170"><path id="SvgjsPath1171" d="M462 101.5C 462 89.19999999999999 462 82.8 462 71.8" stroke="#323232" stroke-width="1" fill="none" marker-end="url(#SvgjsMarker1172)"></path></g><g id="SvgjsG1174" transform="translate(206,236)"><path id="SvgjsPath1175" d="M 0 4Q 0 0 4 0L 146 0Q 150 0 150 4L 150 71Q 150 75 146 75L 4 75Q 0 75 0 71Z" stroke="rgba(50,50,50,1)" stroke-width="1" fill-opacity="1" fill="#f5f5f5"></path><g id="SvgjsG1176"><text id="SvgjsText1177" font-family="&quot;Times New Roman&quot;" text-anchor="middle" font-size="13px" width="130px" fill="#323232" font-weight="400" align="middle" lineHeight="125%" anchor="middle" family="&quot;Times New Roman&quot;" size="13px" weight="400" font-style="" opacity="1" y="3.375" transform="rotate(0)"><tspan id="SvgjsTspan1178" dy="16" x="75"><tspan id="SvgjsTspan1179" style="text-decoration:;">The fragment</tspan></tspan><tspan id="SvgjsTspan1180" dy="16" x="75"><tspan id="SvgjsTspan1181" style="text-decoration:;">returns to</tspan></tspan><tspan id="SvgjsTspan1182" dy="16" x="75"><tspan id="SvgjsTspan1183" style="text-decoration:;">the layout from</tspan></tspan><tspan id="SvgjsTspan1184" dy="16" x="75"><tspan id="SvgjsTspan1185" style="text-decoration:;">the back stack</tspan></tspan></text></g></g><g id="SvgjsG1186"><path id="SvgjsPath1187" d="M386.5 273.5L371.5 273.5L371.5 273.5L356.5 273.5" stroke="#323232" stroke-width="1" fill="none"></path></g><g id="SvgjsG1188"><path id="SvgjsPath1189" d="M205.5 273.5L190.5 273.5L190.5 273.5L176.8 273.5" stroke="#323232" stroke-width="1" fill="none" marker-end="url(#SvgjsMarker1190)"></path></g><g id="SvgjsG1192"><path id="SvgjsPath1193" d="M281 524.5L281 426.5L385.20000000000005 426.5" stroke="#323232" stroke-width="1" fill="none" marker-end="url(#SvgjsMarker1194)"></path></g><g id="SvgjsG1196"><path id="SvgjsPath1197" d="M100 525.5L100 540.5L100 540.5L100 554.2" stroke="#323232" stroke-width="1" fill="none" marker-end="url(#SvgjsMarker1198)"></path></g></svg>