<svg id="SvgjsSvg1006" width="1208" height="934" xmlns="http://www.w3.org/2000/svg" version="1.1" xmlns:xlink="http://www.w3.org/1999/xlink" xmlns:svgjs="http://svgjs.com/svgjs"><defs id="SvgjsDefs1007"><marker id="SvgjsMarker1028" markerWidth="12" markerHeight="8" refX="9" refY="4" viewBox="0 0 12 8" orient="auto" markerUnits="userSpaceOnUse" stroke-dasharray="0,0"><path id="SvgjsPath1029" d="M0,0 L12,4 L0,8 L0,0" fill="#323232" stroke="#323232" stroke-width="1"></path></marker><marker id="SvgjsMarker1032" markerWidth="12" markerHeight="8" refX="9" refY="4" viewBox="0 0 12 8" orient="auto" markerUnits="userSpaceOnUse" stroke-dasharray="0,0"><path id="SvgjsPath1033" d="M0,0 L12,4 L0,8 L0,0" fill="#323232" stroke="#323232" stroke-width="1"></path></marker><marker id="SvgjsMarker1042" markerWidth="12" markerHeight="8" refX="9" refY="4" viewBox="0 0 12 8" orient="auto" markerUnits="userSpaceOnUse" stroke-dasharray="0,0"><path id="SvgjsPath1043" d="M0,0 L12,4 L0,8 L0,0" fill="#323232" stroke="#323232" stroke-width="1"></path></marker><marker id="SvgjsMarker1054" markerWidth="12" markerHeight="8" refX="9" refY="4" viewBox="0 0 12 8" orient="auto" markerUnits="userSpaceOnUse" stroke-dasharray="0,0"><path id="SvgjsPath1055" d="M0,0 L12,4 L0,8 L0,0" fill="#323232" stroke="#323232" stroke-width="1"></path></marker><marker id="SvgjsMarker1076" markerWidth="12" markerHeight="8" refX="9" refY="4" viewBox="0 0 12 8" orient="auto" markerUnits="userSpaceOnUse" stroke-dasharray="0,0"><path id="SvgjsPath1077" d="M0,0 L12,4 L0,8 L0,0" fill="#323232" stroke="#323232" stroke-width="1"></path></marker><marker id="SvgjsMarker1110" markerWidth="12" markerHeight="8" refX="9" refY="4" viewBox="0 0 12 8" orient="auto" markerUnits="userSpaceOnUse" stroke-dasharray="0,0"><path id="SvgjsPath1111" d="M0,0 L12,4 L0,8 L0,0" fill="#323232" stroke="#323232" stroke-width="1"></path></marker><marker id="SvgjsMarker1114" markerWidth="12" markerHeight="8" refX="9" refY="4" viewBox="0 0 12 8" orient="auto" markerUnits="userSpaceOnUse" stroke-dasharray="0,0"><path id="SvgjsPath1115" d="M0,0 L12,4 L0,8 L0,0" fill="#323232" stroke="#323232" stroke-width="1"></path></marker><marker id="SvgjsMarker1118" markerWidth="12" markerHeight="8" refX="9" refY="4" viewBox="0 0 12 8" orient="auto" markerUnits="userSpaceOnUse" stroke-dasharray="0,0"><path id="SvgjsPath1119" d="M0,0 L12,4 L0,8 L0,0" fill="#323232" stroke="#323232" stroke-width="1"></path></marker><marker id="SvgjsMarker1150" markerWidth="12" markerHeight="8" refX="9" refY="4" viewBox="0 0 12 8" orient="auto" markerUnits="userSpaceOnUse" stroke-dasharray="0,0"><path id="SvgjsPath1151" d="M0,0 L12,4 L0,8 L0,0" fill="#323232" stroke="#323232" stroke-width="1"></path></marker><marker id="SvgjsMarker1156" markerWidth="12" markerHeight="8" refX="9" refY="4" viewBox="0 0 12 8" orient="auto" markerUnits="userSpaceOnUse" stroke-dasharray="0,0"><path id="SvgjsPath1157" d="M0,0 L12,4 L0,8 L0,0" fill="#323232" stroke="#323232" stroke-width="1"></path></marker><marker id="SvgjsMarker1174" markerWidth="12" markerHeight="8" refX="9" refY="4" viewBox="0 0 12 8" orient="auto" markerUnits="userSpaceOnUse" stroke-dasharray="0,0"><path id="SvgjsPath1175" d="M0,0 L12,4 L0,8 L0,0" fill="#323232" stroke="#323232" stroke-width="1"></path></marker><marker id="SvgjsMarker1184" markerWidth="12" markerHeight="8" refX="9" refY="4" viewBox="0 0 12 8" orient="auto" markerUnits="userSpaceOnUse" stroke-dasharray="0,0"><path id="SvgjsPath1185" d="M0,0 L12,4 L0,8 L0,0" fill="#323232" stroke="#323232" stroke-width="1"></path></marker><marker id="SvgjsMarker1198" markerWidth="12" markerHeight="8" refX="9" refY="4" viewBox="0 0 12 8" orient="auto" markerUnits="userSpaceOnUse" stroke-dasharray="0,0"><path id="SvgjsPath1199" d="M0,0 L12,4 L0,8 L0,0" fill="#323232" stroke="#323232" stroke-width="1"></path></marker><marker id="SvgjsMarker1202" markerWidth="12" markerHeight="8" refX="9" refY="4" viewBox="0 0 12 8" orient="auto" markerUnits="userSpaceOnUse" stroke-dasharray="0,0"><path id="SvgjsPath1203" d="M0,0 L12,4 L0,8 L0,0" fill="#323232" stroke="#323232" stroke-width="1"></path></marker><marker id="SvgjsMarker1238" markerWidth="12" markerHeight="8" refX="9" refY="4" viewBox="0 0 12 8" orient="auto" markerUnits="userSpaceOnUse" stroke-dasharray="0,0"><path id="SvgjsPath1239" d="M0,0 L12,4 L0,8 L0,0" fill="#323232" stroke="#323232" stroke-width="1"></path></marker><marker id="SvgjsMarker1242" markerWidth="12" markerHeight="8" refX="9" refY="4" viewBox="0 0 12 8" orient="auto" markerUnits="userSpaceOnUse" stroke-dasharray="0,0"><path id="SvgjsPath1243" d="M0,0 L12,4 L0,8 L0,0" fill="#323232" stroke="#323232" stroke-width="1"></path></marker><marker id="SvgjsMarker1260" markerWidth="12" markerHeight="8" refX="9" refY="4" viewBox="0 0 12 8" orient="auto" markerUnits="userSpaceOnUse" stroke-dasharray="0,0"><path id="SvgjsPath1261" d="M0,0 L12,4 L0,8 L0,0" fill="#323232" stroke="#323232" stroke-width="1"></path></marker><marker id="SvgjsMarker1270" markerWidth="12" markerHeight="8" refX="9" refY="4" viewBox="0 0 12 8" orient="auto" markerUnits="userSpaceOnUse" stroke-dasharray="0,0"><path id="SvgjsPath1271" d="M0,0 L12,4 L0,8 L0,0" fill="#323232" stroke="#323232" stroke-width="1"></path></marker><marker id="SvgjsMarker1286" markerWidth="12" markerHeight="8" refX="9" refY="4" viewBox="0 0 12 8" orient="auto" markerUnits="userSpaceOnUse" stroke-dasharray="0,0"><path id="SvgjsPath1287" d="M0,0 L12,4 L0,8 L0,0" fill="#323232" stroke="#323232" stroke-width="1"></path></marker><marker id="SvgjsMarker1290" markerWidth="12" markerHeight="8" refX="9" refY="4" viewBox="0 0 12 8" orient="auto" markerUnits="userSpaceOnUse" stroke-dasharray="0,0"><path id="SvgjsPath1291" d="M0,0 L12,4 L0,8 L0,0" fill="#323232" stroke="#323232" stroke-width="1"></path></marker><marker id="SvgjsMarker1344" markerWidth="12" markerHeight="8" refX="9" refY="4" viewBox="0 0 12 8" orient="auto" markerUnits="userSpaceOnUse" stroke-dasharray="0,0"><path id="SvgjsPath1345" d="M0,0 L12,4 L0,8 L0,0" fill="#323232" stroke="#323232" stroke-width="1"></path></marker><marker id="SvgjsMarker1352" markerWidth="12" markerHeight="8" refX="9" refY="4" viewBox="0 0 12 8" orient="auto" markerUnits="userSpaceOnUse" stroke-dasharray="0,0"><path id="SvgjsPath1353" d="M0,0 L12,4 L0,8 L0,0" fill="#323232" stroke="#323232" stroke-width="1"></path></marker><marker id="SvgjsMarker1356" markerWidth="12" markerHeight="8" refX="9" refY="4" viewBox="0 0 12 8" orient="auto" markerUnits="userSpaceOnUse" stroke-dasharray="0,0"><path id="SvgjsPath1357" d="M0,0 L12,4 L0,8 L0,0" fill="#323232" stroke="#323232" stroke-width="1"></path></marker><marker id="SvgjsMarker1360" markerWidth="12" markerHeight="8" refX="9" refY="4" viewBox="0 0 12 8" orient="auto" markerUnits="userSpaceOnUse" stroke-dasharray="0,0"><path id="SvgjsPath1361" d="M0,0 L12,4 L0,8 L0,0" fill="#323232" stroke="#323232" stroke-width="1"></path></marker><marker id="SvgjsMarker1364" markerWidth="12" markerHeight="8" refX="9" refY="4" viewBox="0 0 12 8" orient="auto" markerUnits="userSpaceOnUse" stroke-dasharray="0,0"><path id="SvgjsPath1365" d="M0,0 L12,4 L0,8 L0,0" fill="#323232" stroke="#323232" stroke-width="1"></path></marker><marker id="SvgjsMarker1368" markerWidth="12" markerHeight="8" refX="9" refY="4" viewBox="0 0 12 8" orient="auto" markerUnits="userSpaceOnUse" stroke-dasharray="0,0"><path id="SvgjsPath1369" d="M0,0 L12,4 L0,8 L0,0" fill="#323232" stroke="#323232" stroke-width="1"></path></marker><marker id="SvgjsMarker1372" markerWidth="12" markerHeight="8" refX="9" refY="4" viewBox="0 0 12 8" orient="auto" markerUnits="userSpaceOnUse" stroke-dasharray="0,0"><path id="SvgjsPath1373" d="M0,0 L12,4 L0,8 L0,0" fill="#323232" stroke="#323232" stroke-width="1"></path></marker><marker id="SvgjsMarker1390" markerWidth="12" markerHeight="8" refX="9" refY="4" viewBox="0 0 12 8" orient="auto" markerUnits="userSpaceOnUse" stroke-dasharray="0,0"><path id="SvgjsPath1391" d="M0,0 L12,4 L0,8 L0,0" fill="#323232" stroke="#323232" stroke-width="1"></path></marker><marker id="SvgjsMarker1394" markerWidth="12" markerHeight="8" refX="9" refY="4" viewBox="0 0 12 8" orient="auto" markerUnits="userSpaceOnUse" stroke-dasharray="0,0"><path id="SvgjsPath1395" d="M0,0 L12,4 L0,8 L0,0" fill="#323232" stroke="#323232" stroke-width="1"></path></marker><marker id="SvgjsMarker1409" markerWidth="12" markerHeight="8" refX="9" refY="4" viewBox="0 0 12 8" orient="auto" markerUnits="userSpaceOnUse" stroke-dasharray="0,0"><path id="SvgjsPath1410" d="M0,0 L12,4 L0,8 L0,0" fill="#323232" stroke="#323232" stroke-width="1"></path></marker><marker id="SvgjsMarker1419" markerWidth="12" markerHeight="8" refX="9" refY="4" viewBox="0 0 12 8" orient="auto" markerUnits="userSpaceOnUse" stroke-dasharray="0,0"><path id="SvgjsPath1420" d="M0,0 L12,4 L0,8 L0,0" fill="#323232" stroke="#323232" stroke-width="1"></path></marker><marker id="SvgjsMarker1429" markerWidth="12" markerHeight="8" refX="9" refY="4" viewBox="0 0 12 8" orient="auto" markerUnits="userSpaceOnUse" stroke-dasharray="0,0"><path id="SvgjsPath1430" d="M0,0 L12,4 L0,8 L0,0" fill="#323232" stroke="#323232" stroke-width="1"></path></marker></defs><g id="SvgjsG1008" transform="translate(226,79)"><path id="SvgjsPath1009" d="M 15 0L 105 0C 125 0 125 45 105 45L 15 45C -5 45 -5 0 15 0Z" stroke="rgba(50,50,50,1)" stroke-width="1" fill-opacity="1" fill="#cce5ff"></path><g id="SvgjsG1010"><text id="SvgjsText1011" font-family="&quot;Times New Roman&quot;" text-anchor="middle" font-size="13px" width="100px" fill="#323232" font-weight="400" align="middle" lineHeight="125%" anchor="middle" family="&quot;Times New Roman&quot;" size="13px" weight="400" font-style="" opacity="1" y="12.375" transform="rotate(0)"><tspan id="SvgjsTspan1012" dy="16" x="60"><tspan id="SvgjsTspan1013" style="text-decoration:;">Activity Starts</tspan></tspan></text></g></g><g id="SvgjsG1014" transform="translate(211,157)"><path id="SvgjsPath1015" d="M 0 0L 150 0L 150 45L 0 45Z" stroke="rgba(50,50,50,1)" stroke-width="1" fill-opacity="1" fill="#ffffff"></path><g id="SvgjsG1016"><text id="SvgjsText1017" font-family="&quot;Times New Roman&quot;" text-anchor="middle" font-size="13px" width="130px" fill="#323232" font-weight="400" align="middle" lineHeight="125%" anchor="middle" family="&quot;Times New Roman&quot;" size="13px" weight="400" font-style="" opacity="1" y="12.375" transform="rotate(0)"><tspan id="SvgjsTspan1018" dy="16" x="75"><tspan id="SvgjsTspan1019" style="text-decoration:;">onCreate()</tspan></tspan></text></g></g><g id="SvgjsG1020" transform="translate(211,231)"><path id="SvgjsPath1021" d="M 0 0L 150 0L 150 45L 0 45Z" stroke="rgba(50,50,50,1)" stroke-width="1" fill-opacity="1" fill="#ffffff"></path><g id="SvgjsG1022"><text id="SvgjsText1023" font-family="&quot;Times New Roman&quot;" text-anchor="middle" font-size="13px" width="130px" fill="#323232" font-weight="400" align="middle" lineHeight="125%" anchor="middle" family="&quot;Times New Roman&quot;" size="13px" weight="400" font-style="" opacity="1" y="12.375" transform="rotate(0)"><tspan id="SvgjsTspan1024" dy="16" x="75"><tspan id="SvgjsTspan1025" style="text-decoration:;">onStart()</tspan></tspan></text></g></g><g id="SvgjsG1026"><path id="SvgjsPath1027" d="M286 124.5L286 140.5L286 140.5L286 155.2" stroke="#323232" stroke-width="1" fill="none" marker-end="url(#SvgjsMarker1028)"></path></g><g id="SvgjsG1030"><path id="SvgjsPath1031" d="M286 202.5L286 216.5L286 216.5L286 229.2" stroke="#323232" stroke-width="1" fill="none" marker-end="url(#SvgjsMarker1032)"></path></g><g id="SvgjsG1034" transform="translate(211,305)"><path id="SvgjsPath1035" d="M 0 0L 150 0L 150 45L 0 45Z" stroke="rgba(50,50,50,1)" stroke-width="1" fill-opacity="1" fill="#ffffff"></path><g id="SvgjsG1036"><text id="SvgjsText1037" font-family="&quot;Times New Roman&quot;" text-anchor="middle" font-size="13px" width="130px" fill="#323232" font-weight="400" align="middle" lineHeight="125%" anchor="middle" family="&quot;Times New Roman&quot;" size="13px" weight="400" font-style="" opacity="1" y="12.375" transform="rotate(0)"><tspan id="SvgjsTspan1038" dy="16" x="75"><tspan id="SvgjsTspan1039" style="text-decoration:;">onResume()</tspan></tspan></text></g></g><g id="SvgjsG1040"><path id="SvgjsPath1041" d="M286 276.5L286 290.5L286 290.5L286 303.2" stroke="#323232" stroke-width="1" fill="none" marker-end="url(#SvgjsMarker1042)"></path></g><g id="SvgjsG1044" transform="translate(226,382)"><path id="SvgjsPath1045" d="M 15 0L 105 0C 125 0 125 45 105 45L 15 45C -5 45 -5 0 15 0Z" stroke="rgba(50,50,50,1)" stroke-width="1" fill-opacity="1" fill="#ccffe6"></path><g id="SvgjsG1046"><text id="SvgjsText1047" font-family="&quot;Times New Roman&quot;" text-anchor="middle" font-size="13px" width="100px" fill="#323232" font-weight="400" align="middle" lineHeight="125%" anchor="middle" family="&quot;Times New Roman&quot;" size="13px" weight="400" font-style="" opacity="1" y="4.375" transform="rotate(0)"><tspan id="SvgjsTspan1048" dy="16" x="60"><tspan id="SvgjsTspan1049" style="text-decoration:;">Activity is</tspan></tspan><tspan id="SvgjsTspan1050" dy="16" x="60"><tspan id="SvgjsTspan1051" style="text-decoration:;">running</tspan></tspan></text></g></g><g id="SvgjsG1052"><path id="SvgjsPath1053" d="M286 350.5L286 366L286 366L286 380.2" stroke="#323232" stroke-width="1" fill="none" marker-end="url(#SvgjsMarker1054)"></path></g><g id="SvgjsG1056" transform="translate(211,546)"><path id="SvgjsPath1057" d="M 0 0L 150 0L 150 45L 0 45Z" stroke="rgba(50,50,50,1)" stroke-width="1" fill-opacity="1" fill="#ffffff"></path><g id="SvgjsG1058"><text id="SvgjsText1059" font-family="&quot;Times New Roman&quot;" text-anchor="middle" font-size="13px" width="130px" fill="#323232" font-weight="400" align="middle" lineHeight="125%" anchor="middle" family="&quot;Times New Roman&quot;" size="13px" weight="400" font-style="" opacity="1" y="12.375" transform="rotate(0)"><tspan id="SvgjsTspan1060" dy="16" x="75"><tspan id="SvgjsTspan1061" style="text-decoration:;">onPause()</tspan></tspan></text></g></g><g id="SvgjsG1062" transform="translate(211,458)"><path id="SvgjsPath1063" d="M 0 4Q 0 0 4 0L 146 0Q 150 0 150 4L 150 56Q 150 60 146 60L 4 60Q 0 60 0 56Z" stroke="rgba(50,50,50,1)" stroke-width="1" fill-opacity="1" fill="#e5e5e5"></path><g id="SvgjsG1064"><text id="SvgjsText1065" font-family="&quot;Times New Roman&quot;" text-anchor="middle" font-size="13px" width="130px" fill="#323232" font-weight="400" align="middle" lineHeight="125%" anchor="middle" family="&quot;Times New Roman&quot;" size="13px" weight="400" font-style="" opacity="1" y="3.875" transform="rotate(0)"><tspan id="SvgjsTspan1066" dy="16" x="75"><tspan id="SvgjsTspan1067" style="text-decoration:;">Another activity</tspan></tspan><tspan id="SvgjsTspan1068" dy="16" x="75"><tspan id="SvgjsTspan1069" style="text-decoration:;font-size: inherit;">comes in front of</tspan></tspan><tspan id="SvgjsTspan1070" dy="16" x="75"><tspan id="SvgjsTspan1071" style="text-decoration:;font-size: inherit;">the activity</tspan></tspan></text></g></g><g id="SvgjsG1072"><path id="SvgjsPath1073" d="M286 427.5L286 442.5L286 442.5L286 457.5" stroke="#323232" stroke-width="1" fill="none"></path></g><g id="SvgjsG1074"><path id="SvgjsPath1075" d="M286 518.5L286 532L286 532L286 544.2" stroke="#323232" stroke-width="1" fill="none" marker-end="url(#SvgjsMarker1076)"></path></g><g id="SvgjsG1078" transform="translate(211,622)"><path id="SvgjsPath1079" d="M 0 4Q 0 0 4 0L 146 0Q 150 0 150 4L 150 56Q 150 60 146 60L 4 60Q 0 60 0 56Z" stroke="rgba(50,50,50,1)" stroke-width="1" fill-opacity="1" fill="#e5e5e5"></path><g id="SvgjsG1080"><text id="SvgjsText1081" font-family="&quot;Times New Roman&quot;" text-anchor="middle" font-size="13px" width="130px" fill="#323232" font-weight="400" align="middle" lineHeight="125%" anchor="middle" family="&quot;Times New Roman&quot;" size="13px" weight="400" font-style="" opacity="1" y="11.875" transform="rotate(0)"><tspan id="SvgjsTspan1082" dy="16" x="75"><tspan id="SvgjsTspan1083" style="text-decoration:;">The activity is</tspan></tspan><tspan id="SvgjsTspan1084" dy="16" x="75"><tspan id="SvgjsTspan1085" style="text-decoration:;">no longer visible</tspan></tspan></text></g></g><g id="SvgjsG1086"><path id="SvgjsPath1087" d="M286 591.5L286 606.5L286 606.5L286 621.5" stroke="#323232" stroke-width="1" fill="none"></path></g><g id="SvgjsG1088" transform="translate(211,713)"><path id="SvgjsPath1089" d="M 0 0L 150 0L 150 45L 0 45Z" stroke="rgba(50,50,50,1)" stroke-width="1" fill-opacity="1" fill="#ffffff"></path><g id="SvgjsG1090"><text id="SvgjsText1091" font-family="&quot;Times New Roman&quot;" text-anchor="middle" font-size="13px" width="130px" fill="#323232" font-weight="400" align="middle" lineHeight="125%" anchor="middle" family="&quot;Times New Roman&quot;" size="13px" weight="400" font-style="" opacity="1" y="12.375" transform="rotate(0)"><tspan id="SvgjsTspan1092" dy="16" x="75"><tspan id="SvgjsTspan1093" style="text-decoration:;">onStop()</tspan></tspan></text></g></g><g id="SvgjsG1094" transform="translate(211,787)"><path id="SvgjsPath1095" d="M 0 0L 150 0L 150 45L 0 45Z" stroke="rgba(50,50,50,1)" stroke-width="1" fill-opacity="1" fill="#ffffff"></path><g id="SvgjsG1096"><text id="SvgjsText1097" font-family="&quot;Times New Roman&quot;" text-anchor="middle" font-size="13px" width="130px" fill="#323232" font-weight="400" align="middle" lineHeight="125%" anchor="middle" family="&quot;Times New Roman&quot;" size="13px" weight="400" font-style="" opacity="1" y="12.375" transform="rotate(0)"><tspan id="SvgjsTspan1098" dy="16" x="75"><tspan id="SvgjsTspan1099" style="text-decoration:;">onDestory()</tspan></tspan></text></g></g><g id="SvgjsG1100" transform="translate(226,864)"><path id="SvgjsPath1101" d="M 15 0L 105 0C 125 0 125 45 105 45L 15 45C -5 45 -5 0 15 0Z" stroke="rgba(50,50,50,1)" stroke-width="1" fill-opacity="1" fill="#ffe6cc"></path><g id="SvgjsG1102"><text id="SvgjsText1103" font-family="&quot;Times New Roman&quot;" text-anchor="middle" font-size="13px" width="100px" fill="#323232" font-weight="400" align="middle" lineHeight="125%" anchor="middle" family="&quot;Times New Roman&quot;" size="13px" weight="400" font-style="" opacity="1" y="4.375" transform="rotate(0)"><tspan id="SvgjsTspan1104" dy="16" x="60"><tspan id="SvgjsTspan1105" style="text-decoration:;">Activity is</tspan></tspan><tspan id="SvgjsTspan1106" dy="16" x="60"><tspan id="SvgjsTspan1107" style="text-decoration:;">shut down</tspan></tspan></text></g></g><g id="SvgjsG1108"><path id="SvgjsPath1109" d="M286 682.5L286 697.5L286 697.5L286 711.2" stroke="#323232" stroke-width="1" fill="none" marker-end="url(#SvgjsMarker1110)"></path></g><g id="SvgjsG1112"><path id="SvgjsPath1113" d="M286 758.5L286 772.5L286 772.5L286 785.2" stroke="#323232" stroke-width="1" fill="none" marker-end="url(#SvgjsMarker1114)"></path></g><g id="SvgjsG1116"><path id="SvgjsPath1117" d="M286 832.5L286 848L286 848L286 862.2" stroke="#323232" stroke-width="1" fill="none" marker-end="url(#SvgjsMarker1118)"></path></g><g id="SvgjsG1120" transform="translate(40,382)"><path id="SvgjsPath1121" d="M 15 0L 105 0C 125 0 125 45 105 45L 15 45C -5 45 -5 0 15 0Z" stroke="rgba(50,50,50,1)" stroke-width="1" fill-opacity="1" fill="#ffe6cc"></path><g id="SvgjsG1122"><text id="SvgjsText1123" font-family="&quot;Times New Roman&quot;" text-anchor="middle" font-size="13px" width="100px" fill="#323232" font-weight="400" align="middle" lineHeight="125%" anchor="middle" family="&quot;Times New Roman&quot;" size="13px" weight="400" font-style="" opacity="1" y="4.375" transform="rotate(0)"><tspan id="SvgjsTspan1124" dy="16" x="60"><tspan id="SvgjsTspan1125" style="text-decoration:;">Process is</tspan></tspan><tspan id="SvgjsTspan1126" dy="16" x="60"><tspan id="SvgjsTspan1127" style="text-decoration:;">killed</tspan></tspan></text></g></g><g id="SvgjsG1128" transform="translate(25,297.5)"><path id="SvgjsPath1129" d="M 0 4Q 0 0 4 0L 146 0Q 150 0 150 4L 150 56Q 150 60 146 60L 4 60Q 0 60 0 56Z" stroke="rgba(50,50,50,1)" stroke-width="1" fill-opacity="1" fill="#e5e5e5"></path><g id="SvgjsG1130"><text id="SvgjsText1131" font-family="&quot;Times New Roman&quot;" text-anchor="middle" font-size="13px" width="130px" fill="#323232" font-weight="400" align="middle" lineHeight="125%" anchor="middle" family="&quot;Times New Roman&quot;" size="13px" weight="400" font-style="" opacity="1" y="3.875" transform="rotate(0)"><tspan id="SvgjsTspan1132" dy="16" x="75"><tspan id="SvgjsTspan1133" style="text-decoration:;">User navigated</tspan></tspan><tspan id="SvgjsTspan1134" dy="16" x="75"><tspan id="SvgjsTspan1135" style="text-decoration:;">back to</tspan></tspan><tspan id="SvgjsTspan1136" dy="16" x="75"><tspan id="SvgjsTspan1137" style="text-decoration:;">the Activity</tspan></tspan></text></g></g><g id="SvgjsG1138" transform="translate(25,538.5)"><path id="SvgjsPath1139" d="M 0 4Q 0 0 4 0L 146 0Q 150 0 150 4L 150 56Q 150 60 146 60L 4 60Q 0 60 0 56Z" stroke="rgba(50,50,50,1)" stroke-width="1" fill-opacity="1" fill="#e5e5e5"></path><g id="SvgjsG1140"><text id="SvgjsText1141" font-family="&quot;Times New Roman&quot;" text-anchor="middle" font-size="13px" width="130px" fill="#323232" font-weight="400" align="middle" lineHeight="125%" anchor="middle" family="&quot;Times New Roman&quot;" size="13px" weight="400" font-style="" opacity="1" y="11.875" transform="rotate(0)"><tspan id="SvgjsTspan1142" dy="16" x="75"><tspan id="SvgjsTspan1143" style="text-decoration:;">Other applications</tspan></tspan><tspan id="SvgjsTspan1144" dy="16" x="75"><tspan id="SvgjsTspan1145" style="text-decoration:;">need memory</tspan></tspan></text></g></g><g id="SvgjsG1146"><path id="SvgjsPath1147" d="M210.5 568.5L193 568.5L193 568.5L175.5 568.5" stroke="#323232" stroke-width="1" fill="none"></path></g><g id="SvgjsG1148"><path id="SvgjsPath1149" d="M100 538L100 482.75L100 482.75L100 428.8" stroke="#323232" stroke-width="1" fill="none" marker-end="url(#SvgjsMarker1150)"></path></g><g id="SvgjsG1152"><path id="SvgjsPath1153" d="M100 381.5L100 369.75L100 369.75L100 358" stroke="#323232" stroke-width="1" fill="none"></path></g><g id="SvgjsG1154"><path id="SvgjsPath1155" d="M100 297L100 179.5L209.2 179.5" stroke="#323232" stroke-width="1" fill="none" marker-end="url(#SvgjsMarker1156)"></path></g><g id="SvgjsG1158"><path id="SvgjsPath1159" d="M210.5 735.5L100 735.5L100 599" stroke="#323232" stroke-width="1" fill="none"></path></g><g id="SvgjsG1160" transform="translate(394,458)"><path id="SvgjsPath1161" d="M 0 4Q 0 0 4 0L 146 0Q 150 0 150 4L 150 56Q 150 60 146 60L 4 60Q 0 60 0 56Z" stroke="rgba(50,50,50,1)" stroke-width="1" fill-opacity="1" fill="#e5e5e5"></path><g id="SvgjsG1162"><text id="SvgjsText1163" font-family="&quot;Times New Roman&quot;" text-anchor="middle" font-size="13px" width="130px" fill="#323232" font-weight="400" align="middle" lineHeight="125%" anchor="middle" family="&quot;Times New Roman&quot;" size="13px" weight="400" font-style="" opacity="1" y="3.875" transform="rotate(0)"><tspan id="SvgjsTspan1164" dy="16" x="75"><tspan id="SvgjsTspan1165" style="text-decoration:;">The activity</tspan></tspan><tspan id="SvgjsTspan1166" dy="16" x="75"><tspan id="SvgjsTspan1167" style="text-decoration:;">comes to</tspan></tspan><tspan id="SvgjsTspan1168" dy="16" x="75"><tspan id="SvgjsTspan1169" style="text-decoration:;">the foreground</tspan></tspan></text></g></g><g id="SvgjsG1170"><path id="SvgjsPath1171" d="M361.5 568.5L469 568.5L469 518.5" stroke="#323232" stroke-width="1" fill="none"></path></g><g id="SvgjsG1172"><path id="SvgjsPath1173" d="M479 457.5L479 327.5L362.8 327.5" stroke="#323232" stroke-width="1" fill="none" marker-end="url(#SvgjsMarker1174)"></path></g><g id="SvgjsG1176" transform="translate(394,231)"><path id="SvgjsPath1177" d="M 0 0L 150 0L 150 45L 0 45Z" stroke="rgba(50,50,50,1)" stroke-width="1" fill-opacity="1" fill="#ffffff"></path><g id="SvgjsG1178"><text id="SvgjsText1179" font-family="&quot;Times New Roman&quot;" text-anchor="middle" font-size="13px" width="130px" fill="#323232" font-weight="400" align="middle" lineHeight="125%" anchor="middle" family="&quot;Times New Roman&quot;" size="13px" weight="400" font-style="" opacity="1" y="12.375" transform="rotate(0)"><tspan id="SvgjsTspan1180" dy="16" x="75"><tspan id="SvgjsTspan1181" style="text-decoration:;">onRestart()</tspan></tspan></text></g></g><g id="SvgjsG1182"><path id="SvgjsPath1183" d="M393.5 253.5L377.5 253.5L377.5 253.5L362.8 253.5" stroke="#323232" stroke-width="1" fill="none" marker-end="url(#SvgjsMarker1184)"></path></g><g id="SvgjsG1186" transform="translate(394,705.5)"><path id="SvgjsPath1187" d="M 0 4Q 0 0 4 0L 146 0Q 150 0 150 4L 150 56Q 150 60 146 60L 4 60Q 0 60 0 56Z" stroke="rgba(50,50,50,1)" stroke-width="1" fill-opacity="1" fill="#e5e5e5"></path><g id="SvgjsG1188"><text id="SvgjsText1189" font-family="&quot;Times New Roman&quot;" text-anchor="middle" font-size="13px" width="130px" fill="#323232" font-weight="400" align="middle" lineHeight="125%" anchor="middle" family="&quot;Times New Roman&quot;" size="13px" weight="400" font-style="" opacity="1" y="3.875" transform="rotate(0)"><tspan id="SvgjsTspan1190" dy="16" x="75"><tspan id="SvgjsTspan1191" style="text-decoration:;">The activity</tspan></tspan><tspan id="SvgjsTspan1192" dy="16" x="75"><tspan id="SvgjsTspan1193" style="text-decoration:;">comes to</tspan></tspan><tspan id="SvgjsTspan1194" dy="16" x="75"><tspan id="SvgjsTspan1195" style="text-decoration:;">the foreground</tspan></tspan></text></g></g><g id="SvgjsG1196"><path id="SvgjsPath1197" d="M361.5 735.5L377.5 735.5L377.5 735.5L392.2 735.5" stroke="#323232" stroke-width="1" fill="none" marker-end="url(#SvgjsMarker1198)"></path></g><g id="SvgjsG1200"><path id="SvgjsPath1201" d="M544.5 735.5L574 735.5L574 253.5L545.8 253.5" stroke="#323232" stroke-width="1" fill="none" marker-end="url(#SvgjsMarker1202)"></path></g><g id="SvgjsG1204" transform="translate(1033,579)"><path id="SvgjsPath1205" d="M 0 4Q 0 0 4 0L 146 0Q 150 0 150 4L 150 71Q 150 75 146 75L 4 75Q 0 75 0 71Z" stroke="rgba(50,50,50,1)" stroke-width="1" fill-opacity="1" fill="#e5e5e5"></path><g id="SvgjsG1206"><text id="SvgjsText1207" font-family="&quot;Times New Roman&quot;" text-anchor="middle" font-size="13px" width="130px" fill="#323232" font-weight="400" align="middle" lineHeight="125%" anchor="middle" family="&quot;Times New Roman&quot;" size="13px" weight="400" font-style="" opacity="1" y="3.375" transform="rotate(0)"><tspan id="SvgjsTspan1208" dy="16" x="75"><tspan id="SvgjsTspan1209" style="text-decoration:;">User navigates</tspan></tspan><tspan id="SvgjsTspan1210" dy="16" x="75"><tspan id="SvgjsTspan1211" style="text-decoration:;">backward or</tspan></tspan><tspan id="SvgjsTspan1212" dy="16" x="75"><tspan id="SvgjsTspan1213" style="text-decoration:;">fragment is </tspan></tspan><tspan id="SvgjsTspan1214" dy="16" x="75"><tspan id="SvgjsTspan1215" style="text-decoration:;">removed/repalced</tspan></tspan></text></g></g><g id="SvgjsG1216" transform="translate(671,79)"><path id="SvgjsPath1217" d="M 15 0L 135 0C 155 0 155 45 135 45L 15 45C -5 45 -5 0 15 0Z" stroke="rgba(50,50,50,1)" stroke-width="1" fill-opacity="1" fill="#cce5ff"></path><g id="SvgjsG1218"><text id="SvgjsText1219" font-family="&quot;Times New Roman&quot;" text-anchor="middle" font-size="13px" width="130px" fill="#323232" font-weight="400" align="middle" lineHeight="125%" anchor="middle" family="&quot;Times New Roman&quot;" size="13px" weight="400" font-style="" opacity="1" y="4.375" transform="rotate(0)"><tspan id="SvgjsTspan1220" dy="16" x="75"><tspan id="SvgjsTspan1221" style="text-decoration:;">Fragment is</tspan></tspan><tspan id="SvgjsTspan1222" dy="16" x="75"><tspan id="SvgjsTspan1223" style="text-decoration:;">added</tspan></tspan></text></g></g><g id="SvgjsG1224" transform="translate(671,156)"><path id="SvgjsPath1225" d="M 0 0L 150 0L 150 45L 0 45Z" stroke="rgba(50,50,50,1)" stroke-width="1" fill-opacity="1" fill="#ffffff"></path><g id="SvgjsG1226"><text id="SvgjsText1227" font-family="&quot;Times New Roman&quot;" text-anchor="middle" font-size="13px" width="130px" fill="#323232" font-weight="400" align="middle" lineHeight="125%" anchor="middle" family="&quot;Times New Roman&quot;" size="13px" weight="400" font-style="" opacity="1" y="12.375" transform="rotate(0)"><tspan id="SvgjsTspan1228" dy="16" x="75"><tspan id="SvgjsTspan1229" style="text-decoration:;">onAttach()</tspan></tspan></text></g></g><g id="SvgjsG1230" transform="translate(671,229)"><path id="SvgjsPath1231" d="M 0 0L 150 0L 150 45L 0 45Z" stroke="rgba(50,50,50,1)" stroke-width="1" fill-opacity="1" fill="#ffffff"></path><g id="SvgjsG1232"><text id="SvgjsText1233" font-family="&quot;Times New Roman&quot;" text-anchor="middle" font-size="13px" width="130px" fill="#323232" font-weight="400" align="middle" lineHeight="125%" anchor="middle" family="&quot;Times New Roman&quot;" size="13px" weight="400" font-style="" opacity="1" y="12.375" transform="rotate(0)"><tspan id="SvgjsTspan1234" dy="16" x="75"><tspan id="SvgjsTspan1235" style="text-decoration:;">onCreate()</tspan></tspan></text></g></g><g id="SvgjsG1236"><path id="SvgjsPath1237" d="M746 124.5L746 140L746 140L746 154.2" stroke="#323232" stroke-width="1" fill="none" marker-end="url(#SvgjsMarker1238)"></path></g><g id="SvgjsG1240"><path id="SvgjsPath1241" d="M746 201.5L746 215L746 215L746 227.2" stroke="#323232" stroke-width="1" fill="none" marker-end="url(#SvgjsMarker1242)"></path></g><g id="SvgjsG1244" transform="translate(671,610)"><path id="SvgjsPath1245" d="M 15 0L 135 0C 155 0 155 45 135 45L 15 45C -5 45 -5 0 15 0Z" stroke="rgba(50,50,50,1)" stroke-width="1" fill-opacity="1" fill="#ccffe6"></path><g id="SvgjsG1246"><text id="SvgjsText1247" font-family="&quot;Times New Roman&quot;" text-anchor="middle" font-size="13px" width="130px" fill="#323232" font-weight="400" align="middle" lineHeight="125%" anchor="middle" family="&quot;Times New Roman&quot;" size="13px" weight="400" font-style="" opacity="1" y="4.375" transform="rotate(0)"><tspan id="SvgjsTspan1248" dy="16" x="75"><tspan id="SvgjsTspan1249" style="text-decoration:;">Fragment is</tspan></tspan><tspan id="SvgjsTspan1250" dy="16" x="75"><tspan id="SvgjsTspan1251" style="text-decoration:;">active</tspan></tspan></text></g></g><g id="SvgjsG1252" transform="translate(671,305)"><path id="SvgjsPath1253" d="M 0 0L 150 0L 150 45L 0 45Z" stroke="rgba(50,50,50,1)" stroke-width="1" fill-opacity="1" fill="#ffffff"></path><g id="SvgjsG1254"><text id="SvgjsText1255" font-family="&quot;Times New Roman&quot;" text-anchor="middle" font-size="13px" width="130px" fill="#323232" font-weight="400" align="middle" lineHeight="125%" anchor="middle" family="&quot;Times New Roman&quot;" size="13px" weight="400" font-style="" opacity="1" y="12.375" transform="rotate(0)"><tspan id="SvgjsTspan1256" dy="16" x="75"><tspan id="SvgjsTspan1257" style="text-decoration:;">onCreateView()</tspan></tspan></text></g></g><g id="SvgjsG1258"><path id="SvgjsPath1259" d="M746 274.5L746 289.5L746 289.5L746 303.2" stroke="#323232" stroke-width="1" fill="none" marker-end="url(#SvgjsMarker1260)"></path></g><g id="SvgjsG1262" transform="translate(671,382)"><path id="SvgjsPath1263" d="M 0 0L 150 0L 150 45L 0 45Z" stroke="rgba(50,50,50,1)" stroke-width="1" fill-opacity="1" fill="#ffffff"></path><g id="SvgjsG1264"><text id="SvgjsText1265" font-family="&quot;Times New Roman&quot;" text-anchor="middle" font-size="13px" width="130px" fill="#323232" font-weight="400" align="middle" lineHeight="125%" anchor="middle" family="&quot;Times New Roman&quot;" size="13px" weight="400" font-style="" opacity="1" y="12.375" transform="rotate(0)"><tspan id="SvgjsTspan1266" dy="16" x="75"><tspan id="SvgjsTspan1267" style="text-decoration:;">onActivityCreated()</tspan></tspan></text></g></g><g id="SvgjsG1268"><path id="SvgjsPath1269" d="M746 350.5L746 366L746 366L746 380.2" stroke="#323232" stroke-width="1" fill="none" marker-end="url(#SvgjsMarker1270)"></path></g><g id="SvgjsG1272" transform="translate(671,458)"><path id="SvgjsPath1273" d="M 0 0L 150 0L 150 45L 0 45Z" stroke="rgba(50,50,50,1)" stroke-width="1" fill-opacity="1" fill="#ffffff"></path><g id="SvgjsG1274"><text id="SvgjsText1275" font-family="&quot;Times New Roman&quot;" text-anchor="middle" font-size="13px" width="130px" fill="#323232" font-weight="400" align="middle" lineHeight="125%" anchor="middle" family="&quot;Times New Roman&quot;" size="13px" weight="400" font-style="" opacity="1" y="12.375" transform="rotate(0)"><tspan id="SvgjsTspan1276" dy="16" x="75"><tspan id="SvgjsTspan1277" style="text-decoration:;">onStart()</tspan></tspan></text></g></g><g id="SvgjsG1278" transform="translate(671,534)"><path id="SvgjsPath1279" d="M 0 0L 150 0L 150 45L 0 45Z" stroke="rgba(50,50,50,1)" stroke-width="1" fill-opacity="1" fill="#ffffff"></path><g id="SvgjsG1280"><text id="SvgjsText1281" font-family="&quot;Times New Roman&quot;" text-anchor="middle" font-size="13px" width="130px" fill="#323232" font-weight="400" align="middle" lineHeight="125%" anchor="middle" family="&quot;Times New Roman&quot;" size="13px" weight="400" font-style="" opacity="1" y="12.375" transform="rotate(0)"><tspan id="SvgjsTspan1282" dy="16" x="75"><tspan id="SvgjsTspan1283" style="text-decoration:;">onResume()</tspan></tspan></text></g></g><g id="SvgjsG1284"><path id="SvgjsPath1285" d="M746 427.5L746 442.5L746 442.5L746 456.2" stroke="#323232" stroke-width="1" fill="none" marker-end="url(#SvgjsMarker1286)"></path></g><g id="SvgjsG1288"><path id="SvgjsPath1289" d="M746 503.5L746 518.5L746 518.5L746 532.2" stroke="#323232" stroke-width="1" fill="none" marker-end="url(#SvgjsMarker1290)"></path></g><g id="SvgjsG1292" transform="translate(1033,458)"><path id="SvgjsPath1293" d="M 0 0L 150 0L 150 45L 0 45Z" stroke="rgba(50,50,50,1)" stroke-width="1" fill-opacity="1" fill="#ffffff"></path><g id="SvgjsG1294"><text id="SvgjsText1295" font-family="&quot;Times New Roman&quot;" text-anchor="middle" font-size="13px" width="130px" fill="#323232" font-weight="400" align="middle" lineHeight="125%" anchor="middle" family="&quot;Times New Roman&quot;" size="13px" weight="400" font-style="" opacity="1" y="12.375" transform="rotate(0)"><tspan id="SvgjsTspan1296" dy="16" x="75"><tspan id="SvgjsTspan1297" style="text-decoration:;">onPause()</tspan></tspan></text></g></g><g id="SvgjsG1298" transform="translate(1033,382)"><path id="SvgjsPath1299" d="M 0 0L 150 0L 150 45L 0 45Z" stroke="rgba(50,50,50,1)" stroke-width="1" fill-opacity="1" fill="#ffffff"></path><g id="SvgjsG1300"><text id="SvgjsText1301" font-family="&quot;Times New Roman&quot;" text-anchor="middle" font-size="13px" width="130px" fill="#323232" font-weight="400" align="middle" lineHeight="125%" anchor="middle" family="&quot;Times New Roman&quot;" size="13px" weight="400" font-style="" opacity="1" y="12.375" transform="rotate(0)"><tspan id="SvgjsTspan1302" dy="16" x="75"><tspan id="SvgjsTspan1303" style="text-decoration:;">onStop()</tspan></tspan></text></g></g><g id="SvgjsG1304" transform="translate(1033,305)"><path id="SvgjsPath1305" d="M 0 0L 150 0L 150 45L 0 45Z" stroke="rgba(50,50,50,1)" stroke-width="1" fill-opacity="1" fill="#ffffff"></path><g id="SvgjsG1306"><text id="SvgjsText1307" font-family="&quot;Times New Roman&quot;" text-anchor="middle" font-size="13px" width="130px" fill="#323232" font-weight="400" align="middle" lineHeight="125%" anchor="middle" family="&quot;Times New Roman&quot;" size="13px" weight="400" font-style="" opacity="1" y="12.375" transform="rotate(0)"><tspan id="SvgjsTspan1308" dy="16" x="75"><tspan id="SvgjsTspan1309" style="text-decoration:;">onDestoryView()</tspan></tspan></text></g></g><g id="SvgjsG1310" transform="translate(1033,229)"><path id="SvgjsPath1311" d="M 0 0L 150 0L 150 45L 0 45Z" stroke="rgba(50,50,50,1)" stroke-width="1" fill-opacity="1" fill="#ffffff"></path><g id="SvgjsG1312"><text id="SvgjsText1313" font-family="&quot;Times New Roman&quot;" text-anchor="middle" font-size="13px" width="130px" fill="#323232" font-weight="400" align="middle" lineHeight="125%" anchor="middle" family="&quot;Times New Roman&quot;" size="13px" weight="400" font-style="" opacity="1" y="12.375" transform="rotate(0)"><tspan id="SvgjsTspan1314" dy="16" x="75"><tspan id="SvgjsTspan1315" style="text-decoration:;">onDestory()</tspan></tspan></text></g></g><g id="SvgjsG1316" transform="translate(1033,156)"><path id="SvgjsPath1317" d="M 0 0L 150 0L 150 45L 0 45Z" stroke="rgba(50,50,50,1)" stroke-width="1" fill-opacity="1" fill="#ffffff"></path><g id="SvgjsG1318"><text id="SvgjsText1319" font-family="&quot;Times New Roman&quot;" text-anchor="middle" font-size="13px" width="130px" fill="#323232" font-weight="400" align="middle" lineHeight="125%" anchor="middle" family="&quot;Times New Roman&quot;" size="13px" weight="400" font-style="" opacity="1" y="12.375" transform="rotate(0)"><tspan id="SvgjsTspan1320" dy="16" x="75"><tspan id="SvgjsTspan1321" style="text-decoration:;">onDetach()</tspan></tspan></text></g></g><g id="SvgjsG1322" transform="translate(1033,79)"><path id="SvgjsPath1323" d="M 15 0L 135 0C 155 0 155 45 135 45L 15 45C -5 45 -5 0 15 0Z" stroke="rgba(50,50,50,1)" stroke-width="1" fill-opacity="1" fill="#ffe6cc"></path><g id="SvgjsG1324"><text id="SvgjsText1325" font-family="&quot;Times New Roman&quot;" text-anchor="middle" font-size="13px" width="130px" fill="#323232" font-weight="400" align="middle" lineHeight="125%" anchor="middle" family="&quot;Times New Roman&quot;" size="13px" weight="400" font-style="" opacity="1" y="4.375" transform="rotate(0)"><tspan id="SvgjsTspan1326" dy="16" x="75"><tspan id="SvgjsTspan1327" style="text-decoration:;">Fragment is</tspan></tspan><tspan id="SvgjsTspan1328" dy="16" x="75"><tspan id="SvgjsTspan1329" style="text-decoration:;">destoryed</tspan></tspan></text></g></g><g id="SvgjsG1330" transform="translate(852,579)"><path id="SvgjsPath1331" d="M 0 4Q 0 0 4 0L 146 0Q 150 0 150 4L 150 71Q 150 75 146 75L 4 75Q 0 75 0 71Z" stroke="rgba(50,50,50,1)" stroke-width="1" fill-opacity="1" fill="#e5e5e5"></path><g id="SvgjsG1332"><text id="SvgjsText1333" font-family="&quot;Times New Roman&quot;" text-anchor="middle" font-size="13px" width="130px" fill="#323232" font-weight="400" align="middle" lineHeight="125%" anchor="middle" family="&quot;Times New Roman&quot;" size="13px" weight="400" font-style="" opacity="1" y="3.375" transform="rotate(0)"><tspan id="SvgjsTspan1334" dy="16" x="75"><tspan id="SvgjsTspan1335" style="text-decoration:;">The fragment is</tspan></tspan><tspan id="SvgjsTspan1336" dy="16" x="75"><tspan id="SvgjsTspan1337" style="text-decoration:;">added to the back</tspan></tspan><tspan id="SvgjsTspan1338" dy="16" x="75"><tspan id="SvgjsTspan1339" style="text-decoration:;">stack, then </tspan></tspan><tspan id="SvgjsTspan1340" dy="16" x="75"><tspan id="SvgjsTspan1341" style="text-decoration:;">removed/replaced</tspan></tspan></text></g></g><g id="SvgjsG1342"><path id="SvgjsPath1343" d="M746 579.5L746 594.5L746 594.5L746 608.2" stroke="#323232" stroke-width="1" fill="none" marker-end="url(#SvgjsMarker1344)"></path></g><g id="SvgjsG1346"><path id="SvgjsPath1347" d="M746 655.5L746 685L927 685L927 654.5" stroke="#323232" stroke-width="1" fill="none"></path></g><g id="SvgjsG1348"><path id="SvgjsPath1349" d="M746 655.5L746 685L1108 685L1108 654.5" stroke="#323232" stroke-width="1" fill="none"></path></g><g id="SvgjsG1350"><path id="SvgjsPath1351" d="M1108 578.5L1108 541L1108 541L1108 504.79999999999995" stroke="#323232" stroke-width="1" fill="none" marker-end="url(#SvgjsMarker1352)"></path></g><g id="SvgjsG1354"><path id="SvgjsPath1355" d="M1108 457.5C 1108 445.6 1108 439.4 1108 428.8" stroke="#323232" stroke-width="1" fill="none" marker-end="url(#SvgjsMarker1356)"></path></g><g id="SvgjsG1358"><path id="SvgjsPath1359" d="M1108 381.5C 1108 369.2 1108 362.8 1108 351.8" stroke="#323232" stroke-width="1" fill="none" marker-end="url(#SvgjsMarker1360)"></path></g><g id="SvgjsG1362"><path id="SvgjsPath1363" d="M1108 304.5C 1108 292.6 1108 286.4 1108 275.8" stroke="#323232" stroke-width="1" fill="none" marker-end="url(#SvgjsMarker1364)"></path></g><g id="SvgjsG1366"><path id="SvgjsPath1367" d="M1108 228.5C 1108 217.8 1108 212.2 1108 202.8" stroke="#323232" stroke-width="1" fill="none" marker-end="url(#SvgjsMarker1368)"></path></g><g id="SvgjsG1370"><path id="SvgjsPath1371" d="M1108 155.5C 1108 143.2 1108 136.8 1108 125.80000000000001" stroke="#323232" stroke-width="1" fill="none" marker-end="url(#SvgjsMarker1372)"></path></g><g id="SvgjsG1374" transform="translate(852,290)"><path id="SvgjsPath1375" d="M 0 4Q 0 0 4 0L 146 0Q 150 0 150 4L 150 71Q 150 75 146 75L 4 75Q 0 75 0 71Z" stroke="rgba(50,50,50,1)" stroke-width="1" fill-opacity="1" fill="#e5e5e5"></path><g id="SvgjsG1376"><text id="SvgjsText1377" font-family="&quot;Times New Roman&quot;" text-anchor="middle" font-size="13px" width="130px" fill="#323232" font-weight="400" align="middle" lineHeight="125%" anchor="middle" family="&quot;Times New Roman&quot;" size="13px" weight="400" font-style="" opacity="1" y="3.375" transform="rotate(0)"><tspan id="SvgjsTspan1378" dy="16" x="75"><tspan id="SvgjsTspan1379" style="text-decoration:;">The fragment</tspan></tspan><tspan id="SvgjsTspan1380" dy="16" x="75"><tspan id="SvgjsTspan1381" style="text-decoration:;">returns to</tspan></tspan><tspan id="SvgjsTspan1382" dy="16" x="75"><tspan id="SvgjsTspan1383" style="text-decoration:;">the layout from</tspan></tspan><tspan id="SvgjsTspan1384" dy="16" x="75"><tspan id="SvgjsTspan1385" style="text-decoration:;">the back stack</tspan></tspan></text></g></g><g id="SvgjsG1386"><path id="SvgjsPath1387" d="M1032.5 327.5L1017.5 327.5L1017.5 327.5L1002.5 327.5" stroke="#323232" stroke-width="1" fill="none"></path></g><g id="SvgjsG1388"><path id="SvgjsPath1389" d="M851.5 327.5L836.5 327.5L836.5 327.5L822.8 327.5" stroke="#323232" stroke-width="1" fill="none" marker-end="url(#SvgjsMarker1390)"></path></g><g id="SvgjsG1392"><path id="SvgjsPath1393" d="M927 578.5L927 480.5L1031.2 480.5" stroke="#323232" stroke-width="1" fill="none" marker-end="url(#SvgjsMarker1394)"></path></g><g id="SvgjsG1396" transform="translate(289,204)"><path id="SvgjsPath1397" d="M 0 0L 90 0L 90 25L 0 25Z" stroke="none" fill="none"></path><g id="SvgjsG1398"><text id="SvgjsText1399" font-family="&quot;Times New Roman&quot;" text-anchor="middle" font-size="13px" width="90px" fill="#4d9900" font-weight="400" align="middle" lineHeight="125%" anchor="middle" family="&quot;Times New Roman&quot;" size="13px" weight="400" font-style="" opacity="1" y="2.375" transform="rotate(0)"><tspan id="SvgjsTspan1400" dy="16" x="45"><tspan id="SvgjsTspan1401" style="text-decoration:;">Created</tspan></tspan></text></g></g><g id="SvgjsG1402" transform="translate(628,156)"><path id="SvgjsPath1403" d="M 25 0Q 22.5 0 22.5 9L 22.5 126Q 22.5 135 3 135Q 22.5 135 22.5 144L 22.5 261Q 22.5 270 25 270" stroke="rgba(50,50,50,1)" stroke-width="1" fill="none"></path><path id="SvgjsPath1404" d="M 0 0L 25 0L 25 270L 0 270Z" stroke="none" fill="none"></path><g id="SvgjsG1405"><text id="SvgjsText1406" font-family="&quot;Times New Roman&quot;" text-anchor="end" font-size="13px" width="0" fill="#323232" font-weight="400" align="middle" lineHeight="125%" anchor="end" family="&quot;Times New Roman&quot;" size="13px" weight="400" font-style="" opacity="1" y="124.875" transform="rotate(0)"></text></g></g><g id="SvgjsG1407"><path id="SvgjsPath1408" d="M379.5 216.5L592.7999954223633 216.5L592.7999954223633 290L618.5999908447266 290" stroke-dasharray="8,5" stroke="#323232" stroke-width="1" fill="none" marker-end="url(#SvgjsMarker1409)"></path></g><g id="SvgjsG1411" transform="translate(289,278.5)"><path id="SvgjsPath1412" d="M 0 0L 90 0L 90 25L 0 25Z" stroke="none" fill="none"></path><g id="SvgjsG1413"><text id="SvgjsText1414" font-family="&quot;Times New Roman&quot;" text-anchor="middle" font-size="13px" width="90px" fill="#4d9900" font-weight="400" align="middle" lineHeight="125%" anchor="middle" family="&quot;Times New Roman&quot;" size="13px" weight="400" font-style="" opacity="1" y="2.375" transform="rotate(0)"><tspan id="SvgjsTspan1415" dy="16" x="45"><tspan id="SvgjsTspan1416" style="text-decoration:;">Started</tspan></tspan></text></g></g><g id="SvgjsG1417"><path id="SvgjsPath1418" d="M379.5 291L556 291L556 480.5L669.2 480.5" stroke-dasharray="8,5" stroke="#323232" stroke-width="1" fill="none" marker-end="url(#SvgjsMarker1419)"></path></g><g id="SvgjsG1421" transform="translate(289,353.5)"><path id="SvgjsPath1422" d="M 0 0L 90 0L 90 25L 0 25Z" stroke="none" fill="none"></path><g id="SvgjsG1423"><text id="SvgjsText1424" font-family="&quot;Times New Roman&quot;" text-anchor="middle" font-size="13px" width="90px" fill="#4d9900" font-weight="400" align="middle" lineHeight="125%" anchor="middle" family="&quot;Times New Roman&quot;" size="13px" weight="400" font-style="" opacity="1" y="2.375" transform="rotate(0)"><tspan id="SvgjsTspan1425" dy="16" x="45"><tspan id="SvgjsTspan1426" style="text-decoration:;">Resumed</tspan></tspan></text></g></g><g id="SvgjsG1427"><path id="SvgjsPath1428" d="M379.5 366L593 366L593 556.5L669.2 556.5" stroke-dasharray="8,5" stroke="#323232" stroke-width="1" fill="none" marker-end="url(#SvgjsMarker1429)"></path></g><g id="SvgjsG1431" transform="translate(289,593.5)"><path id="SvgjsPath1432" d="M 0 0L 90 0L 90 25L 0 25Z" stroke="none" fill="none"></path><g id="SvgjsG1433"><text id="SvgjsText1434" font-family="&quot;Times New Roman&quot;" text-anchor="middle" font-size="13px" width="90px" fill="#4d9900" font-weight="400" align="middle" lineHeight="125%" anchor="middle" family="&quot;Times New Roman&quot;" size="13px" weight="400" font-style="" opacity="1" y="2.375" transform="rotate(0)"><tspan id="SvgjsTspan1435" dy="16" x="45"><tspan id="SvgjsTspan1436" style="text-decoration:;">Paused</tspan></tspan></text></g></g><g id="SvgjsG1437" transform="translate(289,758)"><path id="SvgjsPath1438" d="M 0 0L 90 0L 90 25L 0 25Z" stroke="none" fill="none"></path><g id="SvgjsG1439"><text id="SvgjsText1440" font-family="&quot;Times New Roman&quot;" text-anchor="middle" font-size="13px" width="90px" fill="#4d9900" font-weight="400" align="middle" lineHeight="125%" anchor="middle" family="&quot;Times New Roman&quot;" size="13px" weight="400" font-style="" opacity="1" y="2.375" transform="rotate(0)"><tspan id="SvgjsTspan1441" dy="16" x="45"><tspan id="SvgjsTspan1442" style="text-decoration:;">Stopped</tspan></tspan></text></g></g><g id="SvgjsG1443" transform="translate(289,836)"><path id="SvgjsPath1444" d="M 0 0L 90 0L 90 25L 0 25Z" stroke="none" fill="none"></path><g id="SvgjsG1445"><text id="SvgjsText1446" font-family="&quot;Times New Roman&quot;" text-anchor="middle" font-size="13px" width="90px" fill="#4d9900" font-weight="400" align="middle" lineHeight="125%" anchor="middle" family="&quot;Times New Roman&quot;" size="13px" weight="400" font-style="" opacity="1" y="2.375" transform="rotate(0)"><tspan id="SvgjsTspan1447" dy="16" x="45"><tspan id="SvgjsTspan1448" style="text-decoration:;">Destroyed</tspan></tspan></text></g></g><g id="SvgjsG1449" transform="translate(902,238.5)"><path id="SvgjsPath1450" d="M 0 0L 90 0L 90 25L 0 25Z" stroke="none" fill="none"></path><g id="SvgjsG1451"><text id="SvgjsText1452" font-family="&quot;Times New Roman&quot;" text-anchor="middle" font-size="13px" width="90px" fill="#4d9900" font-weight="400" align="middle" lineHeight="125%" anchor="middle" family="&quot;Times New Roman&quot;" size="13px" weight="400" font-style="" opacity="1" y="2.375" transform="rotate(0)"><tspan id="SvgjsTspan1453" dy="16" x="45"><tspan id="SvgjsTspan1454" style="text-decoration:;">Destroyed</tspan></tspan></text></g></g><g id="SvgjsG1455" transform="translate(211,25)"><path id="SvgjsPath1456" d="M 0 0L 150 0L 150 25L 0 25Z" stroke="none" fill="none"></path><g id="SvgjsG1457"><text id="SvgjsText1458" font-family="&quot;Times New Roman&quot;" text-anchor="middle" font-size="13px" width="150px" fill="#323232" font-weight="700" align="middle" lineHeight="125%" anchor="middle" family="&quot;Times New Roman&quot;" size="13px" weight="700" font-style="" opacity="1" y="2.375" transform="rotate(0)"><tspan id="SvgjsTspan1459" dy="16" x="75"><tspan id="SvgjsTspan1460" style="text-decoration:;">Activity LifeTime</tspan></tspan></text></g></g><g id="SvgjsG1461" transform="translate(671,25)"><path id="SvgjsPath1462" d="M 0 0L 150 0L 150 25L 0 25Z" stroke="none" fill="none"></path><g id="SvgjsG1463"><text id="SvgjsText1464" font-family="&quot;Times New Roman&quot;" text-anchor="middle" font-size="13px" width="150px" fill="#323232" font-weight="700" align="middle" lineHeight="125%" anchor="middle" family="&quot;Times New Roman&quot;" size="13px" weight="700" font-style="" opacity="1" y="2.375" transform="rotate(0)"><tspan id="SvgjsTspan1465" dy="16" x="75"><tspan id="SvgjsTspan1466" style="text-decoration:;">Fragment LifeTime</tspan></tspan></text></g></g><g id="SvgjsG1467" transform="translate(992,156)"><path id="SvgjsPath1468" d="M 25 0Q 22.5 0 22.5 9L 22.5 86Q 22.5 95 3 95Q 22.5 95 22.5 104L 22.5 181Q 22.5 190 25 190" stroke="rgba(50,50,50,1)" stroke-width="1" fill="none"></path><path id="SvgjsPath1469" d="M 0 0L 25 0L 25 190L 0 190Z" stroke="none" fill="none"></path><g id="SvgjsG1470"><text id="SvgjsText1471" font-family="&quot;Times New Roman&quot;" text-anchor="end" font-size="13px" width="0" fill="#323232" font-weight="400" align="middle" lineHeight="125%" anchor="end" family="&quot;Times New Roman&quot;" size="13px" weight="400" font-style="" opacity="1" y="84.875" transform="rotate(0)"></text></g></g></svg>