<svg id="SvgjsSvg1006" width="893" height="360" xmlns="http://www.w3.org/2000/svg" version="1.1" xmlns:xlink="http://www.w3.org/1999/xlink" xmlns:svgjs="http://svgjs.com/svgjs"><defs id="SvgjsDefs1007"><marker id="SvgjsMarker1078" markerWidth="12" markerHeight="8" refX="9" refY="4" viewBox="0 0 12 8" orient="auto" markerUnits="userSpaceOnUse" stroke-dasharray="0,0"><path id="SvgjsPath1079" d="M0,0 L12,4 L0,8 L0,0" fill="#323232" stroke="#323232" stroke-width="1"></path></marker><marker id="SvgjsMarker1112" markerWidth="12" markerHeight="8" refX="9" refY="4" viewBox="0 0 12 8" orient="auto" markerUnits="userSpaceOnUse" stroke-dasharray="0,0"><path id="SvgjsPath1113" d="M0,0 L12,4 L0,8 L0,0" fill="#323232" stroke="#323232" stroke-width="1"></path></marker><marker id="SvgjsMarker1116" markerWidth="12" markerHeight="8" refX="9" refY="4" viewBox="0 0 12 8" orient="auto" markerUnits="userSpaceOnUse" stroke-dasharray="0,0"><path id="SvgjsPath1117" d="M0,0 L12,4 L0,8 L0,0" fill="#323232" stroke="#323232" stroke-width="1"></path></marker></defs><g id="SvgjsG1008" transform="translate(25,102)"><path id="SvgjsPath1009" d="M 0 0L 254 0L 254 134L 0 134Z" stroke="rgba(50,50,50,1)" stroke-width="1" fill-opacity="1" fill="#ffffff"></path><g id="SvgjsG1010"><text id="SvgjsText1011" font-family="&quot;Times New Roman&quot;" text-anchor="middle" font-size="13px" width="234px" fill="#323232" font-weight="400" align="middle" lineHeight="125%" anchor="middle" family="&quot;Times New Roman&quot;" size="13px" weight="400" font-style="" opacity="1" y="56.875" transform="rotate(0)"></text></g></g><g id="SvgjsG1012" transform="translate(54,151)"><path id="SvgjsPath1013" d="M 0 4Q 0 0 4 0L 196 0Q 200 0 200 4L 200 41Q 200 45 196 45L 4 45Q 0 45 0 41Z" stroke="rgba(50,50,50,1)" stroke-width="1" fill-opacity="1" fill="#cce5ff"></path><g id="SvgjsG1014"><text id="SvgjsText1015" font-family="&quot;Times New Roman&quot;" text-anchor="middle" font-size="13px" width="180px" fill="#323232" font-weight="400" align="middle" lineHeight="125%" anchor="middle" family="&quot;Times New Roman&quot;" size="13px" weight="400" font-style="" opacity="1" y="12.375" transform="rotate(0)"><tspan id="SvgjsTspan1016" dy="16" x="100"><tspan id="SvgjsTspan1017" style="text-decoration:;">mHandler.sendMessage()</tspan></tspan></text></g></g><g id="SvgjsG1018" transform="translate(52,106)"><path id="SvgjsPath1019" d="M 0 0L 200 0L 200 45L 0 45Z" stroke="none" fill="none"></path><g id="SvgjsG1020"><text id="SvgjsText1021" font-family="&quot;Times New Roman&quot;" text-anchor="middle" font-size="13px" width="200px" fill="#323232" font-weight="700" align="middle" lineHeight="125%" anchor="middle" family="&quot;Times New Roman&quot;" size="13px" weight="700" font-style="" opacity="1" y="12.375" transform="rotate(0)"><tspan id="SvgjsTspan1022" dy="16" x="100"><tspan id="SvgjsTspan1023" style="text-decoration:;">工作线程</tspan></tspan></text></g></g><g id="SvgjsG1024" transform="translate(418,25)"><path id="SvgjsPath1025" d="M 0 0L 450 0L 450 252L 0 252Z" stroke="rgba(50,50,50,1)" stroke-width="1" fill-opacity="1" fill="#ffffff"></path><g id="SvgjsG1026"><text id="SvgjsText1027" font-family="&quot;Times New Roman&quot;" text-anchor="middle" font-size="13px" width="430px" fill="#323232" font-weight="400" align="middle" lineHeight="125%" anchor="middle" family="&quot;Times New Roman&quot;" size="13px" weight="400" font-style="" opacity="1" y="115.875" transform="rotate(0)"></text></g></g><g id="SvgjsG1028" transform="translate(418,25)"><path id="SvgjsPath1029" d="M 0 0L 450 0L 450 45L 0 45Z" stroke="none" fill="none"></path><g id="SvgjsG1030"><text id="SvgjsText1031" font-family="&quot;Times New Roman&quot;" text-anchor="middle" font-size="13px" width="450px" fill="#323232" font-weight="700" align="middle" lineHeight="125%" anchor="middle" family="&quot;Times New Roman&quot;" size="13px" weight="700" font-style="" opacity="1" y="12.375" transform="rotate(0)"><tspan id="SvgjsTspan1032" dy="16" x="225"><tspan id="SvgjsTspan1033" style="text-decoration:;">主线程</tspan></tspan></text></g></g><g id="SvgjsG1034" transform="translate(442,85)"><path id="SvgjsPath1035" d="M 0 4Q 0 0 4 0L 176 0Q 180 0 180 4L 180 164Q 180 168 176 168L 4 168Q 0 168 0 164Z" stroke="rgba(50,50,50,1)" stroke-width="1" fill-opacity="1" fill="#ffffff"></path><g id="SvgjsG1036"><text id="SvgjsText1037" font-family="&quot;Times New Roman&quot;" text-anchor="middle" font-size="13px" width="160px" fill="#323232" font-weight="400" align="middle" lineHeight="125%" anchor="middle" family="&quot;Times New Roman&quot;" size="13px" weight="400" font-style="" opacity="1" y="73.875" transform="rotate(0)"></text></g></g><g id="SvgjsG1038" transform="translate(442,85)"><path id="SvgjsPath1039" d="M 0 0L 180 0L 180 45L 0 45Z" stroke="none" fill="none"></path><g id="SvgjsG1040"><text id="SvgjsText1041" font-family="&quot;Times New Roman&quot;" text-anchor="middle" font-size="13px" width="180px" fill="#323232" font-weight="700" align="middle" lineHeight="125%" anchor="middle" family="&quot;Times New Roman&quot;" size="13px" weight="700" font-style="" opacity="1" y="4.375" transform="rotate(0)"><tspan id="SvgjsTspan1042" dy="16" x="90"><tspan id="SvgjsTspan1043" style="text-decoration:;">Handler</tspan></tspan><tspan id="SvgjsTspan1044" dy="16" x="90"><tspan id="SvgjsTspan1045" style="text-decoration:;">( mHander )</tspan></tspan></text></g></g><g id="SvgjsG1046" transform="translate(457,136)"><path id="SvgjsPath1047" d="M 0 0L 150 0L 150 25L 0 25Z" stroke="rgba(50,50,50,1)" stroke-width="1" fill-opacity="1" fill="#ffe6cc"></path><g id="SvgjsG1048"><text id="SvgjsText1049" font-family="&quot;Times New Roman&quot;" text-anchor="middle" font-size="13px" width="130px" fill="#323232" font-weight="400" align="middle" lineHeight="125%" anchor="middle" family="&quot;Times New Roman&quot;" size="13px" weight="400" font-style="" opacity="1" y="2.375" transform="rotate(0)"><tspan id="SvgjsTspan1050" dy="16" x="75"><tspan id="SvgjsTspan1051" style="text-decoration:;">Message 1</tspan></tspan></text></g></g><g id="SvgjsG1052" transform="translate(457,161)"><path id="SvgjsPath1053" d="M 0 0L 150 0L 150 25L 0 25Z" stroke="rgba(50,50,50,1)" stroke-width="1" fill-opacity="1" fill="#ffe6cc"></path><g id="SvgjsG1054"><text id="SvgjsText1055" font-family="&quot;Times New Roman&quot;" text-anchor="middle" font-size="13px" width="130px" fill="#323232" font-weight="400" align="middle" lineHeight="125%" anchor="middle" family="&quot;Times New Roman&quot;" size="13px" weight="400" font-style="" opacity="1" y="2.375" transform="rotate(0)"><tspan id="SvgjsTspan1056" dy="16" x="75"><tspan id="SvgjsTspan1057" style="text-decoration:;">Message 1</tspan></tspan></text></g></g><g id="SvgjsG1058" transform="translate(457,186)"><path id="SvgjsPath1059" d="M 0 0L 150 0L 150 25L 0 25Z" stroke="rgba(50,50,50,1)" stroke-width="1" fill-opacity="1" fill="#ffe6cc"></path><g id="SvgjsG1060"><text id="SvgjsText1061" font-family="&quot;Times New Roman&quot;" text-anchor="middle" font-size="13px" width="130px" fill="#323232" font-weight="400" align="middle" lineHeight="125%" anchor="middle" family="&quot;Times New Roman&quot;" size="13px" weight="400" font-style="" opacity="1" y="2.375" transform="rotate(0)"><tspan id="SvgjsTspan1062" dy="16" x="75"><tspan id="SvgjsTspan1063" style="text-decoration:;">...</tspan></tspan></text></g></g><g id="SvgjsG1064" transform="translate(457,211)"><path id="SvgjsPath1065" d="M 0 0L 150 0L 150 25L 0 25Z" stroke="rgba(50,50,50,1)" stroke-width="1" fill-opacity="1" fill="#ffe6cc"></path><g id="SvgjsG1066"><text id="SvgjsText1067" font-family="&quot;Times New Roman&quot;" text-anchor="middle" font-size="13px" width="130px" fill="#323232" font-weight="400" align="middle" lineHeight="125%" anchor="middle" family="&quot;Times New Roman&quot;" size="13px" weight="400" font-style="" opacity="1" y="2.375" transform="rotate(0)"><tspan id="SvgjsTspan1068" dy="16" x="75"><tspan id="SvgjsTspan1069" style="text-decoration:;">Message n</tspan></tspan></text></g></g><g id="SvgjsG1070" transform="translate(644,208)"><path id="SvgjsPath1071" d="M 0 4Q 0 0 4 0L 196 0Q 200 0 200 4L 200 41Q 200 45 196 45L 4 45Q 0 45 0 41Z" stroke="rgba(50,50,50,1)" stroke-width="1" fill-opacity="1" fill="#cce5ff"></path><g id="SvgjsG1072"><text id="SvgjsText1073" font-family="&quot;Times New Roman&quot;" text-anchor="middle" font-size="13px" width="180px" fill="#323232" font-weight="400" align="middle" lineHeight="125%" anchor="middle" family="&quot;Times New Roman&quot;" size="13px" weight="400" font-style="" opacity="1" y="12.375" transform="rotate(0)"><tspan id="SvgjsTspan1074" dy="16" x="100"><tspan id="SvgjsTspan1075" style="text-decoration:;">mHandler.handleMessage()</tspan></tspan></text></g></g><g id="SvgjsG1076"><path id="SvgjsPath1077" d="M254.5 173.5L355.5 173.5L355.5 173.5L455.2 173.5" stroke="#323232" stroke-width="1" fill="none" marker-end="url(#SvgjsMarker1078)"></path></g><g id="SvgjsG1080" transform="translate(278,126)"><path id="SvgjsPath1081" d="M 0 0L 140 0L 140 45L 0 45Z" stroke="none" fill="none"></path><g id="SvgjsG1082"><text id="SvgjsText1083" font-family="&quot;Times New Roman&quot;" text-anchor="middle" font-size="13px" width="140px" fill="#688f4e" font-weight="400" align="middle" lineHeight="125%" anchor="middle" family="&quot;Times New Roman&quot;" size="13px" weight="400" font-style="" opacity="1" y="4.375" transform="rotate(0)"><tspan id="SvgjsTspan1084" dy="16" x="70"><tspan id="SvgjsTspan1085" style="text-decoration:;">MessageQueue</tspan></tspan><tspan id="SvgjsTspan1086" dy="16" x="70"><tspan id="SvgjsTspan1087" style="text-decoration:;">.enqueueMessage()</tspan></tspan></text></g></g><g id="SvgjsG1088" transform="translate(674,146.5)"><path id="SvgjsPath1089" d="M 0 0L 140 0L 140 45L 0 45Z" stroke="none" fill="none"></path><g id="SvgjsG1090"><text id="SvgjsText1091" font-family="&quot;Times New Roman&quot;" text-anchor="middle" font-size="13px" width="140px" fill="#688f4e" font-weight="400" align="middle" lineHeight="125%" anchor="middle" family="&quot;Times New Roman&quot;" size="13px" weight="400" font-style="" opacity="1" y="4.375" transform="rotate(0)"><tspan id="SvgjsTspan1092" dy="16" x="70"><tspan id="SvgjsTspan1093" style="text-decoration:;">MessageQueue</tspan></tspan><tspan id="SvgjsTspan1094" dy="16" x="70"><tspan id="SvgjsTspan1095" style="text-decoration:;">.dispatchMessage()</tspan></tspan></text></g></g><g id="SvgjsG1096" transform="translate(462,310)"><path id="SvgjsPath1097" d="M 0 0L 140 0L 140 25L 0 25Z" stroke="none" fill="none"></path><g id="SvgjsG1098"><text id="SvgjsText1099" font-family="&quot;Times New Roman&quot;" text-anchor="middle" font-size="13px" width="140px" fill="#688f4e" font-weight="400" align="middle" lineHeight="125%" anchor="middle" family="&quot;Times New Roman&quot;" size="13px" weight="400" font-style="" opacity="1" y="2.375" transform="rotate(0)"><tspan id="SvgjsTspan1100" dy="16" x="70"><tspan id="SvgjsTspan1101" style="text-decoration:;">MessageQueue</tspan></tspan></text></g></g><g id="SvgjsG1102"><path id="SvgjsPath1103" d="M532 236.5C 532 265.6 532 280.4 532 309.5" stroke="#323232" stroke-width="1" fill="none"></path></g><g id="SvgjsG1104" transform="translate(644,85)"><path id="SvgjsPath1105" d="M 0 4Q 0 0 4 0L 196 0Q 200 0 200 4L 200 41Q 200 45 196 45L 4 45Q 0 45 0 41Z" stroke="rgba(50,50,50,1)" stroke-width="1" fill-opacity="1" fill="#ffffff"></path><g id="SvgjsG1106"><text id="SvgjsText1107" font-family="&quot;Times New Roman&quot;" text-anchor="middle" font-size="13px" width="180px" fill="#323232" font-weight="700" align="middle" lineHeight="125%" anchor="middle" family="&quot;Times New Roman&quot;" size="13px" weight="700" font-style="" opacity="1" y="12.375" transform="rotate(0)"><tspan id="SvgjsTspan1108" dy="16" x="100"><tspan id="SvgjsTspan1109" style="text-decoration:;">Looper</tspan></tspan></text></g></g><g id="SvgjsG1110"><path id="SvgjsPath1111" d="M744 130.5L744 169L744 169L744 206.2" stroke="#323232" stroke-width="1" fill="none" marker-end="url(#SvgjsMarker1112)"></path></g><g id="SvgjsG1114"><path id="SvgjsPath1115" d="M607.5 173.5L666.5999908447266 173.5L666.5999908447266 131.8" stroke="#323232" stroke-width="1" fill="none" marker-end="url(#SvgjsMarker1116)"></path></g></svg>