<svg id="SvgjsSvg1006" width="291.5" height="631.59375" xmlns="http://www.w3.org/2000/svg" version="1.1" xmlns:xlink="http://www.w3.org/1999/xlink" xmlns:svgjs="http://svgjs.com/svgjs"><defs id="SvgjsDefs1007"><marker id="SvgjsMarker1026" markerWidth="12" markerHeight="8" refX="9" refY="4" viewBox="0 0 12 8" orient="auto" markerUnits="userSpaceOnUse" stroke-dasharray="0,0"><path id="SvgjsPath1027" d="M0,0 L12,4 L0,8 L0,0" fill="#323232" stroke="#323232" stroke-width="1"></path></marker><marker id="SvgjsMarker1040" markerWidth="12" markerHeight="8" refX="9" refY="4" viewBox="0 0 12 8" orient="auto" markerUnits="userSpaceOnUse" stroke-dasharray="0,0"><path id="SvgjsPath1041" d="M0,0 L12,4 L0,8 L0,0" fill="#323232" stroke="#323232" stroke-width="1"></path></marker><marker id="SvgjsMarker1044" markerWidth="12" markerHeight="8" refX="9" refY="4" viewBox="0 0 12 8" orient="auto" markerUnits="userSpaceOnUse" stroke-dasharray="0,0"><path id="SvgjsPath1045" d="M0,0 L12,4 L0,8 L0,0" fill="#323232" stroke="#323232" stroke-width="1"></path></marker><marker id="SvgjsMarker1060" markerWidth="12" markerHeight="8" refX="9" refY="4" viewBox="0 0 12 8" orient="auto" markerUnits="userSpaceOnUse" stroke-dasharray="0,0"><path id="SvgjsPath1061" d="M0,0 L12,4 L0,8 L0,0" fill="#323232" stroke="#323232" stroke-width="1"></path></marker><marker id="SvgjsMarker1078" markerWidth="12" markerHeight="8" refX="9" refY="4" viewBox="0 0 12 8" orient="auto" markerUnits="userSpaceOnUse" stroke-dasharray="0,0"><path id="SvgjsPath1079" d="M0,0 L12,4 L0,8 L0,0" fill="#323232" stroke="#323232" stroke-width="1"></path></marker><marker id="SvgjsMarker1088" markerWidth="12" markerHeight="8" refX="9" refY="4" viewBox="0 0 12 8" orient="auto" markerUnits="userSpaceOnUse" stroke-dasharray="0,0"><path id="SvgjsPath1089" d="M0,0 L12,4 L0,8 L0,0" fill="#323232" stroke="#323232" stroke-width="1"></path></marker><marker id="SvgjsMarker1092" markerWidth="12" markerHeight="8" refX="9" refY="4" viewBox="0 0 12 8" orient="auto" markerUnits="userSpaceOnUse" stroke-dasharray="0,0"><path id="SvgjsPath1093" d="M0,0 L12,4 L0,8 L0,0" fill="#323232" stroke="#323232" stroke-width="1"></path></marker><marker id="SvgjsMarker1102" markerWidth="12" markerHeight="8" refX="9" refY="4" viewBox="0 0 12 8" orient="auto" markerUnits="userSpaceOnUse" stroke-dasharray="0,0"><path id="SvgjsPath1103" d="M0,0 L12,4 L0,8 L0,0" fill="#323232" stroke="#323232" stroke-width="1"></path></marker></defs><g id="SvgjsG1008" transform="translate(66.00624084472656,97.09999752044678)"><path id="SvgjsPath1009" d="M 0 18Q 0 0 18 0L 142 0Q 160 0 160 18L 160 27Q 160 45 142 45L 18 45Q 0 45 0 27L 0 18Z" stroke="rgba(50,50,50,1)" stroke-width="1" fill-opacity="1" fill="#cce5ff"></path><g id="SvgjsG1010"><text id="SvgjsText1011" font-family="&quot;Times New Roman&quot;" text-anchor="middle" font-size="13px" width="140px" fill="#323232" font-weight="400" align="middle" lineHeight="125%" anchor="middle" family="&quot;Times New Roman&quot;" size="13px" weight="400" font-style="" opacity="1" y="4.375" transform="rotate(0)"><tspan id="SvgjsTspan1012" dy="16" x="80"><tspan id="SvgjsTspan1013" style="text-decoration:;">手动调用解绑服务</tspan></tspan><tspan id="SvgjsTspan1014" dy="16" x="80"><tspan id="SvgjsTspan1015" style="text-decoration:;">unbindService()</tspan></tspan></text></g></g><g id="SvgjsG1016" transform="translate(56.00624084472656,189)"><path id="SvgjsPath1017" d="M 0 30L 90 0L 180 30L 90 60Z" stroke="rgba(50,50,50,1)" stroke-width="1" fill-opacity="1" fill="#ffe6cc"></path><g id="SvgjsG1018"><text id="SvgjsText1019" font-family="&quot;Times New Roman&quot;" text-anchor="middle" font-size="13px" width="160px" fill="#323232" font-weight="400" align="middle" lineHeight="125%" anchor="middle" family="&quot;Times New Roman&quot;" size="13px" weight="400" font-style="" opacity="1" y="12.175" transform="rotate(0)"><tspan id="SvgjsTspan1020" dy="16" x="90"><tspan id="SvgjsTspan1021" style="text-decoration:;">是否调用过</tspan></tspan><tspan id="SvgjsTspan1022" dy="16" x="90"><tspan id="SvgjsTspan1023" style="text-decoration:;">onBind()</tspan></tspan></text></g></g><g id="SvgjsG1024"><path id="SvgjsPath1025" d="M146.00624084472656 142.59999752044678L146.00624084472656 165.5499987602234L146.00624084472656 165.5499987602234L146.00624084472656 187.2" stroke="#323232" stroke-width="1" fill="none" marker-end="url(#SvgjsMarker1026)"></path></g><g id="SvgjsG1028" transform="translate(66.00624084472656,295.0999975204468)"><path id="SvgjsPath1029" d="M 0 18Q 0 0 18 0L 142 0Q 160 0 160 18L 160 27Q 160 45 142 45L 18 45Q 0 45 0 27L 0 18Z" stroke="rgba(50,50,50,1)" stroke-width="1" fill-opacity="1" fill="#ffffff"></path><g id="SvgjsG1030"><text id="SvgjsText1031" font-family="&quot;Times New Roman&quot;" text-anchor="middle" font-size="13px" width="140px" fill="#323232" font-weight="400" align="middle" lineHeight="125%" anchor="middle" family="&quot;Times New Roman&quot;" size="13px" weight="400" font-style="" opacity="1" y="12.375" transform="rotate(0)"><tspan id="SvgjsTspan1032" dy="16" x="80"><tspan id="SvgjsTspan1033" style="text-decoration:;">onUnbind()</tspan></tspan></text></g></g><g id="SvgjsG1034" transform="translate(133.50624084472656,25)"><path id="SvgjsPath1035" d="M 0 12.5C 0 -4.166666666666667 25 -4.166666666666667 25 12.5C 25 29.166666666666668 0 29.166666666666668 0 12.5Z" stroke="none" fill-opacity="1" fill="#323232"></path><g id="SvgjsG1036"><text id="SvgjsText1037" font-family="&quot;Times New Roman&quot;" text-anchor="middle" font-size="13px" width="65px" fill="#323232" font-weight="400" align="middle" lineHeight="125%" anchor="middle" family="&quot;Times New Roman&quot;" size="13px" weight="400" font-style="" opacity="1" y="29.875" transform="rotate(0)"></text></g></g><g id="SvgjsG1038"><path id="SvgjsPath1039" d="M146.00624084472656 50.5L146.00624084472656 73.54999876022339L146.00624084472656 73.54999876022339L146.00624084472656 95.29999752044677" stroke="#323232" stroke-width="1" fill="none" marker-end="url(#SvgjsMarker1040)"></path></g><g id="SvgjsG1042"><path id="SvgjsPath1043" d="M146.00624084472656 249.5L146.00624084472656 272.0499987602234L146.00624084472656 272.0499987602234L146.00624084472656 293.29999752044677" stroke="#323232" stroke-width="1" fill="none" marker-end="url(#SvgjsMarker1044)"></path></g><g id="SvgjsG1046" transform="translate(66.00624084472656,490.0999975204468)"><path id="SvgjsPath1047" d="M 0 18Q 0 0 18 0L 142 0Q 160 0 160 18L 160 27Q 160 45 142 45L 18 45Q 0 45 0 27L 0 18Z" stroke="rgba(50,50,50,1)" stroke-width="1" fill-opacity="1" fill="#ffffff"></path><g id="SvgjsG1048"><text id="SvgjsText1049" font-family="&quot;Times New Roman&quot;" text-anchor="middle" font-size="13px" width="140px" fill="#323232" font-weight="400" align="middle" lineHeight="125%" anchor="middle" family="&quot;Times New Roman&quot;" size="13px" weight="400" font-style="" opacity="1" y="12.375" transform="rotate(0)"><tspan id="SvgjsTspan1050" dy="16" x="80"><tspan id="SvgjsTspan1051" style="text-decoration:;">onDestory()</tspan></tspan></text></g></g><g id="SvgjsG1052" transform="translate(133.50624084472656,581.5999984741211)"><path id="SvgjsPath1053" d="M 0 12.5C 0 -4.166666666666667 25 -4.166666666666667 25 12.5C 25 29.166666666666668 0 29.166666666666668 0 12.5Z" stroke="rgba(50,50,50,1)" stroke-width="3" fill-opacity="1" fill="#ffffff"></path><path id="SvgjsPath1054" d="M 6.25 12.5C 6.25 4.166666666666666 18.75 4.166666666666666 18.75 12.5C 18.75 20.833333333333336 6.25 20.833333333333336 6.25 12.5Z" stroke="none" fill-opacity="1" fill="#323232"></path><path id="SvgjsPath1055" d="M 0 12.5C 0 -4.166666666666667 25 -4.166666666666667 25 12.5C 25 29.166666666666668 0 29.166666666666668 0 12.5Z" stroke="none" fill="none"></path><g id="SvgjsG1056"><text id="SvgjsText1057" font-family="&quot;Times New Roman&quot;" text-anchor="middle" font-size="13px" width="65px" fill="#323232" font-weight="400" align="middle" lineHeight="125%" anchor="middle" family="&quot;Times New Roman&quot;" size="13px" weight="400" font-style="" opacity="1" y="29.875" transform="rotate(0)"></text></g></g><g id="SvgjsG1058"><path id="SvgjsPath1059" d="M146.00624084472656 535.5999975204468L146.00624084472656 558.3499979972839L146.00624084472656 558.3499979972839L146.00624084472656 579.7999984741211" stroke="#323232" stroke-width="1" fill="none" marker-end="url(#SvgjsMarker1060)"></path></g><g id="SvgjsG1062" transform="translate(148.50624084472656,251.5999984741211)"><path id="SvgjsPath1063" d="M 0 0L 35 0L 35 35L 0 35Z" stroke="none" fill="none"></path><g id="SvgjsG1064"><text id="SvgjsText1065" font-family="&quot;Times New Roman&quot;" text-anchor="middle" font-size="13px" width="35px" fill="#323232" font-weight="700" align="middle" lineHeight="125%" anchor="middle" family="&quot;Times New Roman&quot;" size="13px" weight="700" font-style="" opacity="1" y="7.375" transform="rotate(0)"><tspan id="SvgjsTspan1066" dy="16" x="17.5"><tspan id="SvgjsTspan1067" style="text-decoration:;">Y</tspan></tspan></text></g></g><g id="SvgjsG1068" transform="translate(56.00624084472656,384)"><path id="SvgjsPath1069" d="M 0 30L 90 0L 180 30L 90 60Z" stroke="rgba(50,50,50,1)" stroke-width="1" fill-opacity="1" fill="#ffe6cc"></path><g id="SvgjsG1070"><text id="SvgjsText1071" font-family="&quot;Times New Roman&quot;" text-anchor="middle" font-size="13px" width="160px" fill="#323232" font-weight="400" align="middle" lineHeight="125%" anchor="middle" family="&quot;Times New Roman&quot;" size="13px" weight="400" font-style="" opacity="1" y="12.175" transform="rotate(0)"><tspan id="SvgjsTspan1072" dy="16" x="90"><tspan id="SvgjsTspan1073" style="text-decoration:;">是否调用过</tspan></tspan><tspan id="SvgjsTspan1074" dy="16" x="90"><tspan id="SvgjsTspan1075" style="text-decoration:;">( onStartCommand() )</tspan></tspan></text></g></g><g id="SvgjsG1076"><path id="SvgjsPath1077" d="M236.50624084472656 414L266.00624084472656 414L266.00624084472656 594.0999984741211L160.30624084472652 594.0999984741211" stroke="#323232" stroke-width="1" fill="none" marker-end="url(#SvgjsMarker1078)"></path></g><g id="SvgjsG1080" transform="translate(25.006240844726562,183.5999984741211)"><path id="SvgjsPath1081" d="M 0 0L 35 0L 35 35L 0 35Z" stroke="none" fill="none"></path><g id="SvgjsG1082"><text id="SvgjsText1083" font-family="&quot;Times New Roman&quot;" text-anchor="middle" font-size="13px" width="35px" fill="#323232" font-weight="700" align="middle" lineHeight="125%" anchor="middle" family="&quot;Times New Roman&quot;" size="13px" weight="700" font-style="" opacity="1" y="7.375" transform="rotate(0)"><tspan id="SvgjsTspan1084" dy="16" x="17.5"><tspan id="SvgjsTspan1085" style="text-decoration:;">N</tspan></tspan></text></g></g><g id="SvgjsG1086"><path id="SvgjsPath1087" d="M146.00624084472656 340.5999975204468L146.00624084472656 362.0499987602234L146.00624084472656 362.0499987602234L146.00624084472656 382.2" stroke="#323232" stroke-width="1" fill="none" marker-end="url(#SvgjsMarker1088)"></path></g><g id="SvgjsG1090"><path id="SvgjsPath1091" d="M146.00624084472656 444.5L146.00624084472656 467.0499987602234L146.00624084472656 467.0499987602234L146.00624084472656 488.2999975204468" stroke="#323232" stroke-width="1" fill="none" marker-end="url(#SvgjsMarker1092)"></path></g><g id="SvgjsG1094" transform="translate(231.50624084472656,377.5999984741211)"><path id="SvgjsPath1095" d="M 0 0L 35 0L 35 35L 0 35Z" stroke="none" fill="none"></path><g id="SvgjsG1096"><text id="SvgjsText1097" font-family="&quot;Times New Roman&quot;" text-anchor="middle" font-size="13px" width="35px" fill="#323232" font-weight="700" align="middle" lineHeight="125%" anchor="middle" family="&quot;Times New Roman&quot;" size="13px" weight="700" font-style="" opacity="1" y="7.375" transform="rotate(0)"><tspan id="SvgjsTspan1098" dy="16" x="17.5"><tspan id="SvgjsTspan1099" style="text-decoration:;">N</tspan></tspan></text></g></g><g id="SvgjsG1100"><path id="SvgjsPath1101" d="M55.50624084472656 219L26.006240844726562 219L26.006240844726562 414L54.20624084472655 414" stroke="#323232" stroke-width="1" fill="none" marker-end="url(#SvgjsMarker1102)"></path></g><g id="SvgjsG1104" transform="translate(148.50624084472656,449.5999984741211)"><path id="SvgjsPath1105" d="M 0 0L 35 0L 35 35L 0 35Z" stroke="none" fill="none"></path><g id="SvgjsG1106"><text id="SvgjsText1107" font-family="&quot;Times New Roman&quot;" text-anchor="middle" font-size="13px" width="35px" fill="#323232" font-weight="700" align="middle" lineHeight="125%" anchor="middle" family="&quot;Times New Roman&quot;" size="13px" weight="700" font-style="" opacity="1" y="7.375" transform="rotate(0)"><tspan id="SvgjsTspan1108" dy="16" x="17.5"><tspan id="SvgjsTspan1109" style="text-decoration:;">Y</tspan></tspan></text></g></g></svg>