<svg id="SvgjsSvg1006" width="1055" height="357.8359375" xmlns="http://www.w3.org/2000/svg" version="1.1" xmlns:xlink="http://www.w3.org/1999/xlink" xmlns:svgjs="http://svgjs.com/svgjs"><defs id="SvgjsDefs1007"><marker id="SvgjsMarker1066" markerWidth="12" markerHeight="8" refX="9" refY="4" viewBox="0 0 12 8" orient="auto" markerUnits="userSpaceOnUse" stroke-dasharray="0,0"><path id="SvgjsPath1067" d="M0,0 L12,4 L0,8 L0,0" fill="#323232" stroke="#323232" stroke-width="1"></path></marker><marker id="SvgjsMarker1070" markerWidth="12" markerHeight="8" refX="9" refY="4" viewBox="0 0 12 8" orient="auto" markerUnits="userSpaceOnUse" stroke-dasharray="0,0"><path id="SvgjsPath1071" d="M0,0 L12,4 L0,8 L0,0" fill="#323232" stroke="#323232" stroke-width="1"></path></marker><marker id="SvgjsMarker1120" markerWidth="12" markerHeight="8" refX="9" refY="4" viewBox="0 0 12 8" orient="auto" markerUnits="userSpaceOnUse" stroke-dasharray="0,0"><path id="SvgjsPath1121" d="M0,0 L12,4 L0,8 L0,0" fill="#323232" stroke="#323232" stroke-width="1"></path></marker><marker id="SvgjsMarker1124" markerWidth="12" markerHeight="8" refX="9" refY="4" viewBox="0 0 12 8" orient="auto" markerUnits="userSpaceOnUse" stroke-dasharray="0,0"><path id="SvgjsPath1125" d="M0,0 L12,4 L0,8 L0,0" fill="#323232" stroke="#323232" stroke-width="1"></path></marker><marker id="SvgjsMarker1188" markerWidth="12" markerHeight="8" refX="9" refY="4" viewBox="0 0 12 8" orient="auto" markerUnits="userSpaceOnUse" stroke-dasharray="0,0"><path id="SvgjsPath1189" d="M0,0 L12,4 L0,8 L0,0" fill="#323232" stroke="#323232" stroke-width="1"></path></marker><marker id="SvgjsMarker1192" markerWidth="12" markerHeight="8" refX="9" refY="4" viewBox="0 0 12 8" orient="auto" markerUnits="userSpaceOnUse" stroke-dasharray="0,0"><path id="SvgjsPath1193" d="M0,0 L12,4 L0,8 L0,0" fill="#323232" stroke="#323232" stroke-width="1"></path></marker><marker id="SvgjsMarker1196" markerWidth="12" markerHeight="8" refX="9" refY="4" viewBox="0 0 12 8" orient="auto" markerUnits="userSpaceOnUse" stroke-dasharray="0,0"><path id="SvgjsPath1197" d="M0,0 L12,4 L0,8 L0,0" fill="#323232" stroke="#323232" stroke-width="1"></path></marker><marker id="SvgjsMarker1206" markerWidth="12" markerHeight="8" refX="9" refY="4" viewBox="0 0 12 8" orient="auto" markerUnits="userSpaceOnUse" stroke-dasharray="0,0"><path id="SvgjsPath1207" d="M0,0 L12,4 L0,8 L0,0" fill="#323232" stroke="#323232" stroke-width="1"></path></marker><marker id="SvgjsMarker1228" markerWidth="12" markerHeight="8" refX="9" refY="4" viewBox="0 0 12 8" orient="auto" markerUnits="userSpaceOnUse" stroke-dasharray="0,0"><path id="SvgjsPath1229" d="M0,0 L12,4 L0,8 L0,0" fill="#323232" stroke="#323232" stroke-width="1"></path></marker><marker id="SvgjsMarker1232" markerWidth="12" markerHeight="8" refX="9" refY="4" viewBox="0 0 12 8" orient="auto" markerUnits="userSpaceOnUse" stroke-dasharray="0,0"><path id="SvgjsPath1233" d="M0,0 L12,4 L0,8 L0,0" fill="#323232" stroke="#323232" stroke-width="1"></path></marker><marker id="SvgjsMarker1236" markerWidth="12" markerHeight="8" refX="9" refY="4" viewBox="0 0 12 8" orient="auto" markerUnits="userSpaceOnUse" stroke-dasharray="0,0"><path id="SvgjsPath1237" d="M0,0 L12,4 L0,8 L0,0" fill="#323232" stroke="#323232" stroke-width="1"></path></marker></defs><g id="SvgjsG1008" transform="translate(25,120.8359375)"><path id="SvgjsPath1009" d="M 0 4Q 0 0 4 0L 176 0Q 180 0 180 4L 180 108Q 180 112 176 112L 4 112Q 0 112 0 108Z" stroke="rgba(50,50,50,1)" stroke-width="1" fill-opacity="1" fill="#ffffff"></path><path id="SvgjsPath1010" d="M 0 30L 180 30" stroke="rgba(50,50,50,1)" stroke-width="1" fill="none"></path><path id="SvgjsPath1011" d="M 0 0L 180 0L 180 112L 0 112Z" stroke="none" fill="none"></path><g id="SvgjsG1012"><text id="SvgjsText1013" font-family="&quot;Times New Roman&quot;" text-anchor="middle" font-size="13px" width="160px" fill="#323232" font-weight="700" align="middle" lineHeight="125%" anchor="middle" family="&quot;Times New Roman&quot;" size="13px" weight="700" font-style="" opacity="1" y="3.875" transform="rotate(0)"><tspan id="SvgjsTspan1014" dy="16" x="90"><tspan id="SvgjsTspan1015" style="text-decoration:;">dict</tspan></tspan></text></g><g id="SvgjsG1016"><text id="SvgjsText1017" font-family="&quot;Times New Roman&quot;" text-anchor="start" font-size="13px" width="160px" fill="#323232" font-weight="400" align="middle" lineHeight="125%" anchor="start" family="&quot;Times New Roman&quot;" size="13px" weight="400" font-style="" opacity="1" y="27.375" transform="rotate(0)"><tspan id="SvgjsTspan1018" dy="16" x="10"><tspan id="SvgjsTspan1019" style="text-decoration:;">type</tspan></tspan><tspan id="SvgjsTspan1020" dy="16" x="10"><tspan id="SvgjsTspan1021" style="text-decoration:;">privdata</tspan></tspan><tspan id="SvgjsTspan1022" dy="16" x="10"><tspan id="SvgjsTspan1023" style="text-decoration:;">ht[2]</tspan></tspan><tspan id="SvgjsTspan1024" dy="16" x="10"><tspan id="SvgjsTspan1025" style="text-decoration:;">rehashidx: -1</tspan></tspan><tspan id="SvgjsTspan1026" dy="16" x="10"><tspan id="SvgjsTspan1027" style="text-decoration:;">iterators: 0</tspan></tspan></text></g></g><g id="SvgjsG1028" transform="translate(265,61.8359375)"><path id="SvgjsPath1029" d="M 0 4Q 0 0 4 0L 176 0Q 180 0 180 4L 180 116Q 180 120 176 120L 4 120Q 0 120 0 116Z" stroke="rgba(50,50,50,1)" stroke-width="1" fill-opacity="1" fill="#ffffff"></path><path id="SvgjsPath1030" d="M 0 30L 180 30" stroke="rgba(50,50,50,1)" stroke-width="1" fill="none"></path><path id="SvgjsPath1031" d="M 0 0L 180 0L 180 120L 0 120Z" stroke="none" fill="none"></path><g id="SvgjsG1032"><text id="SvgjsText1033" font-family="&quot;Times New Roman&quot;" text-anchor="middle" font-size="13px" width="160px" fill="#323232" font-weight="700" align="middle" lineHeight="125%" anchor="middle" family="&quot;Times New Roman&quot;" size="13px" weight="700" font-style="" opacity="1" y="3.875" transform="rotate(0)"><tspan id="SvgjsTspan1034" dy="16" x="90"><tspan id="SvgjsTspan1035" style="text-decoration:;">dictht</tspan></tspan></text></g><g id="SvgjsG1036"><text id="SvgjsText1037" font-family="&quot;Times New Roman&quot;" text-anchor="start" font-size="13px" width="160px" fill="#323232" font-weight="400" align="middle" lineHeight="125%" anchor="start" family="&quot;Times New Roman&quot;" size="13px" weight="400" font-style="" opacity="1" y="39.875" transform="rotate(0)"><tspan id="SvgjsTspan1038" dy="16" x="10"><tspan id="SvgjsTspan1039" style="text-decoration:;">table</tspan></tspan><tspan id="SvgjsTspan1040" dy="16" x="10"><tspan id="SvgjsTspan1041" style="text-decoration:;">size: 4</tspan></tspan><tspan id="SvgjsTspan1042" dy="16" x="10"><tspan id="SvgjsTspan1043" style="text-decoration:;">sizemask: 3</tspan></tspan><tspan id="SvgjsTspan1044" dy="16" x="10"><tspan id="SvgjsTspan1045" style="text-decoration:;">used: 3</tspan></tspan></text></g></g><g id="SvgjsG1046" transform="translate(265,212.8359375)"><path id="SvgjsPath1047" d="M 0 4Q 0 0 4 0L 176 0Q 180 0 180 4L 180 116Q 180 120 176 120L 4 120Q 0 120 0 116Z" stroke="rgba(50,50,50,1)" stroke-width="1" fill-opacity="1" fill="#ffffff"></path><path id="SvgjsPath1048" d="M 0 30L 180 30" stroke="rgba(50,50,50,1)" stroke-width="1" fill="none"></path><path id="SvgjsPath1049" d="M 0 0L 180 0L 180 120L 0 120Z" stroke="none" fill="none"></path><g id="SvgjsG1050"><text id="SvgjsText1051" font-family="&quot;Times New Roman&quot;" text-anchor="middle" font-size="13px" width="160px" fill="#323232" font-weight="700" align="middle" lineHeight="125%" anchor="middle" family="&quot;Times New Roman&quot;" size="13px" weight="700" font-style="" opacity="1" y="3.875" transform="rotate(0)"><tspan id="SvgjsTspan1052" dy="16" x="90"><tspan id="SvgjsTspan1053" style="text-decoration:;">dictht</tspan></tspan></text></g><g id="SvgjsG1054"><text id="SvgjsText1055" font-family="&quot;Times New Roman&quot;" text-anchor="start" font-size="13px" width="160px" fill="#323232" font-weight="400" align="middle" lineHeight="125%" anchor="start" family="&quot;Times New Roman&quot;" size="13px" weight="400" font-style="" opacity="1" y="39.875" transform="rotate(0)"><tspan id="SvgjsTspan1056" dy="16" x="10"><tspan id="SvgjsTspan1057" style="text-decoration:;">table</tspan></tspan><tspan id="SvgjsTspan1058" dy="16" x="10"><tspan id="SvgjsTspan1059" style="text-decoration:;">size: 0</tspan></tspan><tspan id="SvgjsTspan1060" dy="16" x="10"><tspan id="SvgjsTspan1061" style="text-decoration:;">sizemask: 0</tspan></tspan><tspan id="SvgjsTspan1062" dy="16" x="10"><tspan id="SvgjsTspan1063" style="text-decoration:;">used: 0</tspan></tspan></text></g></g><g id="SvgjsG1064"><path id="SvgjsPath1065" d="M205.5 195.8359375L235 195.8359375L235 121.8359375L263.2 121.8359375" stroke="#323232" stroke-width="1" fill="none" marker-end="url(#SvgjsMarker1066)"></path></g><g id="SvgjsG1068"><path id="SvgjsPath1069" d="M205.5 195.8359375L235 195.8359375L235 272.8359375L263.2 272.8359375" stroke="#323232" stroke-width="1" fill="none" marker-end="url(#SvgjsMarker1070)"></path></g><g id="SvgjsG1072" transform="translate(217.5,85.8359375)"><path id="SvgjsPath1073" d="M 0 0L 35 0L 35 35L 0 35Z" stroke="none" fill="none"></path><g id="SvgjsG1074"><text id="SvgjsText1075" font-family="&quot;Times New Roman&quot;" text-anchor="middle" font-size="13px" width="35px" fill="#688f4e" font-weight="400" align="middle" lineHeight="125%" anchor="middle" family="&quot;Times New Roman&quot;" size="13px" weight="400" font-style="" opacity="1" y="6.375" transform="rotate(0)"><tspan id="SvgjsTspan1076" dy="16" x="17.5"><tspan id="SvgjsTspan1077" style="text-decoration:;">ht[0]</tspan></tspan></text></g></g><g id="SvgjsG1078" transform="translate(217.5,273.3359375)"><path id="SvgjsPath1079" d="M 0 0L 35 0L 35 35L 0 35Z" stroke="none" fill="none"></path><g id="SvgjsG1080"><text id="SvgjsText1081" font-family="&quot;Times New Roman&quot;" text-anchor="middle" font-size="13px" width="35px" fill="#688f4e" font-weight="400" align="middle" lineHeight="125%" anchor="middle" family="&quot;Times New Roman&quot;" size="13px" weight="400" font-style="" opacity="1" y="6.375" transform="rotate(0)"><tspan id="SvgjsTspan1082" dy="16" x="17.5"><tspan id="SvgjsTspan1083" style="text-decoration:;">ht[1]</tspan></tspan></text></g></g><g id="SvgjsG1084" transform="translate(505,61.8359375)"><path id="SvgjsPath1085" d="M0 0L180 0L180 38.315999999999995 L0 38.315999999999995Z" stroke="rgba(102, 102, 102,1)" stroke-width="1" fill-opacity="1" fill="#f8f8f8"></path><path id="SvgjsPath1086" d="M0 38.315999999999995L180 38.315999999999995L180 58.727999999999994 L0 58.727999999999994Z" stroke="rgba(102, 102, 102,1)" stroke-width="1" fill-opacity="1" fill="#ffffff"></path><path id="SvgjsPath1087" d="M0 58.74L180 58.74L180 79.152 L0 79.152Z" stroke="rgba(102, 102, 102,1)" stroke-width="1" fill-opacity="1" fill="#ffffff"></path><path id="SvgjsPath1088" d="M0 79.152L180 79.152L180 99.564 L0 99.564Z" stroke="rgba(102, 102, 102,1)" stroke-width="1" fill-opacity="1" fill="#ffffff"></path><path id="SvgjsPath1089" d="M0 99.576L180 99.576L180 120 L0 120Z" stroke="rgba(102, 102, 102,1)" stroke-width="1" fill-opacity="1" fill="#ffffff"></path><g id="SvgjsG1090"><text id="SvgjsText1091" font-family="&quot;Times New Roman&quot;" text-anchor="middle" font-size="13px" width="180px" fill="#323232" font-weight="400" align="middle" lineHeight="125%" anchor="middle" family="&quot;Times New Roman&quot;" size="13px" weight="400" font-style="" opacity="1" y="0.0329999999999977" transform="rotate(0)"><tspan id="SvgjsTspan1092" dy="16" x="90"><tspan id="SvgjsTspan1093" style="text-decoration:;">dictEntry**</tspan></tspan><tspan id="SvgjsTspan1094" dy="16" x="90"><tspan id="SvgjsTspan1095" style="text-decoration:;">(Bucket)</tspan></tspan></text></g><g id="SvgjsG1096"><text id="SvgjsText1097" font-family="&quot;Times New Roman&quot;" text-anchor="middle" font-size="13px" width="180px" fill="#323232" font-weight="400" align="middle" lineHeight="125%" anchor="middle" family="&quot;Times New Roman&quot;" size="13px" weight="400" font-style="" opacity="1" y="37.39699999999999" transform="rotate(0)"><tspan id="SvgjsTspan1098" dy="16" x="90"><tspan id="SvgjsTspan1099" style="text-decoration:;">0</tspan></tspan></text></g><g id="SvgjsG1100"><text id="SvgjsText1101" font-family="&quot;Times New Roman&quot;" text-anchor="middle" font-size="13px" width="180px" fill="#323232" font-weight="400" align="middle" lineHeight="125%" anchor="middle" family="&quot;Times New Roman&quot;" size="13px" weight="400" font-style="" opacity="1" y="57.821" transform="rotate(0)"><tspan id="SvgjsTspan1102" dy="16" x="90"><tspan id="SvgjsTspan1103" style="text-decoration:;">1</tspan></tspan></text></g><g id="SvgjsG1104"><text id="SvgjsText1105" font-family="&quot;Times New Roman&quot;" text-anchor="middle" font-size="13px" width="180px" fill="#323232" font-weight="400" align="middle" lineHeight="125%" anchor="middle" family="&quot;Times New Roman&quot;" size="13px" weight="400" font-style="" opacity="1" y="78.233" transform="rotate(0)"><tspan id="SvgjsTspan1106" dy="16" x="90"><tspan id="SvgjsTspan1107" style="text-decoration:;">2</tspan></tspan></text></g><g id="SvgjsG1108"><text id="SvgjsText1109" font-family="&quot;Times New Roman&quot;" text-anchor="middle" font-size="13px" width="180px" fill="#323232" font-weight="400" align="middle" lineHeight="125%" anchor="middle" family="&quot;Times New Roman&quot;" size="13px" weight="400" font-style="" opacity="1" y="98.663" transform="rotate(0)"><tspan id="SvgjsTspan1110" dy="16" x="90"><tspan id="SvgjsTspan1111" style="text-decoration:;">3</tspan></tspan></text></g></g><g id="SvgjsG1112" transform="translate(565,255.3359375)"><path id="SvgjsPath1113" d="M 0 0L 60 0L 60 35L 0 35Z" stroke="rgba(50,50,50,1)" stroke-width="1" fill-opacity="1" fill="#f8f8f8"></path><g id="SvgjsG1114"><text id="SvgjsText1115" font-family="&quot;Times New Roman&quot;" text-anchor="middle" font-size="13px" width="40px" fill="#323232" font-weight="400" align="middle" lineHeight="125%" anchor="middle" family="&quot;Times New Roman&quot;" size="13px" weight="400" font-style="" opacity="1" y="6.375" transform="rotate(0)"><tspan id="SvgjsTspan1116" dy="16" x="30"><tspan id="SvgjsTspan1117" style="text-decoration:;">Nil</tspan></tspan></text></g></g><g id="SvgjsG1118"><path id="SvgjsPath1119" d="M445.5 272.8359375L505 272.8359375L505 272.8359375L563.2 272.8359375" stroke="#323232" stroke-width="1" fill="none" marker-end="url(#SvgjsMarker1120)"></path></g><g id="SvgjsG1122"><path id="SvgjsPath1123" d="M445.5 121.8359375L475 121.8359375L475 121.8359375L503.20000000000005 121.8359375" stroke="#323232" stroke-width="1" fill="none" marker-end="url(#SvgjsMarker1124)"></path></g><g id="SvgjsG1126" transform="translate(453.5,85.8359375)"><path id="SvgjsPath1127" d="M 0 0L 35 0L 35 35L 0 35Z" stroke="none" fill="none"></path><g id="SvgjsG1128"><text id="SvgjsText1129" font-family="&quot;Times New Roman&quot;" text-anchor="middle" font-size="13px" width="35px" fill="#688f4e" font-weight="400" align="middle" lineHeight="125%" anchor="middle" family="&quot;Times New Roman&quot;" size="13px" weight="400" font-style="" opacity="1" y="6.375" transform="rotate(0)"><tspan id="SvgjsTspan1130" dy="16" x="17.5"><tspan id="SvgjsTspan1131" style="text-decoration:;">table</tspan></tspan></text></g></g><g id="SvgjsG1132" transform="translate(481.5,238.3359375)"><path id="SvgjsPath1133" d="M 0 0L 35 0L 35 35L 0 35Z" stroke="none" fill="none"></path><g id="SvgjsG1134"><text id="SvgjsText1135" font-family="&quot;Times New Roman&quot;" text-anchor="middle" font-size="13px" width="35px" fill="#688f4e" font-weight="400" align="middle" lineHeight="125%" anchor="middle" family="&quot;Times New Roman&quot;" size="13px" weight="400" font-style="" opacity="1" y="6.375" transform="rotate(0)"><tspan id="SvgjsTspan1136" dy="16" x="17.5"><tspan id="SvgjsTspan1137" style="text-decoration:;">table</tspan></tspan></text></g></g><g id="SvgjsG1138" transform="translate(745,25.002604166666686)"><path id="SvgjsPath1139" d="M 0 4Q 0 0 4 0L 176 0Q 180 0 180 4L 180 56Q 180 60 176 60L 4 60Q 0 60 0 56Z" stroke="rgba(50,50,50,1)" stroke-width="1" fill-opacity="1" fill="#ffffff"></path><path id="SvgjsPath1140" d="M 0 30L 180 30" stroke="rgba(50,50,50,1)" stroke-width="1" fill="none"></path><path id="SvgjsPath1141" d="M 0 0L 180 0L 180 60L 0 60Z" stroke="none" fill="none"></path><g id="SvgjsG1142"><text id="SvgjsText1143" font-family="&quot;Times New Roman&quot;" text-anchor="middle" font-size="13px" width="160px" fill="#323232" font-weight="700" align="middle" lineHeight="125%" anchor="middle" family="&quot;Times New Roman&quot;" size="13px" weight="700" font-style="" opacity="1" y="3.875" transform="rotate(0)"><tspan id="SvgjsTspan1144" dy="16" x="90"><tspan id="SvgjsTspan1145" style="text-decoration:;">dictEntry</tspan></tspan></text></g><g id="SvgjsG1146"><text id="SvgjsText1147" font-family="&quot;Times New Roman&quot;" text-anchor="start" font-size="13px" width="160px" fill="#323232" font-weight="400" align="middle" lineHeight="125%" anchor="start" family="&quot;Times New Roman&quot;" size="13px" weight="400" font-style="" opacity="1" y="33.875" transform="rotate(0)"></text></g></g><g id="SvgjsG1148" transform="translate(745,54.00260416666666)"><path id="SvgjsPath1149" d="M 0 0L 180 0L 180 30L 0 30Z" stroke="none" fill="none"></path><g id="SvgjsG1150"><text id="SvgjsText1151" font-family="&quot;Times New Roman&quot;" text-anchor="middle" font-size="13px" width="180px" fill="#323232" font-weight="400" align="middle" lineHeight="125%" anchor="middle" family="&quot;Times New Roman&quot;" size="13px" weight="400" font-style="" opacity="1" y="3.875" transform="rotate(0)"><tspan id="SvgjsTspan1152" dy="16" x="90"><tspan id="SvgjsTspan1153" style="text-decoration:;">key1  |  value1  |  next</tspan></tspan></text></g></g><g id="SvgjsG1154" transform="translate(745,99.83593749999994)"><path id="SvgjsPath1155" d="M 0 4Q 0 0 4 0L 176 0Q 180 0 180 4L 180 56Q 180 60 176 60L 4 60Q 0 60 0 56Z" stroke="rgba(50,50,50,1)" stroke-width="1" fill-opacity="1" fill="#ffffff"></path><path id="SvgjsPath1156" d="M 0 30L 180 30" stroke="rgba(50,50,50,1)" stroke-width="1" fill="none"></path><path id="SvgjsPath1157" d="M 0 0L 180 0L 180 60L 0 60Z" stroke="none" fill="none"></path><g id="SvgjsG1158"><text id="SvgjsText1159" font-family="&quot;Times New Roman&quot;" text-anchor="middle" font-size="13px" width="160px" fill="#323232" font-weight="700" align="middle" lineHeight="125%" anchor="middle" family="&quot;Times New Roman&quot;" size="13px" weight="700" font-style="" opacity="1" y="3.875" transform="rotate(0)"><tspan id="SvgjsTspan1160" dy="16" x="90"><tspan id="SvgjsTspan1161" style="text-decoration:;">dictEntry</tspan></tspan></text></g><g id="SvgjsG1162"><text id="SvgjsText1163" font-family="&quot;Times New Roman&quot;" text-anchor="start" font-size="13px" width="160px" fill="#323232" font-weight="400" align="middle" lineHeight="125%" anchor="start" family="&quot;Times New Roman&quot;" size="13px" weight="400" font-style="" opacity="1" y="33.875" transform="rotate(0)"></text></g></g><g id="SvgjsG1164" transform="translate(745,128.83593749999991)"><path id="SvgjsPath1165" d="M 0 0L 180 0L 180 30L 0 30Z" stroke="none" fill="none"></path><g id="SvgjsG1166"><text id="SvgjsText1167" font-family="&quot;Times New Roman&quot;" text-anchor="middle" font-size="13px" width="180px" fill="#323232" font-weight="400" align="middle" lineHeight="125%" anchor="middle" family="&quot;Times New Roman&quot;" size="13px" weight="400" font-style="" opacity="1" y="3.875" transform="rotate(0)"><tspan id="SvgjsTspan1168" dy="16" x="90"><tspan id="SvgjsTspan1169" style="text-decoration:;">key2  |  value2  |  next</tspan></tspan></text></g></g><g id="SvgjsG1170" transform="translate(745,174.9311755952382)"><path id="SvgjsPath1171" d="M 0 4Q 0 0 4 0L 176 0Q 180 0 180 4L 180 56Q 180 60 176 60L 4 60Q 0 60 0 56Z" stroke="rgba(50,50,50,1)" stroke-width="1" fill-opacity="1" fill="#ffffff"></path><path id="SvgjsPath1172" d="M 0 30L 180 30" stroke="rgba(50,50,50,1)" stroke-width="1" fill="none"></path><path id="SvgjsPath1173" d="M 0 0L 180 0L 180 60L 0 60Z" stroke="none" fill="none"></path><g id="SvgjsG1174"><text id="SvgjsText1175" font-family="&quot;Times New Roman&quot;" text-anchor="middle" font-size="13px" width="160px" fill="#323232" font-weight="700" align="middle" lineHeight="125%" anchor="middle" family="&quot;Times New Roman&quot;" size="13px" weight="700" font-style="" opacity="1" y="3.875" transform="rotate(0)"><tspan id="SvgjsTspan1176" dy="16" x="90"><tspan id="SvgjsTspan1177" style="text-decoration:;">dictEntry</tspan></tspan></text></g><g id="SvgjsG1178"><text id="SvgjsText1179" font-family="&quot;Times New Roman&quot;" text-anchor="start" font-size="13px" width="160px" fill="#323232" font-weight="400" align="middle" lineHeight="125%" anchor="start" family="&quot;Times New Roman&quot;" size="13px" weight="400" font-style="" opacity="1" y="33.875" transform="rotate(0)"></text></g></g><g id="SvgjsG1180" transform="translate(745,203.93117559523824)"><path id="SvgjsPath1181" d="M 0 0L 180 0L 180 30L 0 30Z" stroke="none" fill="none"></path><g id="SvgjsG1182"><text id="SvgjsText1183" font-family="&quot;Times New Roman&quot;" text-anchor="middle" font-size="13px" width="180px" fill="#323232" font-weight="400" align="middle" lineHeight="125%" anchor="middle" family="&quot;Times New Roman&quot;" size="13px" weight="400" font-style="" opacity="1" y="3.875" transform="rotate(0)"><tspan id="SvgjsTspan1184" dy="16" x="90"><tspan id="SvgjsTspan1185" style="text-decoration:;">key3  |  value3  |  next</tspan></tspan></text></g></g><g id="SvgjsG1186"><path id="SvgjsPath1187" d="M685.5 107.97879464285717L715 107.97879464285717L715 55.00260416666666L743.2 55.00260416666666" stroke="#323232" stroke-width="1" fill="none" marker-end="url(#SvgjsMarker1188)"></path></g><g id="SvgjsG1190"><path id="SvgjsPath1191" d="M685.5 129.83593749999994L715 129.83593749999994L715 129.83593749999994L743.2 129.83593749999994" stroke="#323232" stroke-width="1" fill="none" marker-end="url(#SvgjsMarker1192)"></path></g><g id="SvgjsG1194"><path id="SvgjsPath1195" d="M685.5 147.97879464285717L715 147.97879464285717L715 204.93117559523824L743.2 204.93117559523824" stroke="#323232" stroke-width="1" fill="none" marker-end="url(#SvgjsMarker1196)"></path></g><g id="SvgjsG1198" transform="translate(809.9999999999998,251.69308035714312)"><path id="SvgjsPath1199" d="M 0 0L 60 0L 60 35L 0 35Z" stroke="rgba(50,50,50,1)" stroke-width="1" fill-opacity="1" fill="#f8f8f8"></path><g id="SvgjsG1200"><text id="SvgjsText1201" font-family="&quot;Times New Roman&quot;" text-anchor="middle" font-size="13px" width="40px" fill="#323232" font-weight="400" align="middle" lineHeight="125%" anchor="middle" family="&quot;Times New Roman&quot;" size="13px" weight="400" font-style="" opacity="1" y="6.375" transform="rotate(0)"><tspan id="SvgjsTspan1202" dy="16" x="30"><tspan id="SvgjsTspan1203" style="text-decoration:;">Nil</tspan></tspan></text></g></g><g id="SvgjsG1204"><path id="SvgjsPath1205" d="M595.0351049709277 182.33470361855274C 595 274.66375264883413 717.1721848511656 269.1930803571431 808.2000036758667 269.1967180909742" stroke="#323232" stroke-width="1" fill="none" marker-end="url(#SvgjsMarker1206)"></path></g><g id="SvgjsG1208" transform="translate(970.0000000000005,49.00260416666666)"><path id="SvgjsPath1209" d="M 0 0L 60 0L 60 35L 0 35Z" stroke="rgba(50,50,50,1)" stroke-width="1" fill-opacity="1" fill="#f8f8f8"></path><g id="SvgjsG1210"><text id="SvgjsText1211" font-family="&quot;Times New Roman&quot;" text-anchor="middle" font-size="13px" width="40px" fill="#323232" font-weight="400" align="middle" lineHeight="125%" anchor="middle" family="&quot;Times New Roman&quot;" size="13px" weight="400" font-style="" opacity="1" y="6.375" transform="rotate(0)"><tspan id="SvgjsTspan1212" dy="16" x="30"><tspan id="SvgjsTspan1213" style="text-decoration:;">Nil</tspan></tspan></text></g></g><g id="SvgjsG1214" transform="translate(970.0000000000005,125.3121279761906)"><path id="SvgjsPath1215" d="M 0 0L 60 0L 60 35L 0 35Z" stroke="rgba(50,50,50,1)" stroke-width="1" fill-opacity="1" fill="#f8f8f8"></path><g id="SvgjsG1216"><text id="SvgjsText1217" font-family="&quot;Times New Roman&quot;" text-anchor="middle" font-size="13px" width="40px" fill="#323232" font-weight="400" align="middle" lineHeight="125%" anchor="middle" family="&quot;Times New Roman&quot;" size="13px" weight="400" font-style="" opacity="1" y="6.375" transform="rotate(0)"><tspan id="SvgjsTspan1218" dy="16" x="30"><tspan id="SvgjsTspan1219" style="text-decoration:;">Nil</tspan></tspan></text></g></g><g id="SvgjsG1220" transform="translate(970.0000000000002,200.8835565476195)"><path id="SvgjsPath1221" d="M 0 0L 60 0L 60 35L 0 35Z" stroke="rgba(50,50,50,1)" stroke-width="1" fill-opacity="1" fill="#f8f8f8"></path><g id="SvgjsG1222"><text id="SvgjsText1223" font-family="&quot;Times New Roman&quot;" text-anchor="middle" font-size="13px" width="40px" fill="#323232" font-weight="400" align="middle" lineHeight="125%" anchor="middle" family="&quot;Times New Roman&quot;" size="13px" weight="400" font-style="" opacity="1" y="6.375" transform="rotate(0)"><tspan id="SvgjsTspan1224" dy="16" x="30"><tspan id="SvgjsTspan1225" style="text-decoration:;">Nil</tspan></tspan></text></g></g><g id="SvgjsG1226"><path id="SvgjsPath1227" d="M897.0526315789472 68.57403273809507L933.5263157894738 68.57403273809507L933.5263157894738 68.5026041666666L968.2000000000005 68.5026041666666" stroke="#323232" stroke-width="1" fill="none" marker-end="url(#SvgjsMarker1228)"></path></g><g id="SvgjsG1230"><path id="SvgjsPath1231" d="M897.0526315789473 142.81212797619057L933.5263157894739 142.81212797619057L933.5263157894739 142.81212797619057L968.2000000000005 142.81212797619057" stroke="#323232" stroke-width="1" fill="none" marker-end="url(#SvgjsMarker1232)"></path></g><g id="SvgjsG1234"><path id="SvgjsPath1235" d="M897.0526315789471 218.3835565476195L933.5263157894736 218.3835565476195L933.5263157894736 218.3835565476195L968.2000000000003 218.3835565476195" stroke="#323232" stroke-width="1" fill="none" marker-end="url(#SvgjsMarker1236)"></path></g></svg>