<svg id="SvgjsSvg1006" width="440" height="678.5" xmlns="http://www.w3.org/2000/svg" version="1.1" xmlns:xlink="http://www.w3.org/1999/xlink" xmlns:svgjs="http://svgjs.com/svgjs"><defs id="SvgjsDefs1007"><marker id="SvgjsMarker1041" markerWidth="12" markerHeight="8" refX="9" refY="4" viewBox="0 0 12 8" orient="auto" markerUnits="userSpaceOnUse" stroke-dasharray="0,0"><path id="SvgjsPath1042" d="M0,0 L12,4 L0,8 L0,0" fill="#323232" stroke="#323232" stroke-width="1"></path></marker><marker id="SvgjsMarker1045" markerWidth="12" markerHeight="8" refX="9" refY="4" viewBox="0 0 12 8" orient="auto" markerUnits="userSpaceOnUse" stroke-dasharray="0,0"><path id="SvgjsPath1046" d="M0,0 L12,4 L0,8 L0,0" fill="#323232" stroke="#323232" stroke-width="1"></path></marker><marker id="SvgjsMarker1066" markerWidth="12" markerHeight="8" refX="9" refY="4" viewBox="0 0 12 8" orient="auto" markerUnits="userSpaceOnUse" stroke-dasharray="0,0"><path id="SvgjsPath1067" d="M0,0 L12,4 L0,8 L0,0" fill="#323232" stroke="#323232" stroke-width="1"></path></marker><marker id="SvgjsMarker1078" markerWidth="12" markerHeight="8" refX="9" refY="4" viewBox="0 0 12 8" orient="auto" markerUnits="userSpaceOnUse" stroke-dasharray="0,0"><path id="SvgjsPath1079" d="M0,0 L12,4 L0,8 L0,0" fill="#323232" stroke="#323232" stroke-width="1"></path></marker><marker id="SvgjsMarker1117" markerWidth="12" markerHeight="8" refX="9" refY="4" viewBox="0 0 12 8" orient="auto" markerUnits="userSpaceOnUse" stroke-dasharray="0,0"><path id="SvgjsPath1118" d="M0,0 L12,4 L0,8 L0,0" fill="#323232" stroke="#323232" stroke-width="1"></path></marker><marker id="SvgjsMarker1121" markerWidth="12" markerHeight="8" refX="9" refY="4" viewBox="0 0 12 8" orient="auto" markerUnits="userSpaceOnUse" stroke-dasharray="0,0"><path id="SvgjsPath1122" d="M0,0 L12,4 L0,8 L0,0" fill="#323232" stroke="#323232" stroke-width="1"></path></marker><marker id="SvgjsMarker1152" markerWidth="12" markerHeight="8" refX="9" refY="4" viewBox="0 0 12 8" orient="auto" markerUnits="userSpaceOnUse" stroke-dasharray="0,0"><path id="SvgjsPath1153" d="M0,0 L12,4 L0,8 L0,0" fill="#323232" stroke="#323232" stroke-width="1"></path></marker><marker id="SvgjsMarker1168" markerWidth="12" markerHeight="8" refX="9" refY="4" viewBox="0 0 12 8" orient="auto" markerUnits="userSpaceOnUse" stroke-dasharray="0,0"><path id="SvgjsPath1169" d="M0,0 L12,4 L0,8 L0,0" fill="#323232" stroke="#323232" stroke-width="1"></path></marker><marker id="SvgjsMarker1172" markerWidth="12" markerHeight="8" refX="9" refY="4" viewBox="0 0 12 8" orient="auto" markerUnits="userSpaceOnUse" stroke-dasharray="0,0"><path id="SvgjsPath1173" d="M0,0 L12,4 L0,8 L0,0" fill="#323232" stroke="#323232" stroke-width="1"></path></marker></defs><g id="SvgjsG1008" transform="translate(28,327)"><path id="SvgjsPath1009" d="M 0 4Q 0 0 4 0L 146 0Q 150 0 150 4L 150 56Q 150 60 146 60L 4 60Q 0 60 0 56Z" stroke="rgba(50,50,50,1)" stroke-width="1" fill-opacity="1" fill="#e5e5e5"></path><g id="SvgjsG1010"><text id="SvgjsText1011" font-family="&quot;Times New Roman&quot;" text-anchor="middle" font-size="13px" width="130px" fill="#323232" font-weight="400" align="middle" lineHeight="125%" anchor="middle" family="&quot;Times New Roman&quot;" size="13px" weight="400" font-style="" opacity="1" y="3.875" transform="rotate(0)"><tspan id="SvgjsTspan1012" dy="16" x="75"><tspan id="SvgjsTspan1013" style="text-decoration:;">The service</tspan></tspan><tspan id="SvgjsTspan1014" dy="16" x="75"><tspan id="SvgjsTspan1015" style="text-decoration:;">is stopped by</tspan></tspan><tspan id="SvgjsTspan1016" dy="16" x="75"><tspan id="SvgjsTspan1017" style="text-decoration:;">itself or a client</tspan></tspan></text></g></g><g id="SvgjsG1018" transform="translate(28,25)"><path id="SvgjsPath1019" d="M 15 0L 135 0C 155 0 155 45 135 45L 15 45C -5 45 -5 0 15 0Z" stroke="rgba(50,50,50,1)" stroke-width="1" fill-opacity="1" fill="#cce5ff"></path><g id="SvgjsG1020"><text id="SvgjsText1021" font-family="&quot;Times New Roman&quot;" text-anchor="middle" font-size="13px" width="130px" fill="#323232" font-weight="400" align="middle" lineHeight="125%" anchor="middle" family="&quot;Times New Roman&quot;" size="13px" weight="400" font-style="" opacity="1" y="4.375" transform="rotate(0)"><tspan id="SvgjsTspan1022" dy="16" x="75"><tspan id="SvgjsTspan1023" style="text-decoration:;">Component </tspan><tspan id="SvgjsTspan1024" style="text-decoration:;font-size: inherit;">calls</tspan></tspan><tspan id="SvgjsTspan1025" dy="16" x="75"><tspan id="SvgjsTspan1026" style="text-decoration:;">startService()</tspan></tspan></text></g></g><g id="SvgjsG1027" transform="translate(28,102)"><path id="SvgjsPath1028" d="M 0 0L 150 0L 150 45L 0 45Z" stroke="rgba(50,50,50,1)" stroke-width="1" fill-opacity="1" fill="#ffffff"></path><g id="SvgjsG1029"><text id="SvgjsText1030" font-family="&quot;Times New Roman&quot;" text-anchor="middle" font-size="13px" width="130px" fill="#323232" font-weight="400" align="middle" lineHeight="125%" anchor="middle" family="&quot;Times New Roman&quot;" size="13px" weight="400" font-style="" opacity="1" y="12.375" transform="rotate(0)"><tspan id="SvgjsTspan1031" dy="16" x="75"><tspan id="SvgjsTspan1032" style="text-decoration:;">onCreate()</tspan></tspan></text></g></g><g id="SvgjsG1033" transform="translate(28,176)"><path id="SvgjsPath1034" d="M 0 0L 150 0L 150 45L 0 45Z" stroke="rgba(50,50,50,1)" stroke-width="1" fill-opacity="1" fill="#ffffff"></path><g id="SvgjsG1035"><text id="SvgjsText1036" font-family="&quot;Times New Roman&quot;" text-anchor="middle" font-size="13px" width="130px" fill="#323232" font-weight="400" align="middle" lineHeight="125%" anchor="middle" family="&quot;Times New Roman&quot;" size="13px" weight="400" font-style="" opacity="1" y="12.375" transform="rotate(0)"><tspan id="SvgjsTspan1037" dy="16" x="75"><tspan id="SvgjsTspan1038" style="text-decoration:;">onStartCommand()</tspan></tspan></text></g></g><g id="SvgjsG1039"><path id="SvgjsPath1040" d="M103 70.5L103 86L103 86L103 100.19999999999999" stroke="#323232" stroke-width="1" fill="none" marker-end="url(#SvgjsMarker1041)"></path></g><g id="SvgjsG1043"><path id="SvgjsPath1044" d="M103 147.5L103 161.5L103 161.5L103 174.2" stroke="#323232" stroke-width="1" fill="none" marker-end="url(#SvgjsMarker1045)"></path></g><g id="SvgjsG1047" transform="translate(28,250)"><path id="SvgjsPath1048" d="M 15 0L 135 0C 155 0 155 45 135 45L 15 45C -5 45 -5 0 15 0Z" stroke="rgba(50,50,50,1)" stroke-width="1" fill-opacity="1" fill="#ccffe6"></path><g id="SvgjsG1049"><text id="SvgjsText1050" font-family="&quot;Times New Roman&quot;" text-anchor="middle" font-size="13px" width="130px" fill="#323232" font-weight="400" align="middle" lineHeight="125%" anchor="middle" family="&quot;Times New Roman&quot;" size="13px" weight="400" font-style="" opacity="1" y="12.375" transform="rotate(0)"><tspan id="SvgjsTspan1051" dy="16" x="75"><tspan id="SvgjsTspan1052" style="text-decoration:;">Service is </tspan><tspan id="SvgjsTspan1053" style="text-decoration:;font-size: inherit;">running</tspan></tspan></text></g></g><g id="SvgjsG1054"><path id="SvgjsPath1055" d="M103 221.5L103 235.5L103 235.5L103 249.5" stroke="#323232" stroke-width="1" fill="none"></path></g><g id="SvgjsG1056" transform="translate(28,418)"><path id="SvgjsPath1057" d="M 0 0L 150 0L 150 45L 0 45Z" stroke="rgba(50,50,50,1)" stroke-width="1" fill-opacity="1" fill="#ffffff"></path><g id="SvgjsG1058"><text id="SvgjsText1059" font-family="&quot;Times New Roman&quot;" text-anchor="middle" font-size="13px" width="130px" fill="#323232" font-weight="400" align="middle" lineHeight="125%" anchor="middle" family="&quot;Times New Roman&quot;" size="13px" weight="400" font-style="" opacity="1" y="12.375" transform="rotate(0)"><tspan id="SvgjsTspan1060" dy="16" x="75"><tspan id="SvgjsTspan1061" style="text-decoration:;">onDestory()</tspan></tspan></text></g></g><g id="SvgjsG1062"><path id="SvgjsPath1063" d="M103 295.5L103 311L103 311L103 326.5" stroke="#323232" stroke-width="1" fill="none"></path></g><g id="SvgjsG1064"><path id="SvgjsPath1065" d="M103 387.5L103 402.5L103 402.5L103 416.2" stroke="#323232" stroke-width="1" fill="none" marker-end="url(#SvgjsMarker1066)"></path></g><g id="SvgjsG1068" transform="translate(43,491)"><path id="SvgjsPath1069" d="M 15 0L 105 0C 125 0 125 45 105 45L 15 45C -5 45 -5 0 15 0Z" stroke="rgba(50,50,50,1)" stroke-width="1" fill-opacity="1" fill="#ffe6cc"></path><g id="SvgjsG1070"><text id="SvgjsText1071" font-family="&quot;Times New Roman&quot;" text-anchor="middle" font-size="13px" width="100px" fill="#323232" font-weight="400" align="middle" lineHeight="125%" anchor="middle" family="&quot;Times New Roman&quot;" size="13px" weight="400" font-style="" opacity="1" y="4.375" transform="rotate(0)"><tspan id="SvgjsTspan1072" dy="16" x="60"><tspan id="SvgjsTspan1073" style="text-decoration:;">Service is</tspan></tspan><tspan id="SvgjsTspan1074" dy="16" x="60"><tspan id="SvgjsTspan1075" style="text-decoration:;">shut down</tspan></tspan></text></g></g><g id="SvgjsG1076"><path id="SvgjsPath1077" d="M103 463.5L103 477L103 477L103 489.20000000000005" stroke="#323232" stroke-width="1" fill="none" marker-end="url(#SvgjsMarker1078)"></path></g><g id="SvgjsG1080" transform="translate(25,556.5)"><path id="SvgjsPath1081" d="M 0 0L 150 0L 150 25L 0 25Z" stroke="none" fill="none"></path><g id="SvgjsG1082"><text id="SvgjsText1083" font-family="&quot;Times New Roman&quot;" text-anchor="middle" font-size="13px" width="150px" fill="#323232" font-weight="700" align="middle" lineHeight="125%" anchor="middle" family="&quot;Times New Roman&quot;" size="13px" weight="700" font-style="" opacity="1" y="2.375" transform="rotate(0)"><tspan id="SvgjsTspan1084" dy="16" x="75"><tspan id="SvgjsTspan1085" style="text-decoration:;">unbounded</tspan></tspan></text></g></g><g id="SvgjsG1086" transform="translate(265,327)"><path id="SvgjsPath1087" d="M 0 4Q 0 0 4 0L 146 0Q 150 0 150 4L 150 56Q 150 60 146 60L 4 60Q 0 60 0 56Z" stroke="rgba(50,50,50,1)" stroke-width="1" fill-opacity="1" fill="#e5e5e5"></path><g id="SvgjsG1088"><text id="SvgjsText1089" font-family="&quot;Times New Roman&quot;" text-anchor="middle" font-size="13px" width="130px" fill="#323232" font-weight="400" align="middle" lineHeight="125%" anchor="middle" family="&quot;Times New Roman&quot;" size="13px" weight="400" font-style="" opacity="1" y="11.875" transform="rotate(0)"><tspan id="SvgjsTspan1090" dy="16" x="75"><tspan id="SvgjsTspan1091" style="text-decoration:;">All clients unbind by</tspan></tspan><tspan id="SvgjsTspan1092" dy="16" x="75"><tspan id="SvgjsTspan1093" style="text-decoration:;">calling unbindService()</tspan></tspan></text></g></g><g id="SvgjsG1094" transform="translate(265,25)"><path id="SvgjsPath1095" d="M 15 0L 135 0C 155 0 155 45 135 45L 15 45C -5 45 -5 0 15 0Z" stroke="rgba(50,50,50,1)" stroke-width="1" fill-opacity="1" fill="#cce5ff"></path><g id="SvgjsG1096"><text id="SvgjsText1097" font-family="&quot;Times New Roman&quot;" text-anchor="middle" font-size="13px" width="130px" fill="#323232" font-weight="400" align="middle" lineHeight="125%" anchor="middle" family="&quot;Times New Roman&quot;" size="13px" weight="400" font-style="" opacity="1" y="4.375" transform="rotate(0)"><tspan id="SvgjsTspan1098" dy="16" x="75"><tspan id="SvgjsTspan1099" style="text-decoration:;">Component </tspan><tspan id="SvgjsTspan1100" style="text-decoration:;font-size: inherit;">calls</tspan></tspan><tspan id="SvgjsTspan1101" dy="16" x="75"><tspan id="SvgjsTspan1102" style="text-decoration:;">bindService()</tspan></tspan></text></g></g><g id="SvgjsG1103" transform="translate(265,107)"><path id="SvgjsPath1104" d="M 0 0L 150 0L 150 45L 0 45Z" stroke="rgba(50,50,50,1)" stroke-width="1" fill-opacity="1" fill="#ffffff"></path><g id="SvgjsG1105"><text id="SvgjsText1106" font-family="&quot;Times New Roman&quot;" text-anchor="middle" font-size="13px" width="130px" fill="#323232" font-weight="400" align="middle" lineHeight="125%" anchor="middle" family="&quot;Times New Roman&quot;" size="13px" weight="400" font-style="" opacity="1" y="12.375" transform="rotate(0)"><tspan id="SvgjsTspan1107" dy="16" x="75"><tspan id="SvgjsTspan1108" style="text-decoration:;">onCreate()</tspan></tspan></text></g></g><g id="SvgjsG1109" transform="translate(265,176)"><path id="SvgjsPath1110" d="M 0 0L 150 0L 150 45L 0 45Z" stroke="rgba(50,50,50,1)" stroke-width="1" fill-opacity="1" fill="#ffffff"></path><g id="SvgjsG1111"><text id="SvgjsText1112" font-family="&quot;Times New Roman&quot;" text-anchor="middle" font-size="13px" width="130px" fill="#323232" font-weight="400" align="middle" lineHeight="125%" anchor="middle" family="&quot;Times New Roman&quot;" size="13px" weight="400" font-style="" opacity="1" y="12.375" transform="rotate(0)"><tspan id="SvgjsTspan1113" dy="16" x="75"><tspan id="SvgjsTspan1114" style="text-decoration:;">onBind()</tspan></tspan></text></g></g><g id="SvgjsG1115"><path id="SvgjsPath1116" d="M340 70.5L340 88.5L340 88.5L340 105.19999999999999" stroke="#323232" stroke-width="1" fill="none" marker-end="url(#SvgjsMarker1117)"></path></g><g id="SvgjsG1119"><path id="SvgjsPath1120" d="M340 152.5L340 164L340 164L340 174.2" stroke="#323232" stroke-width="1" fill="none" marker-end="url(#SvgjsMarker1121)"></path></g><g id="SvgjsG1123" transform="translate(265,250)"><path id="SvgjsPath1124" d="M 15 0L 135 0C 155 0 155 45 135 45L 15 45C -5 45 -5 0 15 0Z" stroke="rgba(50,50,50,1)" stroke-width="1" fill-opacity="1" fill="#ccffe6"></path><g id="SvgjsG1125"><text id="SvgjsText1126" font-family="&quot;Times New Roman&quot;" text-anchor="middle" font-size="12px" width="130px" fill="#323232" font-weight="400" align="middle" lineHeight="125%" anchor="middle" family="&quot;Times New Roman&quot;" size="12px" weight="400" font-style="" opacity="1" y="6" transform="rotate(0)"><tspan id="SvgjsTspan1127" dy="15" x="75"><tspan id="SvgjsTspan1128" style="text-decoration:;">Service is </tspan><tspan id="SvgjsTspan1129" style="text-decoration:;font-size: inherit;">running</tspan></tspan><tspan id="SvgjsTspan1130" dy="15" x="75"><tspan id="SvgjsTspan1131" style="text-decoration:;">(Client are bound to it)</tspan></tspan></text></g></g><g id="SvgjsG1132"><path id="SvgjsPath1133" d="M340 221.5L340 235.5L340 235.5L340 249.5" stroke="#323232" stroke-width="1" fill="none"></path></g><g id="SvgjsG1134" transform="translate(265,491)"><path id="SvgjsPath1135" d="M 0 0L 150 0L 150 45L 0 45Z" stroke="rgba(50,50,50,1)" stroke-width="1" fill-opacity="1" fill="#ffffff"></path><g id="SvgjsG1136"><text id="SvgjsText1137" font-family="&quot;Times New Roman&quot;" text-anchor="middle" font-size="13px" width="130px" fill="#323232" font-weight="400" align="middle" lineHeight="125%" anchor="middle" family="&quot;Times New Roman&quot;" size="13px" weight="400" font-style="" opacity="1" y="12.375" transform="rotate(0)"><tspan id="SvgjsTspan1138" dy="16" x="75"><tspan id="SvgjsTspan1139" style="text-decoration:;">onDestory()</tspan></tspan></text></g></g><g id="SvgjsG1140"><path id="SvgjsPath1141" d="M340 295.5L340 311L340 311L340 326.5" stroke="#323232" stroke-width="1" fill="none"></path></g><g id="SvgjsG1142" transform="translate(280,567.5)"><path id="SvgjsPath1143" d="M 15 0L 105 0C 125 0 125 45 105 45L 15 45C -5 45 -5 0 15 0Z" stroke="rgba(50,50,50,1)" stroke-width="1" fill-opacity="1" fill="#ffe6cc"></path><g id="SvgjsG1144"><text id="SvgjsText1145" font-family="&quot;Times New Roman&quot;" text-anchor="middle" font-size="13px" width="100px" fill="#323232" font-weight="400" align="middle" lineHeight="125%" anchor="middle" family="&quot;Times New Roman&quot;" size="13px" weight="400" font-style="" opacity="1" y="4.375" transform="rotate(0)"><tspan id="SvgjsTspan1146" dy="16" x="60"><tspan id="SvgjsTspan1147" style="text-decoration:;">Service is</tspan></tspan><tspan id="SvgjsTspan1148" dy="16" x="60"><tspan id="SvgjsTspan1149" style="text-decoration:;">shut down</tspan></tspan></text></g></g><g id="SvgjsG1150"><path id="SvgjsPath1151" d="M340 536.5L340 551.75L340 551.75L340 565.7" stroke="#323232" stroke-width="1" fill="none" marker-end="url(#SvgjsMarker1152)"></path></g><g id="SvgjsG1154" transform="translate(265,628.5)"><path id="SvgjsPath1155" d="M 0 0L 150 0L 150 25L 0 25Z" stroke="none" fill="none"></path><g id="SvgjsG1156"><text id="SvgjsText1157" font-family="&quot;Times New Roman&quot;" text-anchor="middle" font-size="13px" width="150px" fill="#323232" font-weight="700" align="middle" lineHeight="125%" anchor="middle" family="&quot;Times New Roman&quot;" size="13px" weight="700" font-style="" opacity="1" y="2.375" transform="rotate(0)"><tspan id="SvgjsTspan1158" dy="16" x="75"><tspan id="SvgjsTspan1159" style="text-decoration:;">bounded</tspan></tspan></text></g></g><g id="SvgjsG1160" transform="translate(265,418)"><path id="SvgjsPath1161" d="M 0 0L 150 0L 150 45L 0 45Z" stroke="rgba(50,50,50,1)" stroke-width="1" fill-opacity="1" fill="#ffffff"></path><g id="SvgjsG1162"><text id="SvgjsText1163" font-family="&quot;Times New Roman&quot;" text-anchor="middle" font-size="13px" width="130px" fill="#323232" font-weight="400" align="middle" lineHeight="125%" anchor="middle" family="&quot;Times New Roman&quot;" size="13px" weight="400" font-style="" opacity="1" y="12.375" transform="rotate(0)"><tspan id="SvgjsTspan1164" dy="16" x="75"><tspan id="SvgjsTspan1165" style="text-decoration:;">onUnbind()</tspan></tspan></text></g></g><g id="SvgjsG1166"><path id="SvgjsPath1167" d="M340 387.5L340 402.5L340 402.5L340 416.2" stroke="#323232" stroke-width="1" fill="none" marker-end="url(#SvgjsMarker1168)"></path></g><g id="SvgjsG1170"><path id="SvgjsPath1171" d="M340 463.5L340 477L340 477L340 489.20000000000005" stroke="#323232" stroke-width="1" fill="none" marker-end="url(#SvgjsMarker1172)"></path></g></svg>