<svg id="SvgjsSvg1006" width="599.5" height="880" xmlns="http://www.w3.org/2000/svg" version="1.1" xmlns:xlink="http://www.w3.org/1999/xlink" xmlns:svgjs="http://svgjs.com/svgjs"><defs id="SvgjsDefs1007"><marker id="SvgjsMarker1028" markerWidth="12" markerHeight="8" refX="9" refY="4" viewBox="0 0 12 8" orient="auto" markerUnits="userSpaceOnUse" stroke-dasharray="0,0"><path id="SvgjsPath1029" d="M0,0 L12,4 L0,8 L0,0" fill="#323232" stroke="#323232" stroke-width="1"></path></marker><marker id="SvgjsMarker1032" markerWidth="12" markerHeight="8" refX="9" refY="4" viewBox="0 0 12 8" orient="auto" markerUnits="userSpaceOnUse" stroke-dasharray="0,0"><path id="SvgjsPath1033" d="M0,0 L12,4 L0,8 L0,0" fill="#323232" stroke="#323232" stroke-width="1"></path></marker><marker id="SvgjsMarker1042" markerWidth="12" markerHeight="8" refX="9" refY="4" viewBox="0 0 12 8" orient="auto" markerUnits="userSpaceOnUse" stroke-dasharray="0,0"><path id="SvgjsPath1043" d="M0,0 L12,4 L0,8 L0,0" fill="#323232" stroke="#323232" stroke-width="1"></path></marker><marker id="SvgjsMarker1054" markerWidth="12" markerHeight="8" refX="9" refY="4" viewBox="0 0 12 8" orient="auto" markerUnits="userSpaceOnUse" stroke-dasharray="0,0"><path id="SvgjsPath1055" d="M0,0 L12,4 L0,8 L0,0" fill="#323232" stroke="#323232" stroke-width="1"></path></marker><marker id="SvgjsMarker1076" markerWidth="12" markerHeight="8" refX="9" refY="4" viewBox="0 0 12 8" orient="auto" markerUnits="userSpaceOnUse" stroke-dasharray="0,0"><path id="SvgjsPath1077" d="M0,0 L12,4 L0,8 L0,0" fill="#323232" stroke="#323232" stroke-width="1"></path></marker><marker id="SvgjsMarker1110" markerWidth="12" markerHeight="8" refX="9" refY="4" viewBox="0 0 12 8" orient="auto" markerUnits="userSpaceOnUse" stroke-dasharray="0,0"><path id="SvgjsPath1111" d="M0,0 L12,4 L0,8 L0,0" fill="#323232" stroke="#323232" stroke-width="1"></path></marker><marker id="SvgjsMarker1114" markerWidth="12" markerHeight="8" refX="9" refY="4" viewBox="0 0 12 8" orient="auto" markerUnits="userSpaceOnUse" stroke-dasharray="0,0"><path id="SvgjsPath1115" d="M0,0 L12,4 L0,8 L0,0" fill="#323232" stroke="#323232" stroke-width="1"></path></marker><marker id="SvgjsMarker1118" markerWidth="12" markerHeight="8" refX="9" refY="4" viewBox="0 0 12 8" orient="auto" markerUnits="userSpaceOnUse" stroke-dasharray="0,0"><path id="SvgjsPath1119" d="M0,0 L12,4 L0,8 L0,0" fill="#323232" stroke="#323232" stroke-width="1"></path></marker><marker id="SvgjsMarker1150" markerWidth="12" markerHeight="8" refX="9" refY="4" viewBox="0 0 12 8" orient="auto" markerUnits="userSpaceOnUse" stroke-dasharray="0,0"><path id="SvgjsPath1151" d="M0,0 L12,4 L0,8 L0,0" fill="#323232" stroke="#323232" stroke-width="1"></path></marker><marker id="SvgjsMarker1156" markerWidth="12" markerHeight="8" refX="9" refY="4" viewBox="0 0 12 8" orient="auto" markerUnits="userSpaceOnUse" stroke-dasharray="0,0"><path id="SvgjsPath1157" d="M0,0 L12,4 L0,8 L0,0" fill="#323232" stroke="#323232" stroke-width="1"></path></marker><marker id="SvgjsMarker1174" markerWidth="12" markerHeight="8" refX="9" refY="4" viewBox="0 0 12 8" orient="auto" markerUnits="userSpaceOnUse" stroke-dasharray="0,0"><path id="SvgjsPath1175" d="M0,0 L12,4 L0,8 L0,0" fill="#323232" stroke="#323232" stroke-width="1"></path></marker><marker id="SvgjsMarker1184" markerWidth="12" markerHeight="8" refX="9" refY="4" viewBox="0 0 12 8" orient="auto" markerUnits="userSpaceOnUse" stroke-dasharray="0,0"><path id="SvgjsPath1185" d="M0,0 L12,4 L0,8 L0,0" fill="#323232" stroke="#323232" stroke-width="1"></path></marker><marker id="SvgjsMarker1198" markerWidth="12" markerHeight="8" refX="9" refY="4" viewBox="0 0 12 8" orient="auto" markerUnits="userSpaceOnUse" stroke-dasharray="0,0"><path id="SvgjsPath1199" d="M0,0 L12,4 L0,8 L0,0" fill="#323232" stroke="#323232" stroke-width="1"></path></marker><marker id="SvgjsMarker1202" markerWidth="12" markerHeight="8" refX="9" refY="4" viewBox="0 0 12 8" orient="auto" markerUnits="userSpaceOnUse" stroke-dasharray="0,0"><path id="SvgjsPath1203" d="M0,0 L12,4 L0,8 L0,0" fill="#323232" stroke="#323232" stroke-width="1"></path></marker></defs><g id="SvgjsG1008" transform="translate(226,25)"><path id="SvgjsPath1009" d="M 15 0L 105 0C 125 0 125 45 105 45L 15 45C -5 45 -5 0 15 0Z" stroke="rgba(50,50,50,1)" stroke-width="1" fill-opacity="1" fill="#cce5ff"></path><g id="SvgjsG1010"><text id="SvgjsText1011" font-family="&quot;Times New Roman&quot;" text-anchor="middle" font-size="13px" width="100px" fill="#323232" font-weight="400" align="middle" lineHeight="125%" anchor="middle" family="&quot;Times New Roman&quot;" size="13px" weight="400" font-style="" opacity="1" y="12.375" transform="rotate(0)"><tspan id="SvgjsTspan1012" dy="16" x="60"><tspan id="SvgjsTspan1013" style="text-decoration:;">Activity Starts</tspan></tspan></text></g></g><g id="SvgjsG1014" transform="translate(211,103)"><path id="SvgjsPath1015" d="M 0 0L 150 0L 150 45L 0 45Z" stroke="rgba(50,50,50,1)" stroke-width="1" fill-opacity="1" fill="#ffffff"></path><g id="SvgjsG1016"><text id="SvgjsText1017" font-family="微软雅黑" text-anchor="middle" font-size="13px" width="130px" fill="#323232" font-weight="400" align="middle" lineHeight="125%" anchor="middle" family="微软雅黑" size="13px" weight="400" font-style="" opacity="1" y="12.375" transform="rotate(0)"><tspan id="SvgjsTspan1018" dy="16" x="75"><tspan id="SvgjsTspan1019" style="text-decoration:;">onCreate()</tspan></tspan></text></g></g><g id="SvgjsG1020" transform="translate(211,177)"><path id="SvgjsPath1021" d="M 0 0L 150 0L 150 45L 0 45Z" stroke="rgba(50,50,50,1)" stroke-width="1" fill-opacity="1" fill="#ffffff"></path><g id="SvgjsG1022"><text id="SvgjsText1023" font-family="微软雅黑" text-anchor="middle" font-size="13px" width="130px" fill="#323232" font-weight="400" align="middle" lineHeight="125%" anchor="middle" family="微软雅黑" size="13px" weight="400" font-style="" opacity="1" y="12.375" transform="rotate(0)"><tspan id="SvgjsTspan1024" dy="16" x="75"><tspan id="SvgjsTspan1025" style="text-decoration:;">onStart()</tspan></tspan></text></g></g><g id="SvgjsG1026"><path id="SvgjsPath1027" d="M286 70.5L286 86.5L286 86.5L286 101.2" stroke="#323232" stroke-width="1" fill="none" marker-end="url(#SvgjsMarker1028)"></path></g><g id="SvgjsG1030"><path id="SvgjsPath1031" d="M286 148.5L286 162.5L286 162.5L286 175.2" stroke="#323232" stroke-width="1" fill="none" marker-end="url(#SvgjsMarker1032)"></path></g><g id="SvgjsG1034" transform="translate(211,251)"><path id="SvgjsPath1035" d="M 0 0L 150 0L 150 45L 0 45Z" stroke="rgba(50,50,50,1)" stroke-width="1" fill-opacity="1" fill="#ffffff"></path><g id="SvgjsG1036"><text id="SvgjsText1037" font-family="微软雅黑" text-anchor="middle" font-size="13px" width="130px" fill="#323232" font-weight="400" align="middle" lineHeight="125%" anchor="middle" family="微软雅黑" size="13px" weight="400" font-style="" opacity="1" y="12.375" transform="rotate(0)"><tspan id="SvgjsTspan1038" dy="16" x="75"><tspan id="SvgjsTspan1039" style="text-decoration:;">onResume()</tspan></tspan></text></g></g><g id="SvgjsG1040"><path id="SvgjsPath1041" d="M286 222.5L286 236.5L286 236.5L286 249.2" stroke="#323232" stroke-width="1" fill="none" marker-end="url(#SvgjsMarker1042)"></path></g><g id="SvgjsG1044" transform="translate(226,328)"><path id="SvgjsPath1045" d="M 15 0L 105 0C 125 0 125 45 105 45L 15 45C -5 45 -5 0 15 0Z" stroke="rgba(50,50,50,1)" stroke-width="1" fill-opacity="1" fill="#ccffe6"></path><g id="SvgjsG1046"><text id="SvgjsText1047" font-family="&quot;Times New Roman&quot;" text-anchor="middle" font-size="13px" width="100px" fill="#323232" font-weight="400" align="middle" lineHeight="125%" anchor="middle" family="&quot;Times New Roman&quot;" size="13px" weight="400" font-style="" opacity="1" y="4.375" transform="rotate(0)"><tspan id="SvgjsTspan1048" dy="16" x="60"><tspan id="SvgjsTspan1049" style="text-decoration:;">Activity is</tspan></tspan><tspan id="SvgjsTspan1050" dy="16" x="60"><tspan id="SvgjsTspan1051" style="text-decoration:;">running</tspan></tspan></text></g></g><g id="SvgjsG1052"><path id="SvgjsPath1053" d="M286 296.5L286 312L286 312L286 326.2" stroke="#323232" stroke-width="1" fill="none" marker-end="url(#SvgjsMarker1054)"></path></g><g id="SvgjsG1056" transform="translate(211,492)"><path id="SvgjsPath1057" d="M 0 0L 150 0L 150 45L 0 45Z" stroke="rgba(50,50,50,1)" stroke-width="1" fill-opacity="1" fill="#ffffff"></path><g id="SvgjsG1058"><text id="SvgjsText1059" font-family="微软雅黑" text-anchor="middle" font-size="13px" width="130px" fill="#323232" font-weight="400" align="middle" lineHeight="125%" anchor="middle" family="微软雅黑" size="13px" weight="400" font-style="" opacity="1" y="12.375" transform="rotate(0)"><tspan id="SvgjsTspan1060" dy="16" x="75"><tspan id="SvgjsTspan1061" style="text-decoration:;">onPause()</tspan></tspan></text></g></g><g id="SvgjsG1062" transform="translate(211,404)"><path id="SvgjsPath1063" d="M 0 4Q 0 0 4 0L 146 0Q 150 0 150 4L 150 56Q 150 60 146 60L 4 60Q 0 60 0 56Z" stroke="rgba(50,50,50,1)" stroke-width="1" fill-opacity="1" fill="#e5e5e5"></path><g id="SvgjsG1064"><text id="SvgjsText1065" font-family="微软雅黑" text-anchor="middle" font-size="13px" width="130px" fill="#323232" font-weight="400" align="middle" lineHeight="125%" anchor="middle" family="微软雅黑" size="13px" weight="400" font-style="" opacity="1" y="3.875" transform="rotate(0)"><tspan id="SvgjsTspan1066" dy="16" x="75"><tspan id="SvgjsTspan1067" style="text-decoration:;">Another activity</tspan></tspan><tspan id="SvgjsTspan1068" dy="16" x="75"><tspan id="SvgjsTspan1069" style="text-decoration:;font-size: inherit;">comes in front of</tspan></tspan><tspan id="SvgjsTspan1070" dy="16" x="75"><tspan id="SvgjsTspan1071" style="text-decoration:;font-size: inherit;">the activity</tspan></tspan></text></g></g><g id="SvgjsG1072"><path id="SvgjsPath1073" d="M286 373.5L286 388.5L286 388.5L286 403.5" stroke="#323232" stroke-width="1" fill="none"></path></g><g id="SvgjsG1074"><path id="SvgjsPath1075" d="M286 464.5L286 478L286 478L286 490.20000000000005" stroke="#323232" stroke-width="1" fill="none" marker-end="url(#SvgjsMarker1076)"></path></g><g id="SvgjsG1078" transform="translate(211,568)"><path id="SvgjsPath1079" d="M 0 4Q 0 0 4 0L 146 0Q 150 0 150 4L 150 56Q 150 60 146 60L 4 60Q 0 60 0 56Z" stroke="rgba(50,50,50,1)" stroke-width="1" fill-opacity="1" fill="#e5e5e5"></path><g id="SvgjsG1080"><text id="SvgjsText1081" font-family="微软雅黑" text-anchor="middle" font-size="13px" width="130px" fill="#323232" font-weight="400" align="middle" lineHeight="125%" anchor="middle" family="微软雅黑" size="13px" weight="400" font-style="" opacity="1" y="11.875" transform="rotate(0)"><tspan id="SvgjsTspan1082" dy="16" x="75"><tspan id="SvgjsTspan1083" style="text-decoration:;">The activity is</tspan></tspan><tspan id="SvgjsTspan1084" dy="16" x="75"><tspan id="SvgjsTspan1085" style="text-decoration:;">no longer visible</tspan></tspan></text></g></g><g id="SvgjsG1086"><path id="SvgjsPath1087" d="M286 537.5L286 552.5L286 552.5L286 567.5" stroke="#323232" stroke-width="1" fill="none"></path></g><g id="SvgjsG1088" transform="translate(211,659)"><path id="SvgjsPath1089" d="M 0 0L 150 0L 150 45L 0 45Z" stroke="rgba(50,50,50,1)" stroke-width="1" fill-opacity="1" fill="#ffffff"></path><g id="SvgjsG1090"><text id="SvgjsText1091" font-family="微软雅黑" text-anchor="middle" font-size="13px" width="130px" fill="#323232" font-weight="400" align="middle" lineHeight="125%" anchor="middle" family="微软雅黑" size="13px" weight="400" font-style="" opacity="1" y="12.375" transform="rotate(0)"><tspan id="SvgjsTspan1092" dy="16" x="75"><tspan id="SvgjsTspan1093" style="text-decoration:;">onStop()</tspan></tspan></text></g></g><g id="SvgjsG1094" transform="translate(211,733)"><path id="SvgjsPath1095" d="M 0 0L 150 0L 150 45L 0 45Z" stroke="rgba(50,50,50,1)" stroke-width="1" fill-opacity="1" fill="#ffffff"></path><g id="SvgjsG1096"><text id="SvgjsText1097" font-family="微软雅黑" text-anchor="middle" font-size="13px" width="130px" fill="#323232" font-weight="400" align="middle" lineHeight="125%" anchor="middle" family="微软雅黑" size="13px" weight="400" font-style="" opacity="1" y="12.375" transform="rotate(0)"><tspan id="SvgjsTspan1098" dy="16" x="75"><tspan id="SvgjsTspan1099" style="text-decoration:;">onDestory()</tspan></tspan></text></g></g><g id="SvgjsG1100" transform="translate(226,810)"><path id="SvgjsPath1101" d="M 15 0L 105 0C 125 0 125 45 105 45L 15 45C -5 45 -5 0 15 0Z" stroke="rgba(50,50,50,1)" stroke-width="1" fill-opacity="1" fill="#ffe6cc"></path><g id="SvgjsG1102"><text id="SvgjsText1103" font-family="&quot;Times New Roman&quot;" text-anchor="middle" font-size="13px" width="100px" fill="#323232" font-weight="400" align="middle" lineHeight="125%" anchor="middle" family="&quot;Times New Roman&quot;" size="13px" weight="400" font-style="" opacity="1" y="4.375" transform="rotate(0)"><tspan id="SvgjsTspan1104" dy="16" x="60"><tspan id="SvgjsTspan1105" style="text-decoration:;">Activity is</tspan></tspan><tspan id="SvgjsTspan1106" dy="16" x="60"><tspan id="SvgjsTspan1107" style="text-decoration:;">shut down</tspan></tspan></text></g></g><g id="SvgjsG1108"><path id="SvgjsPath1109" d="M286 628.5L286 643.5L286 643.5L286 657.2" stroke="#323232" stroke-width="1" fill="none" marker-end="url(#SvgjsMarker1110)"></path></g><g id="SvgjsG1112"><path id="SvgjsPath1113" d="M286 704.5L286 718.5L286 718.5L286 731.2" stroke="#323232" stroke-width="1" fill="none" marker-end="url(#SvgjsMarker1114)"></path></g><g id="SvgjsG1116"><path id="SvgjsPath1117" d="M286 778.5L286 792.5L286 792.5L286 805.2" stroke="#323232" stroke-width="1" fill="none" marker-end="url(#SvgjsMarker1118)"></path></g><g id="SvgjsG1120" transform="translate(40,328)"><path id="SvgjsPath1121" d="M 15 0L 105 0C 125 0 125 45 105 45L 15 45C -5 45 -5 0 15 0Z" stroke="rgba(50,50,50,1)" stroke-width="1" fill-opacity="1" fill="#ffe6cc"></path><g id="SvgjsG1122"><text id="SvgjsText1123" font-family="&quot;Times New Roman&quot;" text-anchor="middle" font-size="13px" width="100px" fill="#323232" font-weight="400" align="middle" lineHeight="125%" anchor="middle" family="&quot;Times New Roman&quot;" size="13px" weight="400" font-style="" opacity="1" y="4.375" transform="rotate(0)"><tspan id="SvgjsTspan1124" dy="16" x="60"><tspan id="SvgjsTspan1125" style="text-decoration:;">Process is</tspan></tspan><tspan id="SvgjsTspan1126" dy="16" x="60"><tspan id="SvgjsTspan1127" style="text-decoration:;">killed</tspan></tspan></text></g></g><g id="SvgjsG1128" transform="translate(25,243.5)"><path id="SvgjsPath1129" d="M 0 4Q 0 0 4 0L 146 0Q 150 0 150 4L 150 56Q 150 60 146 60L 4 60Q 0 60 0 56Z" stroke="rgba(50,50,50,1)" stroke-width="1" fill-opacity="1" fill="#e5e5e5"></path><g id="SvgjsG1130"><text id="SvgjsText1131" font-family="微软雅黑" text-anchor="middle" font-size="13px" width="130px" fill="#323232" font-weight="400" align="middle" lineHeight="125%" anchor="middle" family="微软雅黑" size="13px" weight="400" font-style="" opacity="1" y="3.875" transform="rotate(0)"><tspan id="SvgjsTspan1132" dy="16" x="75"><tspan id="SvgjsTspan1133" style="text-decoration:;">User navigated</tspan></tspan><tspan id="SvgjsTspan1134" dy="16" x="75"><tspan id="SvgjsTspan1135" style="text-decoration:;">back to</tspan></tspan><tspan id="SvgjsTspan1136" dy="16" x="75"><tspan id="SvgjsTspan1137" style="text-decoration:;">the Activity</tspan></tspan></text></g></g><g id="SvgjsG1138" transform="translate(25,484.5)"><path id="SvgjsPath1139" d="M 0 4Q 0 0 4 0L 146 0Q 150 0 150 4L 150 56Q 150 60 146 60L 4 60Q 0 60 0 56Z" stroke="rgba(50,50,50,1)" stroke-width="1" fill-opacity="1" fill="#e5e5e5"></path><g id="SvgjsG1140"><text id="SvgjsText1141" font-family="微软雅黑" text-anchor="middle" font-size="13px" width="130px" fill="#323232" font-weight="400" align="middle" lineHeight="125%" anchor="middle" family="微软雅黑" size="13px" weight="400" font-style="" opacity="1" y="11.875" transform="rotate(0)"><tspan id="SvgjsTspan1142" dy="16" x="75"><tspan id="SvgjsTspan1143" style="text-decoration:;">Other applications</tspan></tspan><tspan id="SvgjsTspan1144" dy="16" x="75"><tspan id="SvgjsTspan1145" style="text-decoration:;">need memory</tspan></tspan></text></g></g><g id="SvgjsG1146"><path id="SvgjsPath1147" d="M210.5 514.5L193 514.5L193 514.5L175.5 514.5" stroke="#323232" stroke-width="1" fill="none"></path></g><g id="SvgjsG1148"><path id="SvgjsPath1149" d="M100 484L100 428.75L100 428.75L100 374.8" stroke="#323232" stroke-width="1" fill="none" marker-end="url(#SvgjsMarker1150)"></path></g><g id="SvgjsG1152"><path id="SvgjsPath1153" d="M100 327.5L100 315.75L100 315.75L100 304" stroke="#323232" stroke-width="1" fill="none"></path></g><g id="SvgjsG1154"><path id="SvgjsPath1155" d="M100 243L100 125.5L209.2 125.5" stroke="#323232" stroke-width="1" fill="none" marker-end="url(#SvgjsMarker1156)"></path></g><g id="SvgjsG1158"><path id="SvgjsPath1159" d="M210.5 681.5L100 681.5L100 545" stroke="#323232" stroke-width="1" fill="none"></path></g><g id="SvgjsG1160" transform="translate(394,404)"><path id="SvgjsPath1161" d="M 0 4Q 0 0 4 0L 146 0Q 150 0 150 4L 150 56Q 150 60 146 60L 4 60Q 0 60 0 56Z" stroke="rgba(50,50,50,1)" stroke-width="1" fill-opacity="1" fill="#e5e5e5"></path><g id="SvgjsG1162"><text id="SvgjsText1163" font-family="微软雅黑" text-anchor="middle" font-size="13px" width="130px" fill="#323232" font-weight="400" align="middle" lineHeight="125%" anchor="middle" family="微软雅黑" size="13px" weight="400" font-style="" opacity="1" y="3.875" transform="rotate(0)"><tspan id="SvgjsTspan1164" dy="16" x="75"><tspan id="SvgjsTspan1165" style="text-decoration:;">The activity</tspan></tspan><tspan id="SvgjsTspan1166" dy="16" x="75"><tspan id="SvgjsTspan1167" style="text-decoration:;">comes to</tspan></tspan><tspan id="SvgjsTspan1168" dy="16" x="75"><tspan id="SvgjsTspan1169" style="text-decoration:;">the foreground</tspan></tspan></text></g></g><g id="SvgjsG1170"><path id="SvgjsPath1171" d="M361.5 514.5L469 514.5L469 464.5" stroke="#323232" stroke-width="1" fill="none"></path></g><g id="SvgjsG1172"><path id="SvgjsPath1173" d="M479 403.5L479 273.5L362.8 273.5" stroke="#323232" stroke-width="1" fill="none" marker-end="url(#SvgjsMarker1174)"></path></g><g id="SvgjsG1176" transform="translate(394,177)"><path id="SvgjsPath1177" d="M 0 0L 150 0L 150 45L 0 45Z" stroke="rgba(50,50,50,1)" stroke-width="1" fill-opacity="1" fill="#ffffff"></path><g id="SvgjsG1178"><text id="SvgjsText1179" font-family="微软雅黑" text-anchor="middle" font-size="13px" width="130px" fill="#323232" font-weight="400" align="middle" lineHeight="125%" anchor="middle" family="微软雅黑" size="13px" weight="400" font-style="" opacity="1" y="12.375" transform="rotate(0)"><tspan id="SvgjsTspan1180" dy="16" x="75"><tspan id="SvgjsTspan1181" style="text-decoration:;">onRestart()</tspan></tspan></text></g></g><g id="SvgjsG1182"><path id="SvgjsPath1183" d="M393.5 199.5L377.5 199.5L377.5 199.5L362.8 199.5" stroke="#323232" stroke-width="1" fill="none" marker-end="url(#SvgjsMarker1184)"></path></g><g id="SvgjsG1186" transform="translate(394,651.5)"><path id="SvgjsPath1187" d="M 0 4Q 0 0 4 0L 146 0Q 150 0 150 4L 150 56Q 150 60 146 60L 4 60Q 0 60 0 56Z" stroke="rgba(50,50,50,1)" stroke-width="1" fill-opacity="1" fill="#e5e5e5"></path><g id="SvgjsG1188"><text id="SvgjsText1189" font-family="微软雅黑" text-anchor="middle" font-size="13px" width="130px" fill="#323232" font-weight="400" align="middle" lineHeight="125%" anchor="middle" family="微软雅黑" size="13px" weight="400" font-style="" opacity="1" y="3.875" transform="rotate(0)"><tspan id="SvgjsTspan1190" dy="16" x="75"><tspan id="SvgjsTspan1191" style="text-decoration:;">The activity</tspan></tspan><tspan id="SvgjsTspan1192" dy="16" x="75"><tspan id="SvgjsTspan1193" style="text-decoration:;">comes to</tspan></tspan><tspan id="SvgjsTspan1194" dy="16" x="75"><tspan id="SvgjsTspan1195" style="text-decoration:;">the foreground</tspan></tspan></text></g></g><g id="SvgjsG1196"><path id="SvgjsPath1197" d="M361.5 681.5L377.5 681.5L377.5 681.5L392.2 681.5" stroke="#323232" stroke-width="1" fill="none" marker-end="url(#SvgjsMarker1198)"></path></g><g id="SvgjsG1200"><path id="SvgjsPath1201" d="M544.5 681.5L574 681.5L574 199.5L545.8 199.5" stroke="#323232" stroke-width="1" fill="none" marker-end="url(#SvgjsMarker1202)"></path></g></svg>