<svg id="SvgjsSvg1006" width="890" height="390" xmlns="http://www.w3.org/2000/svg" version="1.1" xmlns:xlink="http://www.w3.org/1999/xlink" xmlns:svgjs="http://svgjs.com/svgjs"><defs id="SvgjsDefs1007"></defs><g id="SvgjsG1008" transform="translate(25,60)"><path id="SvgjsPath1009" d="M 0 4Q 0 0 4 0L 236 0Q 240 0 240 4L 240 86Q 240 90 236 90L 4 90Q 0 90 0 86Z" stroke="rgba(50,50,50,1)" stroke-width="1" fill-opacity="1" fill="#ffffff"></path><g id="SvgjsG1010"><text id="SvgjsText1011" font-family="&quot;Times New Roman&quot;" text-anchor="middle" font-size="13px" width="230px" fill="#323232" font-weight="400" align="middle" lineHeight="125%" anchor="middle" family="&quot;Times New Roman&quot;" size="13px" weight="400" font-style="" opacity="1" y="-3.696428571428572" transform="rotate(0)"></text></g></g><g id="SvgjsG1012" transform="translate(26,25)"><path id="SvgjsPath1013" d="M 0 0L 120 0L 120 35L 0 35Z" stroke="none" fill="none"></path><g id="SvgjsG1014"><text id="SvgjsText1015" font-family="&quot;Times New Roman&quot;" text-anchor="start" font-size="13px" width="120px" fill="#688f4e" font-weight="400" align="middle" lineHeight="125%" anchor="start" family="&quot;Times New Roman&quot;" size="13px" weight="400" font-style="" opacity="1" y="6.375" transform="rotate(0)"><tspan id="SvgjsTspan1016" dy="16" x="0"><tspan id="SvgjsTspan1017" style="text-decoration:;">Key: key_name</tspan></tspan></text></g></g><g id="SvgjsG1018" transform="translate(145,25)"><path id="SvgjsPath1019" d="M 0 0L 120 0L 120 35L 0 35Z" stroke="none" fill="none"></path><g id="SvgjsG1020"><text id="SvgjsText1021" font-family="&quot;Times New Roman&quot;" text-anchor="end" font-size="13px" width="120px" fill="#688f4e" font-weight="400" align="middle" lineHeight="125%" anchor="end" family="&quot;Times New Roman&quot;" size="13px" weight="400" font-style="" opacity="1" y="6.375" transform="rotate(0)"><tspan id="SvgjsTspan1022" dy="16" x="120"><tspan id="SvgjsTspan1023" style="text-decoration:;">Type: String</tspan></tspan></text></g></g><g id="SvgjsG1024" transform="translate(26,60)"><path id="SvgjsPath1025" d="M 0 0L 120 0L 120 90L 0 90Z" stroke="none" fill="none"></path><g id="SvgjsG1026"><text id="SvgjsText1027" font-family="&quot;Times New Roman&quot;" text-anchor="middle" font-size="13px" width="120px" fill="#323232" font-weight="400" align="middle" lineHeight="125%" anchor="middle" family="&quot;Times New Roman&quot;" size="13px" weight="400" font-style="" opacity="1" y="33.875" transform="rotate(0)"><tspan id="SvgjsTspan1028" dy="16" x="60"><tspan id="SvgjsTspan1029" style="text-decoration:;">value</tspan></tspan></text></g></g><g id="SvgjsG1030" transform="translate(325,60.5)"><path id="SvgjsPath1031" d="M 0 4Q 0 0 4 0L 236 0Q 240 0 240 4L 240 86Q 240 90 236 90L 4 90Q 0 90 0 86Z" stroke="rgba(50,50,50,1)" stroke-width="1" fill-opacity="1" fill="#ffffff"></path><g id="SvgjsG1032"><text id="SvgjsText1033" font-family="&quot;Times New Roman&quot;" text-anchor="middle" font-size="13px" width="230px" fill="#323232" font-weight="400" align="middle" lineHeight="125%" anchor="middle" family="&quot;Times New Roman&quot;" size="13px" weight="400" font-style="" opacity="1" y="-3.696428571428572" transform="rotate(0)"></text></g></g><g id="SvgjsG1034" transform="translate(325,25.5)"><path id="SvgjsPath1035" d="M 0 0L 120 0L 120 35L 0 35Z" stroke="none" fill="none"></path><g id="SvgjsG1036"><text id="SvgjsText1037" font-family="&quot;Times New Roman&quot;" text-anchor="start" font-size="13px" width="120px" fill="#688f4e" font-weight="400" align="middle" lineHeight="125%" anchor="start" family="&quot;Times New Roman&quot;" size="13px" weight="400" font-style="" opacity="1" y="6.375" transform="rotate(0)"><tspan id="SvgjsTspan1038" dy="16" x="0"><tspan id="SvgjsTspan1039" style="text-decoration:;">Key: list_key</tspan></tspan></text></g></g><g id="SvgjsG1040" transform="translate(445,25.5)"><path id="SvgjsPath1041" d="M 0 0L 120 0L 120 35L 0 35Z" stroke="none" fill="none"></path><g id="SvgjsG1042"><text id="SvgjsText1043" font-family="&quot;Times New Roman&quot;" text-anchor="end" font-size="13px" width="120px" fill="#688f4e" font-weight="400" align="middle" lineHeight="125%" anchor="end" family="&quot;Times New Roman&quot;" size="13px" weight="400" font-style="" opacity="1" y="6.375" transform="rotate(0)"><tspan id="SvgjsTspan1044" dy="16" x="120"><tspan id="SvgjsTspan1045" style="text-decoration:;">Type: list</tspan></tspan></text></g></g><g id="SvgjsG1046" transform="translate(326,60.5)"><path id="SvgjsPath1047" d="M 0 0L 120 0L 120 90L 0 90Z" stroke="none" fill="none"></path><g id="SvgjsG1048"><text id="SvgjsText1049" font-family="&quot;Times New Roman&quot;" text-anchor="middle" font-size="13px" width="120px" fill="#323232" font-weight="400" align="middle" lineHeight="125%" anchor="middle" family="&quot;Times New Roman&quot;" size="13px" weight="400" font-style="" opacity="1" y="17.875" transform="rotate(0)"><tspan id="SvgjsTspan1050" dy="16" x="60"><tspan id="SvgjsTspan1051" style="text-decoration:;">item1</tspan></tspan><tspan id="SvgjsTspan1052" dy="16" x="60"><tspan id="SvgjsTspan1053" style="text-decoration:;">item2</tspan></tspan><tspan id="SvgjsTspan1054" dy="16" x="60"><tspan id="SvgjsTspan1055" style="text-decoration:;">item3</tspan></tspan></text></g></g><g id="SvgjsG1056" transform="translate(25,239)"><path id="SvgjsPath1057" d="M 0 4Q 0 0 4 0L 236 0Q 240 0 240 4L 240 86Q 240 90 236 90L 4 90Q 0 90 0 86Z" stroke="rgba(50,50,50,1)" stroke-width="1" fill-opacity="1" fill="#ffffff"></path><g id="SvgjsG1058"><text id="SvgjsText1059" font-family="&quot;Times New Roman&quot;" text-anchor="middle" font-size="13px" width="230px" fill="#323232" font-weight="400" align="middle" lineHeight="125%" anchor="middle" family="&quot;Times New Roman&quot;" size="13px" weight="400" font-style="" opacity="1" y="-3.696428571428572" transform="rotate(0)"></text></g></g><g id="SvgjsG1060" transform="translate(25,204)"><path id="SvgjsPath1061" d="M 0 0L 120 0L 120 35L 0 35Z" stroke="none" fill="none"></path><g id="SvgjsG1062"><text id="SvgjsText1063" font-family="&quot;Times New Roman&quot;" text-anchor="start" font-size="13px" width="120px" fill="#688f4e" font-weight="400" align="middle" lineHeight="125%" anchor="start" family="&quot;Times New Roman&quot;" size="13px" weight="400" font-style="" opacity="1" y="6.375" transform="rotate(0)"><tspan id="SvgjsTspan1064" dy="16" x="0"><tspan id="SvgjsTspan1065" style="text-decoration:;">Key: set_key</tspan></tspan></text></g></g><g id="SvgjsG1066" transform="translate(145,204)"><path id="SvgjsPath1067" d="M 0 0L 120 0L 120 35L 0 35Z" stroke="none" fill="none"></path><g id="SvgjsG1068"><text id="SvgjsText1069" font-family="&quot;Times New Roman&quot;" text-anchor="end" font-size="13px" width="120px" fill="#688f4e" font-weight="400" align="middle" lineHeight="125%" anchor="end" family="&quot;Times New Roman&quot;" size="13px" weight="400" font-style="" opacity="1" y="6.375" transform="rotate(0)"><tspan id="SvgjsTspan1070" dy="16" x="120"><tspan id="SvgjsTspan1071" style="text-decoration:;">Type: set</tspan></tspan></text></g></g><g id="SvgjsG1072" transform="translate(25,239)"><path id="SvgjsPath1073" d="M 0 0L 120 0L 120 90L 0 90Z" stroke="none" fill="none"></path><g id="SvgjsG1074"><text id="SvgjsText1075" font-family="&quot;Times New Roman&quot;" text-anchor="middle" font-size="13px" width="120px" fill="#323232" font-weight="400" align="middle" lineHeight="125%" anchor="middle" family="&quot;Times New Roman&quot;" size="13px" weight="400" font-style="" opacity="1" y="17.875" transform="rotate(0)"><tspan id="SvgjsTspan1076" dy="16" x="60"><tspan id="SvgjsTspan1077" style="text-decoration:;">item1</tspan></tspan><tspan id="SvgjsTspan1078" dy="16" x="60"><tspan id="SvgjsTspan1079" style="text-decoration:;">item3</tspan></tspan><tspan id="SvgjsTspan1080" dy="16" x="60"><tspan id="SvgjsTspan1081" style="text-decoration:;">item2</tspan></tspan></text></g></g><g id="SvgjsG1082" transform="translate(25,150)"><path id="SvgjsPath1083" d="M 0 0L 240 0L 240 35L 0 35Z" stroke="none" fill="none"></path><g id="SvgjsG1084"><text id="SvgjsText1085" font-family="&quot;Times New Roman&quot;" text-anchor="middle" font-size="13px" width="240px" fill="#323232" font-weight="700" align="middle" lineHeight="125%" anchor="middle" family="&quot;Times New Roman&quot;" size="13px" weight="700" font-style="" opacity="1" y="6.375" transform="rotate(0)"><tspan id="SvgjsTspan1086" dy="16" x="120"><tspan id="SvgjsTspan1087" style="text-decoration:;">String</tspan></tspan></text></g></g><g id="SvgjsG1088" transform="translate(325,150.5)"><path id="SvgjsPath1089" d="M 0 0L 240 0L 240 35L 0 35Z" stroke="none" fill="none"></path><g id="SvgjsG1090"><text id="SvgjsText1091" font-family="&quot;Times New Roman&quot;" text-anchor="middle" font-size="13px" width="240px" fill="#323232" font-weight="700" align="middle" lineHeight="125%" anchor="middle" family="&quot;Times New Roman&quot;" size="13px" weight="700" font-style="" opacity="1" y="6.375" transform="rotate(0)"><tspan id="SvgjsTspan1092" dy="16" x="120"><tspan id="SvgjsTspan1093" style="text-decoration:;">List</tspan></tspan></text></g></g><g id="SvgjsG1094" transform="translate(25,330)"><path id="SvgjsPath1095" d="M 0 0L 240 0L 240 35L 0 35Z" stroke="none" fill="none"></path><g id="SvgjsG1096"><text id="SvgjsText1097" font-family="&quot;Times New Roman&quot;" text-anchor="middle" font-size="13px" width="240px" fill="#323232" font-weight="700" align="middle" lineHeight="125%" anchor="middle" family="&quot;Times New Roman&quot;" size="13px" weight="700" font-style="" opacity="1" y="6.375" transform="rotate(0)"><tspan id="SvgjsTspan1098" dy="16" x="120"><tspan id="SvgjsTspan1099" style="text-decoration:;">Set</tspan></tspan></text></g></g><g id="SvgjsG1100" transform="translate(325,239)"><path id="SvgjsPath1101" d="M 0 4Q 0 0 4 0L 236 0Q 240 0 240 4L 240 86Q 240 90 236 90L 4 90Q 0 90 0 86Z" stroke="rgba(50,50,50,1)" stroke-width="1" fill-opacity="1" fill="#ffffff"></path><g id="SvgjsG1102"><text id="SvgjsText1103" font-family="&quot;Times New Roman&quot;" text-anchor="middle" font-size="13px" width="230px" fill="#323232" font-weight="400" align="middle" lineHeight="125%" anchor="middle" family="&quot;Times New Roman&quot;" size="13px" weight="400" font-style="" opacity="1" y="-3.696428571428572" transform="rotate(0)"></text></g></g><g id="SvgjsG1104" transform="translate(325,204)"><path id="SvgjsPath1105" d="M 0 0L 120 0L 120 35L 0 35Z" stroke="none" fill="none"></path><g id="SvgjsG1106"><text id="SvgjsText1107" font-family="&quot;Times New Roman&quot;" text-anchor="start" font-size="13px" width="120px" fill="#688f4e" font-weight="400" align="middle" lineHeight="125%" anchor="start" family="&quot;Times New Roman&quot;" size="13px" weight="400" font-style="" opacity="1" y="6.375" transform="rotate(0)"><tspan id="SvgjsTspan1108" dy="16" x="0"><tspan id="SvgjsTspan1109" style="text-decoration:;">Key: zset_key</tspan></tspan></text></g></g><g id="SvgjsG1110" transform="translate(445,204)"><path id="SvgjsPath1111" d="M 0 0L 120 0L 120 35L 0 35Z" stroke="none" fill="none"></path><g id="SvgjsG1112"><text id="SvgjsText1113" font-family="&quot;Times New Roman&quot;" text-anchor="end" font-size="13px" width="120px" fill="#688f4e" font-weight="400" align="middle" lineHeight="125%" anchor="end" family="&quot;Times New Roman&quot;" size="13px" weight="400" font-style="" opacity="1" y="6.375" transform="rotate(0)"><tspan id="SvgjsTspan1114" dy="16" x="120"><tspan id="SvgjsTspan1115" style="text-decoration:;">Type: zset</tspan></tspan></text></g></g><g id="SvgjsG1116" transform="translate(325,239)"><path id="SvgjsPath1117" d="M 0 0L 120 0L 120 90L 0 90Z" stroke="none" fill="none"></path><g id="SvgjsG1118"><text id="SvgjsText1119" font-family="&quot;Times New Roman&quot;" text-anchor="middle" font-size="13px" width="120px" fill="#323232" font-weight="400" align="middle" lineHeight="125%" anchor="middle" family="&quot;Times New Roman&quot;" size="13px" weight="400" font-style="" opacity="1" y="25.875" transform="rotate(0)"><tspan id="SvgjsTspan1120" dy="16" x="60"><tspan id="SvgjsTspan1121" style="text-decoration:;">number 1</tspan></tspan><tspan id="SvgjsTspan1122" dy="16" x="60"><tspan id="SvgjsTspan1123" style="text-decoration:;">number 0</tspan></tspan></text></g></g><g id="SvgjsG1124" transform="translate(325,330)"><path id="SvgjsPath1125" d="M 0 0L 240 0L 240 35L 0 35Z" stroke="none" fill="none"></path><g id="SvgjsG1126"><text id="SvgjsText1127" font-family="&quot;Times New Roman&quot;" text-anchor="middle" font-size="13px" width="240px" fill="#323232" font-weight="700" align="middle" lineHeight="125%" anchor="middle" family="&quot;Times New Roman&quot;" size="13px" weight="700" font-style="" opacity="1" y="6.375" transform="rotate(0)"><tspan id="SvgjsTspan1128" dy="16" x="120"><tspan id="SvgjsTspan1129" style="text-decoration:;">ZSet</tspan></tspan></text></g></g><g id="SvgjsG1130" transform="translate(445,239)"><path id="SvgjsPath1131" d="M 0 0L 120 0L 120 90L 0 90Z" stroke="none" fill="none"></path><g id="SvgjsG1132"><text id="SvgjsText1133" font-family="&quot;Times New Roman&quot;" text-anchor="middle" font-size="13px" width="120px" fill="#323232" font-weight="400" align="middle" lineHeight="125%" anchor="middle" family="&quot;Times New Roman&quot;" size="13px" weight="400" font-style="" opacity="1" y="25.875" transform="rotate(0)"><tspan id="SvgjsTspan1134" dy="16" x="60"><tspan id="SvgjsTspan1135" style="text-decoration:;">100</tspan></tspan><tspan id="SvgjsTspan1136" dy="16" x="60"><tspan id="SvgjsTspan1137" style="text-decoration:;">200</tspan></tspan></text></g></g><g id="SvgjsG1138"><path id="SvgjsPath1139" d="M445 239.5L445 328.5" stroke-dasharray="8,5" stroke="#323232" stroke-width="1" fill="none"></path></g><g id="SvgjsG1140" transform="translate(625,60)"><path id="SvgjsPath1141" d="M 0 4Q 0 0 4 0L 236 0Q 240 0 240 4L 240 86Q 240 90 236 90L 4 90Q 0 90 0 86Z" stroke="rgba(50,50,50,1)" stroke-width="1" fill-opacity="1" fill="#ffffff"></path><g id="SvgjsG1142"><text id="SvgjsText1143" font-family="&quot;Times New Roman&quot;" text-anchor="middle" font-size="13px" width="230px" fill="#323232" font-weight="400" align="middle" lineHeight="125%" anchor="middle" family="&quot;Times New Roman&quot;" size="13px" weight="400" font-style="" opacity="1" y="-3.696428571428572" transform="rotate(0)"></text></g></g><g id="SvgjsG1144" transform="translate(625,25)"><path id="SvgjsPath1145" d="M 0 0L 120 0L 120 35L 0 35Z" stroke="none" fill="none"></path><g id="SvgjsG1146"><text id="SvgjsText1147" font-family="&quot;Times New Roman&quot;" text-anchor="start" font-size="13px" width="120px" fill="#688f4e" font-weight="400" align="middle" lineHeight="125%" anchor="start" family="&quot;Times New Roman&quot;" size="13px" weight="400" font-style="" opacity="1" y="6.375" transform="rotate(0)"><tspan id="SvgjsTspan1148" dy="16" x="0"><tspan id="SvgjsTspan1149" style="text-decoration:;">Key: hash_key</tspan></tspan></text></g></g><g id="SvgjsG1150" transform="translate(745,25)"><path id="SvgjsPath1151" d="M 0 0L 120 0L 120 35L 0 35Z" stroke="none" fill="none"></path><g id="SvgjsG1152"><text id="SvgjsText1153" font-family="&quot;Times New Roman&quot;" text-anchor="end" font-size="13px" width="120px" fill="#688f4e" font-weight="400" align="middle" lineHeight="125%" anchor="end" family="&quot;Times New Roman&quot;" size="13px" weight="400" font-style="" opacity="1" y="6.375" transform="rotate(0)"><tspan id="SvgjsTspan1154" dy="16" x="120"><tspan id="SvgjsTspan1155" style="text-decoration:;">Type: hash</tspan></tspan></text></g></g><g id="SvgjsG1156" transform="translate(625,60)"><path id="SvgjsPath1157" d="M 0 0L 120 0L 120 90L 0 90Z" stroke="none" fill="none"></path><g id="SvgjsG1158"><text id="SvgjsText1159" font-family="&quot;Times New Roman&quot;" text-anchor="middle" font-size="13px" width="120px" fill="#323232" font-weight="400" align="middle" lineHeight="125%" anchor="middle" family="&quot;Times New Roman&quot;" size="13px" weight="400" font-style="" opacity="1" y="25.875" transform="rotate(0)"><tspan id="SvgjsTspan1160" dy="16" x="60"><tspan id="SvgjsTspan1161" style="text-decoration:;">hkey1</tspan></tspan><tspan id="SvgjsTspan1162" dy="16" x="60"><tspan id="SvgjsTspan1163" style="text-decoration:;">hkey2</tspan></tspan></text></g></g><g id="SvgjsG1164" transform="translate(625,151)"><path id="SvgjsPath1165" d="M 0 0L 240 0L 240 35L 0 35Z" stroke="none" fill="none"></path><g id="SvgjsG1166"><text id="SvgjsText1167" font-family="&quot;Times New Roman&quot;" text-anchor="middle" font-size="13px" width="240px" fill="#323232" font-weight="700" align="middle" lineHeight="125%" anchor="middle" family="&quot;Times New Roman&quot;" size="13px" weight="700" font-style="" opacity="1" y="6.375" transform="rotate(0)"><tspan id="SvgjsTspan1168" dy="16" x="120"><tspan id="SvgjsTspan1169" style="text-decoration:;">Hash</tspan></tspan></text></g></g><g id="SvgjsG1170" transform="translate(745,60)"><path id="SvgjsPath1171" d="M 0 0L 120 0L 120 90L 0 90Z" stroke="none" fill="none"></path><g id="SvgjsG1172"><text id="SvgjsText1173" font-family="&quot;Times New Roman&quot;" text-anchor="middle" font-size="13px" width="120px" fill="#323232" font-weight="400" align="middle" lineHeight="125%" anchor="middle" family="&quot;Times New Roman&quot;" size="13px" weight="400" font-style="" opacity="1" y="25.875" transform="rotate(0)"><tspan id="SvgjsTspan1174" dy="16" x="60"><tspan id="SvgjsTspan1175" style="text-decoration:;">value1</tspan></tspan><tspan id="SvgjsTspan1176" dy="16" x="60"><tspan id="SvgjsTspan1177" style="text-decoration:;">value2</tspan></tspan></text></g></g><g id="SvgjsG1178"><path id="SvgjsPath1179" d="M745 60.5L745 149.5" stroke-dasharray="8,5" stroke="#323232" stroke-width="1" fill="none"></path></g></svg>