<svg id="SvgjsSvg1006" width="525.5" height="623.59375" xmlns="http://www.w3.org/2000/svg" version="1.1" xmlns:xlink="http://www.w3.org/1999/xlink" xmlns:svgjs="http://svgjs.com/svgjs"><defs id="SvgjsDefs1007"><marker id="SvgjsMarker1026" markerWidth="12" markerHeight="8" refX="9" refY="4" viewBox="0 0 12 8" orient="auto" markerUnits="userSpaceOnUse" stroke-dasharray="0,0"><path id="SvgjsPath1027" d="M0,0 L12,4 L0,8 L0,0" fill="#323232" stroke="#323232" stroke-width="1"></path></marker><marker id="SvgjsMarker1034" markerWidth="12" markerHeight="8" refX="9" refY="4" viewBox="0 0 12 8" orient="auto" markerUnits="userSpaceOnUse" stroke-dasharray="0,0"><path id="SvgjsPath1035" d="M0,0 L12,4 L0,8 L0,0" fill="#323232" stroke="#323232" stroke-width="1"></path></marker><marker id="SvgjsMarker1050" markerWidth="12" markerHeight="8" refX="9" refY="4" viewBox="0 0 12 8" orient="auto" markerUnits="userSpaceOnUse" stroke-dasharray="0,0"><path id="SvgjsPath1051" d="M0,0 L12,4 L0,8 L0,0" fill="#323232" stroke="#323232" stroke-width="1"></path></marker><marker id="SvgjsMarker1054" markerWidth="12" markerHeight="8" refX="9" refY="4" viewBox="0 0 12 8" orient="auto" markerUnits="userSpaceOnUse" stroke-dasharray="0,0"><path id="SvgjsPath1055" d="M0,0 L12,4 L0,8 L0,0" fill="#323232" stroke="#323232" stroke-width="1"></path></marker><marker id="SvgjsMarker1078" markerWidth="12" markerHeight="8" refX="9" refY="4" viewBox="0 0 12 8" orient="auto" markerUnits="userSpaceOnUse" stroke-dasharray="0,0"><path id="SvgjsPath1079" d="M0,0 L12,4 L0,8 L0,0" fill="#323232" stroke="#323232" stroke-width="1"></path></marker><marker id="SvgjsMarker1082" markerWidth="12" markerHeight="8" refX="9" refY="4" viewBox="0 0 12 8" orient="auto" markerUnits="userSpaceOnUse" stroke-dasharray="0,0"><path id="SvgjsPath1083" d="M0,0 L12,4 L0,8 L0,0" fill="#323232" stroke="#323232" stroke-width="1"></path></marker><marker id="SvgjsMarker1100" markerWidth="12" markerHeight="8" refX="9" refY="4" viewBox="0 0 12 8" orient="auto" markerUnits="userSpaceOnUse" stroke-dasharray="0,0"><path id="SvgjsPath1101" d="M0,0 L12,4 L0,8 L0,0" fill="#323232" stroke="#323232" stroke-width="1"></path></marker><marker id="SvgjsMarker1104" markerWidth="12" markerHeight="8" refX="9" refY="4" viewBox="0 0 12 8" orient="auto" markerUnits="userSpaceOnUse" stroke-dasharray="0,0"><path id="SvgjsPath1105" d="M0,0 L12,4 L0,8 L0,0" fill="#323232" stroke="#323232" stroke-width="1"></path></marker><marker id="SvgjsMarker1120" markerWidth="12" markerHeight="8" refX="9" refY="4" viewBox="0 0 12 8" orient="auto" markerUnits="userSpaceOnUse" stroke-dasharray="0,0"><path id="SvgjsPath1121" d="M0,0 L12,4 L0,8 L0,0" fill="#323232" stroke="#323232" stroke-width="1"></path></marker></defs><g id="SvgjsG1008" transform="translate(66.00624084472656,97.09999752044678)"><path id="SvgjsPath1009" d="M 0 18Q 0 0 18 0L 142 0Q 160 0 160 18L 160 27Q 160 45 142 45L 18 45Q 0 45 0 27L 0 18Z" stroke="rgba(50,50,50,1)" stroke-width="1" fill-opacity="1" fill="#cce5ff"></path><g id="SvgjsG1010"><text id="SvgjsText1011" font-family="&quot;Times New Roman&quot;" text-anchor="middle" font-size="13px" width="140px" fill="#323232" font-weight="400" align="middle" lineHeight="125%" anchor="middle" family="&quot;Times New Roman&quot;" size="13px" weight="400" font-style="" opacity="1" y="4.375" transform="rotate(0)"><tspan id="SvgjsTspan1012" dy="16" x="80"><tspan id="SvgjsTspan1013" style="text-decoration:;">手动调用关闭服务</tspan></tspan><tspan id="SvgjsTspan1014" dy="16" x="80"><tspan id="SvgjsTspan1015" style="text-decoration:;">stopService()</tspan></tspan></text></g></g><g id="SvgjsG1016" transform="translate(56.00624084472656,191)"><path id="SvgjsPath1017" d="M 0 30L 90 0L 180 30L 90 60Z" stroke="rgba(50,50,50,1)" stroke-width="1" fill-opacity="1" fill="#ffe6cc"></path><g id="SvgjsG1018"><text id="SvgjsText1019" font-family="&quot;Times New Roman&quot;" text-anchor="middle" font-size="13px" width="160px" fill="#323232" font-weight="400" align="middle" lineHeight="125%" anchor="middle" family="&quot;Times New Roman&quot;" size="13px" weight="400" font-style="" opacity="1" y="12.175" transform="rotate(0)"><tspan id="SvgjsTspan1020" dy="16" x="90"><tspan id="SvgjsTspan1021" style="text-decoration:;">是否调用过</tspan></tspan><tspan id="SvgjsTspan1022" dy="16" x="90"><tspan id="SvgjsTspan1023" style="text-decoration:;">onStartCommand()</tspan></tspan></text></g></g><g id="SvgjsG1024"><path id="SvgjsPath1025" d="M146.00624084472656 142.59999752044678L146.00624084472656 166.5499987602234L146.00624084472656 166.5499987602234L146.00624084472656 189.2" stroke="#323232" stroke-width="1" fill="none" marker-end="url(#SvgjsMarker1026)"></path></g><g id="SvgjsG1028" transform="translate(133.50624084472656,25)"><path id="SvgjsPath1029" d="M 0 12.5C 0 -4.166666666666667 25 -4.166666666666667 25 12.5C 25 29.166666666666668 0 29.166666666666668 0 12.5Z" stroke="none" fill-opacity="1" fill="#323232"></path><g id="SvgjsG1030"><text id="SvgjsText1031" font-family="&quot;Times New Roman&quot;" text-anchor="middle" font-size="13px" width="65px" fill="#323232" font-weight="400" align="middle" lineHeight="125%" anchor="middle" family="&quot;Times New Roman&quot;" size="13px" weight="400" font-style="" opacity="1" y="29.875" transform="rotate(0)"></text></g></g><g id="SvgjsG1032"><path id="SvgjsPath1033" d="M146.00624084472656 50.5L146.00624084472656 73.54999876022339L146.00624084472656 73.54999876022339L146.00624084472656 95.29999752044677" stroke="#323232" stroke-width="1" fill="none" marker-end="url(#SvgjsMarker1034)"></path></g><g id="SvgjsG1036" transform="translate(66.00624084472656,399.0999975204468)"><path id="SvgjsPath1037" d="M 0 18Q 0 0 18 0L 142 0Q 160 0 160 18L 160 27Q 160 45 142 45L 18 45Q 0 45 0 27L 0 18Z" stroke="rgba(50,50,50,1)" stroke-width="1" fill-opacity="1" fill="#ffffff"></path><g id="SvgjsG1038"><text id="SvgjsText1039" font-family="&quot;Times New Roman&quot;" text-anchor="middle" font-size="13px" width="140px" fill="#323232" font-weight="400" align="middle" lineHeight="125%" anchor="middle" family="&quot;Times New Roman&quot;" size="13px" weight="400" font-style="" opacity="1" y="12.375" transform="rotate(0)"><tspan id="SvgjsTspan1040" dy="16" x="80"><tspan id="SvgjsTspan1041" style="text-decoration:;">onDestory()</tspan></tspan></text></g></g><g id="SvgjsG1042" transform="translate(133.50624084472656,573.5999984741211)"><path id="SvgjsPath1043" d="M 0 12.5C 0 -4.166666666666667 25 -4.166666666666667 25 12.5C 25 29.166666666666668 0 29.166666666666668 0 12.5Z" stroke="rgba(50,50,50,1)" stroke-width="3" fill-opacity="1" fill="#ffffff"></path><path id="SvgjsPath1044" d="M 6.25 12.5C 6.25 4.166666666666666 18.75 4.166666666666666 18.75 12.5C 18.75 20.833333333333336 6.25 20.833333333333336 6.25 12.5Z" stroke="none" fill-opacity="1" fill="#323232"></path><path id="SvgjsPath1045" d="M 0 12.5C 0 -4.166666666666667 25 -4.166666666666667 25 12.5C 25 29.166666666666668 0 29.166666666666668 0 12.5Z" stroke="none" fill="none"></path><g id="SvgjsG1046"><text id="SvgjsText1047" font-family="&quot;Times New Roman&quot;" text-anchor="middle" font-size="13px" width="65px" fill="#323232" font-weight="400" align="middle" lineHeight="125%" anchor="middle" family="&quot;Times New Roman&quot;" size="13px" weight="400" font-style="" opacity="1" y="29.875" transform="rotate(0)"></text></g></g><g id="SvgjsG1048"><path id="SvgjsPath1049" d="M146.00624084472656 444.5999975204468L146.00624084472656 508.84999799728394L146.00624084472656 508.84999799728394L146.00624084472656 571.7999984741211" stroke="#323232" stroke-width="1" fill="none" marker-end="url(#SvgjsMarker1050)"></path></g><g id="SvgjsG1052"><path id="SvgjsPath1053" d="M55.50624084472656 221L26.006240844726562 221L26.006240844726562 586.0999984741211L131.7062408447266 586.0999984741211" stroke="#323232" stroke-width="1" fill="none" marker-end="url(#SvgjsMarker1054)"></path></g><g id="SvgjsG1056" transform="translate(25.006240844726562,184.5999984741211)"><path id="SvgjsPath1057" d="M 0 0L 35 0L 35 35L 0 35Z" stroke="none" fill="none"></path><g id="SvgjsG1058"><text id="SvgjsText1059" font-family="&quot;Times New Roman&quot;" text-anchor="middle" font-size="13px" width="35px" fill="#323232" font-weight="700" align="middle" lineHeight="125%" anchor="middle" family="&quot;Times New Roman&quot;" size="13px" weight="700" font-style="" opacity="1" y="7.375" transform="rotate(0)"><tspan id="SvgjsTspan1060" dy="16" x="17.5"><tspan id="SvgjsTspan1061" style="text-decoration:;">N</tspan></tspan></text></g></g><g id="SvgjsG1062" transform="translate(148.50624084472656,257.5999984741211)"><path id="SvgjsPath1063" d="M 0 0L 35 0L 35 35L 0 35Z" stroke="none" fill="none"></path><g id="SvgjsG1064"><text id="SvgjsText1065" font-family="&quot;Times New Roman&quot;" text-anchor="middle" font-size="13px" width="35px" fill="#323232" font-weight="700" align="middle" lineHeight="125%" anchor="middle" family="&quot;Times New Roman&quot;" size="13px" weight="700" font-style="" opacity="1" y="7.375" transform="rotate(0)"><tspan id="SvgjsTspan1066" dy="16" x="17.5"><tspan id="SvgjsTspan1067" style="text-decoration:;">Y</tspan></tspan></text></g></g><g id="SvgjsG1068" transform="translate(56.00624084472656,296)"><path id="SvgjsPath1069" d="M 0 30L 90 0L 180 30L 90 60Z" stroke="rgba(50,50,50,1)" stroke-width="1" fill-opacity="1" fill="#ffe6cc"></path><g id="SvgjsG1070"><text id="SvgjsText1071" font-family="&quot;Times New Roman&quot;" text-anchor="middle" font-size="13px" width="160px" fill="#323232" font-weight="400" align="middle" lineHeight="125%" anchor="middle" family="&quot;Times New Roman&quot;" size="13px" weight="400" font-style="" opacity="1" y="12.175" transform="rotate(0)"><tspan id="SvgjsTspan1072" dy="16" x="90"><tspan id="SvgjsTspan1073" style="text-decoration:;">是否已绑定服务</tspan></tspan><tspan id="SvgjsTspan1074" dy="16" x="90"><tspan id="SvgjsTspan1075" style="text-decoration:;">( 调用 bindService() )</tspan></tspan></text></g></g><g id="SvgjsG1076"><path id="SvgjsPath1077" d="M146.00624084472656 251.5L146.00624084472656 273.5L146.00624084472656 273.5L146.00624084472656 294.2" stroke="#323232" stroke-width="1" fill="none" marker-end="url(#SvgjsMarker1078)"></path></g><g id="SvgjsG1080"><path id="SvgjsPath1081" d="M146.00624084472656 356.5L146.00624084472656 377.5499987602234L146.00624084472656 377.5499987602234L146.00624084472656 397.2999975204468" stroke="#323232" stroke-width="1" fill="none" marker-end="url(#SvgjsMarker1082)"></path></g><g id="SvgjsG1084" transform="translate(148.50624084472656,359.5999984741211)"><path id="SvgjsPath1085" d="M 0 0L 35 0L 35 35L 0 35Z" stroke="none" fill="none"></path><g id="SvgjsG1086"><text id="SvgjsText1087" font-family="&quot;Times New Roman&quot;" text-anchor="middle" font-size="13px" width="35px" fill="#323232" font-weight="700" align="middle" lineHeight="125%" anchor="middle" family="&quot;Times New Roman&quot;" size="13px" weight="700" font-style="" opacity="1" y="7.375" transform="rotate(0)"><tspan id="SvgjsTspan1088" dy="16" x="17.5"><tspan id="SvgjsTspan1089" style="text-decoration:;">N</tspan></tspan></text></g></g><g id="SvgjsG1090" transform="translate(290.00624084472656,296)"><path id="SvgjsPath1091" d="M 0 30L 90 0L 180 30L 90 60Z" stroke="rgba(50,50,50,1)" stroke-width="1" fill-opacity="1" fill="#ffe6cc"></path><g id="SvgjsG1092"><text id="SvgjsText1093" font-family="&quot;Times New Roman&quot;" text-anchor="middle" font-size="13px" width="160px" fill="#323232" font-weight="400" align="middle" lineHeight="125%" anchor="middle" family="&quot;Times New Roman&quot;" size="13px" weight="400" font-style="" opacity="1" y="12.175" transform="rotate(0)"><tspan id="SvgjsTspan1094" dy="16" x="90"><tspan id="SvgjsTspan1095" style="text-decoration:;">是否已解绑服务</tspan></tspan><tspan id="SvgjsTspan1096" dy="16" x="90"><tspan id="SvgjsTspan1097" style="text-decoration:;">( 调用 unbindService() )</tspan></tspan></text></g></g><g id="SvgjsG1098"><path id="SvgjsPath1099" d="M236.50624084472656 326L263.00624084472656 326L263.00624084472656 326L288.2062408447266 326" stroke="#323232" stroke-width="1" fill="none" marker-end="url(#SvgjsMarker1100)"></path></g><g id="SvgjsG1102"><path id="SvgjsPath1103" d="M380.00624084472656 356.5L380.00624084472656 421.5999975204468L227.80624084472652 421.5999975204468" stroke="#323232" stroke-width="1" fill="none" marker-end="url(#SvgjsMarker1104)"></path></g><g id="SvgjsG1106" transform="translate(239.50624084472656,288.5999984741211)"><path id="SvgjsPath1107" d="M 0 0L 35 0L 35 35L 0 35Z" stroke="none" fill="none"></path><g id="SvgjsG1108"><text id="SvgjsText1109" font-family="&quot;Times New Roman&quot;" text-anchor="middle" font-size="13px" width="35px" fill="#323232" font-weight="700" align="middle" lineHeight="125%" anchor="middle" family="&quot;Times New Roman&quot;" size="13px" weight="700" font-style="" opacity="1" y="7.375" transform="rotate(0)"><tspan id="SvgjsTspan1110" dy="16" x="17.5"><tspan id="SvgjsTspan1111" style="text-decoration:;">Y</tspan></tspan></text></g></g><g id="SvgjsG1112" transform="translate(346.50624084472656,384.5999984741211)"><path id="SvgjsPath1113" d="M 0 0L 35 0L 35 35L 0 35Z" stroke="none" fill="none"></path><g id="SvgjsG1114"><text id="SvgjsText1115" font-family="&quot;Times New Roman&quot;" text-anchor="middle" font-size="13px" width="35px" fill="#323232" font-weight="700" align="middle" lineHeight="125%" anchor="middle" family="&quot;Times New Roman&quot;" size="13px" weight="700" font-style="" opacity="1" y="7.375" transform="rotate(0)"><tspan id="SvgjsTspan1116" dy="16" x="17.5"><tspan id="SvgjsTspan1117" style="text-decoration:;">Y</tspan></tspan></text></g></g><g id="SvgjsG1118"><path id="SvgjsPath1119" d="M470.50624084472656 326L500.00624084472656 326L500.00624084472656 586.0999984741211L160.30624084472652 586.0999984741211" stroke="#323232" stroke-width="1" fill="none" marker-end="url(#SvgjsMarker1120)"></path></g><g id="SvgjsG1122" transform="translate(465.50624084472656,288.5999984741211)"><path id="SvgjsPath1123" d="M 0 0L 35 0L 35 35L 0 35Z" stroke="none" fill="none"></path><g id="SvgjsG1124"><text id="SvgjsText1125" font-family="&quot;Times New Roman&quot;" text-anchor="middle" font-size="13px" width="35px" fill="#323232" font-weight="700" align="middle" lineHeight="125%" anchor="middle" family="&quot;Times New Roman&quot;" size="13px" weight="700" font-style="" opacity="1" y="7.375" transform="rotate(0)"><tspan id="SvgjsTspan1126" dy="16" x="17.5"><tspan id="SvgjsTspan1127" style="text-decoration:;">N</tspan></tspan></text></g></g></svg>