<svg id="SvgjsSvg1006" width="630" height="262" xmlns="http://www.w3.org/2000/svg" version="1.1" xmlns:xlink="http://www.w3.org/1999/xlink" xmlns:svgjs="http://svgjs.com/svgjs"><defs id="SvgjsDefs1007"><marker id="SvgjsMarker1040" markerWidth="12" markerHeight="8" refX="9" refY="4" viewBox="0 0 12 8" orient="auto" markerUnits="userSpaceOnUse" stroke-dasharray="0,0"><path id="SvgjsPath1041" d="M0,0 L12,4 L0,8 L0,0" fill="#323232" stroke="#323232" stroke-width="1"></path></marker><marker id="SvgjsMarker1044" markerWidth="12" markerHeight="8" refX="9" refY="4" viewBox="0 0 12 8" orient="auto" markerUnits="userSpaceOnUse" stroke-dasharray="0,0"><path id="SvgjsPath1045" d="M0,0 L12,4 L0,8 L0,0" fill="#323232" stroke="#323232" stroke-width="1"></path></marker><marker id="SvgjsMarker1048" markerWidth="12" markerHeight="8" refX="9" refY="4" viewBox="0 0 12 8" orient="auto" markerUnits="userSpaceOnUse" stroke-dasharray="0,0"><path id="SvgjsPath1049" d="M0,0 L12,4 L0,8 L0,0" fill="#323232" stroke="#323232" stroke-width="1"></path></marker><marker id="SvgjsMarker1052" markerWidth="12" markerHeight="8" refX="9" refY="4" viewBox="0 0 12 8" orient="auto" markerUnits="userSpaceOnUse" stroke-dasharray="0,0"><path id="SvgjsPath1053" d="M0,0 L12,4 L0,8 L0,0" fill="#323232" stroke="#323232" stroke-width="1"></path></marker><marker id="SvgjsMarker1056" markerWidth="12" markerHeight="8" refX="9" refY="4" viewBox="0 0 12 8" orient="auto" markerUnits="userSpaceOnUse" stroke-dasharray="0,0"><path id="SvgjsPath1057" d="M0,0 L12,4 L0,8 L0,0" fill="#323232" stroke="#323232" stroke-width="1"></path></marker></defs><g id="SvgjsG1008" transform="translate(25,112.5)"><path id="SvgjsPath1009" d="M 15 0L 75 0C 95 0 95 45 75 45L 15 45C -5 45 -5 0 15 0Z" stroke="rgba(50,50,50,1)" stroke-width="1" fill-opacity="1" fill="#cce5ff"></path><g id="SvgjsG1010"><text id="SvgjsText1011" font-family="&quot;Times New Roman&quot;" text-anchor="middle" font-size="13px" width="70px" fill="#323232" font-weight="400" align="middle" lineHeight="125%" anchor="middle" family="&quot;Times New Roman&quot;" size="13px" weight="400" font-style="" opacity="1" y="12.375" transform="rotate(0)"><tspan id="SvgjsTspan1012" dy="16" x="45"><tspan id="SvgjsTspan1013" style="text-decoration:;">Running</tspan></tspan></text></g></g><g id="SvgjsG1014" transform="translate(177,48.5)"><path id="SvgjsPath1015" d="M 15 0L 75 0C 95 0 95 45 75 45L 15 45C -5 45 -5 0 15 0Z" stroke="rgba(50,50,50,1)" stroke-width="1" fill-opacity="1" fill="#ffe6cc"></path><g id="SvgjsG1016"><text id="SvgjsText1017" font-family="&quot;Times New Roman&quot;" text-anchor="middle" font-size="13px" width="70px" fill="#323232" font-weight="400" align="middle" lineHeight="125%" anchor="middle" family="&quot;Times New Roman&quot;" size="13px" weight="400" font-style="" opacity="1" y="12.375" transform="rotate(0)"><tspan id="SvgjsTspan1018" dy="16" x="45"><tspan id="SvgjsTspan1019" style="text-decoration:;">Shutdown</tspan></tspan></text></g></g><g id="SvgjsG1020" transform="translate(177,183.5)"><path id="SvgjsPath1021" d="M 15 0L 75 0C 95 0 95 45 75 45L 15 45C -5 45 -5 0 15 0Z" stroke="rgba(50,50,50,1)" stroke-width="1" fill-opacity="1" fill="#ffe6cc"></path><g id="SvgjsG1022"><text id="SvgjsText1023" font-family="&quot;Times New Roman&quot;" text-anchor="middle" font-size="13px" width="70px" fill="#323232" font-weight="400" align="middle" lineHeight="125%" anchor="middle" family="&quot;Times New Roman&quot;" size="13px" weight="400" font-style="" opacity="1" y="12.375" transform="rotate(0)"><tspan id="SvgjsTspan1024" dy="16" x="45"><tspan id="SvgjsTspan1025" style="text-decoration:;">Stop</tspan></tspan></text></g></g><g id="SvgjsG1026" transform="translate(325,112.5)"><path id="SvgjsPath1027" d="M 15 0L 75 0C 95 0 95 45 75 45L 15 45C -5 45 -5 0 15 0Z" stroke="rgba(50,50,50,1)" stroke-width="1" fill-opacity="1" fill="#f5f5f5"></path><g id="SvgjsG1028"><text id="SvgjsText1029" font-family="&quot;Times New Roman&quot;" text-anchor="middle" font-size="13px" width="70px" fill="#323232" font-weight="400" align="middle" lineHeight="125%" anchor="middle" family="&quot;Times New Roman&quot;" size="13px" weight="400" font-style="" opacity="1" y="12.375" transform="rotate(0)"><tspan id="SvgjsTspan1030" dy="16" x="45"><tspan id="SvgjsTspan1031" style="text-decoration:;">Tidying</tspan></tspan></text></g></g><g id="SvgjsG1032" transform="translate(515,112.5)"><path id="SvgjsPath1033" d="M 15 0L 75 0C 95 0 95 45 75 45L 15 45C -5 45 -5 0 15 0Z" stroke="rgba(50,50,50,1)" stroke-width="1" fill-opacity="1" fill="#ffffff"></path><g id="SvgjsG1034"><text id="SvgjsText1035" font-family="&quot;Times New Roman&quot;" text-anchor="middle" font-size="13px" width="70px" fill="#323232" font-weight="400" align="middle" lineHeight="125%" anchor="middle" family="&quot;Times New Roman&quot;" size="13px" weight="400" font-style="" opacity="1" y="12.375" transform="rotate(0)"><tspan id="SvgjsTspan1036" dy="16" x="45"><tspan id="SvgjsTspan1037" style="text-decoration:;">Terminated</tspan></tspan></text></g></g><g id="SvgjsG1038"><path id="SvgjsPath1039" d="M70 112L70 71L175.20000000000005 71" stroke="#323232" stroke-width="1" fill="none" marker-end="url(#SvgjsMarker1040)"></path></g><g id="SvgjsG1042"><path id="SvgjsPath1043" d="M267.5 71L370 71L370 110.69999999999999" stroke="#323232" stroke-width="1" fill="none" marker-end="url(#SvgjsMarker1044)"></path></g><g id="SvgjsG1046"><path id="SvgjsPath1047" d="M70 158L70 206L175.20000000000005 206" stroke="#323232" stroke-width="1" fill="none" marker-end="url(#SvgjsMarker1048)"></path></g><g id="SvgjsG1050"><path id="SvgjsPath1051" d="M267.5 206L370 206L370 159.3" stroke="#323232" stroke-width="1" fill="none" marker-end="url(#SvgjsMarker1052)"></path></g><g id="SvgjsG1054"><path id="SvgjsPath1055" d="M415.5 135L465 135L465 135L513.2 135" stroke="#323232" stroke-width="1" fill="none" marker-end="url(#SvgjsMarker1056)"></path></g><g id="SvgjsG1058" transform="translate(70,40)"><path id="SvgjsPath1059" d="M 0 0L 100 0L 100 30L 0 30Z" stroke="none" fill="none"></path><g id="SvgjsG1060"><text id="SvgjsText1061" font-family="&quot;Times New Roman&quot;" text-anchor="middle" font-size="13px" width="100px" fill="#688f4e" font-weight="400" align="middle" lineHeight="125%" anchor="middle" family="&quot;Times New Roman&quot;" size="13px" weight="400" font-style="" opacity="1" y="4.875" transform="rotate(0)"><tspan id="SvgjsTspan1062" dy="16" x="50"><tspan id="SvgjsTspan1063" style="text-decoration:;">shutdown()</tspan></tspan></text></g></g><g id="SvgjsG1064" transform="translate(70,207)"><path id="SvgjsPath1065" d="M 0 0L 100 0L 100 30L 0 30Z" stroke="none" fill="none"></path><g id="SvgjsG1066"><text id="SvgjsText1067" font-family="&quot;Times New Roman&quot;" text-anchor="middle" font-size="13px" width="100px" fill="#688f4e" font-weight="400" align="middle" lineHeight="125%" anchor="middle" family="&quot;Times New Roman&quot;" size="13px" weight="400" font-style="" opacity="1" y="4.875" transform="rotate(0)"><tspan id="SvgjsTspan1068" dy="16" x="50"><tspan id="SvgjsTspan1069" style="text-decoration:;">shutdownNow()</tspan></tspan></text></g></g><g id="SvgjsG1070" transform="translate(414,105)"><path id="SvgjsPath1071" d="M 0 0L 100 0L 100 30L 0 30Z" stroke="none" fill="none"></path><g id="SvgjsG1072"><text id="SvgjsText1073" font-family="&quot;Times New Roman&quot;" text-anchor="middle" font-size="13px" width="100px" fill="#688f4e" font-weight="400" align="middle" lineHeight="125%" anchor="middle" family="&quot;Times New Roman&quot;" size="13px" weight="400" font-style="" opacity="1" y="4.875" transform="rotate(0)"><tspan id="SvgjsTspan1074" dy="16" x="50"><tspan id="SvgjsTspan1075" style="text-decoration:;">terminated()</tspan></tspan></text></g></g><g id="SvgjsG1076" transform="translate(295,207)"><path id="SvgjsPath1077" d="M 0 0L 150 0L 150 30L 0 30Z" stroke="none" fill="none"></path><g id="SvgjsG1078"><text id="SvgjsText1079" font-family="&quot;Times New Roman&quot;" text-anchor="middle" font-size="13px" width="150px" fill="#688f4e" font-weight="400" align="middle" lineHeight="125%" anchor="middle" family="&quot;Times New Roman&quot;" size="13px" weight="400" font-style="" opacity="1" y="4.875" transform="rotate(0)"><tspan id="SvgjsTspan1080" dy="16" x="75"><tspan id="SvgjsTspan1081" style="text-decoration:;">线程池中执行任务为空</tspan></tspan></text></g></g><g id="SvgjsG1082" transform="translate(295,25)"><path id="SvgjsPath1083" d="M 0 0L 150 0L 150 45L 0 45Z" stroke="none" fill="none"></path><g id="SvgjsG1084"><text id="SvgjsText1085" font-family="&quot;Times New Roman&quot;" text-anchor="start" font-size="13px" width="150px" fill="#688f4e" font-weight="400" align="middle" lineHeight="125%" anchor="start" family="&quot;Times New Roman&quot;" size="13px" weight="400" font-style="" opacity="1" y="4.375" transform="rotate(0)"><tspan id="SvgjsTspan1086" dy="16" x="0"><tspan id="SvgjsTspan1087" style="text-decoration:;">1. 队列为空</tspan></tspan><tspan id="SvgjsTspan1088" dy="16" x="0"><tspan id="SvgjsTspan1089" style="text-decoration:;">2. 线程池中执行任务为空</tspan></tspan></text></g></g></svg>